<svg width="91" height="63" viewBox="0 0 91 63" fill="none" xmlns="http://www.w3.org/2000/svg">
<path d="M2.48282 37.7264L2.39764 36.6672C2.40492 36.6503 2.49084 36.6021 2.6554 36.5226C2.82724 36.4262 3.05353 36.3081 3.33425 36.1683C3.61016 36.0165 3.92236 35.8502 4.27086 35.6695C4.61936 35.4887 4.9739 35.3056 5.3345 35.1201C5.70719 34.9297 6.06779 34.7442 6.41628 34.5634C6.77688 34.3779 7.10723 34.2044 7.40733 34.0429C7.40733 34.0429 7.46177 34.0212 7.57066 33.9779C7.67954 33.9346 7.80052 33.8864 7.9336 33.8335C8.06668 33.7805 8.1937 33.73 8.31468 33.6818C8.43567 33.6337 8.5143 33.6024 8.5506 33.5879C8.84095 33.4724 9.06223 33.4474 9.21445 33.5129C9.36666 33.5785 9.51498 33.7927 9.65942 34.1557L6.50832 35.8511C6.78744 36.6229 7.11729 37.4166 7.49789 38.2321C7.87849 39.0476 8.27599 39.8704 8.69042 40.7005C9.10002 41.5184 9.50117 42.3328 9.89387 43.1435C10.2987 43.9493 10.6527 44.7334 10.956 45.4955C10.9994 45.6044 10.9944 45.6975 10.941 45.7748C10.895 45.8351 10.826 45.8906 10.734 45.9413C10.6541 45.9871 10.561 46.0171 10.4546 46.0314C10.353 46.0579 10.2611 46.0734 10.1789 46.0781C10.08 45.9353 9.93535 45.6775 9.74499 45.3048C9.55463 44.9321 9.33779 44.4929 9.09447 43.9871C8.85115 43.4813 8.59098 42.9332 8.31396 42.3428C8.03694 41.7523 7.75992 41.1619 7.4829 40.5714C7.20587 39.9809 6.94089 39.4207 6.68794 38.8908C6.43018 38.3487 6.20735 37.8768 6.01946 37.4751C5.82675 37.0613 5.67257 36.7443 5.55689 36.5241C5.45332 36.299 5.40752 36.2191 5.41949 36.2844L2.48282 37.7264ZM13.042 43.1309C12.7676 42.4413 12.7553 41.8646 13.0052 41.4008C13.2671 40.9322 13.7066 40.5751 14.3236 40.3295C14.5656 40.2333 14.7918 40.1502 15.0023 40.0805C15.2248 40.0059 15.4425 39.9543 15.6554 39.9257C15.8682 39.897 16.0846 39.895 16.3046 39.9196C16.5367 39.9393 16.7917 39.999 17.0695 40.0986C17.0551 40.0623 17.0262 39.9897 16.9829 39.8809C16.9468 39.7551 16.9023 39.6256 16.8494 39.4926C16.7964 39.3595 16.7483 39.2385 16.7049 39.1296C16.6568 39.0086 16.6231 38.9239 16.6038 38.8756C16.5051 38.6626 16.3883 38.3868 16.2535 38.048C16.1139 37.6972 15.9416 37.3523 15.7367 37.0134C15.5438 36.6698 15.2977 36.3683 14.9984 36.1091C14.7111 35.845 14.3523 35.7005 13.9219 35.6756C13.6679 35.7767 13.4488 35.9129 13.2648 36.0843C13.0807 36.2556 12.899 36.433 12.7198 36.6164C12.5405 36.7999 12.3589 36.9773 12.1748 37.1486C11.986 37.3079 11.7645 37.4381 11.5104 37.5392C11.3901 37.2367 11.3821 36.9526 11.4865 36.6868C11.5983 36.4041 11.7655 36.1554 11.9884 35.9406C12.2112 35.7258 12.4605 35.5424 12.7365 35.3906C13.0124 35.2387 13.2592 35.1195 13.477 35.0328C13.7092 34.9825 13.9256 34.9454 14.1264 34.9215C14.3392 34.8929 14.5531 34.9199 14.7682 35.0025C14.9953 35.0802 15.2356 35.2439 15.4891 35.4934C15.7498 35.7259 16.0345 36.0891 16.3431 36.5829C16.6638 37.0719 17.0242 37.7133 17.4241 38.5071C17.8314 39.2839 18.2951 40.2555 18.8154 41.4219C18.9021 41.5695 18.9031 41.7303 18.8181 41.9043C18.7405 42.0613 18.6096 42.2255 18.4256 42.3968C18.2367 42.5561 18.0152 42.7213 17.761 42.8925C17.5141 43.0468 17.2563 43.1915 16.9877 43.3264C16.7191 43.4613 16.4601 43.5854 16.2109 43.6986C15.9616 43.8118 15.7523 43.9021 15.583 43.9695C15.3652 44.0562 15.1269 44.1089 14.8682 44.1278C14.6215 44.1419 14.375 44.1209 14.1284 44.0649C13.8892 43.9919 13.6706 43.8827 13.4725 43.7373C13.2818 43.575 13.1383 43.3728 13.042 43.1309ZM14.8956 40.9217C14.3581 41.3318 14.0165 41.706 13.8708 42.0443C13.7204 42.3704 13.7005 42.6376 13.8114 42.8457C13.9344 43.049 14.159 43.1909 14.4853 43.2712C14.8067 43.3395 15.161 43.3316 15.548 43.2477C15.9302 43.1517 16.3113 42.9649 16.6914 42.6875C17.0667 42.3981 17.3805 42.0069 17.6328 41.5141C17.348 41.221 17.0969 41.0126 16.8796 40.889C16.6573 40.7532 16.4423 40.6706 16.2344 40.6412C16.0265 40.6118 15.8149 40.6259 15.5996 40.6836C15.3843 40.7412 15.1497 40.8206 14.8956 40.9217ZM18.6885 37.2471C18.6546 37.3027 18.5928 37.3413 18.5033 37.3629C18.4138 37.3845 18.328 37.3976 18.2458 37.4023C18.1587 37.3949 18.0753 37.379 17.9956 37.3547C17.9231 37.3135 17.8724 37.2566 17.8436 37.184C17.6799 36.7727 17.6576 36.3471 17.7769 35.9072C17.8913 35.4553 18.0879 35.0337 18.3667 34.6425C18.6406 34.2392 18.9628 33.8867 19.3333 33.5851C19.6989 33.2714 20.0572 33.0448 20.408 32.9052C20.9645 32.6837 21.5051 32.5807 22.0298 32.5961C22.5617 32.5946 23.05 32.6946 23.4945 32.8961C23.9511 33.0927 24.3508 33.3751 24.6935 33.7433C25.0483 34.1066 25.3244 34.5362 25.5218 35.0323C25.7843 35.6565 25.8678 36.289 25.7723 36.9295C25.689 37.5653 25.48 38.167 25.1453 38.7346C24.818 39.2853 24.3964 39.7754 23.8806 40.2049C23.3721 40.6175 22.8239 40.9127 22.2361 41.0906C22.4336 41.5165 22.6249 42.0149 22.8101 42.5859C23.0001 43.1689 23.1973 43.8052 23.4016 44.4947C23.6059 45.1841 23.8065 45.9171 24.0034 46.6936C24.2172 47.4774 24.4322 48.2817 24.6484 49.1066C24.6532 49.1187 24.6193 49.1392 24.5467 49.1681C24.4741 49.197 24.3907 49.2162 24.2963 49.2257C24.2189 49.2424 24.1331 49.2556 24.0388 49.2651C23.9614 49.2819 23.919 49.2987 23.9117 49.3157C23.5968 48.2778 23.2589 47.2351 22.8981 46.1875C22.5372 45.1399 22.1437 44.0983 21.7176 43.0627C21.2963 42.0392 20.835 41.0386 20.3338 40.0608C19.8326 39.0831 19.2842 38.1452 18.6885 37.2471ZM20.5947 34.0081C20.3696 34.1116 20.1361 34.2466 19.894 34.413C19.6471 34.5674 19.4425 34.7399 19.2801 34.9306C19.1178 35.1213 19.0123 35.3315 18.9635 35.5611C18.9147 35.7907 18.9615 36.0314 19.1037 36.2831C19.176 36.3945 19.2761 36.5579 19.4038 36.7733C19.5437 36.9839 19.6956 37.2247 19.8596 37.4958C20.0356 37.7621 20.2104 38.0429 20.384 38.3382C20.5696 38.6287 20.7444 38.9094 20.9084 39.1805C21.0844 39.4468 21.2387 39.6937 21.3713 39.9212C21.5112 40.1318 21.6173 40.2928 21.6896 40.4042C21.8252 40.3222 22.0212 40.2161 22.2777 40.086C22.5343 39.9559 22.7993 39.7944 23.0729 39.6014C23.3464 39.4085 23.6164 39.1889 23.8828 38.9428C24.1565 38.6797 24.3867 38.3779 24.5735 38.0373C24.7603 37.6967 24.8891 37.3161 24.96 36.8955C25.0381 36.458 25.0124 35.9707 24.8828 35.4337C24.695 34.9619 24.449 34.5903 24.1448 34.319C23.8407 34.0476 23.5001 33.8608 23.1231 33.7586C22.7412 33.6443 22.3314 33.6182 21.8937 33.6803C21.4632 33.7255 21.0302 33.8347 20.5947 34.0081ZM34.7597 28.6652C34.6364 28.6723 34.4804 28.7203 34.2916 28.8095C34.1102 28.8817 33.9154 28.9732 33.7072 29.0841C33.5064 29.178 33.314 29.2756 33.13 29.3768C32.9461 29.4781 32.7876 29.5552 32.6545 29.6081C32.594 29.6322 32.518 29.5644 32.4264 29.4046C32.3421 29.228 32.2216 28.9956 32.0649 28.7076L34.5514 27.5079C34.4192 27.07 34.323 26.7579 34.2629 26.5716C34.2028 26.3854 34.1426 26.2341 34.0824 26.118C34.0294 25.9849 33.9656 25.8421 33.8909 25.6897C33.8235 25.5203 33.72 25.2602 33.5804 24.9093C33.8757 24.7358 34.1068 24.6298 34.2737 24.5914C34.4478 24.5361 34.5796 24.5327 34.669 24.5812C34.7584 24.6297 34.8259 24.729 34.8716 24.879C34.9245 25.012 34.9738 25.1886 35.0194 25.4087C35.077 25.624 35.1515 25.8817 35.2429 26.1817C35.3463 26.4768 35.4884 26.7987 35.6691 27.1472L37.8179 26.208L38.1718 27.0972C38.075 27.1357 37.9262 27.2019 37.7253 27.2958C37.5245 27.3898 37.3055 27.491 37.0683 27.5993C36.8433 27.7029 36.6303 27.8017 36.4295 27.8956C36.2407 27.9848 36.1052 28.0667 36.0228 28.1415C36.0994 28.6156 36.1819 29.1223 36.2704 29.6616C36.3589 30.201 36.4813 30.7198 36.6376 31.2182C36.7939 31.7166 36.9865 32.1654 37.2155 32.5648C37.4397 32.9521 37.7282 33.2367 38.0809 33.4186C38.4287 33.5885 38.8482 33.6388 39.3391 33.5695C39.8253 33.4882 40.4036 33.216 41.0742 32.7529C41.1222 32.944 41.1098 33.1241 41.037 33.2933C40.9714 33.4455 40.8744 33.5892 40.7461 33.7243C40.625 33.8426 40.4869 33.9536 40.332 34.0573C40.1723 34.1489 40.0259 34.2212 39.8928 34.2741C39.2758 34.5197 38.7425 34.6058 38.2929 34.5324C37.8385 34.447 37.4483 34.2589 37.1224 33.9682C36.7965 33.6775 36.5179 33.3119 36.2865 32.8714C36.0504 32.4189 35.842 31.9482 35.6615 31.4595C35.4932 30.9659 35.3393 30.4736 35.1999 29.9825C35.0605 29.4915 34.9138 29.0524 34.7597 28.6652ZM40.8142 30.0396C40.7035 29.7613 40.6001 29.4311 40.504 29.0489C40.4032 28.6546 40.3326 28.2483 40.2922 27.8299C40.2518 27.4115 40.2381 26.9896 40.2509 26.564C40.2758 26.1337 40.3479 25.7337 40.467 25.3639C40.5813 24.9821 40.756 24.6463 40.991 24.3566C41.2213 24.0547 41.5239 23.8292 41.8989 23.6799C42.2861 23.5259 42.6959 23.5169 43.1285 23.6531C43.5732 23.7844 43.9947 24.0161 44.393 24.3481C44.8035 24.6752 45.1728 25.0748 45.5008 25.5469C45.8288 26.0189 46.0794 26.5078 46.2526 27.0134C46.5414 27.7393 46.6599 28.4419 46.6079 29.1213C46.556 29.8006 46.382 30.4024 46.0861 30.9265C45.8023 31.4459 45.4365 31.8648 44.9886 32.1831C44.5528 32.4967 44.081 32.6494 43.5733 32.6413C43.0728 32.6162 42.5739 32.4013 42.0765 31.9967C41.5913 31.5872 41.1705 30.9348 40.8142 30.0396ZM41.5145 29.8449C41.8445 30.5685 42.1978 31.0865 42.5745 31.3991C42.9511 31.7117 43.3171 31.8743 43.6725 31.887C44.0352 31.8828 44.374 31.748 44.6888 31.4826C45.0036 31.2172 45.2581 30.8707 45.4523 30.4431C45.6416 30.0033 45.7537 29.5103 45.7885 28.9639C45.8306 28.4006 45.7482 27.8238 45.5413 27.2334C45.3922 26.7883 45.1874 26.3793 44.9269 26.0065C44.6785 25.6288 44.4071 25.3164 44.1125 25.0693C43.8252 24.8052 43.5245 24.6306 43.2103 24.5454C42.9034 24.4434 42.5988 24.4525 42.2963 24.5729C42.006 24.6884 41.7747 24.8645 41.6027 25.1012C41.4306 25.3378 41.2983 25.6217 41.2058 25.9528C41.1207 26.267 41.0741 26.6078 41.0662 26.9753C41.0583 27.3428 41.0686 27.7031 41.097 28.0562C41.1374 28.4044 41.1937 28.7394 41.2657 29.0611C41.3449 29.3659 41.4279 29.6272 41.5145 29.8449ZM56.1229 26.0914C56.3407 26.0048 56.5571 25.9677 56.7723 25.9802C56.9996 25.9878 57.2256 26.01 57.4504 26.0466C57.6704 26.0712 57.888 26.0897 58.1031 26.1022C58.3256 26.0977 58.5457 26.0522 58.7635 25.9655C59.0175 25.8644 59.2608 25.7186 59.4932 25.528C59.733 25.3204 59.9365 25.0923 60.1038 24.8435C60.2662 24.5827 60.3743 24.3085 60.428 24.0208C60.4769 23.7211 60.446 23.4321 60.3352 23.1538C60.3136 23.0643 60.2727 22.9615 60.2125 22.8453C60.1643 22.7244 60.0799 22.6178 59.9591 22.5257C59.8336 22.4215 59.6645 22.3487 59.4518 22.3072C59.2342 22.2536 58.9501 22.2616 58.5994 22.3311C58.2608 22.3958 57.8495 22.5244 57.3656 22.717C56.8769 22.8975 56.2949 23.1782 55.6196 23.559C55.4381 23.6312 55.2434 23.6526 55.0356 23.6233C54.8228 23.5818 54.6211 23.5149 54.4302 23.4227C54.2346 23.3184 54.0607 23.1984 53.9086 23.0627C53.7517 22.915 53.6419 22.7625 53.5793 22.6052C53.3916 22.1334 53.3367 21.7137 53.4147 21.3464C53.5 20.9621 53.6662 20.6226 53.9134 20.3281C54.1557 20.0214 54.456 19.7548 54.8143 19.5281C55.1725 19.3015 55.5513 19.1087 55.9505 18.9498C56.132 18.8776 56.3424 18.8079 56.5819 18.7406C56.8287 18.6564 57.0657 18.6181 57.293 18.6258C57.5276 18.6165 57.7451 18.6701 57.9456 18.7865C58.1581 18.8981 58.3246 19.1051 58.445 19.4076C58.5026 19.6229 58.5169 19.7644 58.4877 19.832C58.4659 19.8827 58.4006 19.8947 58.2918 19.8679C58.1904 19.8242 58.0611 19.7635 57.9041 19.6859C57.747 19.6083 57.5682 19.5463 57.3676 19.5C57.1743 19.4368 56.9567 19.4183 56.7149 19.4444C56.4851 19.4658 56.2492 19.5597 56.0072 19.7261C55.7289 19.8368 55.4627 19.9778 55.2085 20.149C54.9495 20.3082 54.7316 20.5 54.5546 20.7245C54.3898 20.9443 54.2806 21.198 54.2269 21.4856C54.1853 21.7684 54.2343 22.0853 54.3739 22.4361C54.4461 22.6176 54.5753 22.7133 54.7615 22.7233C54.9549 22.7164 55.1847 22.66 55.4509 22.5541C55.7292 22.4433 56.0352 22.3145 56.3692 22.1676C56.7104 22.0038 57.0625 21.8497 57.4254 21.7052C57.7883 21.5608 58.1512 21.4514 58.514 21.3771C58.872 21.2907 59.2118 21.2816 59.5332 21.3499C59.862 21.4012 60.1591 21.5492 60.4247 21.7939C60.6902 22.0386 60.9011 22.4101 61.0574 22.9085C61.197 23.2593 61.2266 23.6329 61.1461 24.0293C61.0777 24.4209 60.9344 24.8003 60.7161 25.1674C60.5052 25.5176 60.2386 25.8339 59.9166 26.1162C59.5945 26.3986 59.2508 26.5914 58.8855 26.6947C58.7355 26.7404 58.5215 26.7836 58.2433 26.8242C57.9725 26.8479 57.692 26.8474 57.4019 26.8227C57.1239 26.7932 56.8665 26.7275 56.6297 26.6255C56.3881 26.5114 56.2192 26.3334 56.1229 26.0914ZM62.5066 17.6231C62.3832 17.6301 62.2272 17.6782 62.0385 17.7673C61.857 17.8395 61.6622 17.9311 61.454 18.0419C61.2532 18.1359 61.0608 18.2335 60.8769 18.3347C60.6929 18.4359 60.5344 18.513 60.4013 18.566C60.3408 18.59 60.2648 18.5222 60.1732 18.3625C60.0889 18.1858 59.9684 17.9535 59.8117 17.6655L62.2982 16.4657C62.166 16.0278 62.0699 15.7158 62.0097 15.5295C61.9496 15.3432 61.8894 15.192 61.8292 15.0758C61.7762 14.9427 61.7124 14.8 61.6377 14.6475C61.5703 14.4781 61.4668 14.218 61.3272 13.8672C61.6225 13.6936 61.8536 13.5876 62.0205 13.5492C62.1947 13.4939 62.3265 13.4905 62.4158 13.539C62.5052 13.5876 62.5727 13.6868 62.6184 13.8368C62.6714 13.9699 62.7206 14.1465 62.7662 14.3666C62.8238 14.5819 62.8983 14.8395 62.9897 15.1395C63.0931 15.4347 63.2352 15.7565 63.416 16.105L65.5647 15.1658L65.9186 16.055C65.8218 16.0935 65.673 16.1597 65.4721 16.2537C65.2713 16.3476 65.0523 16.4488 64.8151 16.5572C64.5901 16.6608 64.3771 16.7595 64.1763 16.8535C63.9875 16.9426 63.852 17.0246 63.7696 17.0994C63.8462 17.5734 63.9287 18.0801 64.0172 18.6195C64.1057 19.1588 64.2281 19.6777 64.3844 20.176C64.5407 20.6744 64.7334 21.1233 64.9624 21.5226C65.1865 21.9099 65.475 22.1945 65.8277 22.3765C66.1756 22.5463 66.595 22.5966 67.0859 22.5274C67.5721 22.446 68.1504 22.1738 68.821 21.7108C68.869 21.9019 68.8566 22.082 68.7838 22.2511C68.7182 22.4033 68.6213 22.547 68.4929 22.6822C68.3718 22.8004 68.2338 22.9114 68.0788 23.0151C67.9191 23.1067 67.7727 23.179 67.6396 23.232C67.0226 23.4775 66.4893 23.5636 66.0397 23.4903C65.5853 23.4049 65.1951 23.2168 64.8692 22.9261C64.5433 22.6353 64.2647 22.2697 64.0333 21.8293C63.7972 21.3767 63.5889 20.9061 63.4084 20.4173C63.24 19.9238 63.0861 19.4315 62.9467 18.9404C62.8074 18.4493 62.6606 18.0102 62.5066 17.6231ZM69.1708 20.7938C68.8964 20.1042 68.8841 19.5275 69.134 19.0637C69.3959 18.5951 69.8354 18.238 70.4524 17.9925C70.6944 17.8962 70.9206 17.8131 71.1311 17.7434C71.3536 17.6688 71.5713 17.6172 71.7842 17.5886C71.997 17.56 72.2134 17.5579 72.4334 17.5825C72.6655 17.6022 72.9205 17.6619 73.1983 17.7615C73.1839 17.7252 73.155 17.6527 73.1117 17.5438C73.0756 17.418 73.0311 17.2885 72.9782 17.1555C72.9252 17.0224 72.8771 16.9014 72.8337 16.7925C72.7856 16.6715 72.7519 16.5869 72.7326 16.5385C72.6339 16.3255 72.5171 16.0497 72.3823 15.7109C72.2426 15.3601 72.0704 15.0152 71.8654 14.6764C71.6726 14.3327 71.4265 14.0312 71.1272 13.772C70.8399 13.5079 70.4811 13.3634 70.0507 13.3385C69.7967 13.4396 69.5776 13.5758 69.3936 13.7472C69.2095 13.9185 69.0278 14.0959 68.8486 14.2794C68.6693 14.4628 68.4877 14.6402 68.3036 14.8115C68.1147 14.9708 67.8933 15.101 67.6392 15.2021C67.5189 14.8996 67.5109 14.6155 67.6153 14.3497C67.7271 14.067 67.8943 13.8183 68.1172 13.6035C68.34 13.3887 68.5893 13.2053 68.8653 13.0535C69.1412 12.9017 69.388 12.7824 69.6058 12.6957C69.838 12.6454 70.0544 12.6083 70.2552 12.5845C70.468 12.5558 70.6819 12.5828 70.897 12.6654C71.1241 12.7431 71.3644 12.9068 71.6179 13.1563C71.8786 13.3888 72.1633 13.752 72.4719 14.2458C72.7926 14.7348 73.153 15.3762 73.5529 16.17C73.9602 16.9468 74.4239 17.9184 74.9442 19.0848C75.0309 19.2324 75.0319 19.3932 74.9469 19.5672C74.8693 19.7242 74.7384 19.8884 74.5544 20.0597C74.3655 20.219 74.144 20.3842 73.8898 20.5554C73.6429 20.7098 73.3851 20.8544 73.1165 20.9893C72.8479 21.1242 72.5889 21.2483 72.3397 21.3615C72.0904 21.4747 71.8811 21.565 71.7118 21.6324C71.494 21.7191 71.2557 21.7719 70.997 21.7907C70.7503 21.8048 70.5038 21.7838 70.2572 21.7278C70.018 21.6548 69.7993 21.5456 69.6013 21.4002C69.4106 21.2379 69.2671 21.0357 69.1708 20.7938ZM71.0244 18.5846C70.4869 18.9947 70.1453 19.3689 69.9996 19.7072C69.8492 20.0333 69.8293 20.3005 69.9402 20.5086C70.0632 20.7119 70.2878 20.8538 70.6141 20.9341C70.9355 21.0024 71.2898 20.9946 71.6768 20.9106C72.059 20.8146 72.4401 20.6279 72.8202 20.3505C73.1955 20.061 73.5093 19.6698 73.7616 19.177C73.4768 18.8839 73.2257 18.6756 73.0083 18.5519C72.7861 18.4161 72.5711 18.3335 72.3632 18.3041C72.1553 18.2747 71.9437 18.2889 71.7284 18.3465C71.5131 18.4042 71.2785 18.4835 71.0244 18.5846ZM73.1454 12.8217C73.2665 12.7034 73.3887 12.6407 73.512 12.6337C73.6353 12.6267 73.7526 12.6571 73.8637 12.725C73.9748 12.7929 74.0749 12.8862 74.1642 13.0048C74.2486 13.1113 74.327 13.2203 74.3994 13.3316C74.4507 13.0029 74.5903 12.7021 74.818 12.4293C75.0531 12.1395 75.3304 11.9031 75.6498 11.7199C75.9645 11.5246 76.2984 11.3777 76.6516 11.2792C77 11.1685 77.3132 11.128 77.5912 11.1575C77.8765 11.1701 78.1085 11.26 78.2871 11.4271C78.4609 11.5822 78.5282 11.8216 78.4889 12.1456C78.1022 12.0893 77.7117 12.0765 77.3175 12.1072C76.9354 12.1332 76.5883 12.2293 76.2761 12.3956C75.9639 12.5619 75.712 12.8092 75.5204 13.1377C75.324 13.4541 75.2265 13.8783 75.228 14.4103C75.2295 14.9422 75.3577 15.5989 75.6126 16.3803C75.8748 17.1448 76.3024 18.0608 76.8953 19.1281L76.2057 19.4026C76.2057 19.4026 76.1551 19.3106 76.0539 19.1266C75.96 18.9258 75.8359 18.6669 75.6817 18.3498C75.5396 18.028 75.371 17.6747 75.1758 17.2899C74.9927 16.9003 74.8072 16.5046 74.6194 16.1029C74.4315 15.7012 74.2508 15.3177 74.0774 14.9523C73.9112 14.5699 73.7606 14.2445 73.6257 13.9758C73.6113 13.9396 73.5763 13.8694 73.5209 13.7653C73.4776 13.6564 73.4318 13.5415 73.3837 13.4205C73.3307 13.2874 73.2826 13.1665 73.2392 13.0576C73.1959 12.9487 73.1646 12.87 73.1454 12.8217ZM81.2343 10.1701C81.111 10.1772 80.955 10.2253 80.7662 10.3144C80.5847 10.3866 80.3899 10.4781 80.1818 10.589C79.9809 10.6829 79.7885 10.7805 79.6046 10.8818C79.4207 10.983 79.2622 11.0601 79.1291 11.113C79.0686 11.1371 78.9925 11.0693 78.9009 10.9095C78.8166 10.7329 78.6961 10.5006 78.5395 10.2125L81.026 9.0128C80.8938 8.57492 80.7976 8.26284 80.7375 8.07656C80.6774 7.89027 80.6172 7.73905 80.5569 7.62288C80.504 7.4898 80.4402 7.34704 80.3655 7.19458C80.2981 7.0252 80.1946 6.7651 80.0549 6.41425C80.3502 6.24068 80.5813 6.1347 80.7482 6.09631C80.9224 6.041 81.0542 6.03761 81.1436 6.08612C81.233 6.13464 81.3005 6.23389 81.3462 6.38388C81.3991 6.51696 81.4484 6.69355 81.4939 6.91366C81.5516 7.12896 81.6261 7.3866 81.7174 7.68658C81.8209 7.98175 81.963 8.30358 82.1437 8.65208L84.2925 7.71287L84.6463 8.60208C84.5495 8.64059 84.4007 8.70682 84.1999 8.80077C83.999 8.89471 83.78 8.99588 83.5429 9.10427C83.3178 9.20784 83.1049 9.3066 82.904 9.40055C82.7153 9.48968 82.5797 9.57165 82.4974 9.64646C82.5739 10.1205 82.6565 10.6272 82.745 11.1666C82.8335 11.7059 82.9559 12.2248 83.1122 12.7231C83.2685 13.2215 83.4611 13.6704 83.6901 14.0697C83.9143 14.457 84.2027 14.7416 84.5554 14.9235C84.9033 15.0934 85.3227 15.1437 85.8137 15.0745C86.2998 14.9931 86.8782 14.7209 87.5488 14.2578C87.5968 14.4489 87.5844 14.6291 87.5115 14.7982C87.446 14.9504 87.349 15.0941 87.2206 15.2293C87.0995 15.3475 86.9615 15.4585 86.8066 15.5622C86.6468 15.6538 86.5004 15.7261 86.3674 15.779C85.7504 16.0246 85.2171 16.1107 84.7674 16.0374C84.313 15.9519 83.9229 15.7639 83.597 15.4731C83.2711 15.1824 82.9924 14.8168 82.7611 14.3764C82.5249 13.9238 82.3166 13.4531 82.1361 12.9644C81.9677 12.4709 81.8139 11.9785 81.6745 11.4875C81.5351 10.9964 81.3884 10.5573 81.2343 10.1701Z" fill="#2F2E41"/>
<path d="M63.741 62.6465C63.741 60.9504 63.127 59.4771 62.4325 57.9446C61.635 56.185 60.6745 54.5026 59.7437 52.8114C58.7373 50.9832 57.7903 49.1276 56.8572 47.2612C55.9237 45.3944 55.0166 43.5095 53.9419 41.7183C53.6196 41.1812 53.1992 40.5974 53.0001 40" stroke="#2F2E41" stroke-width="0.7" stroke-linecap="round"/>
<path d="M63.4802 61.498C63.4802 60.5228 63.5054 59.5441 63.4759 58.5694C63.4556 57.9011 63.3204 57.252 63.2601 56.5881C63.2164 56.1081 63.1917 55.6271 63.1403 55.1475C63.1028 54.7974 63.0529 54.4421 63.0529 54.09C63.0529 53.986 63.0723 53.8914 63.0723 53.7868" stroke="#2F2E41" stroke-width="0.7" stroke-linecap="round"/>
<path d="M63.519 62.1777C63.446 62.1534 63.3757 62.0541 63.3259 62.0029C63.046 61.7158 62.7694 61.426 62.4842 61.144C61.8282 60.4953 61.162 59.857 60.5084 59.2059C59.7793 58.4797 59.0375 57.771 58.3534 57.0013C58.1808 56.8072 57.9881 56.6211 57.8322 56.4132C57.7539 56.3089 57.6743 56.1999 57.5937 56.0992C57.5106 55.9952 57.4568 55.863 57.3617 55.7679" stroke="#2F2E41" stroke-width="0.7" stroke-linecap="round"/>
</svg>
