<svg width="91" height="14" viewBox="0 0 91 14" fill="none" xmlns="http://www.w3.org/2000/svg">
<path d="M0.978271 13.1474H3.50022V7.96534C3.50022 6.618 4.22572 5.87523 5.46942 5.87523C5.83217 5.87523 6.17764 5.92705 6.38492 6.01342V3.79376C6.19491 3.74194 5.93581 3.69875 5.65943 3.69875C4.57983 3.69875 3.82842 4.36379 3.55204 5.50385H3.50022V3.88876H0.978271V13.1474Z" fill="#028076"/>
<path d="M11.3597 13.3374C14.1581 13.3374 15.9459 11.541 15.9459 8.5181V8.50083C15.9459 5.50385 14.1235 3.69875 11.3511 3.69875C8.58731 3.69875 6.77358 5.52112 6.77358 8.50083V8.5181C6.77358 11.5324 8.54413 13.3374 11.3597 13.3374ZM11.3684 11.3596C10.1247 11.3596 9.33872 10.3318 9.33872 8.5181V8.50083C9.33872 6.71301 10.1333 5.67659 11.3511 5.67659C12.5775 5.67659 13.3807 6.71301 13.3807 8.50083V8.5181C13.3807 10.3232 12.5948 11.3596 11.3684 11.3596Z" fill="#028076"/>
<path d="M21.4821 13.3374C23.9522 13.3374 25.55 11.8001 25.6709 9.77908V9.72726H23.3217L23.3131 9.80499C23.1404 10.7378 22.5099 11.3596 21.4994 11.3596C20.2557 11.3596 19.4783 10.3318 19.4783 8.5181V8.50947C19.4783 6.73892 20.2557 5.67659 21.4907 5.67659C22.5358 5.67659 23.149 6.35026 23.3045 7.23122L23.3217 7.30895H25.6623V7.24849C25.5673 5.24475 23.9695 3.69875 21.4562 3.69875C18.6838 3.69875 16.9132 5.5384 16.9132 8.50083V8.50947C16.9132 11.4978 18.6578 13.3374 21.4821 13.3374Z" fill="#028076"/>
<path d="M26.8887 13.1474H29.4107V7.96534C29.4107 6.618 30.1362 5.87523 31.3799 5.87523C31.7426 5.87523 32.0881 5.92705 32.2954 6.01342V3.79376C32.1054 3.74194 31.8463 3.69875 31.5699 3.69875C30.4903 3.69875 29.7389 4.36379 29.4625 5.50385H29.4107V3.88876H26.8887V13.1474Z" fill="#028076"/>
<path d="M35.8624 13.2943C37.0802 13.2943 38.0648 12.7156 38.5916 11.7655H38.6435V13.1474H41.1654V6.79937C41.1654 4.93382 39.6194 3.69875 37.227 3.69875C34.7828 3.69875 33.3145 4.92518 33.1763 6.63527L33.1677 6.73892H35.4737L35.491 6.66118C35.6119 6.06524 36.182 5.62477 37.1234 5.62477C38.108 5.62477 38.6435 6.13434 38.6435 6.95484V7.52487L36.3547 7.66306C34.0573 7.80988 32.7531 8.79448 32.7531 10.4787V10.4959C32.7531 12.1283 34.0055 13.2943 35.8624 13.2943ZM35.2492 10.3664V10.3491C35.2492 9.69271 35.7588 9.27814 36.7347 9.21768L38.6435 9.09677V9.7618C38.6435 10.7291 37.8143 11.4546 36.6829 11.4546C35.8106 11.4546 35.2492 11.0487 35.2492 10.3664Z" fill="#028076"/>
<path d="M46.6066 13.3374C48.9904 13.3374 50.6573 12.1456 50.6573 10.3318V10.3232C50.6573 8.95858 49.8627 8.19854 47.928 7.79261L46.3561 7.45577C45.4234 7.25713 45.1038 6.9462 45.1038 6.47117V6.46254C45.1038 5.8666 45.6479 5.47794 46.5202 5.47794C47.453 5.47794 47.9971 5.97888 48.0835 6.64391L48.0921 6.71301H50.4154V6.62664C50.355 5.00291 48.9817 3.69875 46.5202 3.69875C44.1624 3.69875 42.6423 4.83882 42.6423 6.60073V6.60936C42.6423 7.99126 43.5492 8.88949 45.3456 9.26951L46.9175 9.5977C47.8244 9.79635 48.1353 10.0814 48.1353 10.5737V10.5823C48.1353 11.1782 47.5567 11.5496 46.6066 11.5496C45.5961 11.5496 45.052 11.1264 44.8879 10.4009L44.8706 10.3232H42.4091L42.4177 10.4009C42.6164 12.1542 44.0415 13.3374 46.6066 13.3374Z" fill="#028076"/>
<path d="M55.5803 13.3374C56.1071 13.3374 56.513 13.2856 56.7981 13.2424V11.3942C56.6426 11.4114 56.4785 11.4373 56.2539 11.4373C55.4939 11.4373 55.1052 11.1437 55.1052 10.28V5.78887H56.7981V3.88876H55.1052V1.62592H52.5574V3.88876H51.2705V5.78887H52.5574V10.5564C52.5574 12.5429 53.5247 13.3374 55.5803 13.3374Z" fill="#028076"/>
<path d="M59.5014 2.69688C60.2614 2.69688 60.8487 2.10094 60.8487 1.38409C60.8487 0.66723 60.2614 0.0712891 59.5014 0.0712891C58.7413 0.0712891 58.154 0.66723 58.154 1.38409C58.154 2.10094 58.7413 2.69688 59.5014 2.69688ZM58.2404 13.1474H60.7624V3.88876H58.2404V13.1474Z" fill="#028076"/>
<path d="M62.4552 13.1474H64.9771V7.82716C64.9771 6.618 65.694 5.78887 66.8254 5.78887C67.9568 5.78887 68.5269 6.47981 68.5269 7.68897V13.1474H71.0488V7.17076C71.0488 5.00291 69.8915 3.69875 67.8532 3.69875C66.454 3.69875 65.504 4.34652 65.0289 5.40885H64.9771V3.88876H62.4552V13.1474Z" fill="#028076"/>
<path d="M76.8614 13.3374C79.5043 13.3374 80.7825 11.7742 81.0675 10.4096L81.0934 10.3146H78.7788L78.7615 10.3664C78.5801 10.8846 77.9496 11.4546 76.9132 11.4546C75.6263 11.4546 74.8231 10.5909 74.7972 9.11404H81.1712V8.33673C81.1712 5.5384 79.4697 3.69875 76.7578 3.69875C74.0458 3.69875 72.3098 5.58158 72.3098 8.52674V8.53538C72.3098 11.4978 74.0285 13.3374 76.8614 13.3374ZM76.8009 5.58158C77.846 5.58158 78.5974 6.24662 78.7529 7.52487H74.8231C74.9872 6.27253 75.7645 5.58158 76.8009 5.58158Z" fill="#028076"/>
<path d="M86.6901 13.3374C89.333 13.3374 90.6112 11.7742 90.8962 10.4096L90.9221 10.3146H88.6075L88.5902 10.3664C88.4088 10.8846 87.7783 11.4546 86.7419 11.4546C85.455 11.4546 84.6518 10.5909 84.6259 9.11404H90.9999V8.33673C90.9999 5.5384 89.2984 3.69875 86.5865 3.69875C83.8745 3.69875 82.1385 5.58158 82.1385 8.52674V8.53538C82.1385 11.4978 83.8572 13.3374 86.6901 13.3374ZM86.6296 5.58158C87.6747 5.58158 88.4261 6.24662 88.5816 7.52487H84.6518C84.8159 6.27253 85.5932 5.58158 86.6296 5.58158Z" fill="#028076"/>
</svg>
