<svg width="337" height="252" viewBox="0 0 337 252" fill="none" xmlns="http://www.w3.org/2000/svg">
<path d="M307.932 224.644L308.438 213.313C313.711 210.505 319.593 209.022 325.573 208.992C317.343 215.695 318.372 228.615 312.792 237.628C311.03 240.426 308.659 242.793 305.854 244.553C303.049 246.314 299.882 247.424 296.588 247.8L289.701 252C288.756 246.752 288.965 241.363 290.312 236.203C291.659 231.043 294.114 226.235 297.506 222.111C299.432 219.816 301.64 217.772 304.079 216.027C305.728 220.359 307.932 224.644 307.932 224.644Z" fill="#F2F2F2"/>
<path d="M71.4959 123.912C71.0409 123.498 70.6824 122.99 70.4458 122.424C70.2092 121.857 70.1001 121.246 70.1264 120.632C70.1526 120.019 70.3135 119.419 70.5977 118.875C70.8818 118.33 71.2824 117.855 71.7711 117.481L67.053 103.324L74.5682 105.335L77.8964 118.471C78.4721 119.33 78.7112 120.37 78.5685 121.393C78.4258 122.417 77.9113 123.352 77.1223 124.023C76.3334 124.694 75.3249 125.053 74.2879 125.032C73.2509 125.012 72.2575 124.613 71.4959 123.912V123.912Z" fill="#A0616A"/>
<path d="M85.1166 46.9923C86.3636 47.7044 93.7414 45.9399 95.1822 46.4419C94.3869 51.2761 98.7068 49.462 94.0157 55.8106C89.3246 62.1593 79.876 81.1941 77.7296 88.3083C75.5832 95.4225 77.7077 105.448 77.3862 108.82C77.2309 110.774 77.2405 112.737 77.4152 114.689C74.8806 114.657 72.3824 115.181 69.8082 114.846C67.063 107.108 65.2172 96.094 63.9639 90.0068C62.7106 83.9197 62.6647 86.4939 63.2395 83.4501C63.8144 80.4064 63.9536 82.6182 63.3497 79.7064C62.7459 76.7945 65.188 73.1359 67.4445 71.0498C68.4174 68.2623 69.6747 65.6632 70.6379 62.9047C77.6962 56.7711 78.1603 53.228 85.1166 46.9923Z" fill="#03A093"/>
<path d="M290.187 244.149H283.951L280.985 220.188H290.189L290.187 244.149Z" fill="#FFB6B6"/>
<path d="M291.777 250.17L271.67 250.169V249.916C271.67 247.848 272.495 245.865 273.963 244.403C275.43 242.941 277.421 242.12 279.496 242.12H279.497L283.17 239.344L290.023 242.12L291.778 242.12L291.777 250.17Z" fill="#2F2E41"/>
<path d="M261.216 244.149H254.98L252.014 220.188H261.217L261.216 244.149Z" fill="#FFB6B6"/>
<path d="M262.806 250.17L242.699 250.169V249.916C242.699 247.848 243.524 245.865 244.991 244.403C246.459 242.941 248.45 242.12 250.525 242.12H250.526L254.199 239.344L261.051 242.12L262.807 242.12L262.806 250.17Z" fill="#2F2E41"/>
<path d="M258.517 113.156L299.078 114.166C306.782 118.334 306.899 127.355 304.375 138.066C304.375 138.066 305.227 144.432 303.523 146.129C301.818 147.827 300.966 147.827 301.818 150.798C302.671 153.769 298.169 158.621 298.715 159.166C299.262 159.71 300.54 162.681 300.54 162.681L296.28 186.872C296.28 186.872 293.298 228.888 292.445 229.737C291.593 230.586 290.741 229.737 291.593 231.859C292.445 233.981 293.298 233.132 292.445 233.981C291.691 234.792 290.98 235.642 290.315 236.527H280.015C280.015 236.527 279.238 232.283 279.238 231.859C279.238 231.435 278.386 228.888 278.386 228.464C278.386 228.039 279.139 227.289 279.139 227.289C279.399 226.426 279.575 225.541 279.664 224.644C279.664 223.795 282.22 191.116 282.22 191.116L277.108 148.676L264.752 190.267C264.752 190.267 264.752 226.766 263.9 227.615C263.048 228.464 263.048 228.039 263.474 229.737C263.9 231.435 265.604 231.01 264.326 232.283C263.048 233.557 262.622 231.435 263.048 233.557L263.474 235.679L250.693 235.861C250.693 235.861 248.989 232.283 249.841 231.01C250.693 229.737 250.642 230.085 249.602 228.001C248.563 225.917 248.137 225.493 248.563 225.069C248.989 224.644 248.989 222.387 248.989 222.387L251.119 181.779C251.119 181.779 251.545 138.914 251.545 137.641C251.577 136.986 251.456 136.332 251.191 135.732V134.004L252.823 127.88L258.517 113.156Z" fill="#2F2E41"/>
<path d="M282.883 29.1399C289.843 29.1399 295.485 23.5193 295.485 16.5858C295.485 9.6524 289.843 4.03174 282.883 4.03174C275.922 4.03174 270.28 9.6524 270.28 16.5858C270.28 23.5193 275.922 29.1399 282.883 29.1399Z" fill="#FFB6B6"/>
<path d="M276.581 37.4371C273.866 39.045 272.242 41.9993 271.31 45.0056C269.584 50.5713 268.544 56.3258 268.216 62.1419L267.231 79.5541L255.035 116.63C265.605 125.539 305.336 118.655 305.336 118.655C305.336 118.655 306.555 118.25 305.336 117.035C304.116 115.82 302.929 116.896 304.148 115.681C305.368 114.466 304.527 115.82 304.121 114.605C303.714 113.39 304.121 114.2 304.527 113.795C304.934 113.39 301.38 109.745 301.38 109.745L304.632 88.4634L308.698 45.5365C303.819 39.4619 294.008 35.881 294.008 35.881L291.473 31.3354L278.797 32.3456L276.581 37.4371Z" fill="#3F3D56"/>
<path d="M274.853 9.21797C275.34 9.22176 275.826 9.2852 276.298 9.40686C277.229 9.62975 278.174 9.78764 279.127 9.87938C282.044 10.1528 284.786 11.3922 286.913 13.3998C289.04 15.4073 290.431 18.067 290.863 20.9543C291.595 20.3183 293.262 19.1483 294.628 20.2357C294.648 20.2529 294.661 20.2618 294.709 20.2391C295.616 19.8105 297.226 14.5344 297.275 9.88899C297.3 7.42335 296.911 4.27484 294.909 3.27779L294.803 3.22526L294.776 3.11107C294.642 2.55644 293.148 1.60969 290.551 0.872814C285.831 -0.466298 278.935 -0.659891 274.973 3.17914C274.673 4.47337 273.559 4.828 272.574 5.14194C271.483 5.48942 270.54 5.78929 270.392 7.12248C270.268 9.01972 270.277 10.9233 270.419 12.8193C270.789 11.6591 271.514 10.6436 272.494 9.91588C273.19 9.44883 274.013 9.20529 274.853 9.21797Z" fill="#2F2E41"/>
<path d="M251.395 78.5849L271.982 65.4515L261.613 51.7212L251.375 64.267L219.474 66.216C218.635 65.3898 217.572 64.8246 216.416 64.5894C215.26 64.3541 214.061 64.459 212.964 64.8913C211.867 65.3235 210.919 66.0644 210.238 67.0236C209.556 67.9828 209.169 69.1188 209.124 70.2932C209.079 71.4676 209.379 72.6297 209.985 73.6376C210.592 74.6456 211.48 75.4559 212.541 75.9698C213.602 76.4837 214.79 76.6789 215.961 76.5317C217.132 76.3845 218.234 75.9012 219.133 75.1408L251.395 78.5849Z" fill="#FFB6B6"/>
<path d="M291.089 47.1198C292.284 54.3228 269.72 68.0776 269.72 68.0776C269.72 66.3869 256.253 79.1504 255.645 77.7482C253.918 73.7631 252.703 64.3242 250.289 62.8134C248.908 61.9494 258.604 53.8329 258.604 53.8329C258.604 53.8329 263.679 48.74 270.339 42.3159C272.188 40.465 274.477 39.1101 276.993 38.3775C279.509 37.6449 282.17 37.5583 284.729 38.1258C284.729 38.1258 289.894 39.9167 291.089 47.1198Z" fill="#3F3D56"/>
<path d="M268.15 129.823C268.159 137.531 266.863 145.186 264.317 152.465C264.2 152.803 264.079 153.137 263.957 153.475C258.745 167.575 249.051 179.593 236.35 187.698C235.483 188.254 234.606 188.784 233.713 189.299C223.566 195.159 212.079 198.327 200.352 198.502C199.966 198.507 199.581 198.512 199.196 198.512C198.699 198.512 198.207 198.507 197.715 198.497C185.972 198.264 174.485 195.033 164.353 189.112C163.461 188.592 162.582 188.052 161.717 187.491C147.616 178.385 137.334 164.468 132.8 148.349C128.267 132.23 129.792 115.017 137.091 99.9383C137.253 99.5999 137.42 99.2666 137.593 98.9282C143.341 87.5644 152.144 78.0138 163.021 71.3407C173.898 64.6677 186.421 61.1343 199.196 61.1343C211.97 61.1343 224.493 64.6677 235.37 71.3407C246.247 78.0138 255.05 87.5644 260.798 98.9282C260.971 99.2666 261.138 99.5999 261.3 99.9383C265.824 109.255 268.166 119.473 268.15 129.823Z" fill="#F2F2F2"/>
<path d="M246.815 152.465V153.475H252.99V152.465H246.815ZM234.464 152.465V153.475H240.639V152.465H234.464ZM222.113 152.465V153.475H228.288V152.465H222.113ZM209.762 152.465V153.475H215.937V152.465H209.762ZM197.411 152.465V153.475H203.586V152.465H197.411ZM185.06 152.465V153.475H191.235V152.465H185.06ZM172.709 152.465V153.475H178.884V152.465H172.709ZM160.363 152.465V153.475H166.533V152.465H160.363ZM148.012 152.465V153.475H154.188V152.465H148.012ZM135.661 152.465V153.475H141.837V152.465H135.661ZM264.317 152.465H259.166V153.475H263.957L264.317 152.465Z" fill="#E6E6E6"/>
<path d="M259.166 145.394V146.404H265.341V145.394H259.166ZM246.815 145.394V146.404H252.99V145.394H246.815ZM234.464 145.394V146.404H240.639V145.394H234.464ZM222.113 145.394V146.404H228.288V145.394H222.113ZM209.762 145.394V146.404H215.937V145.394H209.762ZM197.411 145.394V146.404H203.586V145.394H197.411ZM185.06 145.394V146.404H191.235V145.394H185.06ZM172.709 145.394V146.404H178.884V145.394H172.709ZM160.363 145.394V146.404H166.533V145.394H160.363ZM148.012 145.394V146.404H154.188V145.394H148.012ZM135.661 145.394V146.404H141.837V145.394H135.661Z" fill="#E6E6E6"/>
<path d="M259.166 130.747V131.757H265.341V130.747H259.166ZM246.815 130.747V131.757H252.99V130.747H246.815ZM234.464 130.747V131.757H240.639V130.747H234.464ZM222.113 130.747V131.757H228.288V130.747H222.113ZM209.762 130.747V131.757H215.937V130.747H209.762ZM197.411 130.747V131.757H203.586V130.747H197.411ZM185.06 130.747V131.757H191.235V130.747H185.06ZM172.709 130.747V131.757H178.884V130.747H172.709ZM160.363 130.747V131.757H166.533V130.747H160.363ZM148.012 130.747V131.757H154.188V130.747H148.012ZM135.661 130.747V131.757H141.837V130.747H135.661Z" fill="#E6E6E6"/>
<path d="M259.166 120.646V121.656H265.341V120.646H259.166ZM246.815 120.646V121.656H252.99V120.646H246.815ZM234.464 120.646V121.656H240.639V120.646H234.464ZM222.113 120.646V121.656H228.288V120.646H222.113ZM209.762 120.646V121.656H215.937V120.646H209.762ZM197.411 120.646V121.656H203.586V120.646H197.411ZM185.06 120.646V121.656H191.235V120.646H185.06ZM172.709 120.646V121.656H178.884V120.646H172.709ZM160.363 120.646V121.656H166.533V120.646H160.363ZM148.012 120.646V121.656H154.188V120.646H148.012ZM135.661 120.646V121.656H141.837V120.646H135.661Z" fill="#E6E6E6"/>
<path d="M260.798 98.9282H259.166V99.9384H261.3C261.138 99.6 260.971 99.2666 260.798 98.9282ZM246.815 98.9282V99.9384H252.99V98.9282H246.815ZM234.464 98.9282V99.9384H240.639V98.9282H234.464ZM222.113 98.9282V99.9384H228.288V98.9282H222.113ZM209.762 98.9282V99.9384H215.937V98.9282H209.762ZM197.411 98.9282V99.9384H203.586V98.9282H197.411ZM185.06 98.9282V99.9384H191.235V98.9282H185.06ZM172.709 98.9282V99.9384H178.884V98.9282H172.709ZM160.363 98.9282V99.9384H166.533V98.9282H160.363ZM148.012 98.9282V99.9384H154.188V98.9282H148.012ZM137.593 98.9282C137.42 99.2666 137.253 99.6 137.091 99.9384H141.837V98.9282H137.593Z" fill="#E6E6E6"/>
<path d="M236.35 102.333V187.698C235.483 188.254 234.606 188.784 233.713 189.299V102.333H236.35Z" fill="#3F3D56"/>
<path d="M200.352 130.616V198.501C199.966 198.506 199.581 198.512 199.196 198.512C198.699 198.512 198.207 198.506 197.715 198.496V130.616H200.352Z" fill="#3F3D56"/>
<path d="M164.353 102.333V189.113C163.461 188.592 162.582 188.052 161.717 187.491V102.333H164.353Z" fill="#3F3D56"/>
<path d="M35.1635 218.521L34.1578 204.587C27.5699 201.307 20.2777 199.678 12.9143 199.842C23.2735 207.818 22.4438 223.76 29.6181 234.671C31.8819 238.057 34.8815 240.892 38.3947 242.966C41.9078 245.04 45.8445 246.299 49.9129 246.652L58.5342 251.593C59.5205 245.099 59.0818 238.471 57.2486 232.162C55.4153 225.854 52.2311 220.017 47.9151 215.053C45.4662 212.292 42.678 209.85 39.6163 207.783C37.7319 213.172 35.1635 218.521 35.1635 218.521Z" fill="#F2F2F2"/>
<path d="M234.687 109.115C240.007 109.115 244.32 104.819 244.32 99.5191C244.32 94.2192 240.007 89.9229 234.687 89.9229C229.366 89.9229 225.053 94.2192 225.053 99.5191C225.053 104.819 229.366 109.115 234.687 109.115Z" fill="#03A093"/>
<path d="M239.632 95.5197C239.487 95.382 239.295 95.3052 239.094 95.3052C238.894 95.3052 238.701 95.382 238.557 95.5197C236.512 97.1437 234.677 99.0117 233.09 101.082C232.7 100.331 232.311 99.5804 231.922 98.8297C231.472 97.9632 230.159 98.7286 230.608 99.5944C231.178 100.693 231.748 101.791 232.317 102.889C232.386 103.001 232.482 103.093 232.597 103.158C232.712 103.222 232.842 103.256 232.974 103.256C233.106 103.256 233.235 103.222 233.35 103.158C233.465 103.093 233.562 103.001 233.631 102.889C235.321 100.517 237.342 98.3963 239.632 96.5911C239.774 96.4485 239.853 96.256 239.853 96.0554C239.853 95.8549 239.774 95.6624 239.632 95.5197Z" fill="white"/>
<path d="M199.196 137.399C204.516 137.399 208.829 133.103 208.829 127.803C208.829 122.503 204.516 118.207 199.196 118.207C193.875 118.207 189.562 122.503 189.562 127.803C189.562 133.103 193.875 137.399 199.196 137.399Z" fill="#03A093"/>
<path d="M204.141 123.803C203.996 123.666 203.803 123.589 203.603 123.589C203.403 123.589 203.21 123.666 203.065 123.803C201.021 125.427 199.185 127.295 197.599 129.366C197.209 128.615 196.82 127.864 196.43 127.113C195.98 126.247 194.667 127.012 195.117 127.878C195.686 128.976 196.256 130.074 196.826 131.172C196.894 131.284 196.991 131.377 197.106 131.441C197.221 131.506 197.351 131.539 197.482 131.539C197.614 131.539 197.744 131.506 197.859 131.441C197.974 131.377 198.07 131.284 198.139 131.172C199.83 128.8 201.851 126.68 204.141 124.875C204.282 124.732 204.362 124.54 204.362 124.339C204.362 124.139 204.282 123.946 204.141 123.803Z" fill="white"/>
<path d="M163.197 111.136C168.518 111.136 172.831 106.839 172.831 101.54C172.831 96.2397 168.518 91.9434 163.197 91.9434C157.877 91.9434 153.564 96.2397 153.564 101.54C153.564 106.839 157.877 111.136 163.197 111.136Z" fill="#03A093"/>
<path d="M168.143 97.5402C167.998 97.4025 167.805 97.3257 167.605 97.3257C167.405 97.3257 167.212 97.4025 167.067 97.5402C165.023 99.1642 163.187 101.032 161.6 103.102C161.211 102.352 160.821 101.601 160.432 100.85C159.982 99.9837 158.669 100.749 159.119 101.615C159.688 102.713 160.258 103.811 160.828 104.909C160.896 105.021 160.993 105.114 161.108 105.178C161.223 105.242 161.353 105.276 161.484 105.276C161.616 105.276 161.746 105.242 161.861 105.178C161.976 105.114 162.072 105.021 162.141 104.909C163.832 102.537 165.853 100.417 168.143 98.6116C168.284 98.469 168.364 98.2765 168.364 98.0759C168.364 97.8754 168.284 97.6829 168.143 97.5402Z" fill="white"/>
<path d="M301.348 94.7152L307.69 71.1967L290.743 68.001L291.654 84.1439L269.387 106.983C268.209 106.935 267.041 107.23 266.028 107.831C265.014 108.433 264.198 109.315 263.679 110.371C263.16 111.426 262.961 112.609 263.105 113.776C263.249 114.942 263.731 116.041 264.492 116.94C265.253 117.838 266.26 118.496 267.39 118.835C268.519 119.173 269.724 119.176 270.856 118.844C271.987 118.513 272.998 117.86 273.764 116.966C274.53 116.072 275.018 114.975 275.169 113.81L301.348 94.7152Z" fill="#FFB6B6"/>
<path d="M309.424 44.8276C315.177 49.3513 307.793 74.6553 307.793 74.6553C306.65 73.4056 305.322 91.875 303.925 91.2462C299.954 89.4588 292.675 83.2954 289.869 83.7978C288.264 84.0851 289.946 71.5812 289.946 71.5812C289.946 71.5812 290.255 64.4117 290.836 55.1951C290.952 52.5864 291.728 50.0493 293.093 47.8199C294.458 45.5905 296.367 43.7414 298.642 42.4447C298.642 42.4447 303.672 40.3038 309.424 44.8276Z" fill="#3F3D56"/>
<path d="M110.737 97.6292L117.709 128.623L73.032 125.855L85.1812 95.4155L110.737 97.6292Z" fill="#A0616A"/>
<path d="M103.298 240.678L108.316 240.677L110.704 221.395H103.297L103.298 240.678Z" fill="#A0616A"/>
<path d="M101.598 238.211L109.532 237.74V241.126L117.074 246.315C117.447 246.571 117.727 246.939 117.875 247.366C118.023 247.792 118.03 248.254 117.895 248.685C117.76 249.115 117.491 249.492 117.126 249.759C116.761 250.026 116.321 250.17 115.868 250.17H106.423L104.795 246.821L104.159 250.17H100.598L101.598 238.211Z" fill="#2F2E41"/>
<path d="M55.8643 238.19L60.7692 239.25L67.2063 220.909L59.9676 219.345L55.8643 238.19Z" fill="#A0616A"/>
<path d="M54.7285 235.421L62.5821 236.636L61.8614 239.945L68.1282 246.609C68.4377 246.938 68.6336 247.357 68.6871 247.805C68.7407 248.253 68.6491 248.706 68.4258 249.098C68.2025 249.49 67.8592 249.801 67.4459 249.986C67.0326 250.17 66.5711 250.217 66.1286 250.122L56.8982 248.127L56.02 244.51L54.686 247.649L51.2058 246.897L54.7285 235.421Z" fill="#2F2E41"/>
<path d="M118.85 154.541C115.328 173.823 114.448 182.149 114.448 182.149C114.448 182.149 117.089 185.216 115.328 186.971C113.567 188.725 115.328 192.229 115.328 192.229L111.368 234.738L108.18 234.223L100.502 232.994L97.7321 232.548L99.4932 192.67C99.4932 192.67 97.7321 189.161 98.6127 188.284C99.4932 187.407 97.7321 182.149 97.7321 182.149L95.5332 140.516L81.8923 186.093C81.8923 186.093 83.2156 187.848 81.8923 189.161C80.574 190.474 77.9373 197.05 77.9373 197.05L69.8255 225.325L69.1368 227.726L64.9063 226.937L60.302 226.074L59.4559 225.918L57.9506 225.633L56.9815 225.452L56.6519 225.393L55.0581 225.094L55.5402 222.963L55.7911 221.841L62.6534 191.479L62.8108 190.778L62.978 190.038C62.978 190.038 62.0975 187.848 63.4158 186.53C63.8015 186.128 64.0832 185.639 64.2366 185.104C64.3901 184.57 64.4106 184.006 64.2964 183.462C64.2532 183.416 64.2137 183.367 64.1783 183.315C64.0226 183.102 63.9152 182.858 63.8635 182.6C63.7454 182.051 63.8487 181.281 64.7391 180.394C64.9899 180.129 65.2003 179.829 65.3638 179.503C66.7019 176.979 67.3758 171.633 67.3758 171.633C67.3758 171.633 68.5663 129.29 72.4622 122.822C72.6689 122.484 76.8048 115.992 77.0212 115.86C81.419 113.234 115.682 116.861 115.682 116.861C115.682 116.861 117.757 122.415 117.85 122.993C118.357 126.242 121.836 138.184 118.85 154.541Z" fill="#2F2E41"/>
<path d="M108.439 52.5484C108.439 52.5484 109.181 48.7149 102.057 41.6184C98.2852 40.3661 91.7505 41.096 89.4851 41.6184C79.0088 55.3939 80.8845 52.9633 78.1575 60.6601C77.4503 62.6559 77.0968 64.5735 77.4111 66.1389C78.6682 72.4005 80.7092 104.543 80.2901 106.212C79.8711 107.882 76.9377 109.969 79.8711 109.969C82.8044 109.969 120.633 109.31 119.795 108.057C118.957 106.805 108.439 52.5484 108.439 52.5484Z" fill="#03A093"/>
<path d="M153.366 103.482C152.792 103.703 152.175 103.797 151.561 103.755C150.946 103.714 150.348 103.539 149.809 103.242C149.269 102.946 148.802 102.535 148.439 102.039C148.076 101.543 147.827 100.974 147.709 100.372L132.883 98.2741L138.038 92.4673L151.327 95.3497C152.355 95.2191 153.397 95.469 154.253 96.0521C155.109 96.6351 155.721 97.5108 155.972 98.5132C156.224 99.5156 156.097 100.575 155.617 101.491C155.137 102.406 154.336 103.115 153.366 103.482L153.366 103.482Z" fill="#A0616A"/>
<path d="M90.6411 50.0804C91.8366 49.2854 93.1943 48.9121 94.2872 47.8506C98.2779 50.7132 98.5716 46.0523 102.188 53.0639C105.805 60.0756 118.705 76.9807 124.143 82.0638C129.581 87.1469 139.538 89.7178 142.426 91.5062C144.112 92.5149 145.881 93.3807 147.713 94.0943C146.556 96.3406 145.914 98.8021 144.466 100.949C136.289 99.9507 125.567 96.6912 119.538 95.0977C113.509 93.5043 115.802 94.6917 113.322 92.8233C110.843 90.9549 112.893 91.816 110.007 91.0576C107.12 90.2992 104.92 86.4915 104.05 83.5499C101.978 81.4406 100.202 79.1615 98.1516 77.0738C95.7826 68.0467 93.1473 59.062 90.6411 50.0804Z" fill="#03A093"/>
<path d="M100.003 36.2753C106.704 36.2753 112.137 30.8635 112.137 24.1877C112.137 17.5119 106.704 12.1001 100.003 12.1001C93.3011 12.1001 87.8684 17.5119 87.8684 24.1877C87.8684 30.8635 93.3011 36.2753 100.003 36.2753Z" fill="#A0616A"/>
<path d="M108.11 46.2831C107.535 45.4649 103.235 37.3519 101.956 34.2838C101.825 34.9482 101.742 35.6212 101.708 36.2976L101.695 36.5496L101.444 36.582C101.066 36.63 92.1416 37.7091 87.497 32.4629C84.7453 29.3553 84.1212 24.6941 85.6397 18.6061C85.3635 18.5521 85.0989 18.4505 84.8577 18.306C84.4561 18.0291 84.1199 17.6683 83.8727 17.2486C83.6254 16.829 83.4731 16.3607 83.4262 15.8764L83.169 15.9451C74.9061 11.9398 82.0248 0.222855 89.5721 6.04827C90.2341 5.90091 90.9242 5.94042 91.5649 6.16234C92.1829 6.41277 92.7212 6.82507 93.123 7.35555C93.5248 7.88603 93.775 8.51491 93.8471 9.17555C97.7467 7.13233 102.908 7.46482 105.577 8.99782C106.694 9.63978 107.336 10.4483 107.45 11.3502C110.603 11.5256 113.994 14.5848 113.994 18.9191V19.2209H113.691C112.422 19.2478 111.185 19.6179 110.112 20.2914C109.038 20.965 108.169 21.9167 107.597 23.0447C106.822 24.4401 106.438 26.0177 106.486 27.6117C106.534 29.2058 107.013 30.7576 107.871 32.1039C108.805 33.5319 109.443 35.1316 109.747 36.809C110.051 38.4863 110.014 40.2072 109.64 41.8704L108.502 46.8402L108.11 46.2831Z" fill="#2F2E41"/>
<path d="M143.319 250.27C143.319 250.349 143.304 250.427 143.273 250.5C143.243 250.573 143.199 250.64 143.143 250.696C143.087 250.751 143.02 250.796 142.947 250.826C142.873 250.856 142.795 250.871 142.716 250.871H0.603353C0.443334 250.871 0.289867 250.808 0.176717 250.695C0.0635664 250.582 0 250.429 0 250.27C0 250.111 0.0635664 249.958 0.176717 249.845C0.289867 249.732 0.443334 249.669 0.603353 249.669H142.716C142.795 249.669 142.873 249.684 142.947 249.714C143.02 249.744 143.087 249.789 143.143 249.844C143.199 249.9 143.243 249.967 143.273 250.04C143.304 250.113 143.319 250.191 143.319 250.27Z" fill="#CCCCCC"/>
<path d="M337 250.27C337 250.349 336.985 250.427 336.955 250.5C336.924 250.573 336.88 250.64 336.824 250.696C336.768 250.751 336.701 250.796 336.628 250.826C336.555 250.856 336.476 250.871 336.397 250.871H194.285C194.124 250.871 193.971 250.808 193.858 250.695C193.745 250.582 193.681 250.429 193.681 250.27C193.681 250.111 193.745 249.958 193.858 249.845C193.971 249.732 194.124 249.669 194.285 249.669H336.397C336.476 249.669 336.555 249.684 336.628 249.714C336.701 249.744 336.768 249.789 336.824 249.844C336.88 249.9 336.924 249.967 336.955 250.04C336.985 250.113 337 250.191 337 250.27Z" fill="#CCCCCC"/>
<path d="M162.898 206.955C165.863 206.955 168.268 204.56 168.268 201.606C168.268 198.652 165.863 196.257 162.898 196.257C159.932 196.257 157.528 198.652 157.528 201.606C157.528 204.56 159.932 206.955 162.898 206.955Z" fill="#E6E6E6"/>
<path d="M198.896 212.51C201.862 212.51 204.266 210.116 204.266 207.161C204.266 204.207 201.862 201.812 198.896 201.812C195.931 201.812 193.527 204.207 193.527 207.161C193.527 210.116 195.931 212.51 198.896 212.51Z" fill="#E6E6E6"/>
<path d="M234.895 205.944C237.86 205.944 240.264 203.55 240.264 200.595C240.264 197.641 237.86 195.247 234.895 195.247C231.929 195.247 229.525 197.641 229.525 200.595C229.525 203.55 231.929 205.944 234.895 205.944Z" fill="#E6E6E6"/>
</svg>
