<svg width="18" height="18" viewBox="0 0 18 18" fill="none" xmlns="http://www.w3.org/2000/svg">
<path d="M8.80499 17.61C13.6218 17.61 17.6101 13.6219 17.6101 8.805C17.6101 3.99677 13.6132 0 8.79637 0C3.98814 0 0 3.99677 0 8.805C0 13.6219 3.99679 17.61 8.80499 17.61ZM7.62237 13.2334C7.32886 13.2334 7.0958 13.1039 6.85409 12.8104L4.35933 9.73729C4.22985 9.57328 4.15217 9.3661 4.15217 9.17619C4.15217 8.77047 4.47156 8.45971 4.86002 8.45971C5.10173 8.45971 5.31754 8.55466 5.51607 8.82227L7.5792 11.4897L11.5932 5.05856C11.7573 4.79095 11.9817 4.66147 12.2148 4.66147C12.5946 4.66147 12.9571 4.91181 12.9571 5.32617C12.9571 5.51608 12.8449 5.72326 12.7413 5.89589L8.34748 12.8104C8.15757 13.0953 7.91586 13.2334 7.62237 13.2334Z" fill="white"/>
</svg>
