<svg width="100" height="104" viewBox="0 0 100 104" fill="none" xmlns="http://www.w3.org/2000/svg">
<path d="M94.4074 96.0845C94.4074 99.9664 73.4268 103.114 47.5455 103.114C21.6641 103.114 0.683594 99.9664 0.683594 96.0845C0.683594 93.3362 11.2003 90.9553 26.5272 89.8004C32.8475 89.3227 39.9886 89.0552 47.5455 89.0552C50.652 89.0552 53.6874 89.1005 56.6231 89.1867C78.1599 89.8216 94.4074 92.6681 94.4074 96.0845Z" fill="#3F3D56"/>
<path opacity="0.1" d="M41.4989 97.5202C51.4339 97.5202 59.4878 96.5388 59.4878 95.3283C59.4878 94.1177 51.4339 93.1364 41.4989 93.1364C31.5639 93.1364 23.51 94.1177 23.51 95.3283C23.51 96.5388 31.5639 97.5202 41.4989 97.5202Z" fill="black"/>
<path d="M41.4231 96.9155C50.8154 96.9155 58.4294 88.794 58.4294 78.7755C58.4294 68.757 50.8154 60.6354 41.4231 60.6354C32.0307 60.6354 24.4167 68.757 24.4167 78.7755C24.4167 88.794 32.0307 96.9155 41.4231 96.9155Z" fill="#3F3D56"/>
<path d="M46.7898 89.5083H36.2081V99.183H46.7898V89.5083Z" fill="#069E95"/>
<path d="M60.6216 91.8512L60.017 95.1769L63.9473 95.7815L66.5172 94.2699L66.366 91.8512H60.6216Z" fill="#575A89"/>
<path d="M40.8187 29.4189C40.8187 29.4189 40.5164 32.8958 39.7606 33.0469C39.0047 33.1981 41.4234 39.2448 41.4234 39.2448H45.0514L47.9236 38.489L46.5631 35.1633C46.5631 35.1633 44.7491 32.7446 46.1096 30.7794C47.4701 28.8143 40.8187 29.4189 40.8187 29.4189Z" fill="#A0616A"/>
<path opacity="0.1" d="M40.8187 29.4189C40.8187 29.4189 40.5164 32.8958 39.7606 33.0469C39.0047 33.1981 41.4234 39.2448 41.4234 39.2448H45.0514L47.9236 38.489L46.5631 35.1633C46.5631 35.1633 44.7491 32.7446 46.1096 30.7794C47.4701 28.8143 40.8187 29.4189 40.8187 29.4189Z" fill="black"/>
<path d="M33.2603 56.0241C33.2603 56.0241 29.3299 63.5825 32.5045 65.0941C35.679 66.6058 36.4348 66.4547 36.4348 66.9082C36.4348 67.3617 35.8301 67.2105 36.1325 67.9663C36.4348 68.7222 35.5278 71.7455 36.4348 73.5595C37.3418 75.3735 37.0395 76.734 37.0395 76.734C37.0395 76.734 37.0395 76.8852 37.3418 77.4899C37.6442 78.0945 37.7953 78.548 37.6442 78.8504C37.493 79.1527 36.586 81.1179 37.493 81.5714C38.4 82.0249 43.0862 82.3272 43.5397 81.5714C43.9932 80.8155 43.0862 80.362 43.5397 79.9085C43.9932 79.455 44.2955 79.3039 43.9932 79.0015C43.6909 78.6992 43.3885 74.92 43.3885 74.92C43.3885 74.92 44.1444 70.5362 43.842 69.9315C43.5397 69.3268 43.0862 68.7222 43.3885 68.2687C43.6909 67.8152 43.9932 67.9663 44.1444 67.3617C44.2955 66.757 44.5979 65.3965 44.5979 65.3965L46.2607 65.2453L50.191 66.0011C50.191 66.0011 54.5749 70.8385 59.4123 72.3502C59.4123 72.3502 60.7728 73.7107 61.2263 73.7107C61.6798 73.7107 61.6798 73.7107 61.5286 74.013C61.3774 74.3154 60.9239 74.3154 61.2263 74.6177C61.5286 74.92 61.9821 74.4665 61.6798 74.92C61.3774 75.3735 61.0751 75.3735 61.3774 75.6759C61.6798 75.9782 61.2263 77.641 61.2263 77.7922C61.2263 77.9434 59.8658 92.1531 60.3193 92.4554C60.7728 92.7578 67.1218 93.6648 67.5753 92.4554C68.0288 91.2461 67.273 89.7344 67.273 89.7344C67.273 89.7344 69.5405 71.5943 68.9358 70.385C68.3311 69.1757 66.2148 63.7336 54.8772 60.2568C54.8772 60.2568 51.7027 59.6521 51.7027 59.1986C51.7027 58.7451 51.4004 55.8729 50.7957 55.7218C50.191 55.5706 46.7142 55.4194 46.7142 55.4194L42.3303 56.7799L36.2836 55.7218L33.2603 56.0241Z" fill="#2F2E41"/>
<path d="M38.5509 81.4205L37.795 84.1416C37.795 84.1416 37.1904 88.5254 37.9462 89.5836C38.5399 90.4148 39.5999 91.4325 41.5658 91.6111C42.1168 91.6616 42.6685 91.5226 43.1297 91.217C43.5909 90.9114 43.934 90.4575 44.1022 89.9304C44.1247 89.8673 44.1388 89.8015 44.1441 89.7347C44.1441 89.4324 43.6906 85.8044 43.6906 85.8044L42.9347 82.0252L42.7836 80.967L38.5509 81.4205Z" fill="#2F2E41"/>
<path d="M60.6214 94.4206C60.6214 94.4206 59.8655 93.6648 59.7144 94.4206C59.5632 95.1765 58.9585 98.351 60.0167 98.5022C61.0749 98.6533 71.2031 100.165 72.2613 99.5603C73.3194 98.9557 75.2846 98.0487 74.0753 97.5952C72.8659 97.1416 69.3891 95.7811 69.3891 95.7811C69.3891 95.7811 67.4239 93.2113 67.1216 93.0601C66.8192 92.909 65.1564 93.2113 64.4006 93.816C63.6447 94.4206 60.6214 94.4206 60.6214 94.4206Z" fill="#2F2E41"/>
<path d="M44.4467 32.5934C47.0348 32.5934 49.1329 30.4954 49.1329 27.9073C49.1329 25.3191 47.0348 23.2211 44.4467 23.2211C41.8586 23.2211 39.7605 25.3191 39.7605 27.9073C39.7605 30.4954 41.8586 32.5934 44.4467 32.5934Z" fill="#A0616A"/>
<path d="M43.9931 38.4888L42.1791 36.5237L40.1683 32.5933C40.1683 32.5933 38.7022 32.1398 38.3999 32.8956C38.0975 33.6515 32.6555 36.0702 32.6555 36.0702C32.6555 36.0702 34.016 48.7682 33.4113 49.9775C32.8067 51.1869 31.7485 56.0242 32.6555 56.4777C33.5625 56.9312 37.7952 56.4777 39.1557 57.0824C40.5162 57.6871 44.4466 57.6871 45.5047 56.9312C46.5629 56.1754 46.8652 55.5707 47.9234 56.0242C48.8243 56.4103 50.9302 43.2111 51.5366 39.2778C51.5876 38.9474 51.5452 38.6093 51.4141 38.3019C51.283 37.9944 51.0684 37.7297 50.7946 37.5379C49.4382 36.5865 46.9954 34.9469 46.5629 35.1632C45.9582 35.4655 43.9931 38.4888 43.9931 38.4888Z" fill="#575A89"/>
<path d="M50.4933 37.8846C50.8483 37.9734 51.1676 38.1686 51.4084 38.4441C51.6492 38.7197 51.7999 39.0622 51.8403 39.4259L53.0632 50.4315C53.0632 50.4315 50.0398 56.9317 48.5281 52.5479C47.0165 48.164 50.4933 37.8846 50.4933 37.8846Z" fill="#575A89"/>
<path d="M50.1911 51.4893L53.5168 50.5823C53.5168 50.5823 54.1215 54.815 54.7262 54.815C55.3308 54.815 52.6098 57.2336 51.2493 56.9313C49.8888 56.629 47.9236 55.5708 47.7725 54.815C47.6213 54.0591 49.133 50.8846 49.133 50.8846L50.1911 51.4893Z" fill="#575A89"/>
<path d="M40.909 29.9293C41.2277 29.2266 41.1724 28.4071 41.4358 27.6819C41.5769 27.2937 41.8058 26.9433 42.1047 26.6581C42.4036 26.3729 42.7644 26.1607 43.1588 26.0381C43.5533 25.9154 43.9708 25.8856 44.3787 25.951C44.7866 26.0164 45.1739 26.1752 45.5102 26.415C45.8491 26.6567 46.1889 26.9962 46.6025 26.95C47.048 26.9004 47.4453 26.4034 47.8548 26.5855C48.3087 26.7874 48.1861 27.6009 48.646 27.7888C48.8881 27.8877 49.1741 27.7354 49.3137 27.5143C49.4358 27.282 49.5024 27.0245 49.5081 26.7621C49.5716 26.1173 49.6289 25.435 49.3493 24.8506C49.2317 24.6525 49.1292 24.4458 49.0427 24.2323C48.9938 24.0329 48.9741 23.8275 48.9844 23.6224C48.9818 22.8646 48.9265 22.0742 48.5451 21.4193C48.1219 20.6926 47.3397 20.228 46.5235 20.0252C45.7074 19.8224 44.8524 19.8535 44.0145 19.9245C42.6293 20.0417 41.1847 20.2931 40.0934 21.1542C39.9451 21.2626 39.8174 21.3967 39.7165 21.5502C39.6207 21.7326 39.553 21.9283 39.5157 22.1309C39.2798 23.0917 38.926 24.0198 38.4624 24.8938C38.2395 25.2644 38.0572 25.6579 37.9189 26.0677C37.8032 26.4841 37.811 26.9586 38.0533 27.3165C38.2505 27.6078 38.5658 27.7631 38.8135 28.0013C39.059 28.2374 39.1739 28.6913 39.4458 28.87C39.6832 29.0261 39.9675 28.9159 40.2096 29.0813C40.5205 29.2936 40.5429 29.7592 40.909 29.9293Z" fill="#2F2E41"/>
<path d="M44.7489 40.7566L45.2024 39.8496C45.2024 39.8496 51.8538 41.8148 53.2143 43.6288C53.2143 43.6288 56.54 41.5125 58.354 41.8148L60.168 42.1171L54.5748 47.1056L47.4699 46.501L44.7489 40.7566Z" fill="#F2F2F2"/>
<path d="M44.4466 39.8496L38.2488 48.4662L47.1677 52.85C47.1677 52.85 48.0015 53.3035 48.6427 52.85L54.5749 50.129L60.1681 42.1171L54.5749 44.9893C54.5749 44.9893 53.9702 43.78 52.7608 44.3846L44.4466 39.8496Z" fill="#069E95"/>
<path d="M53.9704 55.118L55.1798 51.9435C55.1798 51.9435 57.9008 48.4666 56.3891 46.8038C54.8774 45.1409 53.2146 51.6411 53.2146 51.6411L53.9704 55.118Z" fill="#A0616A"/>
<path d="M40.0171 54.6107L42.6559 52.4714C42.6559 52.4714 46.7541 50.829 46.2807 48.6321C45.8073 46.4353 41.1076 51.2239 41.1076 51.2239L40.0171 54.6107Z" fill="#A0616A"/>
<path opacity="0.1" d="M33.4867 39.3206H33.3355C33.3355 39.3206 30.9924 36.524 30.5389 40.3032C30.0854 44.0823 28.5737 56.6292 32.5041 57.0827C36.4344 57.5362 39.231 55.1931 39.231 55.1931C39.231 55.1931 42.1032 50.8093 41.0451 50.8093C40.5331 50.8093 39.1406 50.5793 37.8705 50.6581C36.5157 50.7422 35.2983 51.1238 35.3763 50.7337C35.5274 49.9779 37.7194 40.3787 33.4867 39.3206Z" fill="black"/>
<path d="M33.2604 36.3725L32.6557 36.0702C32.6557 36.0702 30.2371 36.5237 29.7836 40.3029C29.33 44.0821 27.8184 56.629 31.7487 57.0825C35.6791 57.536 40.9699 56.4778 40.9699 56.4778C40.9699 56.4778 42.0281 50.7334 40.9699 50.7334C39.9118 50.7334 34.4697 51.4893 34.6209 50.7334C34.7721 49.9776 37.4931 37.4307 33.2604 36.3725Z" fill="#575A89"/>
<path d="M51.7784 53.379L53.4454 50.8241L54.4995 55.0418L51.7784 56.2512V53.379Z" fill="#575A89"/>
<path d="M17.5344 16.9482C19.7886 16.9482 21.6159 15.1208 21.6159 12.8667C21.6159 10.6125 19.7886 8.78516 17.5344 8.78516C15.2802 8.78516 13.4529 10.6125 13.4529 12.8667C13.4529 15.1208 15.2802 16.9482 17.5344 16.9482Z" fill="#F2F2F2"/>
<path d="M22.3722 43.2511H12.6975V52.9258H22.3722V43.2511Z" fill="#F2F2F2"/>
<path d="M56.9176 0L59.3664 4.2413L61.815 8.48261H56.9176H52.0203L54.4689 4.2413L56.9176 0Z" fill="#F2F2F2"/>
<path d="M99.5828 25.4311C99.5242 27.2406 99.0836 28.691 98.2608 29.7822C97.4379 30.8736 96.4602 31.4193 95.3279 31.4194C94.4056 31.4194 93.5973 30.8853 92.9028 29.8172C92.2082 28.7491 91.8609 27.1062 91.861 24.8883C91.861 24.398 91.8727 23.9311 91.896 23.4875C91.9193 23.044 91.9485 22.6238 91.9836 22.2268L92.5964 16.4661H88.5517C87.8513 23.7501 87.2764 28.0838 86.827 29.4671C86.3775 30.8503 85.6158 31.5419 84.542 31.542C84.0572 31.5301 83.5947 31.3363 83.2462 30.9992C83.0442 30.8201 82.8844 30.5985 82.7784 30.3502C82.6724 30.1019 82.6229 29.8331 82.6334 29.5633C82.6334 29.0266 83.0565 28.2766 83.9028 27.3134C84.7491 26.3503 85.2189 25.4719 85.3124 24.6782L86.3629 16.4661H84.6646C84.1858 16.469 83.7145 16.586 83.29 16.8075C82.8993 16.987 82.5594 17.2608 82.3007 17.6042L81.5478 18.7249H80.9349C81.5068 16.9506 82.2101 15.617 83.0449 14.7239C83.8793 13.8309 84.8394 13.3844 85.9252 13.3844H99.3027V16.4661H94.7851C94.645 17.8669 94.5371 19.2677 94.4612 20.6684C94.3852 22.0692 94.3472 23.4758 94.3474 24.8883C94.3474 25.8456 94.5692 26.6218 95.0128 27.2171C95.4563 27.8124 96.0107 28.1101 96.6762 28.11C97.0847 28.11 97.5137 27.9437 97.9632 27.611C98.1766 27.4613 98.3552 27.2672 98.4866 27.0421C98.6181 26.8169 98.6993 26.566 98.7248 26.3066C98.7599 26.0499 98.7861 25.8485 98.8036 25.7025C98.8211 25.5566 98.8299 25.4662 98.8299 25.4311L99.5828 25.4311Z" fill="#069E95"/>
<path opacity="0.1" d="M99.5828 25.4311C99.5242 27.2406 99.0836 28.691 98.2608 29.7822C97.4379 30.8736 96.4602 31.4193 95.3279 31.4194C94.4056 31.4194 93.5973 30.8853 92.9028 29.8172C92.2082 28.7491 91.8609 27.1062 91.861 24.8883C91.861 24.398 91.8727 23.9311 91.896 23.4875C91.9193 23.044 91.9485 22.6238 91.9836 22.2268L92.5964 16.4661H88.5517C87.8513 23.7501 87.2764 28.0838 86.827 29.4671C86.3775 30.8503 85.6158 31.5419 84.542 31.542C84.0572 31.5301 83.5947 31.3363 83.2462 30.9992C83.0442 30.8201 82.8844 30.5985 82.7784 30.3502C82.6724 30.1019 82.6229 29.8331 82.6334 29.5633C82.6334 29.0266 83.0565 28.2766 83.9028 27.3134C84.7491 26.3503 85.2189 25.4719 85.3124 24.6782L86.3629 16.4661H84.6646C84.1858 16.469 83.7145 16.586 83.29 16.8075C82.8993 16.987 82.5594 17.2608 82.3007 17.6042L81.5478 18.7249H80.9349C81.5068 16.9506 82.2101 15.617 83.0449 14.7239C83.8793 13.8309 84.8394 13.3844 85.9252 13.3844H99.3027V16.4661H94.7851C94.645 17.8669 94.5371 19.2677 94.4612 20.6684C94.3852 22.0692 94.3472 23.4758 94.3474 24.8883C94.3474 25.8456 94.5692 26.6218 95.0128 27.2171C95.4563 27.8124 96.0107 28.1101 96.6762 28.11C97.0847 28.11 97.5137 27.9437 97.9632 27.611C98.1766 27.4613 98.3552 27.2672 98.4866 27.0421C98.6181 26.8169 98.6993 26.566 98.7248 26.3066C98.7599 26.0499 98.7861 25.8485 98.8036 25.7025C98.8211 25.5566 98.8299 25.4662 98.8299 25.4311L99.5828 25.4311Z" fill="black"/>
<path d="M99.5828 24.8835C99.5242 26.693 99.0836 28.1434 98.2608 29.2346C97.4379 30.326 96.4602 30.8717 95.3279 30.8718C94.4056 30.8718 93.5973 30.3377 92.9028 29.2696C92.2082 28.2015 91.8609 26.5586 91.861 24.3407C91.861 23.8504 91.8727 23.3835 91.896 22.9399C91.9193 22.4964 91.9485 22.0762 91.9836 21.6792L92.5964 15.9185H88.5517C87.8513 23.2025 87.2764 27.5362 86.827 28.9195C86.3775 30.3027 85.6158 30.9943 84.542 30.9944C84.0572 30.9824 83.5947 30.7887 83.2462 30.4516C83.0442 30.2725 82.8844 30.0508 82.7784 29.8025C82.6724 29.5542 82.6229 29.2855 82.6334 29.0157C82.6334 28.479 83.0565 27.729 83.9028 26.7658C84.7491 25.8027 85.2189 24.9243 85.3124 24.1306L86.3629 15.9185H84.6646C84.1858 15.9214 83.7145 16.0384 83.29 16.2599C82.8993 16.4394 82.5594 16.7132 82.3007 17.0566L81.5478 18.1772H80.9349C81.5068 16.403 82.2101 15.0694 83.0449 14.1763C83.8793 13.2833 84.8394 12.8368 85.9252 12.8368H99.3027V15.9185H94.7851C94.645 17.3193 94.5371 18.7201 94.4612 20.1208C94.3852 21.5216 94.3472 22.9282 94.3474 24.3407C94.3474 25.298 94.5692 26.0742 95.0128 26.6695C95.4563 27.2648 96.0107 27.5625 96.6762 27.5624C97.0847 27.5624 97.5137 27.3961 97.9632 27.0634C98.1766 26.9137 98.3552 26.7196 98.4866 26.4945C98.6181 26.2693 98.6993 26.0184 98.7248 25.759C98.7599 25.5023 98.7861 25.3009 98.8036 25.1549C98.8211 25.009 98.8299 24.9186 98.8299 24.8835H99.5828Z" fill="#069E95"/>
</svg>
