<svg width="19" height="19" viewBox="0 0 19 19" fill="none" xmlns="http://www.w3.org/2000/svg">
<path d="M9.04677 18.0935C10.2991 18.0935 11.4711 17.86 12.5629 17.3929C13.6546 16.9258 14.6158 16.2758 15.4464 15.4431C16.277 14.6103 16.9269 13.6475 17.3961 12.5547C17.8655 11.4618 18.1001 10.2925 18.1001 9.04676C18.1001 7.80097 17.8655 6.63167 17.3961 5.53884C16.9269 4.446 16.277 3.4832 15.4464 2.65045C14.6158 1.81768 13.6555 1.16774 12.5655 0.700638C11.4755 0.233546 10.3048 0 9.05336 0C8.76362 0 8.5358 0.0811158 8.36989 0.24335C8.20398 0.405595 8.12103 0.627186 8.12103 0.908121V3.99684C8.12103 4.23844 8.19771 4.44224 8.35107 4.60825C8.50443 4.77427 8.70209 4.85727 8.94405 4.85727C9.18732 4.85727 9.38566 4.77427 9.53907 4.60825C9.69248 4.44224 9.76919 4.23844 9.76919 3.99684V0.857699L8.90574 1.95226C9.90609 1.93505 10.8413 2.10601 11.7113 2.46516C12.5814 2.82431 13.3458 3.3302 14.0046 3.98283C14.6634 4.63547 15.1777 5.39458 15.5476 6.26019C15.9175 7.12578 16.1024 8.05463 16.1024 9.04676C16.1024 10.0208 15.9207 10.9349 15.5572 11.7891C15.1938 12.6433 14.69 13.3946 14.0461 14.0429C13.4021 14.6912 12.6536 15.1977 11.8005 15.5622C10.9474 15.9267 10.0295 16.109 9.04677 16.109C8.06839 16.109 7.15157 15.9267 6.29631 15.5622C5.44105 15.1977 4.69033 14.6912 4.04416 14.0429C3.39798 13.3946 2.89317 12.6433 2.52972 11.7891C2.16627 10.9349 1.98632 10.0208 1.98986 9.04676C1.98986 8.22129 2.12612 7.43496 2.39864 6.68777C2.67118 5.9406 3.04595 5.26785 3.52296 4.66952C3.70615 4.40837 3.80843 4.15268 3.8298 3.90244C3.85116 3.6522 3.75291 3.42175 3.53505 3.2111C3.32801 3.00829 3.07523 2.92151 2.77672 2.95076C2.47821 2.98001 2.22105 3.13938 2.00523 3.42886C1.38392 4.19885 0.894385 5.06279 0.536634 6.02067C0.178878 6.97857 0 7.98726 0 9.04676C0 10.2925 0.234644 11.4618 0.703933 12.5547C1.17323 13.6475 1.82295 14.6103 2.6531 15.4431C3.48325 16.2758 4.44496 16.9258 5.53821 17.3929C6.63146 17.86 7.80098 18.0935 9.04677 18.0935ZM10.4491 10.43C10.8197 10.0438 10.9729 9.61732 10.9086 9.15069C10.8443 8.68406 10.5927 8.30516 10.1538 8.01397L5.8636 5.09238C5.67312 4.96385 5.49832 4.92751 5.3392 4.98336C5.18009 5.0392 5.07336 5.14668 5.01902 5.3058C4.96468 5.46492 5.00069 5.63971 5.12704 5.83018L8.04736 10.1269C8.33855 10.5637 8.71746 10.8155 9.1841 10.8824C9.65074 10.9493 10.0724 10.7985 10.4491 10.43Z" fill="#2F2E41"/>
</svg>
