<svg width="138" height="32" viewBox="0 0 138 32" fill="none" xmlns="http://www.w3.org/2000/svg">
<path d="M14.2552 31.9665H6.13675V3.39164C6.13301 3.1146 6.16054 2.83802 6.21884 2.56716C6.27389 2.29741 6.35807 2.03443 6.46989 1.78285C6.60125 1.48643 6.77766 1.21211 6.99286 0.96961C7.18216 0.75804 7.40217 0.576102 7.64551 0.429884C7.84974 0.307692 8.0678 0.210274 8.29508 0.139691C8.57158 0.0516012 8.85951 0.00453697 9.14967 0C9.17632 0 9.19129 0.000685318 9.19155 0.000723391H19.0605C19.0657 0.00095183 19.5967 0.0245953 20.4179 0.18911C20.9055 0.28712 21.3875 0.411549 21.8616 0.561846C22.4527 0.748782 23.0302 0.976133 23.5901 1.24229C24.4206 1.63654 25.2073 2.11719 25.9371 2.67628C26.3345 2.98171 26.7125 3.31165 27.0688 3.66416C27.4438 4.03557 27.7926 4.43248 28.1127 4.85205C28.4509 5.29621 28.7555 5.76504 29.0238 6.25463C29.3101 6.77871 29.5553 7.3243 29.757 7.88644C29.9753 8.49749 30.146 9.12454 30.2674 9.76197C30.4007 10.4664 30.4818 11.1797 30.51 11.8961C30.5368 12.5265 30.52 13.158 30.4598 13.7862C30.4035 14.3672 30.306 14.9436 30.1681 15.5109C30.0381 16.0427 29.8708 16.5646 29.6672 17.0728C29.4736 17.5549 29.2472 18.0232 28.9898 18.4745C28.5043 19.3222 27.915 20.1061 27.2355 20.808C26.6092 21.4554 25.9152 22.0336 25.1654 22.5327C24.4668 22.9958 23.7277 23.3947 22.9572 23.7244C22.3203 23.9979 21.6657 24.2282 20.9979 24.4138C20.4015 24.5797 19.9065 24.6782 19.5962 24.7316C19.2576 24.7898 19.0623 24.8083 19.0604 24.8085H14.2552V31.9665ZM14.2885 7.52513V17.1909H18.6327C18.8726 17.1561 19.1097 17.1046 19.3424 17.0368C19.588 16.9676 19.8293 16.8841 20.0651 16.7867C20.3496 16.6697 20.6243 16.5304 20.8868 16.3701C21.533 15.9733 22.0382 15.4734 22.3886 14.8843C22.5993 14.5278 22.7547 14.1414 22.8493 13.7383C22.9029 13.5112 22.9396 13.2804 22.9592 13.0478C22.9807 12.79 22.9845 12.531 22.9706 12.2727C22.9576 12.0134 22.9288 11.7552 22.8845 11.4994C22.8441 11.2677 22.7888 11.0389 22.719 10.8143C22.596 10.4172 22.4204 10.0383 22.1969 9.68776C21.8194 9.10477 21.3129 8.61643 20.7165 8.26051C20.4702 8.11163 20.2123 7.98278 19.9454 7.87521C19.7279 7.78744 19.5052 7.71314 19.2786 7.65271C19.0668 7.59402 18.8509 7.55141 18.6327 7.52524H14.2886L14.2885 7.52513Z" fill="url(#paint0_linear_3_2350)"/>
<path d="M6.13968 32.0001H14.2654C14.2654 32.0001 14.4491 28.3265 11.3842 25.2236C11.0797 24.8047 10.4502 24.2163 9.46154 23.2455C8.18438 21.9914 6.52216 20.5254 5.3053 19.2868C3.15158 17.0947 2.69641 16.4561 2.69641 16.4561C2.69641 16.4561 4.67298 19.3595 5.53378 23.2455C6.39457 27.1315 6.13968 32.0001 6.13968 32.0001Z" fill="url(#paint1_linear_3_2350)"/>
<path d="M14.2655 32C14.2655 32 14.4311 29.3072 12.2827 26.3011C11.2341 24.8339 9.17928 22.9654 6.15966 20.116C3.14003 17.2666 1.17531 14.5826 0.838891 13.6009C-2.25566 6.43633 4.20859 2.64893 4.20859 2.64893C4.20859 2.64893 3.42699 4.3816 3.4372 6.25709C3.44671 8.01138 4.19649 9.89224 5.89021 10.6121C7.78953 11.4192 9.23102 10.3144 9.85394 9.06826C10.3674 8.04116 10.2116 6.89138 10.2116 6.89138C10.2116 6.89138 11.7925 7.95972 11.6842 10.2486C11.6716 10.5141 11.5405 11.286 11.2944 12.1402C10.9967 13.1481 10.635 14.136 10.2116 15.0978C9.58621 16.4972 8.84991 19.7237 10.651 20.6899C14.6269 22.8227 16.2351 18.105 16.2351 18.105C16.2351 18.105 15.9969 20.9747 18.8355 22.8614C21.674 24.7481 25.4322 22.409 25.4322 22.409C25.4322 22.409 23.2404 24.0654 20.862 24.5088C18.4835 24.9522 14.2688 24.8162 14.2688 24.8162L14.2655 32Z" fill="url(#paint2_linear_3_2350)"/>
<path d="M4.20869 2.64893C4.20869 2.64893 4.24893 4.14044 4.73048 5.25519C5.21203 6.36993 6.13493 7.1079 6.13493 7.1079V10.7508C6.13493 10.7508 4.14484 10.1907 3.56879 7.55161C2.99275 4.91257 4.20869 2.64893 4.20869 2.64893Z" fill="url(#paint3_linear_3_2350)" fill-opacity="0.4"/>
<path d="M10.2361 6.94629C10.2361 6.94629 12.6464 8.23183 13.6505 10.8003C13.7996 11.1816 14.0258 11.8408 14.1332 12.3758C14.1918 12.6597 14.219 12.9492 14.2142 13.2391L14.2527 17.2199H18.6636C18.6636 17.2199 19.9697 19.0648 18.2734 19.8326C16.5771 20.6004 16.1585 18.1967 16.1585 18.1967C16.1585 18.1967 14.3669 23.4046 10.1902 20.3825C9.80184 20.1015 9.61212 19.234 9.52208 18.7347C9.26877 17.3302 9.97475 15.61 10.6916 13.8996C10.9729 13.1534 11.158 12.614 11.309 12.0569C11.3808 11.7919 11.4172 11.4886 11.5096 11.21C12.3743 8.60267 10.2361 6.94629 10.2361 6.94629Z" fill="url(#paint4_linear_3_2350)"/>
<path d="M17.1229 9.31006C17.1229 9.31006 16.1522 10.2103 16.3123 12.1158C16.3351 12.3899 16.4617 13.404 17.1226 14.6172C17.7704 15.8066 18.9524 17.1925 19.0765 18.2407C19.1414 18.7893 18.976 19.2353 18.6552 19.5197C17.9417 20.1519 17.1216 19.8591 16.6955 19.419C16.2248 18.933 16.1977 18.2407 16.1977 18.2407C16.1977 18.2407 16.136 21.9359 19.9487 23.381C22.5767 24.149 26.2914 22.6287 27.38 20.361C27.9418 19.1905 27.69 17.9306 26.813 17.0079C25.8107 15.9533 24.1162 15.3075 22.54 14.537C21.2441 13.9033 20.0333 13.1209 19.3281 12.5146C17.0374 10.5452 17.1229 9.31006 17.1229 9.31006Z" fill="url(#paint5_linear_3_2350)"/>
<path d="M20.5604 8.14746C20.7972 8.3613 20.9438 8.69953 21.0338 9.00563C21.2021 9.59995 21.0894 10.4531 20.1453 10.854C18.432 11.5816 17.117 9.30473 17.117 9.30473C17.117 9.30473 17.2046 10.6893 19.0223 12.2605C20.84 13.8318 22.5973 14.5628 22.5973 14.5628C22.5973 14.5628 23.492 12.7924 22.7305 10.6603C22.1736 8.87652 20.5604 8.14746 20.5604 8.14746Z" fill="url(#paint6_linear_3_2350)"/>
<path d="M34.4344 21.9935H37.3312V16.0411C37.3312 14.4935 38.1645 13.6403 39.5931 13.6403C40.0098 13.6403 40.4066 13.6998 40.6447 13.799V11.2494C40.4265 11.1899 40.1288 11.1403 39.8114 11.1403C38.5713 11.1403 37.7082 11.9042 37.3907 13.2137H37.3312V11.3586H34.4344V21.9935Z" fill="#028076"/>
<path d="M46.359 22.2117C49.5733 22.2117 51.6269 20.1482 51.6269 16.676V16.6562C51.6269 13.2137 49.5336 11.1403 46.3491 11.1403C43.1745 11.1403 41.0911 13.2336 41.0911 16.6562V16.676C41.0911 20.1383 43.1249 22.2117 46.359 22.2117ZM46.3689 19.9399C44.9403 19.9399 44.0376 18.7593 44.0376 16.676V16.6562C44.0376 14.6026 44.9503 13.4121 46.3491 13.4121C47.7578 13.4121 48.6804 14.6026 48.6804 16.6562V16.676C48.6804 18.7494 47.7776 19.9399 46.3689 19.9399Z" fill="#028076"/>
<path d="M57.986 22.2117C60.8233 22.2117 62.6586 20.4459 62.7975 18.1244V18.0649H60.0991L60.0892 18.1542C59.8907 19.2256 59.1665 19.9399 58.0058 19.9399C56.5772 19.9399 55.6844 18.7593 55.6844 16.676V16.6661C55.6844 14.6324 56.5772 13.4121 57.9959 13.4121C59.1963 13.4121 59.9007 14.1859 60.0792 15.1978L60.0991 15.2871H62.7876V15.2177C62.6784 12.9161 60.8431 11.1403 57.9562 11.1403C54.7717 11.1403 52.738 13.2534 52.738 16.6562V16.6661C52.738 20.0986 54.7419 22.2117 57.986 22.2117Z" fill="#028076"/>
<path d="M64.1963 21.9935H67.0931V16.0411C67.0931 14.4935 67.9265 13.6403 69.355 13.6403C69.7717 13.6403 70.1685 13.6998 70.4066 13.799V11.2494C70.1884 11.1899 69.8907 11.1403 69.5733 11.1403C68.3332 11.1403 67.4701 11.9042 67.1526 13.2137H67.0931V11.3586H64.1963V21.9935Z" fill="#028076"/>
<path d="M74.5038 22.1621C75.9026 22.1621 77.0336 21.4974 77.6388 20.4062H77.6983V21.9935H80.5951V14.7018C80.5951 12.559 78.8193 11.1403 76.0713 11.1403C73.2638 11.1403 71.5772 12.549 71.4185 14.5133L71.4086 14.6324H74.0574L74.0772 14.5431C74.2161 13.8586 74.8709 13.3526 75.9522 13.3526C77.0832 13.3526 77.6983 13.9379 77.6983 14.8804V15.5351L75.0693 15.6939C72.4304 15.8625 70.9324 16.9935 70.9324 18.928V18.9478C70.9324 20.8228 72.3709 22.1621 74.5038 22.1621ZM73.7995 18.799V18.7792C73.7995 18.0252 74.3848 17.549 75.5058 17.4796L77.6983 17.3407V18.1046C77.6983 19.2157 76.7459 20.049 75.4463 20.049C74.4443 20.049 73.7995 19.5828 73.7995 18.799Z" fill="#028076"/>
<path d="M86.8451 22.2117C89.5832 22.2117 91.4979 20.8427 91.4979 18.7593V18.7494C91.4979 17.182 90.5852 16.309 88.363 15.8427L86.5574 15.4558C85.486 15.2276 85.1189 14.8705 85.1189 14.3248V14.3149C85.1189 13.6304 85.7439 13.184 86.7459 13.184C87.8173 13.184 88.4423 13.7593 88.5415 14.5232L88.5515 14.6026H91.2201V14.5034C91.1507 12.6383 89.5733 11.1403 86.7459 11.1403C84.0376 11.1403 82.2915 12.4498 82.2915 14.4736V14.4836C82.2915 16.0709 83.3332 17.1026 85.3967 17.5391L87.2023 17.9161C88.2439 18.1443 88.6011 18.4717 88.6011 19.0371V19.047C88.6011 19.7316 87.9364 20.1582 86.8451 20.1582C85.6844 20.1582 85.0594 19.672 84.8709 18.8387L84.8511 18.7494H82.0237L82.0336 18.8387C82.2618 20.8526 83.8987 22.2117 86.8451 22.2117Z" fill="#028076"/>
<path d="M97.1526 22.2117C97.7578 22.2117 98.2241 22.1522 98.5515 22.1026V19.9796C98.3729 19.9994 98.1844 20.0292 97.9265 20.0292C97.0534 20.0292 96.607 19.6919 96.607 18.6998V13.5411H98.5515V11.3586H96.607V8.75935H93.6804V11.3586H92.2023V13.5411H93.6804V19.0173C93.6804 21.299 94.7915 22.2117 97.1526 22.2117Z" fill="#028076"/>
<path d="M101.657 9.98951C102.53 9.98951 103.204 9.30498 103.204 8.48157C103.204 7.65816 102.53 6.97363 101.657 6.97363C100.784 6.97363 100.109 7.65816 100.109 8.48157C100.109 9.30498 100.784 9.98951 101.657 9.98951ZM100.208 21.9935H103.105V11.3586H100.208V21.9935Z" fill="#028076"/>
<path d="M105.049 21.9935H107.946V15.8824C107.946 14.4935 108.77 13.5411 110.069 13.5411C111.369 13.5411 112.024 14.3347 112.024 15.7236V21.9935H114.921V15.1284C114.921 12.6383 113.591 11.1403 111.25 11.1403C109.643 11.1403 108.551 11.8843 108.006 13.1046H107.946V11.3586H105.049V21.9935Z" fill="#028076"/>
<path d="M121.597 22.2117C124.633 22.2117 126.101 20.4161 126.428 18.8486L126.458 18.7395H123.799L123.78 18.799C123.571 19.3943 122.847 20.049 121.657 20.049C120.178 20.049 119.256 19.057 119.226 17.3605H126.547V16.4677C126.547 13.2534 124.593 11.1403 121.478 11.1403C118.363 11.1403 116.369 13.303 116.369 16.6859V16.6959C116.369 20.0986 118.343 22.2117 121.597 22.2117ZM121.528 13.303C122.728 13.303 123.591 14.0669 123.77 15.5351H119.256C119.444 14.0966 120.337 13.303 121.528 13.303Z" fill="#028076"/>
<path d="M132.887 22.2117C135.922 22.2117 137.391 20.4161 137.718 18.8486L137.748 18.7395H135.089L135.069 18.799C134.861 19.3943 134.137 20.049 132.946 20.049C131.468 20.049 130.546 19.057 130.516 17.3605H137.837V16.4677C137.837 13.2534 135.883 11.1403 132.768 11.1403C129.653 11.1403 127.659 13.303 127.659 16.6859V16.6959C127.659 20.0986 129.633 22.2117 132.887 22.2117ZM132.817 13.303C134.018 13.303 134.881 14.0669 135.059 15.5351H130.546C130.734 14.0966 131.627 13.303 132.817 13.303Z" fill="#028076"/>
<defs>
<linearGradient id="paint0_linear_3_2350" x1="18.3294" y1="0" x2="18.3294" y2="31.9665" gradientUnits="userSpaceOnUse">
<stop stop-color="#03887D"/>
<stop offset="0.296875" stop-color="#00766C"/>
<stop offset="0.625" stop-color="#00766C"/>
</linearGradient>
<linearGradient id="paint1_linear_3_2350" x1="7.90054" y1="16.4477" x2="5.59711" y2="31.9815" gradientUnits="userSpaceOnUse">
<stop stop-color="#0A3720"/>
<stop offset="1" stop-color="#03A093" stop-opacity="0.72"/>
</linearGradient>
<linearGradient id="paint2_linear_3_2350" x1="7.76705" y1="3.38854" x2="12.7162" y2="32" gradientUnits="userSpaceOnUse">
<stop stop-color="#34B5AA" stop-opacity="0.85"/>
<stop offset="1" stop-color="#07321C" stop-opacity="0.9"/>
</linearGradient>
<linearGradient id="paint3_linear_3_2350" x1="4.75884" y1="2.91262" x2="5.50127" y2="10.7367" gradientUnits="userSpaceOnUse">
<stop stop-color="#01D268"/>
<stop offset="1" stop-color="#03A093"/>
</linearGradient>
<linearGradient id="paint4_linear_3_2350" x1="14.3077" y1="6.94629" x2="14.3077" y2="21.3256" gradientUnits="userSpaceOnUse">
<stop stop-color="#03A093" stop-opacity="0.23"/>
<stop offset="1" stop-color="#034021"/>
</linearGradient>
<linearGradient id="paint5_linear_3_2350" x1="21.9384" y1="9.31006" x2="21.9384" y2="23.5823" gradientUnits="userSpaceOnUse">
<stop stop-color="#03A093" stop-opacity="0.24"/>
<stop offset="1" stop-color="#1E7146"/>
</linearGradient>
<linearGradient id="paint6_linear_3_2350" x1="20.0109" y1="8.21047" x2="20.0109" y2="14.4795" gradientUnits="userSpaceOnUse">
<stop stop-color="#0A847A" stop-opacity="0.58"/>
<stop offset="1" stop-color="#031E1C" stop-opacity="0.62"/>
</linearGradient>
</defs>
</svg>
