<svg width="263" height="38" viewBox="0 0 263 38" fill="none" xmlns="http://www.w3.org/2000/svg">
<path d="M0.197266 13H1.39258V7.24316H7.22852V6.1709H1.39258V1.40723H7.74707V0.317383H0.197266V13ZM12.5986 13.167C15.0859 13.167 16.7646 11.3389 16.7646 8.42969V8.41211C16.7646 5.50293 15.0771 3.69238 12.5986 3.69238C10.1113 3.69238 8.43262 5.51172 8.43262 8.41211V8.42969C8.43262 11.3301 10.1025 13.1582 12.5986 13.167ZM12.6074 12.1299C10.8057 12.1211 9.62793 10.75 9.62793 8.42969V8.41211C9.62793 6.10938 10.8145 4.72949 12.5986 4.72949C14.3828 4.72949 15.5781 6.10059 15.5781 8.41211V8.42969C15.5781 10.7412 14.3916 12.1299 12.6074 12.1299ZM18.3115 13H19.4717V7.33984C19.4717 5.79297 20.2979 4.80859 21.5986 4.80859C21.9941 4.80859 22.3193 4.87012 22.4688 4.93164V3.79785C22.3281 3.75391 22.0557 3.69238 21.748 3.69238C20.6406 3.69238 19.832 4.38672 19.5068 5.50293H19.4717V3.85938H18.3115V13ZM31.8115 13.167C34.1143 13.167 35.6787 11.2861 35.6787 8.42969V8.4209C35.6787 5.56445 34.1055 3.69238 31.8203 3.69238C30.3877 3.69238 29.21 4.50098 28.6914 5.7666H28.665V0.317383H27.4961V13H28.665V11.0664H28.6914C29.2188 12.3584 30.3701 13.167 31.8115 13.167ZM31.5918 12.1299C29.8691 12.1299 28.6562 10.6357 28.6562 8.42969V8.4209C28.6562 6.22363 29.8867 4.72949 31.5918 4.72949C33.3496 4.72949 34.4834 6.17969 34.4834 8.4209V8.42969C34.4834 10.6885 33.3496 12.1299 31.5918 12.1299ZM40.9258 13.167C42.9033 13.167 44.3623 12.0332 44.6787 10.4688L44.6963 10.3809H43.5449L43.5273 10.46C43.2285 11.4531 42.2969 12.1299 40.9521 12.1299C39.1504 12.1299 37.9814 10.8906 37.9463 8.71094H44.8105V8.25391C44.8105 5.52051 43.2725 3.69238 40.8291 3.69238C38.3857 3.69238 36.7686 5.58203 36.7686 8.44727V8.45605C36.7686 11.3477 38.3594 13.167 40.9258 13.167ZM40.8203 4.72949C42.3848 4.72949 43.5098 5.79297 43.6416 7.78809H37.9639C38.1045 5.8457 39.2646 4.72949 40.8203 4.72949ZM49.0908 13.167C49.3721 13.167 49.6709 13.1318 49.8555 13.0967V12.1475C49.7236 12.165 49.5391 12.1914 49.3281 12.1914C48.4756 12.1914 48.0449 11.8486 48.0449 10.8379V4.83496H49.8555V3.85938H48.0449V1.38965H46.8496V3.85938H45.5049V4.83496H46.8496V10.8555C46.8496 12.4551 47.5879 13.167 49.0908 13.167ZM54.2061 13.167C54.4873 13.167 54.7861 13.1318 54.9707 13.0967V12.1475C54.8389 12.165 54.6543 12.1914 54.4434 12.1914C53.5908 12.1914 53.1602 11.8486 53.1602 10.8379V4.83496H54.9707V3.85938H53.1602V1.38965H51.9648V3.85938H50.6201V4.83496H51.9648V10.8555C51.9648 12.4551 52.7031 13.167 54.2061 13.167ZM59.9805 13.167C61.958 13.167 63.417 12.0332 63.7334 10.4688L63.751 10.3809H62.5996L62.582 10.46C62.2832 11.4531 61.3516 12.1299 60.0068 12.1299C58.2051 12.1299 57.0361 10.8906 57.001 8.71094H63.8652V8.25391C63.8652 5.52051 62.3271 3.69238 59.8838 3.69238C57.4404 3.69238 55.8232 5.58203 55.8232 8.44727V8.45605C55.8232 11.3477 57.4141 13.167 59.9805 13.167ZM59.875 4.72949C61.4395 4.72949 62.5645 5.79297 62.6963 7.78809H57.0186C57.1592 5.8457 58.3193 4.72949 59.875 4.72949ZM65.4209 13H66.5811V7.33984C66.5811 5.79297 67.4072 4.80859 68.708 4.80859C69.1035 4.80859 69.4287 4.87012 69.5781 4.93164V3.79785C69.4375 3.75391 69.165 3.69238 68.8574 3.69238C67.75 3.69238 66.9414 4.38672 66.6162 5.50293H66.5811V3.85938H65.4209V13ZM78.2266 13.167C80.2041 13.167 81.6631 12.0332 81.9795 10.4688L81.9971 10.3809H80.8457L80.8281 10.46C80.5293 11.4531 79.5977 12.1299 78.2529 12.1299C76.4512 12.1299 75.2822 10.8906 75.2471 8.71094H82.1113V8.25391C82.1113 5.52051 80.5732 3.69238 78.1299 3.69238C75.6865 3.69238 74.0693 5.58203 74.0693 8.44727V8.45605C74.0693 11.3477 75.6602 13.167 78.2266 13.167ZM78.1211 4.72949C79.6855 4.72949 80.8105 5.79297 80.9424 7.78809H75.2646C75.4053 5.8457 76.5654 4.72949 78.1211 4.72949ZM82.7354 13H84.0449L86.5586 9.24707H86.585L89.0898 13H90.3994L87.2354 8.35938L90.4346 3.85938H89.1162L86.6289 7.52441H86.5938L84.0889 3.85938H82.7705L85.9521 8.40332L82.7354 13ZM91.6299 16.0762H92.79V11.0928H92.8252C93.3262 12.3145 94.4863 13.167 95.9453 13.167C98.2393 13.167 99.8037 11.3037 99.8037 8.43848V8.42969C99.8037 5.57324 98.248 3.69238 95.9277 3.69238C94.46 3.69238 93.335 4.55371 92.8252 5.79297H92.79V3.85938H91.6299V16.0762ZM95.7256 12.1299C94.0117 12.1299 92.79 10.6445 92.79 8.43848V8.42969C92.79 6.21484 94.0029 4.72949 95.7256 4.72949C97.4834 4.72949 98.6172 6.1709 98.6172 8.42969V8.43848C98.6172 10.6797 97.4834 12.1299 95.7256 12.1299ZM105.068 13.167C107.046 13.167 108.505 12.0332 108.821 10.4688L108.839 10.3809H107.688L107.67 10.46C107.371 11.4531 106.439 12.1299 105.095 12.1299C103.293 12.1299 102.124 10.8906 102.089 8.71094H108.953V8.25391C108.953 5.52051 107.415 3.69238 104.972 3.69238C102.528 3.69238 100.911 5.58203 100.911 8.44727V8.45605C100.911 11.3477 102.502 13.167 105.068 13.167ZM104.963 4.72949C106.527 4.72949 107.652 5.79297 107.784 7.78809H102.106C102.247 5.8457 103.407 4.72949 104.963 4.72949ZM110.509 13H111.669V7.33984C111.669 5.79297 112.495 4.80859 113.796 4.80859C114.191 4.80859 114.517 4.87012 114.666 4.93164V3.79785C114.525 3.75391 114.253 3.69238 113.945 3.69238C112.838 3.69238 112.029 4.38672 111.704 5.50293H111.669V3.85938H110.509V13ZM116.6 2.20703C117.021 2.20703 117.364 1.86426 117.364 1.43359C117.364 1.00293 117.021 0.668945 116.6 0.668945C116.169 0.668945 115.826 1.00293 115.826 1.43359C115.826 1.86426 116.169 2.20703 116.6 2.20703ZM116.011 13H117.18V3.85938H116.011V13ZM122.98 13.167C124.958 13.167 126.417 12.0332 126.733 10.4688L126.751 10.3809H125.6L125.582 10.46C125.283 11.4531 124.352 12.1299 123.007 12.1299C121.205 12.1299 120.036 10.8906 120.001 8.71094H126.865V8.25391C126.865 5.52051 125.327 3.69238 122.884 3.69238C120.44 3.69238 118.823 5.58203 118.823 8.44727V8.45605C118.823 11.3477 120.414 13.167 122.98 13.167ZM122.875 4.72949C124.439 4.72949 125.564 5.79297 125.696 7.78809H120.019C120.159 5.8457 121.319 4.72949 122.875 4.72949ZM128.421 13H129.581V7.58594C129.581 5.88086 130.645 4.73828 132.235 4.73828C133.791 4.73828 134.635 5.64355 134.635 7.33984V13H135.795V7.14648C135.795 5.00195 134.6 3.70117 132.578 3.70117C131.102 3.70117 130.073 4.43066 129.616 5.41504H129.581V3.85938H128.421V13ZM141.455 13.167C143.45 13.167 144.918 11.9102 145.19 10.2051L145.199 10.1348H144.048L144.03 10.2051C143.758 11.3477 142.817 12.1299 141.455 12.1299C139.68 12.1299 138.493 10.7412 138.493 8.43848V8.42969C138.493 6.16211 139.662 4.72949 141.446 4.72949C142.87 4.72949 143.775 5.58203 144.03 6.6543L144.048 6.72461H145.19L145.182 6.64551C144.953 5.07227 143.573 3.69238 141.446 3.69238C138.941 3.69238 137.298 5.53809 137.298 8.41211V8.4209C137.298 11.3301 138.915 13.167 141.455 13.167ZM150.35 13.167C152.327 13.167 153.786 12.0332 154.103 10.4688L154.12 10.3809H152.969L152.951 10.46C152.652 11.4531 151.721 12.1299 150.376 12.1299C148.574 12.1299 147.405 10.8906 147.37 8.71094H154.234V8.25391C154.234 5.52051 152.696 3.69238 150.253 3.69238C147.81 3.69238 146.192 5.58203 146.192 8.44727V8.45605C146.192 11.3477 147.783 13.167 150.35 13.167ZM150.244 4.72949C151.809 4.72949 152.934 5.79297 153.065 7.78809H147.388C147.528 5.8457 148.688 4.72949 150.244 4.72949ZM154.999 15.4521H155.852L156.985 11.3389H155.746L154.999 15.4521ZM166.108 13.1846C166.495 13.1846 166.855 13.1406 167.075 13.1055V11.6377C166.935 11.6553 166.768 11.6729 166.565 11.6729C165.766 11.6729 165.344 11.3916 165.344 10.4512V5.26562H167.075V3.75391H165.344V1.3457H163.401V3.75391H162.074V5.26562H163.401V10.5654C163.401 12.4111 164.28 13.1846 166.108 13.1846ZM171.795 13.1846C173.201 13.1846 174.142 12.543 174.625 11.6113H174.669V13H176.576V3.75391H174.669V9.15039C174.669 10.5918 173.808 11.5498 172.472 11.5498C171.153 11.5498 170.503 10.7764 170.503 9.37891V3.75391H168.604V9.74805C168.604 11.875 169.765 13.1846 171.795 13.1846ZM178.457 13H180.355V7.48926C180.355 6.10938 181.111 5.30957 182.333 5.30957C182.702 5.30957 183.036 5.35352 183.186 5.41504V3.64844C183.036 3.62207 182.799 3.57812 182.526 3.57812C181.472 3.57812 180.698 4.25488 180.399 5.33594H180.355V3.75391H178.457V13ZM184.363 13H186.262V7.6123C186.262 6.1709 187.123 5.2041 188.459 5.2041C189.777 5.2041 190.428 5.98633 190.428 7.375V13H192.335V7.01465C192.335 4.8877 191.166 3.57812 189.136 3.57812C187.738 3.57812 186.789 4.21094 186.306 5.15137H186.262V3.75391H184.363V13ZM200.544 13.167C201.766 13.167 202.838 12.5342 203.374 11.541H203.409V13H205.316V6.62793C205.316 4.77344 203.884 3.57812 201.625 3.57812C199.349 3.57812 197.969 4.7998 197.837 6.39062L197.828 6.4873H199.621L199.639 6.4082C199.797 5.66992 200.474 5.15137 201.572 5.15137C202.75 5.15137 203.409 5.7666 203.409 6.78613V7.48047L200.896 7.62988C198.707 7.76172 197.459 8.74609 197.459 10.3545V10.3721C197.459 12.0332 198.698 13.167 200.544 13.167ZM199.375 10.3281V10.3105C199.375 9.52832 200.008 9.02734 201.15 8.95703L203.409 8.81641V9.53711C203.409 10.7412 202.398 11.6465 201.062 11.6465C200.043 11.6465 199.375 11.1367 199.375 10.3281ZM210.309 13.1846C211.715 13.1846 212.655 12.543 213.139 11.6113H213.183V13H215.09V3.75391H213.183V9.15039C213.183 10.5918 212.321 11.5498 210.985 11.5498C209.667 11.5498 209.017 10.7764 209.017 9.37891V3.75391H207.118V9.74805C207.118 11.875 208.278 13.1846 210.309 13.1846ZM220.425 13.1846C221.752 13.1846 222.771 12.5166 223.325 11.4355H223.36V13H225.268V0.317383H223.36V5.32715H223.325C222.771 4.2373 221.717 3.57812 220.407 3.57812C218.087 3.57812 216.558 5.42383 216.558 8.36816V8.37695C216.558 11.3213 218.069 13.1846 220.425 13.1846ZM220.926 11.5498C219.423 11.5498 218.5 10.3457 218.5 8.37695V8.36816C218.5 6.41699 219.432 5.2041 220.926 5.2041C222.35 5.2041 223.369 6.45215 223.369 8.36816V8.37695C223.369 10.3018 222.358 11.5498 220.926 11.5498ZM228.247 2.33008C228.871 2.33008 229.354 1.83789 229.354 1.24023C229.354 0.633789 228.871 0.141602 228.247 0.141602C227.632 0.141602 227.14 0.633789 227.14 1.24023C227.14 1.83789 227.632 2.33008 228.247 2.33008ZM227.298 13H229.196V3.75391H227.298V13ZM235.129 13.1846C237.774 13.1846 239.515 11.3564 239.515 8.37695V8.35938C239.515 5.39746 237.757 3.57812 235.12 3.57812C232.492 3.57812 230.743 5.40625 230.743 8.35938V8.37695C230.743 11.3477 232.475 13.1846 235.129 13.1846ZM235.138 11.5938C233.652 11.5938 232.686 10.4248 232.686 8.37695V8.35938C232.686 6.33789 233.661 5.16895 235.12 5.16895C236.605 5.16895 237.572 6.33789 237.572 8.35938V8.37695C237.572 10.416 236.623 11.5938 235.138 11.5938ZM248.611 13.1846C251.257 13.1846 252.997 11.3564 252.997 8.37695V8.35938C252.997 5.39746 251.239 3.57812 248.603 3.57812C245.975 3.57812 244.226 5.40625 244.226 8.35938V8.37695C244.226 11.3477 245.957 13.1846 248.611 13.1846ZM248.62 11.5938C247.135 11.5938 246.168 10.4248 246.168 8.37695V8.35938C246.168 6.33789 247.144 5.16895 248.603 5.16895C250.088 5.16895 251.055 6.33789 251.055 8.35938V8.37695C251.055 10.416 250.105 11.5938 248.62 11.5938ZM254.465 13H256.363V7.6123C256.363 6.1709 257.225 5.2041 258.561 5.2041C259.879 5.2041 260.529 5.98633 260.529 7.375V13H262.437V7.01465C262.437 4.8877 261.268 3.57812 259.237 3.57812C257.84 3.57812 256.891 4.21094 256.407 5.15137H256.363V3.75391H254.465V13ZM62.0459 34.167C64.5332 34.167 66.2119 32.3389 66.2119 29.4297V29.4121C66.2119 26.5029 64.5244 24.6924 62.0459 24.6924C59.5586 24.6924 57.8799 26.5117 57.8799 29.4121V29.4297C57.8799 32.3301 59.5498 34.1582 62.0459 34.167ZM62.0547 33.1299C60.2529 33.1211 59.0752 31.75 59.0752 29.4297V29.4121C59.0752 27.1094 60.2617 25.7295 62.0459 25.7295C63.8301 25.7295 65.0254 27.1006 65.0254 29.4121V29.4297C65.0254 31.7412 63.8389 33.1299 62.0547 33.1299ZM67.7588 34H68.9189V28.3398C68.9189 26.793 69.7451 25.8086 71.0459 25.8086C71.4414 25.8086 71.7666 25.8701 71.916 25.9316V24.7979C71.7754 24.7539 71.5029 24.6924 71.1953 24.6924C70.0879 24.6924 69.2793 25.3867 68.9541 26.5029H68.9189V24.8594H67.7588V34ZM79.9141 34.1846C81.3203 34.1846 82.2607 33.543 82.7441 32.6113H82.7881V34H84.6953V24.7539H82.7881V30.1504C82.7881 31.5918 81.9268 32.5498 80.5908 32.5498C79.2725 32.5498 78.6221 31.7764 78.6221 30.3789V24.7539H76.7236V30.748C76.7236 32.875 77.8838 34.1846 79.9141 34.1846ZM90.0391 34.1846C92.2188 34.1846 93.8008 33.0244 93.8008 31.3369V31.3281C93.8008 30.001 93.0801 29.2539 91.1904 28.8145L89.6875 28.4717C88.6943 28.2344 88.3164 27.8477 88.3164 27.2764V27.2676C88.3164 26.5293 88.958 26.0459 89.9775 26.0459C91.0498 26.0459 91.6826 26.6084 91.7969 27.417L91.8057 27.4785H93.5898L93.5811 27.373C93.4844 25.7998 92.166 24.5781 89.9775 24.5781C87.8506 24.5781 86.4092 25.7119 86.4092 27.3643V27.373C86.4092 28.7178 87.2793 29.5615 89.0371 29.9658L90.5488 30.3086C91.542 30.5459 91.876 30.8887 91.876 31.4863V31.4951C91.876 32.2422 91.1904 32.7168 90.0479 32.7168C88.8789 32.7168 88.2461 32.2158 88.0703 31.3633L88.0527 31.2754H86.1719L86.1807 31.3545C86.374 33.042 87.7275 34.1846 90.0391 34.1846ZM99.2236 34.1846C101.465 34.1846 102.889 32.8486 103.188 31.3809L103.205 31.2842H101.403L101.377 31.3545C101.14 32.0488 100.393 32.6289 99.2676 32.6289C97.7559 32.6289 96.7979 31.6094 96.7627 29.8604H103.311V29.2188C103.311 26.4414 101.72 24.5781 99.127 24.5781C96.5342 24.5781 94.8643 26.5117 94.8643 29.4033V29.4121C94.8643 32.3301 96.5078 34.1846 99.2236 34.1846ZM99.1357 26.1338C100.375 26.1338 101.271 26.916 101.43 28.5156H96.7891C96.9561 26.9688 97.9053 26.1338 99.1357 26.1338ZM108.514 34H110.412V28.6475C110.412 27.2061 111.282 26.2041 112.592 26.2041C113.928 26.2041 114.701 27.1182 114.701 28.6475V34H116.6V28.2871C116.6 26.0547 115.299 24.5781 113.321 24.5781C111.941 24.5781 110.948 25.2021 110.456 26.2744H110.412V21.3174H108.514V34ZM122.392 34.1846C124.633 34.1846 126.057 32.8486 126.355 31.3809L126.373 31.2842H124.571L124.545 31.3545C124.308 32.0488 123.561 32.6289 122.436 32.6289C120.924 32.6289 119.966 31.6094 119.931 29.8604H126.479V29.2188C126.479 26.4414 124.888 24.5781 122.295 24.5781C119.702 24.5781 118.032 26.5117 118.032 29.4033V29.4121C118.032 32.3301 119.676 34.1846 122.392 34.1846ZM122.304 26.1338C123.543 26.1338 124.439 26.916 124.598 28.5156H119.957C120.124 26.9688 121.073 26.1338 122.304 26.1338ZM130.671 34.167C131.893 34.167 132.965 33.5342 133.501 32.541H133.536V34H135.443V27.6279C135.443 25.7734 134.011 24.5781 131.752 24.5781C129.476 24.5781 128.096 25.7998 127.964 27.3906L127.955 27.4873H129.748L129.766 27.4082C129.924 26.6699 130.601 26.1514 131.699 26.1514C132.877 26.1514 133.536 26.7666 133.536 27.7861V28.4805L131.022 28.6299C128.834 28.7617 127.586 29.7461 127.586 31.3545V31.3721C127.586 33.0332 128.825 34.167 130.671 34.167ZM129.502 31.3281V31.3105C129.502 30.5283 130.135 30.0273 131.277 29.957L133.536 29.8164V30.5371C133.536 31.7412 132.525 32.6465 131.189 32.6465C130.17 32.6465 129.502 32.1367 129.502 31.3281ZM140.743 34.1846C142.07 34.1846 143.09 33.5166 143.644 32.4355H143.679V34H145.586V21.3174H143.679V26.3271H143.644C143.09 25.2373 142.035 24.5781 140.726 24.5781C138.405 24.5781 136.876 26.4238 136.876 29.3682V29.377C136.876 32.3213 138.388 34.1846 140.743 34.1846ZM141.244 32.5498C139.741 32.5498 138.818 31.3457 138.818 29.377V29.3682C138.818 27.417 139.75 26.2041 141.244 26.2041C142.668 26.2041 143.688 27.4521 143.688 29.3682V29.377C143.688 31.3018 142.677 32.5498 141.244 32.5498ZM147.537 37.0762H149.436V32.4443H149.479C150.024 33.5166 151.088 34.1846 152.397 34.1846C154.718 34.1846 156.238 32.3301 156.238 29.3857V29.377C156.238 26.4238 154.727 24.5781 152.371 24.5781C151.053 24.5781 150.033 25.2461 149.479 26.3447H149.436V24.7539H147.537V37.0762ZM151.879 32.5498C150.446 32.5498 149.427 31.3018 149.427 29.3857V29.377C149.427 27.4521 150.438 26.2041 151.879 26.2041C153.364 26.2041 154.305 27.4082 154.305 29.377V29.3857C154.305 31.3369 153.373 32.5498 151.879 32.5498ZM157.785 34H159.684V28.6475C159.684 27.2061 160.554 26.2041 161.863 26.2041C163.199 26.2041 163.973 27.1182 163.973 28.6475V34H165.871V28.2871C165.871 26.0547 164.57 24.5781 162.593 24.5781C161.213 24.5781 160.22 25.2021 159.728 26.2744H159.684V21.3174H157.785V34ZM171.689 34.1846C174.335 34.1846 176.075 32.3564 176.075 29.377V29.3594C176.075 26.3975 174.317 24.5781 171.681 24.5781C169.053 24.5781 167.304 26.4062 167.304 29.3594V29.377C167.304 32.3477 169.035 34.1846 171.689 34.1846ZM171.698 32.5938C170.213 32.5938 169.246 31.4248 169.246 29.377V29.3594C169.246 27.3379 170.222 26.1689 171.681 26.1689C173.166 26.1689 174.133 27.3379 174.133 29.3594V29.377C174.133 31.416 173.184 32.5938 171.698 32.5938ZM177.543 34H179.441V28.6123C179.441 27.1709 180.303 26.2041 181.639 26.2041C182.957 26.2041 183.607 26.9863 183.607 28.375V34H185.515V28.0146C185.515 25.8877 184.346 24.5781 182.315 24.5781C180.918 24.5781 179.969 25.2109 179.485 26.1514H179.441V24.7539H177.543V34ZM191.298 34.1846C193.539 34.1846 194.963 32.8486 195.262 31.3809L195.279 31.2842H193.478L193.451 31.3545C193.214 32.0488 192.467 32.6289 191.342 32.6289C189.83 32.6289 188.872 31.6094 188.837 29.8604H195.385V29.2188C195.385 26.4414 193.794 24.5781 191.201 24.5781C188.608 24.5781 186.938 26.5117 186.938 29.4033V29.4121C186.938 32.3301 188.582 34.1846 191.298 34.1846ZM191.21 26.1338C192.449 26.1338 193.346 26.916 193.504 28.5156H188.863C189.03 26.9688 189.979 26.1338 191.21 26.1338ZM200.324 34.1846C202.504 34.1846 204.086 33.0244 204.086 31.3369V31.3281C204.086 30.001 203.365 29.2539 201.476 28.8145L199.973 28.4717C198.979 28.2344 198.602 27.8477 198.602 27.2764V27.2676C198.602 26.5293 199.243 26.0459 200.263 26.0459C201.335 26.0459 201.968 26.6084 202.082 27.417L202.091 27.4785H203.875L203.866 27.373C203.77 25.7998 202.451 24.5781 200.263 24.5781C198.136 24.5781 196.694 25.7119 196.694 27.3643V27.373C196.694 28.7178 197.564 29.5615 199.322 29.9658L200.834 30.3086C201.827 30.5459 202.161 30.8887 202.161 31.4863V31.4951C202.161 32.2422 201.476 32.7168 200.333 32.7168C199.164 32.7168 198.531 32.2158 198.355 31.3633L198.338 31.2754H196.457L196.466 31.3545C196.659 33.042 198.013 34.1846 200.324 34.1846ZM206.644 34.1318C207.285 34.1318 207.795 33.6221 207.795 32.9805C207.795 32.3301 207.285 31.8291 206.644 31.8291C205.993 31.8291 205.483 32.3301 205.483 32.9805C205.483 33.6221 205.993 34.1318 206.644 34.1318Z" fill="black"/>
</svg>
