<svg width="158" height="45" viewBox="0 0 158 45" fill="none" xmlns="http://www.w3.org/2000/svg">
<path d="M38.418 16.5156C38.4831 16.3594 38.5807 16.2617 38.7109 16.2227C38.8542 16.1836 39.0039 16.2812 39.1602 16.5156C39.1602 16.5417 39.2188 16.5807 39.3359 16.6328C39.4661 16.6719 39.6224 16.724 39.8047 16.7891C40 16.8411 40.2214 16.8997 40.4688 16.9648C40.7292 17.0169 40.9831 17.069 41.2305 17.1211C41.4779 17.1602 41.7188 17.1992 41.9531 17.2383C42.1875 17.2643 42.3893 17.2773 42.5586 17.2773C43.0013 17.2773 43.4049 17.1862 43.7695 17.0039C44.1471 16.8086 44.4661 16.5612 44.7266 16.2617C45 15.9622 45.2083 15.6237 45.3516 15.2461C45.4948 14.8555 45.5664 14.4583 45.5664 14.0547C45.5664 13.9375 45.5469 13.7357 45.5078 13.4492C45.4688 13.1497 45.4036 12.8568 45.3125 12.5703C45.2214 12.2708 45.0977 12.0039 44.9414 11.7695C44.7982 11.5352 44.6224 11.418 44.4141 11.418C43.0599 11.5742 41.9466 11.6393 41.0742 11.6133C40.2148 11.5742 39.5312 11.4701 39.0234 11.3008C38.5156 11.1315 38.1576 10.9036 37.9492 10.6172C37.7539 10.3177 37.6497 9.97917 37.6367 9.60156C37.6367 9.13281 37.7539 8.68359 37.9883 8.25391C38.2227 7.8112 38.5221 7.42057 38.8867 7.08203C39.2513 6.74349 39.6549 6.47656 40.0977 6.28125C40.5534 6.07292 41.0026 5.96875 41.4453 5.96875C41.8099 5.96875 42.1875 6.01432 42.5781 6.10547C42.9818 6.19661 43.3529 6.33984 43.6914 6.53516C44.0299 6.71745 44.3034 6.96484 44.5117 7.27734C44.7331 7.57682 44.8438 7.94141 44.8438 8.37109C44.5312 8.37109 44.2448 8.28646 43.9844 8.11719C43.724 7.9349 43.4635 7.74609 43.2031 7.55078C42.9427 7.35547 42.6693 7.17318 42.3828 7.00391C42.0964 6.82161 41.7643 6.73047 41.3867 6.73047C41.0742 6.73047 40.7552 6.80859 40.4297 6.96484C40.1172 7.12109 39.8307 7.32292 39.5703 7.57031C39.3229 7.81771 39.1146 8.09766 38.9453 8.41016C38.7891 8.70964 38.7109 9.02214 38.7109 9.34766C38.7109 9.47786 38.7109 9.62109 38.7109 9.77734C38.724 9.92057 38.7565 10.0638 38.8086 10.207C38.8607 10.3372 38.9388 10.4479 39.043 10.5391C39.1602 10.6302 39.3229 10.6758 39.5312 10.6758H44.7852C45.0065 10.6758 45.1953 10.7474 45.3516 10.8906C45.5208 11.0208 45.6576 11.1901 45.7617 11.3984C45.8789 11.6068 45.9701 11.8411 46.0352 12.1016C46.1133 12.362 46.1719 12.6159 46.2109 12.8633C46.263 13.1107 46.2956 13.3451 46.3086 13.5664C46.3216 13.7747 46.3281 13.9375 46.3281 14.0547C46.3281 14.5625 46.2565 15.0443 46.1133 15.5C45.9701 15.9427 45.7552 16.3464 45.4688 16.7109C45.1823 17.0625 44.8242 17.3555 44.3945 17.5898C43.9648 17.8112 43.4701 17.9479 42.9102 18C42.6367 18.026 42.2786 18.0195 41.8359 17.9805C41.4062 17.9414 40.9701 17.8698 40.5273 17.7656C40.0846 17.6484 39.668 17.4922 39.2773 17.2969C38.8867 17.0885 38.6003 16.8281 38.418 16.5156ZM47.8125 2.82422C47.9948 2.85026 48.151 2.90234 48.2812 2.98047C48.4245 3.04557 48.5352 3.16927 48.6133 3.35156C48.6133 3.59896 48.6198 3.94401 48.6328 4.38672C48.6589 4.81641 48.6784 5.31771 48.6914 5.89062C48.7174 6.46354 48.7435 7.08203 48.7695 7.74609C48.7956 8.41016 48.8216 9.08073 48.8477 9.75781C48.8737 10.4349 48.8932 11.1055 48.9062 11.7695C48.9323 12.4336 48.9518 13.0521 48.9648 13.625C48.9909 14.1979 49.0104 14.7057 49.0234 15.1484C49.0365 15.5911 49.0495 15.9297 49.0625 16.1641C49.0625 16.1901 49.056 16.2357 49.043 16.3008C49.043 16.3659 49.0365 16.444 49.0234 16.5352C49.0234 16.6263 49.0169 16.7174 49.0039 16.8086C49.0039 16.8867 49.0039 16.9453 49.0039 16.9844C48.9909 17.0625 48.9844 17.1602 48.9844 17.2773C48.9844 17.3815 48.9714 17.4857 48.9453 17.5898C48.9193 17.694 48.8737 17.7917 48.8086 17.8828C48.7565 17.9609 48.6654 18.0065 48.5352 18.0195L48.2031 17.6094C48.1901 17.5964 48.1706 17.3555 48.1445 16.8867C48.1315 16.4049 48.1055 15.7865 48.0664 15.0312C48.0404 14.263 48.0143 13.4036 47.9883 12.4531C47.9622 11.4896 47.9297 10.5195 47.8906 9.54297C47.8646 8.56641 47.8385 7.62891 47.8125 6.73047C47.7865 5.83203 47.7669 5.05729 47.7539 4.40625C47.7539 4.35417 47.7539 4.25 47.7539 4.09375C47.7669 3.9375 47.7734 3.78125 47.7734 3.625C47.7865 3.45573 47.793 3.29948 47.793 3.15625C47.806 3 47.8125 2.88932 47.8125 2.82422ZM51.0938 10.4219C51.25 10.4219 51.3802 10.4154 51.4844 10.4023C51.6016 10.3893 51.6992 10.4544 51.7773 10.5977C51.8164 11.1836 51.862 11.7826 51.9141 12.3945C51.9661 12.9935 52.0182 13.599 52.0703 14.2109C52.1224 14.8229 52.1549 15.4414 52.168 16.0664C52.194 16.6784 52.2005 17.2773 52.1875 17.8633C52.1875 17.9414 52.168 17.987 52.1289 18C52.0898 18.026 52.0312 18.0326 51.9531 18.0195C51.888 18.0195 51.8034 18.013 51.6992 18C51.6081 18 51.5039 18.013 51.3867 18.0391L51.0938 10.4219ZM49.9609 6.92578C49.9609 6.83464 49.9674 6.73698 49.9805 6.63281C49.9935 6.51562 50.0195 6.41146 50.0586 6.32031C50.1107 6.22917 50.1693 6.15104 50.2344 6.08594C50.3125 6.02083 50.4036 5.98828 50.5078 5.98828C50.6641 5.98828 50.8203 5.99479 50.9766 6.00781C51.1328 6.02083 51.2826 6.05339 51.4258 6.10547C51.569 6.14453 51.6862 6.21615 51.7773 6.32031C51.8685 6.41146 51.9141 6.54818 51.9141 6.73047C51.9141 7.04297 51.7969 7.32292 51.5625 7.57031C51.3281 7.80469 51.0417 7.92188 50.7031 7.92188C50.4427 7.92188 50.2539 7.82422 50.1367 7.62891C50.0195 7.42057 49.9609 7.1862 49.9609 6.92578ZM51.0938 7.02344C51.0547 7.02344 51.0352 7.05599 51.0352 7.12109C51.0352 7.1862 51.0547 7.21875 51.0938 7.21875C51.1458 7.21875 51.1719 7.1862 51.1719 7.12109C51.1719 7.05599 51.1458 7.02344 51.0938 7.02344ZM52.6758 15.168C52.6758 14.8164 52.7344 14.4323 52.8516 14.0156C52.9688 13.5859 53.138 13.1953 53.3594 12.8438C53.5807 12.4792 53.8477 12.1797 54.1602 11.9453C54.4727 11.7109 54.8372 11.5938 55.2539 11.5938C55.5664 11.5938 55.8398 11.6263 56.0742 11.6914C56.3216 11.7435 56.5495 11.8411 56.7578 11.9844C56.9792 12.1146 57.181 12.2773 57.3633 12.4727C57.5586 12.6549 57.7604 12.8698 57.9688 13.1172L57.8516 3.09766C58.2031 2.96745 58.418 2.91536 58.4961 2.94141C58.5872 2.96745 58.6328 3.07812 58.6328 3.27344C58.6328 3.29948 58.6263 3.33854 58.6133 3.39062C58.6133 3.44271 58.6133 3.47526 58.6133 3.48828C58.6003 3.73568 58.5872 4.08724 58.5742 4.54297C58.5742 4.9987 58.5742 5.52604 58.5742 6.125C58.5872 6.72396 58.6003 7.375 58.6133 8.07812C58.6263 8.76823 58.6393 9.47135 58.6523 10.1875C58.6654 10.8906 58.6784 11.5938 58.6914 12.2969C58.7174 12.987 58.7305 13.6315 58.7305 14.2305C58.7435 14.8294 58.7435 15.3633 58.7305 15.832C58.7305 16.2878 58.724 16.6328 58.7109 16.8672C58.5677 17.1667 58.3659 17.3945 58.1055 17.5508C57.8581 17.707 57.5846 17.8242 57.2852 17.9023C56.9987 17.9674 56.6992 18.0065 56.3867 18.0195C56.0742 18.0326 55.7812 18.0391 55.5078 18.0391C54.6354 18.0391 53.9453 17.7852 53.4375 17.2773C52.9297 16.7565 52.6758 16.0534 52.6758 15.168ZM53.457 14.6406C53.457 14.9661 53.4831 15.2917 53.5352 15.6172C53.5872 15.9297 53.6784 16.2096 53.8086 16.457C53.9388 16.7044 54.1211 16.9062 54.3555 17.0625C54.5898 17.2057 54.8893 17.2773 55.2539 17.2773C55.4753 17.2773 55.7422 17.2773 56.0547 17.2773C56.3672 17.2773 56.6667 17.2448 56.9531 17.1797C57.2396 17.1016 57.4805 16.9844 57.6758 16.8281C57.8711 16.6719 57.9688 16.4505 57.9688 16.1641C57.9688 15.8255 57.9167 15.4414 57.8125 15.0117C57.7214 14.569 57.5716 14.1523 57.3633 13.7617C57.168 13.3581 56.9141 13.0195 56.6016 12.7461C56.3021 12.4596 55.944 12.3164 55.5273 12.3164C55.2539 12.3164 54.9935 12.388 54.7461 12.5312C54.4987 12.6745 54.2773 12.8568 54.082 13.0781C53.8997 13.2995 53.75 13.5469 53.6328 13.8203C53.5156 14.0938 53.457 14.3672 53.457 14.6406ZM59.6484 13.4102C59.6484 13.0195 59.7331 12.5898 59.9023 12.1211C60.0716 11.6393 60.2995 11.1966 60.5859 10.793C60.8854 10.3763 61.2174 10.0312 61.582 9.75781C61.9596 9.47135 62.3503 9.32812 62.7539 9.32812C62.9753 9.32812 63.1901 9.3737 63.3984 9.46484C63.6198 9.55599 63.8281 9.67969 64.0234 9.83594C64.2318 9.97917 64.4141 10.1484 64.5703 10.3438C64.7396 10.526 64.8698 10.7214 64.9609 10.9297C65.0521 11.138 65.0977 11.3398 65.0977 11.5352C65.1107 11.7305 65.0586 11.8997 64.9414 12.043L60.8203 12.8047C60.7682 12.8177 60.7227 12.8828 60.6836 13C60.6445 13.1042 60.612 13.2409 60.5859 13.4102C60.5599 13.5794 60.5339 13.7682 60.5078 13.9766C60.4948 14.1719 60.4818 14.3672 60.4688 14.5625C60.4557 14.7448 60.4492 14.9141 60.4492 15.0703C60.4492 15.2135 60.4492 15.3242 60.4492 15.4023C60.4492 15.7669 60.5339 16.0664 60.7031 16.3008C60.8854 16.5221 61.1133 16.6914 61.3867 16.8086C61.6602 16.9258 61.9661 17.0039 62.3047 17.043C62.6562 17.082 63.0013 17.1016 63.3398 17.1016C63.6784 17.1016 63.9974 17.0885 64.2969 17.0625C64.5964 17.0365 64.8438 17.0234 65.0391 17.0234C65.0391 17.0755 65.0195 17.1341 64.9805 17.1992C64.9414 17.2643 64.8958 17.3294 64.8438 17.3945C64.7917 17.4466 64.7396 17.4987 64.6875 17.5508C64.6354 17.5898 64.6029 17.6159 64.5898 17.6289C64.4857 17.6549 64.3229 17.694 64.1016 17.7461C63.8932 17.7852 63.6654 17.8242 63.418 17.8633C63.1836 17.9023 62.9622 17.9349 62.7539 17.9609C62.5456 17.987 62.4023 18 62.3242 18C61.9206 18.0781 61.569 18.0716 61.2695 17.9805C60.9701 17.8893 60.7161 17.7331 60.5078 17.5117C60.2995 17.2904 60.1302 17.0234 60 16.7109C59.8698 16.3854 59.7721 16.0404 59.707 15.6758C59.6419 15.3112 59.6029 14.9336 59.5898 14.543C59.5898 14.1523 59.6094 13.7747 59.6484 13.4102ZM62.4805 10.0703C62.3633 10.0703 62.207 10.1354 62.0117 10.2656C61.8294 10.3828 61.6536 10.5391 61.4844 10.7344C61.3281 10.9167 61.1914 11.1185 61.0742 11.3398C60.9701 11.5482 60.9375 11.7305 60.9766 11.8867C61.3151 11.9258 61.6667 11.9193 62.0312 11.8672C62.3958 11.8151 62.7279 11.737 63.0273 11.6328C63.3268 11.5156 63.5742 11.3854 63.7695 11.2422C63.9648 11.0859 64.056 10.9297 64.043 10.7734C64.043 10.6172 63.9193 10.4805 63.6719 10.3633C63.4375 10.2331 63.0404 10.1354 62.4805 10.0703ZM74.082 2.82422C74.2643 2.85026 74.4206 2.90234 74.5508 2.98047C74.694 3.04557 74.8047 3.16927 74.8828 3.35156C74.8828 3.59896 74.8893 3.94401 74.9023 4.38672C74.9284 4.81641 74.9479 5.31771 74.9609 5.89062C74.987 6.46354 75.013 7.08203 75.0391 7.74609C75.0651 8.41016 75.0911 9.08073 75.1172 9.75781C75.1432 10.4349 75.1628 11.1055 75.1758 11.7695C75.2018 12.4336 75.2214 13.0521 75.2344 13.625C75.2604 14.1979 75.2799 14.7057 75.293 15.1484C75.306 15.5911 75.319 15.9297 75.332 16.1641C75.332 16.1901 75.3255 16.2357 75.3125 16.3008C75.3125 16.3659 75.306 16.444 75.293 16.5352C75.293 16.6263 75.2865 16.7174 75.2734 16.8086C75.2734 16.8867 75.2734 16.9453 75.2734 16.9844C75.2604 17.0625 75.2539 17.1602 75.2539 17.2773C75.2539 17.3815 75.2409 17.4857 75.2148 17.5898C75.1888 17.694 75.1432 17.7917 75.0781 17.8828C75.026 17.9609 74.9349 18.0065 74.8047 18.0195L74.4727 17.6094C74.4596 17.5964 74.4401 17.3555 74.4141 16.8867C74.401 16.4049 74.375 15.7865 74.3359 15.0312C74.3099 14.263 74.2839 13.4036 74.2578 12.4531C74.2318 11.4896 74.1992 10.5195 74.1602 9.54297C74.1341 8.56641 74.1081 7.62891 74.082 6.73047C74.056 5.83203 74.0365 5.05729 74.0234 4.40625C74.0234 4.35417 74.0234 4.25 74.0234 4.09375C74.0365 3.9375 74.043 3.78125 74.043 3.625C74.056 3.45573 74.0625 3.29948 74.0625 3.15625C74.0755 3 74.082 2.88932 74.082 2.82422ZM76.5625 13.4102C76.5625 13.0195 76.6471 12.5898 76.8164 12.1211C76.9857 11.6393 77.2135 11.1966 77.5 10.793C77.7995 10.3763 78.1315 10.0312 78.4961 9.75781C78.8737 9.47135 79.2643 9.32812 79.668 9.32812C79.8893 9.32812 80.1042 9.3737 80.3125 9.46484C80.5339 9.55599 80.7422 9.67969 80.9375 9.83594C81.1458 9.97917 81.3281 10.1484 81.4844 10.3438C81.6536 10.526 81.7839 10.7214 81.875 10.9297C81.9661 11.138 82.0117 11.3398 82.0117 11.5352C82.0247 11.7305 81.9727 11.8997 81.8555 12.043L77.7344 12.8047C77.6823 12.8177 77.6367 12.8828 77.5977 13C77.5586 13.1042 77.526 13.2409 77.5 13.4102C77.474 13.5794 77.4479 13.7682 77.4219 13.9766C77.4089 14.1719 77.3958 14.3672 77.3828 14.5625C77.3698 14.7448 77.3633 14.9141 77.3633 15.0703C77.3633 15.2135 77.3633 15.3242 77.3633 15.4023C77.3633 15.7669 77.4479 16.0664 77.6172 16.3008C77.7995 16.5221 78.0273 16.6914 78.3008 16.8086C78.5742 16.9258 78.8802 17.0039 79.2188 17.043C79.5703 17.082 79.9154 17.1016 80.2539 17.1016C80.5924 17.1016 80.9115 17.0885 81.2109 17.0625C81.5104 17.0365 81.7578 17.0234 81.9531 17.0234C81.9531 17.0755 81.9336 17.1341 81.8945 17.1992C81.8555 17.2643 81.8099 17.3294 81.7578 17.3945C81.7057 17.4466 81.6536 17.4987 81.6016 17.5508C81.5495 17.5898 81.5169 17.6159 81.5039 17.6289C81.3997 17.6549 81.237 17.694 81.0156 17.7461C80.8073 17.7852 80.5794 17.8242 80.332 17.8633C80.0977 17.9023 79.8763 17.9349 79.668 17.9609C79.4596 17.987 79.3164 18 79.2383 18C78.8346 18.0781 78.4831 18.0716 78.1836 17.9805C77.8841 17.8893 77.6302 17.7331 77.4219 17.5117C77.2135 17.2904 77.0443 17.0234 76.9141 16.7109C76.7839 16.3854 76.6862 16.0404 76.6211 15.6758C76.556 15.3112 76.5169 14.9336 76.5039 14.543C76.5039 14.1523 76.5234 13.7747 76.5625 13.4102ZM79.3945 10.0703C79.2773 10.0703 79.1211 10.1354 78.9258 10.2656C78.7435 10.3828 78.5677 10.5391 78.3984 10.7344C78.2422 10.9167 78.1055 11.1185 77.9883 11.3398C77.8841 11.5482 77.8516 11.7305 77.8906 11.8867C78.2292 11.9258 78.5807 11.9193 78.9453 11.8672C79.3099 11.8151 79.6419 11.737 79.9414 11.6328C80.2409 11.5156 80.4883 11.3854 80.6836 11.2422C80.8789 11.0859 80.9701 10.9297 80.957 10.7734C80.957 10.6172 80.8333 10.4805 80.5859 10.3633C80.3516 10.2331 79.9544 10.1354 79.3945 10.0703ZM85.1758 17.9023C85.293 17.069 85.3711 16.3789 85.4102 15.832C85.4492 15.2852 85.4622 14.8164 85.4492 14.4258C85.4492 14.0221 85.4427 13.6706 85.4297 13.3711C85.4167 13.0586 85.4167 12.7331 85.4297 12.3945C85.2604 12.3945 85.0781 12.4336 84.8828 12.5117C84.6875 12.5898 84.4857 12.681 84.2773 12.7852C84.069 12.8763 83.8607 12.9609 83.6523 13.0391C83.457 13.1172 83.2747 13.1562 83.1055 13.1562C83.0404 13.1562 82.9948 13.1302 82.9688 13.0781C82.9557 13.026 82.9427 12.9609 82.9297 12.8828C82.9167 12.8047 82.9036 12.7266 82.8906 12.6484C82.8906 12.5573 82.8711 12.4661 82.832 12.375L85.4688 11.2422C85.2214 9.28906 85.1302 7.66146 85.1953 6.35938C85.2734 5.04427 85.4622 3.98958 85.7617 3.19531C86.0742 2.38802 86.4779 1.80208 86.9727 1.4375C87.4805 1.0599 88.0404 0.825521 88.6523 0.734375C89.1341 0.734375 89.5898 0.832031 90.0195 1.02734C90.4622 1.20964 90.8464 1.46354 91.1719 1.78906C91.5104 2.11458 91.7773 2.49219 91.9727 2.92188C92.181 3.35156 92.2852 3.80729 92.2852 4.28906C92.0768 4.28906 91.8815 4.22396 91.6992 4.09375C91.5299 3.95052 91.3672 3.77474 91.2109 3.56641C91.0547 3.35807 90.8984 3.13672 90.7422 2.90234C90.5859 2.65495 90.4102 2.42708 90.2148 2.21875C90.0326 2.01042 89.8307 1.84115 89.6094 1.71094C89.388 1.56771 89.1276 1.49609 88.8281 1.49609C88.5677 1.54818 88.3073 1.65885 88.0469 1.82812C87.7995 1.98438 87.5651 2.21224 87.3438 2.51172C87.1354 2.8112 86.9466 3.19531 86.7773 3.66406C86.6081 4.11979 86.4779 4.6862 86.3867 5.36328C86.2956 6.04036 86.2435 6.84115 86.2305 7.76562C86.2305 8.67708 86.2891 9.72526 86.4062 10.9102L88.8281 10.8906C88.8672 11.0599 88.8867 11.2096 88.8867 11.3398C88.8997 11.457 88.8086 11.5547 88.6133 11.6328C88.4701 11.6849 88.2878 11.737 88.0664 11.7891C87.8451 11.8281 87.6172 11.8672 87.3828 11.9062C87.1615 11.9323 86.9531 11.9583 86.7578 11.9844C86.5625 11.9974 86.4258 12.0104 86.3477 12.0234C86.3346 12.6354 86.3411 13.2214 86.3672 13.7812C86.3932 14.3281 86.4128 14.8555 86.4258 15.3633C86.4388 15.8581 86.4323 16.3268 86.4062 16.7695C86.3932 17.1992 86.3281 17.6159 86.2109 18.0195C86.1979 18.0195 86.1589 18.0195 86.0938 18.0195C86.0417 18.0195 85.9831 18.0195 85.918 18.0195C85.8529 18.0195 85.7878 18.0195 85.7227 18.0195C85.6706 18.0195 85.6445 18.0195 85.6445 18.0195C85.5924 18.0195 85.5339 18.026 85.4688 18.0391C85.4167 18.0521 85.3646 18.0586 85.3125 18.0586C85.2734 18.0716 85.2409 18.0651 85.2148 18.0391C85.1888 18.026 85.1758 17.9805 85.1758 17.9023ZM92.6953 10.9102C92.5781 10.8711 92.4154 10.8581 92.207 10.8711C92.0117 10.8711 91.7969 10.8841 91.5625 10.9102C91.3411 10.9232 91.1263 10.9427 90.918 10.9688C90.7096 10.9948 90.5339 11.0078 90.3906 11.0078C90.3255 11.0078 90.2799 10.9167 90.2539 10.7344C90.2409 10.5391 90.2148 10.2786 90.1758 9.95312L92.9297 9.75781C92.9688 9.30208 92.9948 8.97656 93.0078 8.78125C93.0208 8.58594 93.0208 8.42318 93.0078 8.29297C93.0078 8.14974 93.0013 7.99349 92.9883 7.82422C92.9883 7.64193 92.9883 7.36198 92.9883 6.98438C93.3268 6.93229 93.5807 6.91927 93.75 6.94531C93.9323 6.95833 94.056 7.00391 94.1211 7.08203C94.1862 7.16016 94.2122 7.27734 94.1992 7.43359C94.1992 7.57682 94.1797 7.75911 94.1406 7.98047C94.1146 8.20182 94.0885 8.46875 94.0625 8.78125C94.0495 9.09375 94.0625 9.44531 94.1016 9.83594L96.4453 9.75781V10.7148C96.3411 10.7148 96.1784 10.7214 95.957 10.7344C95.7357 10.7474 95.4948 10.7604 95.2344 10.7734C94.987 10.7865 94.7526 10.7995 94.5312 10.8125C94.3229 10.8255 94.1667 10.8516 94.0625 10.8906C93.9583 11.3594 93.8477 11.8607 93.7305 12.3945C93.6133 12.9284 93.5352 13.4557 93.4961 13.9766C93.457 14.4974 93.4701 14.9857 93.5352 15.4414C93.6003 15.8841 93.763 16.2552 94.0234 16.5547C94.2839 16.8411 94.6549 17.043 95.1367 17.1602C95.6185 17.2643 96.2565 17.2253 97.0508 17.043C97.0247 17.2383 96.9466 17.401 96.8164 17.5312C96.6992 17.6484 96.556 17.7461 96.3867 17.8242C96.2305 17.8893 96.0612 17.9414 95.8789 17.9805C95.6966 18.0065 95.5339 18.0195 95.3906 18.0195C94.7266 18.0195 94.1992 17.9023 93.8086 17.668C93.418 17.4206 93.125 17.1016 92.9297 16.7109C92.7344 16.3203 92.6107 15.8776 92.5586 15.3828C92.5065 14.875 92.487 14.3607 92.5 13.8398C92.526 13.319 92.5651 12.8047 92.6172 12.2969C92.6693 11.7891 92.6953 11.3268 92.6953 10.9102ZM107.617 10.9102C107.5 10.8711 107.337 10.8581 107.129 10.8711C106.934 10.8711 106.719 10.8841 106.484 10.9102C106.263 10.9232 106.048 10.9427 105.84 10.9688C105.632 10.9948 105.456 11.0078 105.312 11.0078C105.247 11.0078 105.202 10.9167 105.176 10.7344C105.163 10.5391 105.137 10.2786 105.098 9.95312L107.852 9.75781C107.891 9.30208 107.917 8.97656 107.93 8.78125C107.943 8.58594 107.943 8.42318 107.93 8.29297C107.93 8.14974 107.923 7.99349 107.91 7.82422C107.91 7.64193 107.91 7.36198 107.91 6.98438C108.249 6.93229 108.503 6.91927 108.672 6.94531C108.854 6.95833 108.978 7.00391 109.043 7.08203C109.108 7.16016 109.134 7.27734 109.121 7.43359C109.121 7.57682 109.102 7.75911 109.062 7.98047C109.036 8.20182 109.01 8.46875 108.984 8.78125C108.971 9.09375 108.984 9.44531 109.023 9.83594L111.367 9.75781V10.7148C111.263 10.7148 111.1 10.7214 110.879 10.7344C110.658 10.7474 110.417 10.7604 110.156 10.7734C109.909 10.7865 109.674 10.7995 109.453 10.8125C109.245 10.8255 109.089 10.8516 108.984 10.8906C108.88 11.3594 108.77 11.8607 108.652 12.3945C108.535 12.9284 108.457 13.4557 108.418 13.9766C108.379 14.4974 108.392 14.9857 108.457 15.4414C108.522 15.8841 108.685 16.2552 108.945 16.5547C109.206 16.8411 109.577 17.043 110.059 17.1602C110.54 17.2643 111.178 17.2253 111.973 17.043C111.947 17.2383 111.868 17.401 111.738 17.5312C111.621 17.6484 111.478 17.7461 111.309 17.8242C111.152 17.8893 110.983 17.9414 110.801 17.9805C110.618 18.0065 110.456 18.0195 110.312 18.0195C109.648 18.0195 109.121 17.9023 108.73 17.668C108.34 17.4206 108.047 17.1016 107.852 16.7109C107.656 16.3203 107.533 15.8776 107.48 15.3828C107.428 14.875 107.409 14.3607 107.422 13.8398C107.448 13.319 107.487 12.8047 107.539 12.2969C107.591 11.7891 107.617 11.3268 107.617 10.9102ZM112.734 14.4258C112.734 14.1263 112.76 13.7812 112.812 13.3906C112.865 12.987 112.949 12.5833 113.066 12.1797C113.184 11.776 113.327 11.3789 113.496 10.9883C113.678 10.5977 113.893 10.2526 114.141 9.95312C114.388 9.64062 114.674 9.39323 115 9.21094C115.326 9.01562 115.69 8.91797 116.094 8.91797C116.51 8.91797 116.895 9.0612 117.246 9.34766C117.611 9.63411 117.917 10.0052 118.164 10.4609C118.424 10.9167 118.62 11.4245 118.75 11.9844C118.88 12.5443 118.932 13.0911 118.906 13.625C118.906 14.4062 118.757 15.1029 118.457 15.7148C118.158 16.3268 117.773 16.8216 117.305 17.1992C116.849 17.5768 116.354 17.8307 115.82 17.9609C115.299 18.0911 114.805 18.0586 114.336 17.8633C113.88 17.6549 113.496 17.2708 113.184 16.7109C112.884 16.151 112.734 15.3893 112.734 14.4258ZM113.457 14.5039C113.496 15.2982 113.633 15.9102 113.867 16.3398C114.102 16.7695 114.382 17.056 114.707 17.1992C115.046 17.3294 115.41 17.3294 115.801 17.1992C116.191 17.069 116.556 16.8411 116.895 16.5156C117.233 16.1771 117.52 15.7604 117.754 15.2656C118.001 14.7578 118.138 14.1914 118.164 13.5664C118.19 13.0977 118.151 12.6419 118.047 12.1992C117.956 11.7565 117.819 11.3659 117.637 11.0273C117.467 10.6758 117.253 10.4023 116.992 10.207C116.745 9.9987 116.458 9.89453 116.133 9.89453C115.82 9.89453 115.54 9.97266 115.293 10.1289C115.046 10.2852 114.818 10.5 114.609 10.7734C114.414 11.0339 114.245 11.3333 114.102 11.6719C113.958 12.0104 113.835 12.349 113.73 12.6875C113.639 13.026 113.568 13.3581 113.516 13.6836C113.477 13.9961 113.457 14.2695 113.457 14.5039ZM127.48 14.4258C127.48 14.1263 127.507 13.7812 127.559 13.3906C127.611 12.987 127.695 12.5833 127.812 12.1797C127.93 11.776 128.073 11.3789 128.242 10.9883C128.424 10.5977 128.639 10.2526 128.887 9.95312C129.134 9.64062 129.421 9.39323 129.746 9.21094C130.072 9.01562 130.436 8.91797 130.84 8.91797C131.257 8.91797 131.641 9.0612 131.992 9.34766C132.357 9.63411 132.663 10.0052 132.91 10.4609C133.171 10.9167 133.366 11.4245 133.496 11.9844C133.626 12.5443 133.678 13.0911 133.652 13.625C133.652 14.4062 133.503 15.1029 133.203 15.7148C132.904 16.3268 132.52 16.8216 132.051 17.1992C131.595 17.5768 131.1 17.8307 130.566 17.9609C130.046 18.0911 129.551 18.0586 129.082 17.8633C128.626 17.6549 128.242 17.2708 127.93 16.7109C127.63 16.151 127.48 15.3893 127.48 14.4258ZM128.203 14.5039C128.242 15.2982 128.379 15.9102 128.613 16.3398C128.848 16.7695 129.128 17.056 129.453 17.1992C129.792 17.3294 130.156 17.3294 130.547 17.1992C130.938 17.069 131.302 16.8411 131.641 16.5156C131.979 16.1771 132.266 15.7604 132.5 15.2656C132.747 14.7578 132.884 14.1914 132.91 13.5664C132.936 13.0977 132.897 12.6419 132.793 12.1992C132.702 11.7565 132.565 11.3659 132.383 11.0273C132.214 10.6758 131.999 10.4023 131.738 10.207C131.491 9.9987 131.204 9.89453 130.879 9.89453C130.566 9.89453 130.286 9.97266 130.039 10.1289C129.792 10.2852 129.564 10.5 129.355 10.7734C129.16 11.0339 128.991 11.3333 128.848 11.6719C128.704 12.0104 128.581 12.349 128.477 12.6875C128.385 13.026 128.314 13.3581 128.262 13.6836C128.223 13.9961 128.203 14.2695 128.203 14.5039ZM135.293 12.9414C135.241 12.9805 135.169 12.9935 135.078 12.9805C134.987 12.9674 134.902 12.9479 134.824 12.9219C134.746 12.8828 134.674 12.8372 134.609 12.7852C134.557 12.7201 134.531 12.6484 134.531 12.5703C134.531 12.1276 134.668 11.724 134.941 11.3594C135.215 10.9818 135.553 10.6628 135.957 10.4023C136.361 10.1289 136.79 9.92057 137.246 9.77734C137.702 9.62109 138.118 9.54297 138.496 9.54297C139.095 9.54297 139.635 9.64714 140.117 9.85547C140.612 10.0508 141.029 10.3242 141.367 10.6758C141.719 11.0273 141.986 11.4375 142.168 11.9062C142.363 12.375 142.461 12.8763 142.461 13.4102C142.474 14.0872 142.318 14.7057 141.992 15.2656C141.68 15.8255 141.263 16.3073 140.742 16.7109C140.234 17.1016 139.661 17.401 139.023 17.6094C138.398 17.8047 137.78 17.8763 137.168 17.8242C137.194 18.293 137.188 18.8268 137.148 19.4258C137.109 20.0378 137.057 20.7018 136.992 21.418C136.927 22.1341 136.842 22.8893 136.738 23.6836C136.647 24.4909 136.549 25.3177 136.445 26.1641C136.445 26.1771 136.406 26.1836 136.328 26.1836C136.25 26.1836 136.165 26.1706 136.074 26.1445C135.996 26.1315 135.911 26.112 135.82 26.0859C135.742 26.0729 135.697 26.0729 135.684 26.0859C135.775 25.0052 135.846 23.9115 135.898 22.8047C135.951 21.6979 135.97 20.5846 135.957 19.4648C135.944 18.3581 135.885 17.2578 135.781 16.1641C135.677 15.0703 135.514 13.9961 135.293 12.9414ZM138.262 10.6367C138.014 10.6497 137.747 10.6888 137.461 10.7539C137.174 10.806 136.921 10.8906 136.699 11.0078C136.478 11.125 136.302 11.2812 136.172 11.4766C136.042 11.6719 135.996 11.9128 136.035 12.1992C136.061 12.3294 136.094 12.5182 136.133 12.7656C136.185 13.013 136.237 13.293 136.289 13.6055C136.354 13.918 136.413 14.2435 136.465 14.582C136.53 14.9206 136.589 15.2461 136.641 15.5586C136.706 15.8711 136.758 16.1576 136.797 16.418C136.849 16.6654 136.888 16.8542 136.914 16.9844C137.07 16.9583 137.292 16.9323 137.578 16.9062C137.865 16.8802 138.171 16.8281 138.496 16.75C138.822 16.6719 139.154 16.5677 139.492 16.4375C139.844 16.2943 140.169 16.099 140.469 15.8516C140.768 15.6042 141.029 15.2982 141.25 14.9336C141.484 14.556 141.641 14.0938 141.719 13.5469C141.719 13.0391 141.628 12.6029 141.445 12.2383C141.263 11.8737 141.016 11.5742 140.703 11.3398C140.391 11.0924 140.02 10.9167 139.59 10.8125C139.173 10.6953 138.73 10.6367 138.262 10.6367ZM143.633 13.4102C143.633 13.0195 143.717 12.5898 143.887 12.1211C144.056 11.6393 144.284 11.1966 144.57 10.793C144.87 10.3763 145.202 10.0312 145.566 9.75781C145.944 9.47135 146.335 9.32812 146.738 9.32812C146.96 9.32812 147.174 9.3737 147.383 9.46484C147.604 9.55599 147.812 9.67969 148.008 9.83594C148.216 9.97917 148.398 10.1484 148.555 10.3438C148.724 10.526 148.854 10.7214 148.945 10.9297C149.036 11.138 149.082 11.3398 149.082 11.5352C149.095 11.7305 149.043 11.8997 148.926 12.043L144.805 12.8047C144.753 12.8177 144.707 12.8828 144.668 13C144.629 13.1042 144.596 13.2409 144.57 13.4102C144.544 13.5794 144.518 13.7682 144.492 13.9766C144.479 14.1719 144.466 14.3672 144.453 14.5625C144.44 14.7448 144.434 14.9141 144.434 15.0703C144.434 15.2135 144.434 15.3242 144.434 15.4023C144.434 15.7669 144.518 16.0664 144.688 16.3008C144.87 16.5221 145.098 16.6914 145.371 16.8086C145.645 16.9258 145.951 17.0039 146.289 17.043C146.641 17.082 146.986 17.1016 147.324 17.1016C147.663 17.1016 147.982 17.0885 148.281 17.0625C148.581 17.0365 148.828 17.0234 149.023 17.0234C149.023 17.0755 149.004 17.1341 148.965 17.1992C148.926 17.2643 148.88 17.3294 148.828 17.3945C148.776 17.4466 148.724 17.4987 148.672 17.5508C148.62 17.5898 148.587 17.6159 148.574 17.6289C148.47 17.6549 148.307 17.694 148.086 17.7461C147.878 17.7852 147.65 17.8242 147.402 17.8633C147.168 17.9023 146.947 17.9349 146.738 17.9609C146.53 17.987 146.387 18 146.309 18C145.905 18.0781 145.553 18.0716 145.254 17.9805C144.954 17.8893 144.701 17.7331 144.492 17.5117C144.284 17.2904 144.115 17.0234 143.984 16.7109C143.854 16.3854 143.757 16.0404 143.691 15.6758C143.626 15.3112 143.587 14.9336 143.574 14.543C143.574 14.1523 143.594 13.7747 143.633 13.4102ZM146.465 10.0703C146.348 10.0703 146.191 10.1354 145.996 10.2656C145.814 10.3828 145.638 10.5391 145.469 10.7344C145.312 10.9167 145.176 11.1185 145.059 11.3398C144.954 11.5482 144.922 11.7305 144.961 11.8867C145.299 11.9258 145.651 11.9193 146.016 11.8672C146.38 11.8151 146.712 11.737 147.012 11.6328C147.311 11.5156 147.559 11.3854 147.754 11.2422C147.949 11.0859 148.04 10.9297 148.027 10.7734C148.027 10.6172 147.904 10.4805 147.656 10.3633C147.422 10.2331 147.025 10.1354 146.465 10.0703ZM150.371 17.9023C150.345 17.694 150.319 17.3945 150.293 17.0039C150.28 16.6003 150.26 16.151 150.234 15.6562C150.221 15.1484 150.208 14.6211 150.195 14.0742C150.182 13.5273 150.169 13.0065 150.156 12.5117C150.143 12.0169 150.124 11.5742 150.098 11.1836C150.085 10.7799 150.059 10.474 150.02 10.2656C150.02 10.2526 150.013 10.2201 150 10.168C150 10.1159 149.993 10.0573 149.98 9.99219C149.98 9.92708 149.98 9.875 149.98 9.83594C149.98 9.78385 149.98 9.74479 149.98 9.71875C150.176 9.5625 150.339 9.51042 150.469 9.5625C150.612 9.61458 150.729 9.73177 150.82 9.91406C150.911 10.0833 150.977 10.2982 151.016 10.5586C151.055 10.819 151.081 11.0794 151.094 11.3398C151.12 11.6003 151.133 11.8411 151.133 12.0625C151.133 12.2708 151.133 12.4206 151.133 12.5117C151.159 12.2904 151.198 12.0299 151.25 11.7305C151.302 11.431 151.38 11.125 151.484 10.8125C151.589 10.5 151.712 10.194 151.855 9.89453C152.012 9.58203 152.201 9.30859 152.422 9.07422C152.643 8.83984 152.891 8.65755 153.164 8.52734C153.451 8.39714 153.776 8.34505 154.141 8.37109C154.714 8.39714 155.182 8.55339 155.547 8.83984C155.924 9.1263 156.217 9.51042 156.426 9.99219C156.647 10.474 156.803 11.0273 156.895 11.6523C156.999 12.2773 157.064 12.9414 157.09 13.6445C157.129 14.3477 157.142 15.0638 157.129 15.793C157.116 16.5091 157.109 17.1992 157.109 17.8633C156.992 17.8893 156.875 17.9349 156.758 18C156.641 18.0521 156.543 18.0716 156.465 18.0586C156.387 18.0586 156.328 18.0065 156.289 17.9023C156.263 17.7852 156.276 17.5638 156.328 17.2383C156.341 17.0039 156.361 16.6458 156.387 16.1641C156.426 15.6693 156.439 15.1224 156.426 14.5234C156.426 13.9245 156.393 13.306 156.328 12.668C156.263 12.0299 156.139 11.4505 155.957 10.9297C155.788 10.3958 155.54 9.96615 155.215 9.64062C154.889 9.30208 154.466 9.13281 153.945 9.13281C153.411 9.35417 152.962 9.77083 152.598 10.3828C152.246 10.9948 151.96 11.7109 151.738 12.5312C151.53 13.3516 151.374 14.2435 151.27 15.207C151.178 16.1576 151.126 17.0885 151.113 18C151.087 17.987 151.035 17.9805 150.957 17.9805C150.892 17.9805 150.814 17.9805 150.723 17.9805C150.645 17.9674 150.566 17.9544 150.488 17.9414C150.423 17.9284 150.384 17.9154 150.371 17.9023ZM42.7246 27.3945L43.0371 26.3789C43.0501 26.3659 43.1478 26.3529 43.3301 26.3398C43.5254 26.3138 43.7793 26.2878 44.0918 26.2617C44.4043 26.2227 44.7559 26.1836 45.1465 26.1445C45.5371 26.1055 45.9342 26.0664 46.3379 26.0273C46.7546 25.9883 47.1582 25.9492 47.5488 25.9102C47.9525 25.8711 48.3236 25.832 48.6621 25.793C48.6621 25.793 48.7207 25.793 48.8379 25.793C48.9551 25.793 49.0853 25.793 49.2285 25.793C49.3717 25.793 49.5085 25.793 49.6387 25.793C49.7689 25.793 49.8535 25.793 49.8926 25.793C50.2051 25.793 50.4199 25.8516 50.5371 25.9688C50.6543 26.0859 50.7129 26.3398 50.7129 26.7305L47.1582 27.1406C47.1322 27.9609 47.1452 28.8203 47.1973 29.7188C47.2493 30.6172 47.3145 31.5286 47.3926 32.4531C47.4707 33.3646 47.5423 34.2695 47.6074 35.168C47.6855 36.0664 47.7246 36.9258 47.7246 37.7461C47.7246 37.8633 47.6855 37.9479 47.6074 38C47.5423 38.0391 47.4577 38.0651 47.3535 38.0781C47.2624 38.0911 47.1647 38.0846 47.0605 38.0586C46.9564 38.0456 46.8652 38.026 46.7871 38C46.748 37.8307 46.709 37.5378 46.6699 37.1211C46.6309 36.7044 46.5918 36.2161 46.5527 35.6562C46.5137 35.0964 46.4746 34.4909 46.4355 33.8398C46.3965 33.1888 46.3574 32.5378 46.3184 31.8867C46.2793 31.2357 46.2402 30.6172 46.2012 30.0312C46.1621 29.4323 46.1296 28.9115 46.1035 28.4688C46.0775 28.013 46.0514 27.6615 46.0254 27.4141C46.0124 27.1667 45.9993 27.0755 45.9863 27.1406L42.7246 27.3945ZM50.4199 30.3828C50.5762 30.3177 50.7129 30.3047 50.8301 30.3438C50.9473 30.3828 51.0449 30.4544 51.123 30.5586C51.2012 30.6628 51.2598 30.7865 51.2988 30.9297C51.3379 31.0599 51.3704 31.1901 51.3965 31.3203C51.5658 31.0339 51.8066 30.806 52.1191 30.6367C52.4447 30.4544 52.7897 30.3372 53.1543 30.2852C53.5189 30.2201 53.8835 30.207 54.248 30.2461C54.6126 30.2721 54.9186 30.3503 55.166 30.4805C55.4264 30.5977 55.6087 30.7669 55.7129 30.9883C55.8171 31.1966 55.791 31.444 55.6348 31.7305C55.2962 31.5352 54.9382 31.3789 54.5605 31.2617C54.196 31.1445 53.8379 31.1055 53.4863 31.1445C53.1348 31.1836 52.8092 31.3203 52.5098 31.5547C52.2103 31.776 51.9629 32.1341 51.7676 32.6289C51.5723 33.1237 51.4486 33.7812 51.3965 34.6016C51.3574 35.4089 51.416 36.418 51.5723 37.6289H50.8301C50.8301 37.6289 50.8171 37.5247 50.791 37.3164C50.778 37.0951 50.7585 36.8086 50.7324 36.457C50.7194 36.1055 50.6934 35.7148 50.6543 35.2852C50.6283 34.8555 50.6022 34.4193 50.5762 33.9766C50.5501 33.5339 50.5241 33.1107 50.498 32.707C50.485 32.2904 50.4655 31.9323 50.4395 31.6328C50.4395 31.5938 50.4329 31.5156 50.4199 31.3984C50.4199 31.2812 50.4199 31.1576 50.4199 31.0273C50.4199 30.8841 50.4199 30.7539 50.4199 30.6367C50.4199 30.5195 50.4199 30.4349 50.4199 30.3828ZM56.5137 36.3203C56.5137 35.5781 56.7155 35.0378 57.1191 34.6992C57.5358 34.3607 58.0762 34.1914 58.7402 34.1914C59.0007 34.1914 59.2415 34.1979 59.4629 34.2109C59.6973 34.224 59.9186 34.2565 60.127 34.3086C60.3353 34.3607 60.5371 34.4388 60.7324 34.543C60.9408 34.6471 61.1556 34.7969 61.377 34.9922C61.377 34.9531 61.377 34.875 61.377 34.7578C61.39 34.6276 61.3965 34.4909 61.3965 34.3477C61.3965 34.2044 61.3965 34.0742 61.3965 33.957C61.3965 33.8268 61.3965 33.7357 61.3965 33.6836C61.3835 33.4492 61.377 33.1497 61.377 32.7852C61.377 32.4076 61.3444 32.0234 61.2793 31.6328C61.2272 31.2422 61.11 30.8711 60.9277 30.5195C60.7585 30.168 60.4785 29.901 60.0879 29.7188C59.8145 29.7188 59.5605 29.7643 59.3262 29.8555C59.0918 29.9466 58.8574 30.0443 58.623 30.1484C58.3887 30.2526 58.1543 30.3503 57.9199 30.4414C57.6855 30.5195 57.4316 30.5586 57.1582 30.5586C57.1582 30.2331 57.2559 29.9661 57.4512 29.7578C57.6595 29.5365 57.9069 29.3672 58.1934 29.25C58.4798 29.1328 58.7793 29.0547 59.0918 29.0156C59.4043 28.9766 59.6777 28.957 59.9121 28.957C60.1465 28.9961 60.3613 29.0417 60.5566 29.0938C60.765 29.1458 60.9538 29.25 61.123 29.4062C61.3053 29.5625 61.4681 29.8034 61.6113 30.1289C61.7676 30.4414 61.8978 30.8841 62.002 31.457C62.1191 32.0299 62.2168 32.7591 62.2949 33.6445C62.3861 34.5169 62.4577 35.5911 62.5098 36.8672C62.5358 37.0365 62.4772 37.1862 62.334 37.3164C62.2038 37.4336 62.0215 37.5378 61.7871 37.6289C61.5527 37.707 61.2858 37.7786 60.9863 37.8438C60.6999 37.8958 60.4069 37.9349 60.1074 37.9609C59.8079 37.987 59.5215 38.0065 59.248 38.0195C58.9746 38.0326 58.7467 38.0391 58.5645 38.0391C58.3301 38.0391 58.0892 38 57.8418 37.9219C57.6074 37.8438 57.3861 37.7331 57.1777 37.5898C56.9824 37.4336 56.8197 37.2513 56.6895 37.043C56.5723 36.8216 56.5137 36.5807 56.5137 36.3203ZM59.0527 34.9531C58.4017 35.1354 57.946 35.3568 57.6855 35.6172C57.4251 35.8646 57.3079 36.1055 57.334 36.3398C57.373 36.5742 57.5293 36.7891 57.8027 36.9844C58.0762 37.1667 58.4082 37.2904 58.7988 37.3555C59.1895 37.4076 59.6126 37.375 60.0684 37.2578C60.5241 37.1276 60.9603 36.8802 61.377 36.5156C61.2207 36.138 61.0645 35.8516 60.9082 35.6562C60.752 35.4479 60.5827 35.2917 60.4004 35.1875C60.2181 35.0833 60.0163 35.0182 59.7949 34.9922C59.5736 34.9661 59.3262 34.9531 59.0527 34.9531ZM63.2715 34.6602C63.2715 34.1784 63.3496 33.6445 63.5059 33.0586C63.6621 32.4727 63.89 31.9323 64.1895 31.4375C64.4889 30.9297 64.86 30.5065 65.3027 30.168C65.7454 29.8294 66.2598 29.6602 66.8457 29.6602C67.1452 29.6211 67.3861 29.6536 67.5684 29.7578C67.7507 29.849 67.8874 29.9987 67.9785 30.207C68.0827 30.4154 68.1478 30.6562 68.1738 30.9297C68.2129 31.1901 68.2324 31.4635 68.2324 31.75C68.2454 32.0234 68.2454 32.2839 68.2324 32.5312C68.2324 32.7656 68.2454 32.9609 68.2715 33.1172H67.7832C67.7702 33.0391 67.7441 32.8568 67.7051 32.5703C67.679 32.2708 67.627 31.9648 67.5488 31.6523C67.4707 31.3398 67.36 31.0599 67.2168 30.8125C67.0866 30.5651 66.8978 30.4414 66.6504 30.4414C66.2858 30.4414 65.9408 30.5846 65.6152 30.8711C65.3027 31.1576 65.0293 31.5026 64.7949 31.9062C64.5605 32.3099 64.3717 32.7266 64.2285 33.1562C64.0853 33.5859 64.0137 33.944 64.0137 34.2305C64.0267 34.556 64.0723 34.9141 64.1504 35.3047C64.2285 35.6823 64.3522 36.0273 64.5215 36.3398C64.7038 36.6523 64.9382 36.9062 65.2246 37.1016C65.5111 37.2969 65.8626 37.3555 66.2793 37.2773C66.5918 37.2773 66.8913 37.2122 67.1777 37.082C67.4642 36.9518 67.7441 36.8151 68.0176 36.6719C68.291 36.5286 68.5645 36.3919 68.8379 36.2617C69.1243 36.1315 69.4238 36.0664 69.7363 36.0664C69.7363 36.4049 69.6126 36.7044 69.3652 36.9648C69.1178 37.2122 68.8118 37.4141 68.4473 37.5703C68.0957 37.7266 67.7181 37.8438 67.3145 37.9219C66.9238 38 66.5918 38.0391 66.3184 38.0391C65.8757 38.0391 65.4655 37.9479 65.0879 37.7656C64.7233 37.5833 64.4043 37.3424 64.1309 37.043C63.8574 36.7305 63.6426 36.3724 63.4863 35.9688C63.3431 35.5521 63.2715 35.1159 63.2715 34.6602ZM71.3184 37.4727C71.3053 37.1992 71.2728 36.7826 71.2207 36.2227C71.1816 35.6497 71.1361 35.0117 71.084 34.3086C71.0319 33.5924 70.9798 32.8372 70.9277 32.043C70.8757 31.2487 70.8236 30.5 70.7715 29.7969C70.7324 29.0807 70.6934 28.4427 70.6543 27.8828C70.6152 27.3099 70.5892 26.8867 70.5762 26.6133C70.5632 26.4961 70.5501 26.2943 70.5371 26.0078C70.5371 25.7083 70.5306 25.3958 70.5176 25.0703C70.5046 24.7318 70.4915 24.4193 70.4785 24.1328C70.4785 23.8333 70.4785 23.625 70.4785 23.5078C70.6608 23.5078 70.8236 23.5469 70.9668 23.625C71.11 23.6901 71.2272 23.8073 71.3184 23.9766C71.3444 24.25 71.3704 24.6406 71.3965 25.1484C71.4355 25.6432 71.4746 26.2161 71.5137 26.8672C71.5527 27.5182 71.5918 28.2148 71.6309 28.957C71.6829 29.6992 71.7285 30.4349 71.7676 31.1641C71.8066 31.099 71.8457 31.0404 71.8848 30.9883C71.9238 30.9362 71.9499 30.9036 71.9629 30.8906C72.1061 30.7344 72.2754 30.5521 72.4707 30.3438C72.666 30.1354 72.8678 29.9206 73.0762 29.6992C73.2975 29.4779 73.5124 29.263 73.7207 29.0547C73.9421 28.8333 74.1374 28.638 74.3066 28.4688C74.4889 28.2865 74.6387 28.1432 74.7559 28.0391C74.873 27.9349 74.9447 27.8828 74.9707 27.8828L75.7129 28.2539C75.4915 28.4492 75.2376 28.6771 74.9512 28.9375C74.6647 29.1979 74.3848 29.4779 74.1113 29.7773C73.8379 30.0638 73.571 30.3698 73.3105 30.6953C73.0632 31.0078 72.8613 31.3203 72.7051 31.6328C72.7051 31.6458 72.6986 31.6784 72.6855 31.7305C72.6855 31.7695 72.6855 31.8021 72.6855 31.8281C72.6855 31.8411 72.6855 31.8737 72.6855 31.9258C72.6986 31.9648 72.7051 31.9909 72.7051 32.0039L77.2168 37.2578C77.2168 37.2708 77.2168 37.2969 77.2168 37.3359C77.2298 37.375 77.2363 37.4076 77.2363 37.4336C77.2363 37.681 77.1061 37.8698 76.8457 38L71.9629 32.375C71.9499 32.362 71.9303 32.3424 71.9043 32.3164C71.8913 32.2773 71.8717 32.2383 71.8457 32.1992L72.0605 35.9883C72.0605 36.0534 72.0605 36.1771 72.0605 36.3594C72.0736 36.5417 72.0801 36.7435 72.0801 36.9648C72.0931 37.1732 72.0996 37.375 72.0996 37.5703C72.1126 37.7526 72.1191 37.8763 72.1191 37.9414C71.9499 37.9414 71.7936 37.9089 71.6504 37.8438C71.5072 37.7656 71.3965 37.6419 71.3184 37.4727ZM78.291 33.4102C78.291 33.0195 78.3757 32.5898 78.5449 32.1211C78.7142 31.6393 78.9421 31.1966 79.2285 30.793C79.528 30.3763 79.86 30.0312 80.2246 29.7578C80.6022 29.4714 80.9928 29.3281 81.3965 29.3281C81.6178 29.3281 81.8327 29.3737 82.041 29.4648C82.2624 29.556 82.4707 29.6797 82.666 29.8359C82.8743 29.9792 83.0566 30.1484 83.2129 30.3438C83.3822 30.526 83.5124 30.7214 83.6035 30.9297C83.6947 31.138 83.7402 31.3398 83.7402 31.5352C83.7533 31.7305 83.7012 31.8997 83.584 32.043L79.4629 32.8047C79.4108 32.8177 79.3652 32.8828 79.3262 33C79.2871 33.1042 79.2546 33.2409 79.2285 33.4102C79.2025 33.5794 79.1764 33.7682 79.1504 33.9766C79.1374 34.1719 79.1243 34.3672 79.1113 34.5625C79.0983 34.7448 79.0918 34.9141 79.0918 35.0703C79.0918 35.2135 79.0918 35.3242 79.0918 35.4023C79.0918 35.7669 79.1764 36.0664 79.3457 36.3008C79.528 36.5221 79.7559 36.6914 80.0293 36.8086C80.3027 36.9258 80.6087 37.0039 80.9473 37.043C81.2988 37.082 81.6439 37.1016 81.9824 37.1016C82.321 37.1016 82.64 37.0885 82.9395 37.0625C83.2389 37.0365 83.4863 37.0234 83.6816 37.0234C83.6816 37.0755 83.6621 37.1341 83.623 37.1992C83.584 37.2643 83.5384 37.3294 83.4863 37.3945C83.4342 37.4466 83.3822 37.4987 83.3301 37.5508C83.278 37.5898 83.2454 37.6159 83.2324 37.6289C83.1283 37.6549 82.9655 37.694 82.7441 37.7461C82.5358 37.7852 82.3079 37.8242 82.0605 37.8633C81.8262 37.9023 81.6048 37.9349 81.3965 37.9609C81.1882 37.987 81.0449 38 80.9668 38C80.5632 38.0781 80.2116 38.0716 79.9121 37.9805C79.6126 37.8893 79.3587 37.7331 79.1504 37.5117C78.9421 37.2904 78.7728 37.0234 78.6426 36.7109C78.5124 36.3854 78.4147 36.0404 78.3496 35.6758C78.2845 35.3112 78.2454 34.9336 78.2324 34.543C78.2324 34.1523 78.252 33.7747 78.291 33.4102ZM81.123 30.0703C81.0059 30.0703 80.8496 30.1354 80.6543 30.2656C80.472 30.3828 80.2962 30.5391 80.127 30.7344C79.9707 30.9167 79.834 31.1185 79.7168 31.3398C79.6126 31.5482 79.5801 31.7305 79.6191 31.8867C79.9577 31.9258 80.3092 31.9193 80.6738 31.8672C81.0384 31.8151 81.3704 31.737 81.6699 31.6328C81.9694 31.5156 82.2168 31.3854 82.4121 31.2422C82.6074 31.0859 82.6986 30.9297 82.6855 30.7734C82.6855 30.6172 82.5618 30.4805 82.3145 30.3633C82.0801 30.2331 81.6829 30.1354 81.123 30.0703ZM84.6191 30.3828C84.7754 30.3177 84.9121 30.3047 85.0293 30.3438C85.1465 30.3828 85.2441 30.4544 85.3223 30.5586C85.4004 30.6628 85.459 30.7865 85.498 30.9297C85.5371 31.0599 85.5697 31.1901 85.5957 31.3203C85.765 31.0339 86.0059 30.806 86.3184 30.6367C86.6439 30.4544 86.9889 30.3372 87.3535 30.2852C87.7181 30.2201 88.0827 30.207 88.4473 30.2461C88.8118 30.2721 89.1178 30.3503 89.3652 30.4805C89.6257 30.5977 89.8079 30.7669 89.9121 30.9883C90.0163 31.1966 89.9902 31.444 89.834 31.7305C89.4954 31.5352 89.1374 31.3789 88.7598 31.2617C88.3952 31.1445 88.0371 31.1055 87.6855 31.1445C87.334 31.1836 87.0085 31.3203 86.709 31.5547C86.4095 31.776 86.1621 32.1341 85.9668 32.6289C85.7715 33.1237 85.6478 33.7812 85.5957 34.6016C85.5566 35.4089 85.6152 36.418 85.7715 37.6289H85.0293C85.0293 37.6289 85.0163 37.5247 84.9902 37.3164C84.9772 37.0951 84.9577 36.8086 84.9316 36.457C84.9186 36.1055 84.8926 35.7148 84.8535 35.2852C84.8275 34.8555 84.8014 34.4193 84.7754 33.9766C84.7493 33.5339 84.7233 33.1107 84.6973 32.707C84.6842 32.2904 84.6647 31.9323 84.6387 31.6328C84.6387 31.5938 84.6322 31.5156 84.6191 31.3984C84.6191 31.2812 84.6191 31.1576 84.6191 31.0273C84.6191 30.8841 84.6191 30.7539 84.6191 30.6367C84.6191 30.5195 84.6191 30.4349 84.6191 30.3828ZM99.248 36.418C99.4824 36.418 99.6973 36.4635 99.8926 36.5547C100.101 36.6458 100.303 36.75 100.498 36.8672C100.693 36.9714 100.889 37.069 101.084 37.1602C101.292 37.2383 101.514 37.2773 101.748 37.2773C102.021 37.2773 102.301 37.2318 102.588 37.1406C102.887 37.0365 103.161 36.8997 103.408 36.7305C103.656 36.5482 103.857 36.3333 104.014 36.0859C104.17 35.8255 104.248 35.5456 104.248 35.2461C104.261 35.1549 104.261 35.0443 104.248 34.9141C104.248 34.7839 104.209 34.6536 104.131 34.5234C104.053 34.3802 103.923 34.25 103.74 34.1328C103.558 34.0026 103.291 33.9049 102.939 33.8398C102.601 33.7747 102.171 33.7422 101.65 33.7422C101.13 33.7292 100.485 33.7747 99.7168 33.8789C99.5215 33.8789 99.3327 33.8268 99.1504 33.7227C98.9681 33.6055 98.8053 33.4688 98.6621 33.3125C98.5189 33.1432 98.4017 32.9674 98.3105 32.7852C98.2194 32.5898 98.1738 32.4076 98.1738 32.2383C98.1738 31.7305 98.278 31.3203 98.4863 31.0078C98.7077 30.6823 98.9876 30.4284 99.3262 30.2461C99.6647 30.0508 100.042 29.9141 100.459 29.8359C100.876 29.7578 101.299 29.7188 101.729 29.7188C101.924 29.7188 102.145 29.7318 102.393 29.7578C102.653 29.7708 102.887 29.8229 103.096 29.9141C103.317 29.9922 103.499 30.1224 103.643 30.3047C103.799 30.487 103.877 30.7409 103.877 31.0664C103.851 31.2878 103.812 31.4245 103.76 31.4766C103.721 31.5156 103.656 31.5026 103.564 31.4375C103.486 31.3594 103.389 31.2552 103.271 31.125C103.154 30.9948 103.011 30.8711 102.842 30.7539C102.686 30.6237 102.49 30.526 102.256 30.4609C102.035 30.3958 101.781 30.3958 101.494 30.4609C101.195 30.4609 100.895 30.4935 100.596 30.5586C100.296 30.6107 100.023 30.7083 99.7754 30.8516C99.541 30.9948 99.3457 31.1901 99.1895 31.4375C99.0462 31.6849 98.9746 31.9974 98.9746 32.375C98.9746 32.5703 99.0592 32.707 99.2285 32.7852C99.4108 32.8503 99.6452 32.8828 99.9316 32.8828C100.231 32.8828 100.563 32.8763 100.928 32.8633C101.305 32.8372 101.689 32.8242 102.08 32.8242C102.471 32.8242 102.848 32.8568 103.213 32.9219C103.577 32.974 103.896 33.0911 104.17 33.2734C104.456 33.4427 104.678 33.6901 104.834 34.0156C104.99 34.3411 105.049 34.7643 105.01 35.2852C105.01 35.6628 104.899 36.0208 104.678 36.3594C104.469 36.6979 104.196 36.9974 103.857 37.2578C103.532 37.5052 103.167 37.7005 102.764 37.8438C102.36 37.987 101.969 38.0391 101.592 38C101.436 37.987 101.221 37.9479 100.947 37.8828C100.687 37.8047 100.426 37.7005 100.166 37.5703C99.9186 37.4401 99.7038 37.2839 99.5215 37.1016C99.3392 36.9062 99.248 36.6784 99.248 36.418ZM106.045 33.4102C106.045 33.0195 106.13 32.5898 106.299 32.1211C106.468 31.6393 106.696 31.1966 106.982 30.793C107.282 30.3763 107.614 30.0312 107.979 29.7578C108.356 29.4714 108.747 29.3281 109.15 29.3281C109.372 29.3281 109.587 29.3737 109.795 29.4648C110.016 29.556 110.225 29.6797 110.42 29.8359C110.628 29.9792 110.811 30.1484 110.967 30.3438C111.136 30.526 111.266 30.7214 111.357 30.9297C111.449 31.138 111.494 31.3398 111.494 31.5352C111.507 31.7305 111.455 31.8997 111.338 32.043L107.217 32.8047C107.165 32.8177 107.119 32.8828 107.08 33C107.041 33.1042 107.008 33.2409 106.982 33.4102C106.956 33.5794 106.93 33.7682 106.904 33.9766C106.891 34.1719 106.878 34.3672 106.865 34.5625C106.852 34.7448 106.846 34.9141 106.846 35.0703C106.846 35.2135 106.846 35.3242 106.846 35.4023C106.846 35.7669 106.93 36.0664 107.1 36.3008C107.282 36.5221 107.51 36.6914 107.783 36.8086C108.057 36.9258 108.363 37.0039 108.701 37.043C109.053 37.082 109.398 37.1016 109.736 37.1016C110.075 37.1016 110.394 37.0885 110.693 37.0625C110.993 37.0365 111.24 37.0234 111.436 37.0234C111.436 37.0755 111.416 37.1341 111.377 37.1992C111.338 37.2643 111.292 37.3294 111.24 37.3945C111.188 37.4466 111.136 37.4987 111.084 37.5508C111.032 37.5898 110.999 37.6159 110.986 37.6289C110.882 37.6549 110.719 37.694 110.498 37.7461C110.29 37.7852 110.062 37.8242 109.814 37.8633C109.58 37.9023 109.359 37.9349 109.15 37.9609C108.942 37.987 108.799 38 108.721 38C108.317 38.0781 107.965 38.0716 107.666 37.9805C107.367 37.8893 107.113 37.7331 106.904 37.5117C106.696 37.2904 106.527 37.0234 106.396 36.7109C106.266 36.3854 106.169 36.0404 106.104 35.6758C106.038 35.3112 105.999 34.9336 105.986 34.543C105.986 34.1523 106.006 33.7747 106.045 33.4102ZM108.877 30.0703C108.76 30.0703 108.604 30.1354 108.408 30.2656C108.226 30.3828 108.05 30.5391 107.881 30.7344C107.725 30.9167 107.588 31.1185 107.471 31.3398C107.367 31.5482 107.334 31.7305 107.373 31.8867C107.712 31.9258 108.063 31.9193 108.428 31.8672C108.792 31.8151 109.124 31.737 109.424 31.6328C109.723 31.5156 109.971 31.3854 110.166 31.2422C110.361 31.0859 110.452 30.9297 110.439 30.7734C110.439 30.6172 110.316 30.4805 110.068 30.3633C109.834 30.2331 109.437 30.1354 108.877 30.0703ZM114.893 30.9102C114.775 30.8711 114.613 30.8581 114.404 30.8711C114.209 30.8711 113.994 30.8841 113.76 30.9102C113.538 30.9232 113.324 30.9427 113.115 30.9688C112.907 30.9948 112.731 31.0078 112.588 31.0078C112.523 31.0078 112.477 30.9167 112.451 30.7344C112.438 30.5391 112.412 30.2786 112.373 29.9531L115.127 29.7578C115.166 29.3021 115.192 28.9766 115.205 28.7812C115.218 28.5859 115.218 28.4232 115.205 28.293C115.205 28.1497 115.199 27.9935 115.186 27.8242C115.186 27.6419 115.186 27.362 115.186 26.9844C115.524 26.9323 115.778 26.9193 115.947 26.9453C116.13 26.9583 116.253 27.0039 116.318 27.082C116.383 27.1602 116.41 27.2773 116.396 27.4336C116.396 27.5768 116.377 27.7591 116.338 27.9805C116.312 28.2018 116.286 28.4688 116.26 28.7812C116.247 29.0938 116.26 29.4453 116.299 29.8359L118.643 29.7578V30.7148C118.538 30.7148 118.376 30.7214 118.154 30.7344C117.933 30.7474 117.692 30.7604 117.432 30.7734C117.184 30.7865 116.95 30.7995 116.729 30.8125C116.52 30.8255 116.364 30.8516 116.26 30.8906C116.156 31.3594 116.045 31.8607 115.928 32.3945C115.811 32.9284 115.732 33.4557 115.693 33.9766C115.654 34.4974 115.667 34.9857 115.732 35.4414C115.798 35.8841 115.96 36.2552 116.221 36.5547C116.481 36.8411 116.852 37.043 117.334 37.1602C117.816 37.2643 118.454 37.2253 119.248 37.043C119.222 37.2383 119.144 37.401 119.014 37.5312C118.896 37.6484 118.753 37.7461 118.584 37.8242C118.428 37.8893 118.258 37.9414 118.076 37.9805C117.894 38.0065 117.731 38.0195 117.588 38.0195C116.924 38.0195 116.396 37.9023 116.006 37.668C115.615 37.4206 115.322 37.1016 115.127 36.7109C114.932 36.3203 114.808 35.8776 114.756 35.3828C114.704 34.875 114.684 34.3607 114.697 33.8398C114.723 33.319 114.762 32.8047 114.814 32.2969C114.867 31.7891 114.893 31.3268 114.893 30.9102ZM122.314 30.9102C122.197 30.8711 122.035 30.8581 121.826 30.8711C121.631 30.8711 121.416 30.8841 121.182 30.9102C120.96 30.9232 120.745 30.9427 120.537 30.9688C120.329 30.9948 120.153 31.0078 120.01 31.0078C119.945 31.0078 119.899 30.9167 119.873 30.7344C119.86 30.5391 119.834 30.2786 119.795 29.9531L122.549 29.7578C122.588 29.3021 122.614 28.9766 122.627 28.7812C122.64 28.5859 122.64 28.4232 122.627 28.293C122.627 28.1497 122.62 27.9935 122.607 27.8242C122.607 27.6419 122.607 27.362 122.607 26.9844C122.946 26.9323 123.2 26.9193 123.369 26.9453C123.551 26.9583 123.675 27.0039 123.74 27.082C123.805 27.1602 123.831 27.2773 123.818 27.4336C123.818 27.5768 123.799 27.7591 123.76 27.9805C123.734 28.2018 123.708 28.4688 123.682 28.7812C123.669 29.0938 123.682 29.4453 123.721 29.8359L126.064 29.7578V30.7148C125.96 30.7148 125.798 30.7214 125.576 30.7344C125.355 30.7474 125.114 30.7604 124.854 30.7734C124.606 30.7865 124.372 30.7995 124.15 30.8125C123.942 30.8255 123.786 30.8516 123.682 30.8906C123.577 31.3594 123.467 31.8607 123.35 32.3945C123.232 32.9284 123.154 33.4557 123.115 33.9766C123.076 34.4974 123.089 34.9857 123.154 35.4414C123.219 35.8841 123.382 36.2552 123.643 36.5547C123.903 36.8411 124.274 37.043 124.756 37.1602C125.238 37.2643 125.876 37.2253 126.67 37.043C126.644 37.2383 126.566 37.401 126.436 37.5312C126.318 37.6484 126.175 37.7461 126.006 37.8242C125.85 37.8893 125.68 37.9414 125.498 37.9805C125.316 38.0065 125.153 38.0195 125.01 38.0195C124.346 38.0195 123.818 37.9023 123.428 37.668C123.037 37.4206 122.744 37.1016 122.549 36.7109C122.354 36.3203 122.23 35.8776 122.178 35.3828C122.126 34.875 122.106 34.3607 122.119 33.8398C122.145 33.319 122.184 32.8047 122.236 32.2969C122.288 31.7891 122.314 31.3268 122.314 30.9102ZM128.271 30.4219C128.428 30.4219 128.558 30.4154 128.662 30.4023C128.779 30.3893 128.877 30.4544 128.955 30.5977C128.994 31.1836 129.04 31.7826 129.092 32.3945C129.144 32.9935 129.196 33.599 129.248 34.2109C129.3 34.8229 129.333 35.4414 129.346 36.0664C129.372 36.6784 129.378 37.2773 129.365 37.8633C129.365 37.9414 129.346 37.987 129.307 38C129.268 38.026 129.209 38.0326 129.131 38.0195C129.066 38.0195 128.981 38.013 128.877 38C128.786 38 128.682 38.013 128.564 38.0391L128.271 30.4219ZM127.139 26.9258C127.139 26.8346 127.145 26.737 127.158 26.6328C127.171 26.5156 127.197 26.4115 127.236 26.3203C127.288 26.2292 127.347 26.151 127.412 26.0859C127.49 26.0208 127.581 25.9883 127.686 25.9883C127.842 25.9883 127.998 25.9948 128.154 26.0078C128.311 26.0208 128.46 26.0534 128.604 26.1055C128.747 26.1445 128.864 26.2161 128.955 26.3203C129.046 26.4115 129.092 26.5482 129.092 26.7305C129.092 27.043 128.975 27.3229 128.74 27.5703C128.506 27.8047 128.219 27.9219 127.881 27.9219C127.62 27.9219 127.432 27.8242 127.314 27.6289C127.197 27.4206 127.139 27.1862 127.139 26.9258ZM128.271 27.0234C128.232 27.0234 128.213 27.056 128.213 27.1211C128.213 27.1862 128.232 27.2188 128.271 27.2188C128.324 27.2188 128.35 27.1862 128.35 27.1211C128.35 27.056 128.324 27.0234 128.271 27.0234ZM130.459 37.9023C130.433 37.694 130.407 37.3945 130.381 37.0039C130.368 36.6003 130.348 36.151 130.322 35.6562C130.309 35.1484 130.296 34.6211 130.283 34.0742C130.27 33.5273 130.257 33.0065 130.244 32.5117C130.231 32.0169 130.212 31.5742 130.186 31.1836C130.173 30.7799 130.146 30.474 130.107 30.2656C130.107 30.2526 130.101 30.2201 130.088 30.168C130.088 30.1159 130.081 30.0573 130.068 29.9922C130.068 29.9271 130.068 29.875 130.068 29.8359C130.068 29.7839 130.068 29.7448 130.068 29.7188C130.264 29.5625 130.426 29.5104 130.557 29.5625C130.7 29.6146 130.817 29.7318 130.908 29.9141C130.999 30.0833 131.064 30.2982 131.104 30.5586C131.143 30.819 131.169 31.0794 131.182 31.3398C131.208 31.6003 131.221 31.8411 131.221 32.0625C131.221 32.2708 131.221 32.4206 131.221 32.5117C131.247 32.2904 131.286 32.0299 131.338 31.7305C131.39 31.431 131.468 31.125 131.572 30.8125C131.676 30.5 131.8 30.194 131.943 29.8945C132.1 29.582 132.288 29.3086 132.51 29.0742C132.731 28.8398 132.979 28.6576 133.252 28.5273C133.538 28.3971 133.864 28.3451 134.229 28.3711C134.801 28.3971 135.27 28.5534 135.635 28.8398C136.012 29.1263 136.305 29.5104 136.514 29.9922C136.735 30.474 136.891 31.0273 136.982 31.6523C137.087 32.2773 137.152 32.9414 137.178 33.6445C137.217 34.3477 137.23 35.0638 137.217 35.793C137.204 36.5091 137.197 37.1992 137.197 37.8633C137.08 37.8893 136.963 37.9349 136.846 38C136.729 38.0521 136.631 38.0716 136.553 38.0586C136.475 38.0586 136.416 38.0065 136.377 37.9023C136.351 37.7852 136.364 37.5638 136.416 37.2383C136.429 37.0039 136.449 36.6458 136.475 36.1641C136.514 35.6693 136.527 35.1224 136.514 34.5234C136.514 33.9245 136.481 33.306 136.416 32.668C136.351 32.0299 136.227 31.4505 136.045 30.9297C135.876 30.3958 135.628 29.9661 135.303 29.6406C134.977 29.3021 134.554 29.1328 134.033 29.1328C133.499 29.3542 133.05 29.7708 132.686 30.3828C132.334 30.9948 132.048 31.7109 131.826 32.5312C131.618 33.3516 131.462 34.2435 131.357 35.207C131.266 36.1576 131.214 37.0885 131.201 38C131.175 37.987 131.123 37.9805 131.045 37.9805C130.98 37.9805 130.902 37.9805 130.811 37.9805C130.732 37.9674 130.654 37.9544 130.576 37.9414C130.511 37.9284 130.472 37.9154 130.459 37.9023ZM135.322 42.6289C135.322 42.2773 135.381 42.0104 135.498 41.8281C135.615 41.6458 135.889 41.5547 136.318 41.5547C136.279 41.737 136.234 41.9193 136.182 42.1016C136.117 42.2839 136.064 42.4531 136.025 42.6094C135.973 42.7656 135.954 42.8893 135.967 42.9805C135.967 43.0716 136.012 43.1042 136.104 43.0781C136.52 43.3516 136.976 43.5469 137.471 43.6641C137.965 43.7812 138.454 43.8398 138.936 43.8398C139.665 43.8268 140.29 43.6771 140.811 43.3906C141.344 43.1042 141.781 42.7331 142.119 42.2773C142.471 41.8216 142.738 41.2943 142.92 40.6953C143.115 40.1094 143.232 39.4974 143.271 38.8594C143.324 38.2344 143.311 37.6029 143.232 36.9648C143.154 36.3268 143.031 35.7409 142.861 35.207C142.64 35.4544 142.412 35.7148 142.178 35.9883C141.956 36.2617 141.715 36.5091 141.455 36.7305C141.195 36.9388 140.915 37.1146 140.615 37.2578C140.329 37.401 140.003 37.4727 139.639 37.4727C139.261 37.4727 138.975 37.4076 138.779 37.2773C138.597 37.1471 138.473 36.9714 138.408 36.75C138.343 36.5156 138.311 36.2487 138.311 35.9492C138.324 35.6497 138.33 35.3307 138.33 34.9922C138.33 34.6797 138.337 34.3281 138.35 33.9375C138.376 33.5469 138.421 33.1562 138.486 32.7656C138.564 32.362 138.662 31.9714 138.779 31.5938C138.91 31.2031 139.079 30.8581 139.287 30.5586C139.495 30.2461 139.756 29.9987 140.068 29.8164C140.381 29.6341 140.752 29.543 141.182 29.543C141.455 29.543 141.715 29.569 141.963 29.6211C142.223 29.6602 142.458 29.7383 142.666 29.8555C142.887 29.9727 143.076 30.1289 143.232 30.3242C143.389 30.5195 143.512 30.7669 143.604 31.0664C143.656 31.6523 143.721 32.2904 143.799 32.9805C143.877 33.6576 143.942 34.3672 143.994 35.1094C144.046 35.8385 144.072 36.5742 144.072 37.3164C144.072 38.0586 144.02 38.7747 143.916 39.4648C143.825 40.1549 143.662 40.7995 143.428 41.3984C143.206 42.0104 142.887 42.5443 142.471 43C142.067 43.4688 141.559 43.8398 140.947 44.1133C140.335 44.3997 139.6 44.556 138.74 44.582C138.376 44.582 137.992 44.556 137.588 44.5039C137.184 44.4648 136.813 44.3737 136.475 44.2305C136.136 44.1003 135.863 43.9049 135.654 43.6445C135.433 43.3971 135.322 43.0586 135.322 42.6289ZM139.072 34.9922C139.072 35.1354 139.066 35.2982 139.053 35.4805C139.04 35.6628 139.046 35.8451 139.072 36.0273C139.098 36.2096 139.15 36.3659 139.229 36.4961C139.32 36.6263 139.463 36.6979 139.658 36.7109C139.971 36.7109 140.257 36.6393 140.518 36.4961C140.791 36.3529 141.032 36.1576 141.24 35.9102C141.462 35.6628 141.65 35.3893 141.807 35.0898C141.976 34.7773 142.113 34.4583 142.217 34.1328C142.334 33.8073 142.419 33.4948 142.471 33.1953C142.536 32.8828 142.568 32.6094 142.568 32.375C142.607 32.1276 142.607 31.8802 142.568 31.6328C142.542 31.3854 142.471 31.1641 142.354 30.9688C142.236 30.7734 142.08 30.6172 141.885 30.5C141.689 30.3698 141.455 30.3047 141.182 30.3047C140.869 30.3047 140.596 30.3958 140.361 30.5781C140.127 30.7474 139.932 30.9688 139.775 31.2422C139.619 31.5156 139.495 31.8281 139.404 32.1797C139.313 32.5182 139.242 32.8633 139.189 33.2148C139.15 33.5534 139.118 33.8854 139.092 34.2109C139.079 34.5234 139.072 34.7839 139.072 34.9922ZM146.045 36.418C146.279 36.418 146.494 36.4635 146.689 36.5547C146.898 36.6458 147.1 36.75 147.295 36.8672C147.49 36.9714 147.686 37.069 147.881 37.1602C148.089 37.2383 148.311 37.2773 148.545 37.2773C148.818 37.2773 149.098 37.2318 149.385 37.1406C149.684 37.0365 149.958 36.8997 150.205 36.7305C150.452 36.5482 150.654 36.3333 150.811 36.0859C150.967 35.8255 151.045 35.5456 151.045 35.2461C151.058 35.1549 151.058 35.0443 151.045 34.9141C151.045 34.7839 151.006 34.6536 150.928 34.5234C150.85 34.3802 150.719 34.25 150.537 34.1328C150.355 34.0026 150.088 33.9049 149.736 33.8398C149.398 33.7747 148.968 33.7422 148.447 33.7422C147.926 33.7292 147.282 33.7747 146.514 33.8789C146.318 33.8789 146.13 33.8268 145.947 33.7227C145.765 33.6055 145.602 33.4688 145.459 33.3125C145.316 33.1432 145.199 32.9674 145.107 32.7852C145.016 32.5898 144.971 32.4076 144.971 32.2383C144.971 31.7305 145.075 31.3203 145.283 31.0078C145.505 30.6823 145.785 30.4284 146.123 30.2461C146.462 30.0508 146.839 29.9141 147.256 29.8359C147.673 29.7578 148.096 29.7188 148.525 29.7188C148.721 29.7188 148.942 29.7318 149.189 29.7578C149.45 29.7708 149.684 29.8229 149.893 29.9141C150.114 29.9922 150.296 30.1224 150.439 30.3047C150.596 30.487 150.674 30.7409 150.674 31.0664C150.648 31.2878 150.609 31.4245 150.557 31.4766C150.518 31.5156 150.452 31.5026 150.361 31.4375C150.283 31.3594 150.186 31.2552 150.068 31.125C149.951 30.9948 149.808 30.8711 149.639 30.7539C149.482 30.6237 149.287 30.526 149.053 30.4609C148.831 30.3958 148.577 30.3958 148.291 30.4609C147.992 30.4609 147.692 30.4935 147.393 30.5586C147.093 30.6107 146.82 30.7083 146.572 30.8516C146.338 30.9948 146.143 31.1901 145.986 31.4375C145.843 31.6849 145.771 31.9974 145.771 32.375C145.771 32.5703 145.856 32.707 146.025 32.7852C146.208 32.8503 146.442 32.8828 146.729 32.8828C147.028 32.8828 147.36 32.8763 147.725 32.8633C148.102 32.8372 148.486 32.8242 148.877 32.8242C149.268 32.8242 149.645 32.8568 150.01 32.9219C150.374 32.974 150.693 33.0911 150.967 33.2734C151.253 33.4427 151.475 33.6901 151.631 34.0156C151.787 34.3411 151.846 34.7643 151.807 35.2852C151.807 35.6628 151.696 36.0208 151.475 36.3594C151.266 36.6979 150.993 36.9974 150.654 37.2578C150.329 37.5052 149.964 37.7005 149.561 37.8438C149.157 37.987 148.766 38.0391 148.389 38C148.232 37.987 148.018 37.9479 147.744 37.8828C147.484 37.8047 147.223 37.7005 146.963 37.5703C146.715 37.4401 146.501 37.2839 146.318 37.1016C146.136 36.9062 146.045 36.6784 146.045 36.418Z" fill="#2F2E41"/>
<path d="M1 22.7229C2.49513 23.5237 4.08377 23.678 5.76257 23.7894C7.69029 23.9172 9.62684 23.8648 11.5571 23.8426C13.6439 23.8187 15.7268 23.86 17.8126 23.9185C19.899 23.9771 21.9888 24.0674 24.0753 23.9656C24.7009 23.9351 25.414 23.8402 26.0346 23.9467" stroke="#2F2E41" stroke-width="0.7" stroke-linecap="round"/>
<path d="M2.13547 23.0353C2.99517 23.4958 3.846 23.9801 4.71922 24.4143C5.31785 24.7119 5.95389 24.8992 6.56762 25.1594C7.01142 25.3476 7.44711 25.5529 7.8941 25.734C8.22044 25.8662 8.55724 25.99 8.86759 26.1562C8.95934 26.2054 9.03356 26.2671 9.12573 26.3165" stroke="#2F2E41" stroke-width="0.7" stroke-linecap="round"/>
<path d="M1.51794 22.7487C1.57389 22.6958 1.69461 22.6807 1.76324 22.6609C2.14854 22.5498 2.53457 22.4428 2.91784 22.3245C3.79938 22.0524 4.67656 21.7666 5.55915 21.4978C6.5435 21.1979 7.51849 20.8787 8.51999 20.639C8.7726 20.5785 9.02756 20.4965 9.2845 20.4572C9.41341 20.4375 9.54708 20.4187 9.67391 20.3952C9.80478 20.371 9.94676 20.386 10.0755 20.3471" stroke="#2F2E41" stroke-width="0.7" stroke-linecap="round"/>
</svg>
