<svg width="335" height="305" viewBox="0 0 335 305" fill="none" xmlns="http://www.w3.org/2000/svg">
<path d="M289.592 257.934H44.1602V216.267H47.9463V185.253C47.9545 177.946 50.8609 170.941 56.0277 165.774C61.1945 160.607 68.1999 157.701 75.5068 157.693H258.691C265.998 157.701 273.003 160.607 278.17 165.774C283.337 170.941 286.243 177.946 286.251 185.253V216.267H289.592V257.934Z" fill="#E4E4E4"/>
<path d="M296.242 303.794H284.024V303.571C284.012 292.765 279.714 282.406 272.073 274.765C264.433 267.124 254.073 262.826 243.267 262.814H90.4849C79.6793 262.826 69.3197 267.124 61.6789 274.765C54.0382 282.406 49.7403 292.765 49.728 303.571V303.794H37.5103C34.7267 303.791 32.058 302.683 30.0897 300.715C28.1214 298.747 27.0143 296.078 27.0111 293.295V225.183C23.4633 223.179 20.5777 212.292 22.452 203.598C23.6283 198.142 27.024 191.553 36.5212 191.145C45.7664 190.747 52.6286 199.427 53.2416 207.782C53.5738 212.179 52.2825 216.544 49.6122 220.053H49.728V229.77C69.7762 223.345 89.8527 220.076 109.404 220.053C129.411 220.072 149.279 223.379 168.214 229.84C207.583 217.107 246.544 216.859 284.024 229.107V220.053H284.14C281.47 216.544 280.178 212.179 280.511 207.782C281.183 198.618 288.679 191.155 297.221 191.145H297.25C307.322 191.145 310.885 197.209 312.1 202.299C314.251 211.306 310.303 223.162 306.741 225.183V293.295C306.738 296.078 305.631 298.747 303.663 300.715C301.694 302.683 299.026 303.791 296.242 303.794Z" fill="#CACACA"/>
<path d="M227.983 285.568L233.88 289.781L252.936 269.039L244.232 262.821L227.983 285.568Z" fill="#FFB6B6"/>
<path d="M227.854 282.568L229.514 283.754L237.877 285.748L239.468 290.864L239.468 290.865C241.431 292.267 242.756 294.392 243.153 296.771C243.549 299.151 242.984 301.59 241.582 303.553L241.41 303.794L222.395 290.21L227.854 282.568Z" fill="#2F2E41"/>
<path d="M267.946 230.035H224.643C220.605 230.033 216.733 228.427 213.879 225.571C211.024 222.715 209.42 218.842 209.42 214.804C209.42 210.766 211.024 206.894 213.879 204.038C216.733 201.182 220.605 199.576 224.643 199.574H267.946C271.985 199.574 275.859 201.178 278.716 204.035C281.572 206.891 283.177 210.765 283.177 214.804C283.177 218.844 281.572 222.718 278.716 225.574C275.859 228.43 271.985 230.035 267.946 230.035Z" fill="#2F2E41"/>
<path d="M246.7 123.682L253.685 129L262.109 131.589C262.109 131.589 265.591 180.573 268.729 183.711C271.867 186.849 269.037 186.933 269.667 191.009C270.298 195.086 271.83 203.441 271.83 203.441C250.65 214.653 232.39 214.954 217.723 201.834C217.536 201.023 217.631 200.171 217.994 199.421C218.356 198.671 218.964 198.068 219.717 197.711C222.446 196.262 217.2 189.502 219.431 188.371C221.662 187.241 218.524 177.435 218.524 177.435L220.582 156.977L218.956 153.706L222.925 133.695L229.811 131.181L232.562 124.553L246.7 123.682Z" fill="#03A093"/>
<path d="M251.076 77.9488C251.045 78.8334 251.208 79.7142 251.554 80.529C251.9 81.3438 252.42 82.0728 253.078 82.6648C253.736 83.2567 254.516 83.6972 255.363 83.9551C256.21 84.213 257.103 84.2821 257.979 84.1576L267.823 103.291L273.307 93.5468L263.119 76.8714C262.812 75.413 261.981 74.1179 260.783 73.2314C259.585 72.3448 258.103 71.9285 256.619 72.0613C255.134 72.1941 253.75 72.8668 252.729 73.9519C251.707 75.037 251.119 76.4591 251.076 77.9488H251.076Z" fill="#FFB6B6"/>
<path d="M267.654 82.6289L288.767 115.352L288.697 115.503C288.617 115.675 283.836 126.001 279.204 135.459C278.49 136.915 277.78 138.351 277.092 139.726C276.795 140.32 276.502 140.901 276.213 141.469C274.268 145.305 272.568 148.476 271.553 149.982C269.308 153.387 265.967 155.922 262.083 157.166L261.985 157.191L261.892 157.152C259.992 156.351 258.422 154.925 257.441 153.112C256.46 151.298 256.126 149.204 256.494 147.176C258.326 137.39 262.407 128.164 268.415 120.225L271.837 115.714L259.943 89.8535L267.654 82.6289Z" fill="#03A093"/>
<path d="M231.176 73.9395C231.207 74.8241 231.044 75.7049 230.698 76.5197C230.353 77.3345 229.832 78.0635 229.174 78.6555C228.516 79.2474 227.736 79.6879 226.889 79.9458C226.042 80.2037 225.149 80.2729 224.273 80.1483L214.429 99.2815L208.945 89.5375L219.134 72.8621C219.44 71.4038 220.272 70.1086 221.47 69.2221C222.667 68.3356 224.149 67.9193 225.633 68.0521C227.118 68.1849 228.502 68.8575 229.523 69.9426C230.545 71.0277 231.133 72.4498 231.176 73.9395H231.176Z" fill="#FFB6B6"/>
<path d="M214.599 78.6201L193.485 111.343L193.555 111.494C193.635 111.666 198.416 121.992 203.048 131.45C203.762 132.907 204.472 134.342 205.16 135.718C205.458 136.311 205.75 136.892 206.039 137.461C207.985 141.297 209.685 144.467 210.699 145.973C212.944 149.378 216.286 151.913 220.169 153.157L220.267 153.182L220.36 153.143C222.26 152.342 223.83 150.917 224.811 149.103C225.792 147.289 226.126 145.196 225.758 143.167C223.926 133.381 219.846 124.155 213.838 116.217L210.415 111.705L222.31 85.8447L214.599 78.6201Z" fill="#03A093"/>
<path d="M239.55 120.722C247.181 120.722 253.366 114.536 253.366 106.906C253.366 99.2755 247.181 93.0898 239.55 93.0898C231.92 93.0898 225.734 99.2755 225.734 106.906C225.734 114.536 231.92 120.722 239.55 120.722Z" fill="#FFB6B6"/>
<path d="M228.297 95.0366C229.433 91.7312 235.089 89.4385 244.258 89.1197C253.427 88.8009 255.753 99.6065 255.753 99.6065C261.874 104.572 249.217 117.866 248.604 117.387L248.88 114.889C249.336 110.752 251.273 107.524 248.809 103.213L246.443 103.24L241.956 104.103C241.676 104.157 241.387 104.117 241.132 103.99C240.877 103.863 240.671 103.655 240.546 103.4C240.42 103.144 240.382 102.854 240.438 102.575C240.494 102.295 240.639 102.042 240.853 101.854L240.894 101.818L240.792 101.66C239.212 102.385 237.583 103.058 235.855 103.159C233.91 103.273 231.785 102.5 230.854 100.789C230.605 100.319 230.453 99.8037 230.407 99.2739C227.785 100.321 226.586 103.553 226.586 103.553C226.586 103.553 227.161 98.3421 228.297 95.0366Z" fill="#2F2E41"/>
<path d="M265.611 279.691L260.079 284.374L239.383 265.269L247.546 258.356L265.611 279.691Z" fill="#FFB6B6"/>
<path d="M271.561 283.857L253.727 298.959L253.536 298.733C251.977 296.892 251.213 294.507 251.413 292.103C251.612 289.699 252.758 287.473 254.599 285.914L254.6 285.913L255.764 280.683L263.935 278.008L265.492 276.69L271.561 283.857Z" fill="#2F2E41"/>
<path d="M231.428 226.863L235.999 216.949C235.948 207.905 228.378 200.561 219.353 201.128C214.327 201.444 209.62 204.255 207.676 212.61C202.675 234.096 251.738 278.807 251.738 278.807L260.754 273.236L261.169 267.35L256.12 264.238L256.116 259.218L251.301 256.935L231.428 226.863Z" fill="#2F2E41"/>
<path d="M261.463 224.132L255.812 215.823C255.119 206.807 262.06 198.865 271.101 198.687C276.136 198.589 281.058 201.004 283.683 209.171C290.433 230.172 245.212 278.766 245.212 278.766L235.77 273.955L234.872 268.123L239.647 264.607L239.239 259.604L243.849 256.932L261.463 224.132Z" fill="#2F2E41"/>
<path d="M241.573 156.089V158.744H232.771V156.089H235.497V149.693L232.949 151.154V148.285L236.869 146.058H238.829V156.089L241.573 156.089Z" fill="white"/>
<path d="M243.559 157.229C242.722 156.113 242.303 154.497 242.303 152.383C242.303 150.304 242.722 148.71 243.559 147.599C244.004 147.077 244.557 146.657 245.18 146.37C245.803 146.082 246.481 145.933 247.167 145.933C247.853 145.933 248.531 146.082 249.154 146.37C249.777 146.657 250.33 147.077 250.775 147.599C251.612 148.71 252.031 150.304 252.031 152.383C252.031 154.497 251.612 156.113 250.775 157.229C250.332 157.754 249.779 158.176 249.156 158.465C248.533 158.754 247.854 158.904 247.167 158.904C246.48 158.904 245.801 158.754 245.178 158.465C244.555 158.176 244.002 157.754 243.559 157.229ZM248.396 155.456C248.697 154.461 248.824 153.421 248.771 152.383C248.823 151.365 248.696 150.346 248.396 149.372C248.32 149.105 248.158 148.87 247.937 148.703C247.715 148.536 247.445 148.445 247.167 148.445C246.889 148.445 246.619 148.536 246.397 148.703C246.176 148.87 246.014 149.105 245.938 149.372C245.638 150.346 245.511 151.365 245.563 152.383C245.51 153.421 245.637 154.461 245.938 155.456C246.012 155.725 246.173 155.962 246.395 156.131C246.617 156.3 246.888 156.392 247.167 156.392C247.446 156.392 247.717 156.3 247.939 156.131C248.161 155.962 248.322 155.725 248.396 155.456Z" fill="white"/>
<path d="M147.709 296.743L140.951 296.743L137.735 270.674L147.71 270.674L147.709 296.743Z" fill="#A0616A"/>
<path d="M147.947 303.794L127.163 303.793V303.53C127.163 301.385 128.016 299.327 129.533 297.81C131.05 296.293 133.107 295.441 135.253 295.441H135.253L139.05 292.561L146.133 295.441L147.947 295.441L147.947 303.794Z" fill="#2F2E41"/>
<path d="M195.53 296.743L202.288 296.743L205.503 270.674L195.528 270.674L195.53 296.743Z" fill="#A0616A"/>
<path d="M195.291 303.794L216.075 303.793V303.53C216.075 301.385 215.222 299.327 213.705 297.81C212.188 296.293 210.131 295.441 207.985 295.441H207.985L204.188 292.561L197.105 295.441L195.291 295.441L195.291 303.794Z" fill="#2F2E41"/>
<path d="M137.438 251.517C137.537 250.03 138.331 241.803 138.331 241.803L140.232 224.357L143.583 178.112L143.801 175.085L161.352 171.715L173.347 165.965L187.604 170.522L198.705 174.686C198.705 174.686 198.724 176.468 198.81 178.62C198.924 181.439 199.124 184.894 199.599 185.792C200.392 187.379 200.193 195.9 200.193 195.9C200.193 195.9 200.982 213.237 201.975 215.138C202.968 217.039 203.168 220.998 202.868 221.791C202.569 222.585 203.862 243.405 203.862 243.405C203.862 243.405 207.179 280.249 205.098 285.805C203.016 291.36 195.151 287.721 195.151 287.721C195.151 287.721 195.531 286.238 193.25 285.54C190.969 284.841 184.021 232.598 184.021 232.598C184.021 232.598 182.728 221.886 181.54 218.816C180.352 215.746 179.259 207.121 179.259 207.121C179.259 207.121 171.921 192.844 171.826 189.67C171.826 189.67 170.866 186.7 169.958 189.969C169.051 193.239 166.375 201.071 166.375 201.071L163.766 210.69L160.696 225.061L158.709 237.16C158.709 237.16 155.734 253.219 155.259 253.912C154.784 254.606 155.259 269.277 155.259 269.277C155.259 269.277 152.959 281.771 149.708 283.952C146.458 286.134 137.845 283.987 137.845 283.987C137.845 283.987 137.338 253.005 137.438 251.517Z" fill="#2F2E41"/>
<path d="M144.925 126.843L148.826 137.06L144.012 142.042L146.132 143.938L144.569 146.62L140.491 174.72L162.846 182.09L170.374 173.885L176.309 182.09L202.177 176.596L195.581 140.761V138.419L193.718 133.895V124.319L202.272 95.8139L183.956 91.3435L176.937 86.5142L174.665 93.3061L164.994 91.8103L164.742 86.7084L157.343 92.7854L147.477 94.3306L140.016 95.8139L139.065 97.8793L140.966 97.466L144.293 124.34L144.925 126.843Z" fill="#2F2E41"/>
<path d="M159.968 99.2591L164.742 86.7375L176.937 86.5142L180.983 99.2591L195.528 180.51C195.528 180.51 150.969 192.918 151.421 178.002C151.897 162.319 154.041 141.487 154.041 141.487L159.968 99.2591Z" fill="#3F3D56"/>
<path d="M170.567 83.2351C178.501 83.2351 184.932 76.8035 184.932 68.8697C184.932 60.936 178.501 54.5044 170.567 54.5044C162.633 54.5044 156.201 60.936 156.201 68.8697C156.201 76.8035 162.633 83.2351 170.567 83.2351Z" fill="#A0616A"/>
<path d="M155.354 58.4485C157.693 55.9029 160.618 51.2434 169.479 49.2867C180.427 46.8689 185.601 56.7594 182.84 56.9215C190.913 59.3663 185.727 76.0736 183.412 74.6725C183.392 74.6586 183.373 74.6437 183.355 74.6278C182.11 73.7111 181.066 72.5503 180.285 71.2162C179.504 69.8821 179.003 68.4028 178.813 66.8686L178.373 62.915C178.311 66.1318 175.023 66.5573 171.664 65.3726C171.862 64.6673 172.241 64.026 172.764 63.5119C173.286 62.9979 173.933 62.6288 174.641 62.4412C172.586 64.3365 169.912 65.6924 166.176 66.1244C166.635 64.3495 167.548 63.0429 168.978 62.2685L168.846 62.1382C167.477 63.1799 166.05 64.1811 164.405 64.6529C162.553 65.1836 160.334 64.8965 159.066 63.4471C158.724 63.0471 158.466 62.5827 158.307 62.0814C158.581 64.6289 156.873 67.5369 155.545 67.0377C154.441 66.8231 153.797 60.1431 155.354 58.4485Z" fill="#2F2E41"/>
<path d="M188.279 68.0778L201.344 90.0577L211 85.4971C211 85.4971 194.361 64.715 193.831 64.1172C194.058 63.107 193.973 62.0518 193.587 61.091C193.201 60.1303 192.533 59.3093 191.671 58.7366C190.808 58.164 189.792 57.8667 188.757 57.884C187.722 57.9014 186.716 58.2326 185.873 58.8339C185.03 59.4351 184.39 60.2781 184.037 61.2513C183.683 62.2244 183.634 63.2819 183.895 64.2839C184.155 65.2858 184.714 66.185 185.497 66.8624C186.28 67.5399 187.25 67.9637 188.279 68.0778Z" fill="#A0616A"/>
<path d="M194.605 122.699L214.881 108.092C216.203 107.139 217.313 105.921 218.138 104.515C218.963 103.108 219.486 101.546 219.672 99.9261C219.859 98.3065 219.706 96.6658 219.222 95.1088C218.739 93.5518 217.935 92.1129 216.864 90.884L202.272 74.145L195.915 82.7591L200.815 93.004L191.328 95.5057L194.605 122.699Z" fill="#2F2E41"/>
<path d="M159.804 70.1437L146.739 92.1236L137.083 87.563C137.083 87.563 153.722 66.781 154.252 66.1831C154.025 65.1729 154.11 64.1177 154.496 63.1569C154.882 62.1962 155.55 61.3752 156.412 60.8025C157.275 60.2299 158.291 59.9326 159.326 59.9499C160.361 59.9673 161.367 60.2985 162.21 60.8998C163.053 61.5011 163.693 62.344 164.046 63.3172C164.4 64.2903 164.449 65.3478 164.188 66.3498C163.928 67.3517 163.369 68.2509 162.586 68.9283C161.803 69.6058 160.833 70.0296 159.804 70.1437Z" fill="#A0616A"/>
<path d="M153.478 124.765L133.202 110.158C131.88 109.205 130.77 107.987 129.945 106.58C129.12 105.174 128.598 103.612 128.411 101.992C128.224 100.372 128.377 98.7317 128.861 97.1747C129.344 95.6177 130.148 94.1788 131.219 92.9499L145.811 76.2109L152.168 84.825L147.268 95.0699L156.756 97.5716L153.478 124.765Z" fill="#2F2E41"/>
<path d="M173.992 120.675C174.45 121.217 174.692 121.909 174.669 122.618C174.685 123.32 174.458 124.005 174.028 124.56C173.563 125.133 172.95 125.567 172.255 125.816C170.576 126.398 168.749 126.398 167.07 125.816C166.375 125.568 165.762 125.133 165.297 124.56C164.867 124.005 164.64 123.32 164.656 122.618C164.632 121.901 164.873 121.2 165.333 120.649C165.836 120.09 166.504 119.706 167.239 119.553C166.594 119.353 166.019 118.973 165.582 118.457C165.18 117.969 164.965 117.353 164.977 116.72C164.964 116.056 165.181 115.408 165.591 114.885C166.031 114.341 166.61 113.925 167.266 113.682C168.815 113.124 170.51 113.124 172.059 113.682C172.715 113.925 173.294 114.341 173.734 114.885C174.144 115.408 174.361 116.056 174.349 116.72C174.36 117.365 174.142 117.993 173.734 118.493C173.31 119.007 172.742 119.382 172.104 119.571C172.831 119.737 173.49 120.123 173.992 120.675ZM171.052 123.384C171.224 123.273 171.364 123.12 171.458 122.939C171.552 122.757 171.596 122.554 171.587 122.35C171.592 122.144 171.547 121.939 171.458 121.754C171.368 121.568 171.235 121.406 171.07 121.281C170.693 120.916 170.188 120.711 169.663 120.711C169.137 120.711 168.632 120.916 168.255 121.281C168.09 121.406 167.957 121.568 167.868 121.754C167.778 121.939 167.734 122.144 167.738 122.35C167.729 122.554 167.774 122.757 167.867 122.939C167.961 123.12 168.101 123.273 168.273 123.384C168.699 123.618 169.177 123.74 169.663 123.74C170.148 123.74 170.627 123.618 171.052 123.384ZM168.531 116.105C168.382 116.225 168.265 116.38 168.189 116.555C168.113 116.73 168.081 116.921 168.095 117.112C168.095 117.896 168.617 118.419 169.663 118.68C170.708 118.419 171.23 117.896 171.231 117.112C171.245 116.921 171.212 116.73 171.136 116.555C171.06 116.38 170.943 116.225 170.794 116.105C170.456 115.89 170.063 115.776 169.663 115.776C169.262 115.776 168.869 115.89 168.531 116.105H168.531Z" fill="white"/>
<path d="M13.3974 78.4174C13.7089 78.878 14.1176 79.2646 14.5947 79.5502C15.0719 79.8357 15.6058 80.0131 16.1589 80.07C16.712 80.1269 17.2709 80.0618 17.7961 79.8793C18.3213 79.6968 18.8001 79.4013 19.1988 79.0138L31.2762 85.0816L30.4534 78.1063L19.1107 73.4136C18.4152 72.7871 17.514 72.4373 16.5779 72.4308C15.6418 72.4242 14.7359 72.7612 14.0316 73.378C13.3274 73.9947 12.8739 74.8484 12.757 75.7772C12.6401 76.706 12.868 77.6454 13.3974 78.4174Z" fill="#9E616A"/>
<path d="M63.3609 106.572L57.3475 102.424C57.3475 102.424 50.4613 101.957 49.4256 99.7681C48.3899 97.5789 48.2154 98.315 47.1113 98.0531C46.0072 97.7913 45.4375 94.4962 43.5867 94.8849C39.4228 95.7595 19.8401 82.8197 21.9536 81.2025L23.5246 74.5781C25.1847 75.1979 26.9154 75.6083 28.6769 75.8001C31.3404 76.043 37.6156 79.0861 38.5451 80.084C39.4746 81.0819 41.1212 80.695 43.3294 81.2187C45.5375 81.7423 46.3103 85.2942 49.9726 84.3491C55.1257 83.0192 81.8222 95.6816 84.7105 96.8635C87.8804 98.1607 90.0941 102.028 90.0941 102.028L89.2213 105.708L63.3609 106.572Z" fill="#03A093"/>
<path d="M106.76 294.713H112.001L114.495 274.498H106.759L106.76 294.713Z" fill="#9E616A"/>
<path d="M105.049 291.123L113.422 290.624V294.211L121.383 299.709C121.776 299.98 122.072 300.37 122.228 300.822C122.384 301.274 122.391 301.763 122.249 302.22C122.107 302.676 121.822 303.075 121.437 303.358C121.052 303.641 120.587 303.794 120.109 303.794H110.141L108.423 300.245L107.752 303.794H103.993L105.049 291.123Z" fill="#2F2E41"/>
<path d="M41.072 290.261L45.9415 292.199L55.7351 274.34L48.5486 271.479L41.072 290.261Z" fill="#9E616A"/>
<path d="M40.8105 286.293L48.7747 288.925L47.4479 292.258L52.8107 300.311C53.0756 300.708 53.2065 301.18 53.1842 301.658C53.1619 302.135 52.9876 302.593 52.6868 302.964C52.3859 303.335 51.9743 303.6 51.512 303.721C51.0497 303.842 50.5609 303.812 50.1169 303.635L40.8552 299.948L40.5712 296.016L38.6355 299.064L35.1435 297.674L40.8105 286.293Z" fill="#2F2E41"/>
<path d="M96.1952 234.56L87.4556 193.775L73.8086 239.09L52.1992 282.061L52.0847 282.289L45.2396 278.603C44.2736 261.155 46.568 244.805 54.9596 230.508L58.9332 191.267C59.055 189.926 62.0191 158.447 71.4048 152.865L74.1536 146.597L101.492 139.845L101.591 139.957C104.22 142.912 105.957 146.552 106.599 150.454L114.768 199.942L114.773 199.97L112.583 234.493L115.579 285.426H104.738C98.0311 272.807 95.1835 255.852 96.1952 234.56Z" fill="#2F2E41"/>
<path d="M119.729 63.5113C120.146 63.8794 120.477 64.3345 120.699 64.8443C120.92 65.3542 121.028 65.9065 121.013 66.4624C120.998 67.0182 120.862 67.564 120.613 68.0614C120.365 68.5588 120.01 68.9957 119.575 69.3413L124.039 82.0987L117.227 80.3857L114.032 68.5336C113.5 67.7633 113.269 66.8247 113.383 65.8955C113.497 64.9663 113.948 64.1112 114.65 63.4922C115.352 62.8731 116.257 62.5331 117.193 62.5366C118.129 62.5402 119.032 62.8869 119.729 63.5113H119.729Z" fill="#9E616A"/>
<path d="M66.0953 159.875C65.3591 159.875 64.9409 159.731 64.7789 159.421C64.5413 158.967 64.9537 158.373 65.431 157.686C65.764 157.207 66.7366 156.254 66.2583 156.196C59.0061 155.31 62.4874 110.597 65.6303 104.687C66.2689 103.486 65.5933 101.644 66.3124 99.6057C68.2767 94.0401 70.9581 92.3296 76.2997 88.9225C76.7333 88.6458 77.1848 88.3569 77.6542 88.0557C78.2615 87.6655 78.2276 86.3716 78.1919 85.0015C78.1522 83.4787 78.111 81.9039 78.857 80.9197L78.9055 80.8555L78.9838 80.8373C80.7882 80.4202 86.8569 79.6458 90.4509 80.8429L90.5006 80.8599L90.5377 80.8967C91.3914 81.7505 91.4692 83.4042 91.5445 85.0033C91.606 86.3162 91.6643 87.5558 92.1474 88.0943C95.84 92.2104 100.028 92.1302 100.071 92.1293L100.278 92.1232L100.299 92.3296C102.888 97.2573 100.861 115.558 102.66 126.926C104.488 138.475 120.102 148.306 106.732 150.052C106.761 150.096 106.777 150.147 106.779 150.2C106.78 150.253 106.768 150.306 106.742 150.352C105.934 151.861 68.8703 159.875 66.0953 159.875Z" fill="#03A093"/>
<path d="M126.534 103.559L119.113 107.24C104.814 112.733 97.3414 111.395 93.5869 109.306C89.5809 107.078 88.8863 103.662 88.8591 103.518L88.8566 103.449L89.7719 96.1979C89.8882 95.2769 90.199 94.3912 90.6836 93.5994C91.1682 92.8076 91.8155 92.1279 92.5827 91.6052C93.3499 91.0826 94.2194 90.729 95.1337 90.568C96.0479 90.4069 96.9859 90.442 97.8855 90.6709L114.958 95.0155L114.646 86.7283L115.321 83.7444L114.076 80.1173L114.586 72.8328L120.71 71.334L127.134 82.8394L125.98 86.0147L127.067 87.5955L127.065 87.6688L126.534 103.559Z" fill="#03A093"/>
<path d="M89.3068 109.373V111.867L83.7835 122.058H80.2201L85.7256 112.027H79.8815V109.373L89.3068 109.373Z" fill="white"/>
<path d="M334.045 304.276L0.528833 304.412C0.388437 304.412 0.253933 304.356 0.154802 304.257C0.0556709 304.157 0 304.023 0 303.882C0 303.742 0.0556709 303.607 0.154802 303.508C0.253933 303.408 0.388437 303.352 0.528833 303.352L334.045 303.215C334.185 303.215 334.319 303.271 334.419 303.371C334.518 303.47 334.573 303.605 334.573 303.745C334.573 303.886 334.518 304.02 334.419 304.12C334.319 304.219 334.185 304.275 334.045 304.276Z" fill="#CACACA"/>
<path d="M230.501 47.2042C234.604 38.4809 231.284 28.2833 225.355 25.495C219.427 22.7066 209.454 26.6524 205.352 35.3757C201.554 43.4503 204.383 52.9077 209.252 56.353C209.17 56.3772 209.094 56.4167 209.027 56.4696L207.857 57.4332C207.768 57.5067 207.699 57.6017 207.656 57.7093C207.614 57.8169 207.6 57.9335 207.616 58.048C207.632 58.1625 207.676 58.2711 207.746 58.3635C207.815 58.4558 207.907 58.529 208.012 58.5759L210.963 59.8872C211.069 59.9342 211.185 59.9533 211.3 59.9429C211.415 59.9325 211.525 59.8928 211.621 59.8277C211.716 59.7625 211.793 59.674 211.845 59.5707C211.897 59.4673 211.921 59.3525 211.916 59.237L211.847 57.7228C211.843 57.6702 211.834 57.6181 211.818 57.5677C217.583 59.1518 226.695 55.2963 230.501 47.2042Z" fill="#CCCCCC"/>
<path d="M227.14 34.6933C228.072 37.3954 227.93 40.352 226.745 42.9526C225.559 45.5533 223.42 47.5996 220.77 48.6691C220.166 48.9204 220.648 49.8162 221.248 49.5665C224.089 48.3832 226.377 46.1698 227.654 43.3701C228.93 40.5705 229.102 37.3916 228.133 34.471C227.928 33.8549 226.934 34.0727 227.14 34.6933Z" fill="white"/>
<path d="M302.485 76.4343C310.787 71.5343 313.784 61.2371 310.454 55.5951C307.124 49.953 296.661 47.6002 288.359 52.5001C280.674 57.0356 277.688 66.4445 279.773 72.0333C279.692 72.0071 279.606 71.9967 279.521 72.0027L278.011 72.1405C277.896 72.151 277.786 72.1907 277.691 72.2559C277.595 72.3212 277.518 72.4097 277.466 72.5131C277.415 72.6165 277.391 72.7313 277.396 72.8468C277.401 72.9622 277.436 73.0743 277.497 73.1726L279.198 75.9176C279.258 76.0158 279.343 76.0969 279.444 76.153C279.545 76.2092 279.659 76.2386 279.775 76.2385C279.89 76.2384 280.004 76.2087 280.105 76.1524C280.205 76.096 280.29 76.0148 280.351 75.9164L281.146 74.6262C281.173 74.5806 281.194 74.5321 281.21 74.4816C285.082 79.0363 294.784 80.9796 302.485 76.4343Z" fill="#03A093"/>
<path d="M306.751 64.2023C306 66.9598 304.218 69.3236 301.774 70.8056C299.331 72.2877 296.411 72.7749 293.618 72.1668C292.978 72.0346 292.872 73.0462 293.508 73.1776C296.522 73.7987 299.659 73.2574 302.291 71.6624C304.922 70.0673 306.853 67.5364 307.697 64.5772C307.874 63.9527 306.93 63.5732 306.751 64.2023Z" fill="white"/>
<path d="M249.642 36.3672C248.597 34.0658 248.111 31.5493 248.226 29.024C248.34 26.4986 249.052 24.0364 250.302 21.8391C250.658 21.2201 251.013 20.4708 251.794 20.3518C252.089 20.2981 252.394 20.3461 252.658 20.488C252.923 20.6299 253.131 20.8572 253.25 21.1329C253.354 21.4997 253.335 21.8906 253.195 22.2454C253.055 22.6002 252.803 22.8992 252.476 23.0962C252.15 23.2932 251.767 23.3774 251.388 23.3356C251.009 23.2939 250.655 23.1286 250.379 22.8653C248.897 21.6718 249.086 19.5714 249.228 17.8806C249.553 14.028 249.548 9.98334 247.909 6.39761C246.392 3.08002 243.296 0.305064 239.557 0.00200256C238.903 -0.0510036 238.866 0.965405 239.517 1.01816C243.225 1.31873 246.127 4.3737 247.359 7.71722C248.055 9.7302 248.402 11.8475 248.383 13.9773C248.395 15.0705 248.345 16.1636 248.26 17.2534C248.132 18.3156 248.099 19.3872 248.161 20.4554C248.335 22.1987 249.389 24.0677 251.274 24.3463C253.033 24.6061 254.75 22.7666 254.275 21.0187C254.16 20.6408 253.953 20.2972 253.673 20.0189C253.393 19.7405 253.048 19.5361 252.669 19.4238C252.291 19.3115 251.89 19.295 251.504 19.3756C251.117 19.4562 250.756 19.6316 250.454 19.8858C249.794 20.4373 249.365 21.3843 248.988 22.141C247.85 24.4178 247.238 26.9207 247.196 29.4655C247.154 32.0104 247.683 34.5322 248.745 36.8453C249.024 37.4378 249.921 36.9582 249.642 36.3673L249.642 36.3672Z" fill="#CCCCCC"/>
<path d="M96.1387 83.7675C95.7557 83.0682 95.0964 81.0682 94.357 81.095C93.6006 81.1281 92.8431 81.0638 92.1031 80.9034C92.023 80.8901 91.9428 80.8723 91.8671 80.8544C88.7434 80.0749 85.5406 79.6564 82.3215 79.6072C79.7246 79.5716 76.8739 79.8834 75.061 81.7408C73.2481 83.5983 73.5154 87.4289 76.0142 88.1372C67.6633 89.5831 59.079 87.6803 52.1213 82.841C47.6982 79.7319 44.1526 75.5672 40.4021 71.6741C36.6516 67.7766 32.518 64.0305 27.4623 62.1241C22.4023 60.2132 16.2152 60.4804 12.1395 64.0394C7.16855 68.3779 6.78548 75.8433 6.78103 82.4401C6.77657 84.9078 7.54716 84.3867 9.72532 85.5492C11.7476 86.6272 13.8723 88.8454 15.1061 86.9167C16.34 84.988 16.5582 82.6049 16.8121 80.3288C17.0616 78.0526 17.4313 75.6562 18.8745 73.879C21.3555 70.8233 26.2419 70.7921 29.6672 72.7298C33.0926 74.6674 35.3955 78.0571 37.5736 81.3355C39.7517 84.6094 42.0502 88.008 45.4711 89.959C49.9655 92.5202 55.6091 92.1416 60.2994 94.3242C63.2794 95.714 65.6891 98.0435 68.1613 100.204C70.6379 102.364 73.3505 104.444 76.5621 105.144C79.7692 105.847 83.5776 104.787 85.1544 101.905C86.5753 99.2997 85.8805 95.9634 87.1455 93.273C88.121 91.1973 90.1121 89.8209 91.9072 88.3866C92.6466 87.7942 92.8381 89.8343 93.4662 89.1127C95.2791 88.7519 96.9806 85.3043 96.1387 83.7675Z" fill="#3F3D56"/>
<path d="M83.6491 80.0821C91.4223 80.0821 97.7238 73.7806 97.7238 66.0073C97.7238 58.2341 91.4223 51.9326 83.6491 51.9326C75.8758 51.9326 69.5743 58.2341 69.5743 66.0073C69.5743 73.7806 75.8758 80.0821 83.6491 80.0821Z" fill="#2F2E41"/>
<path d="M84.7823 81.2441C90.3663 81.0859 94.7648 76.4309 94.6066 70.8469C94.4483 65.2629 89.7933 60.8644 84.2093 61.0226C78.6253 61.1808 74.2268 65.8358 74.385 71.4198C74.5433 77.0039 79.1983 81.4023 84.7823 81.2441Z" fill="#9E616A"/>
<path d="M84.5934 55.7078L80.4932 55.824C77.9092 55.8993 75.4607 56.9967 73.6849 58.8753C71.9092 60.7539 70.9513 63.2604 71.0215 65.8445L71.0241 65.9353L71.0988 65.9821C73.3274 67.4567 75.958 68.2051 78.6291 68.1246L78.8596 68.1181L81.1252 68.0154C81.5063 67.0342 81.6337 65.9726 81.4957 64.929C81.8378 65.9183 82.1049 66.9319 82.2947 67.9613L92.4601 67.4985C93.0516 67.4692 93.6082 67.21 94.0112 66.7761C94.4142 66.3421 94.6317 65.7679 94.6173 65.1759C94.5411 62.5919 93.4428 60.1438 91.5635 58.3687C89.6843 56.5936 87.1775 55.6367 84.5934 55.7078Z" fill="#2F2E41"/>
<path d="M76.4224 53.1694C75.497 54.3107 74.0109 54.7862 72.6757 55.4043C70.3199 56.5184 68.2714 58.1903 66.7079 60.2751C65.1443 62.3598 64.1129 64.7945 63.703 67.3681C63.3884 69.4637 63.4984 71.6207 62.9658 73.6701C62.4366 75.7194 61.0402 77.7549 58.9652 78.1667C57.561 78.4477 56.1311 77.9429 54.7886 77.4427C54.0504 77.17 53.3121 76.8961 52.5738 76.6211C53.281 74.6891 53.9871 72.7571 54.692 70.8252C53.5232 72.6627 52.1515 74.363 50.6027 75.894C47.9569 74.9134 45.3087 73.9328 42.6583 72.9523C49.1063 72.794 47.8288 66.5665 49.0933 60.246C49.7883 56.7729 56.4732 54.245 57.7039 50.9245C58.3687 49.1235 59.5355 47.5507 61.0663 46.3922C62.5971 45.2337 64.4277 44.538 66.3416 44.3874C68.2554 44.2368 70.1723 44.6377 71.8654 45.5426C73.5586 46.4474 74.957 47.8184 75.8953 49.4932C77.2339 49.9831 77.3307 52.0427 76.4224 53.1694Z" fill="#2F2E41"/>
<path d="M77.0672 57.3555C79.9617 57.3555 82.3082 55.009 82.3082 52.1145C82.3082 49.22 79.9617 46.8735 77.0672 46.8735C74.1727 46.8735 71.8262 49.22 71.8262 52.1145C71.8262 55.009 74.1727 57.3555 77.0672 57.3555Z" fill="#2F2E41"/>
</svg>
