<svg width="267" height="278" viewBox="0 0 267 278" fill="none" xmlns="http://www.w3.org/2000/svg">
<path d="M236.827 211.146L236.822 211.271L243.08 277.449H197.412L191.493 236.804L188.888 276.407L141.99 275.885L146.972 223.892L151.208 199.792V199.787L151.844 196.16H235.582L235.691 197.473L236.827 211.146Z" fill="#2F2E41"/>
<path d="M116.14 249.51C120.977 250.391 126.02 244.944 127.405 237.344C128.011 234.017 127.815 230.829 126.998 228.221L127.74 223.84L140.185 164.901C140.185 164.901 163.102 119.059 163.102 111.101C163.101 103.142 156.473 99.2393 156.473 99.2393L147.502 99.3231L119.373 168.026L114.307 218.795L113.488 225.76C111.804 227.911 110.496 230.826 109.89 234.153C108.506 241.753 111.304 248.628 116.14 249.51Z" fill="#FFB6B6"/>
<path d="M207.386 70.84L199.048 51.5601L171.952 56.2498L170.128 78.9332L207.386 70.84Z" fill="#FFB6B6"/>
<path opacity="0.1" d="M207.386 70.84L199.048 51.5601L171.952 56.2498L170.128 78.9332L207.386 70.84Z" fill="black"/>
<path d="M266.268 110.963C266.268 110.963 246.988 75.0087 243.34 71.3611C241.716 69.7373 239.164 69.7147 236.83 70.188L209.991 60.9395L200.894 55.8281L200.294 65.5525L170.428 70.9131C170.594 64.9828 171.431 62.7271 171.431 62.7271L160.488 75.5298L139.124 85.9514L139.136 86.0452C137.568 86.5925 136.081 87.5289 134.955 89.0779C130.787 94.8097 119.323 164.635 119.323 164.635L143.814 169.845L147.147 148.929L149.546 167.761L151.369 202.934C151.369 202.934 184.718 231.593 200.872 221.172C217.025 210.75 236.827 211.271 236.827 211.271L237.321 194.968C237.672 194.406 237.869 194.076 237.869 194.076L237.348 136.244V120.855C241.317 126.386 246.108 131.142 251.677 133.37C269.915 140.665 266.268 110.963 266.268 110.963V110.963Z" fill="#E6E6E6"/>
<path d="M182.669 59.642C196.436 59.642 207.596 48.4815 207.596 34.7143C207.596 20.9471 196.436 9.78662 182.669 9.78662C168.901 9.78662 157.741 20.9471 157.741 34.7143C157.741 48.4815 168.901 59.642 182.669 59.642Z" fill="#FFB6B6"/>
<path d="M200.551 41.7591C200.551 41.7591 202.719 34.1724 207.596 34.7143C212.473 35.2562 213.557 30.921 212.473 28.7534C211.389 26.5857 209.222 15.7476 209.222 15.7476C209.222 15.7476 210.306 8.16092 203.803 7.07711C197.3 5.9933 195.132 4.90948 194.048 2.74185C192.965 0.574228 176.707 -1.5934 171.288 1.65804C165.869 4.90948 161.534 11.1478 157.741 12.9058C153.947 14.6638 150.696 17.9152 152.864 23.3343C155.031 28.7534 158.175 39.3519 158.175 39.3519C158.175 39.3519 163.702 37.4239 164.786 40.6753C165.869 43.9267 161.534 39.5915 166.953 30.921C172.372 22.2505 172.372 13.58 181.043 16.8314C189.713 20.0829 199.468 18.999 198.384 25.5019C197.3 32.0048 200.551 41.7591 200.551 41.7591V41.7591Z" fill="#2F2E41"/>
<path d="M199.026 239.376H9.70941C4.35553 239.376 0 235.02 0 229.667V129.102C0 123.749 4.35553 119.393 9.70941 119.393H199.026C204.38 119.393 208.736 123.749 208.736 129.102V229.667C208.736 235.02 204.38 239.376 199.026 239.376Z" fill="white"/>
<path d="M199.026 239.376H9.70941C4.35553 239.376 0 235.02 0 229.667V129.102C0 123.749 4.35553 119.393 9.70941 119.393H199.026C204.38 119.393 208.736 123.749 208.736 129.102V229.667C208.736 235.02 204.38 239.376 199.026 239.376ZM9.70941 121.014C5.24976 121.014 1.6214 124.642 1.6214 129.102V229.667C1.6214 234.127 5.24976 237.755 9.70941 237.755H199.026C203.486 237.755 207.114 234.127 207.114 229.667V129.102C207.114 124.642 203.486 121.014 199.026 121.014H9.70941Z" fill="#3F3D56"/>
<path d="M184.415 131.553C185.758 131.553 186.847 130.464 186.847 129.121C186.847 127.778 185.758 126.689 184.415 126.689C183.072 126.689 181.983 127.778 181.983 129.121C181.983 130.464 183.072 131.553 184.415 131.553Z" fill="#3F3D56"/>
<path d="M190.9 131.553C192.244 131.553 193.332 130.464 193.332 129.121C193.332 127.778 192.244 126.689 190.9 126.689C189.557 126.689 188.468 127.778 188.468 129.121C188.468 130.464 189.557 131.553 190.9 131.553Z" fill="#3F3D56"/>
<path d="M197.386 131.553C198.729 131.553 199.818 130.464 199.818 129.121C199.818 127.778 198.729 126.689 197.386 126.689C196.043 126.689 194.954 127.778 194.954 129.121C194.954 130.464 196.043 131.553 197.386 131.553Z" fill="#3F3D56"/>
<path d="M13.7824 168.44C13.1118 168.44 12.5663 168.985 12.5663 169.656C12.5663 169.983 12.6926 170.285 12.9218 170.509C13.1529 170.745 13.4558 170.872 13.7824 170.872H195.765C196.436 170.872 196.981 170.327 196.981 169.656C196.981 169.329 196.855 169.027 196.626 168.803C196.394 168.567 196.092 168.44 195.765 168.44H13.7824Z" fill="#E6E6E6"/>
<path d="M173.065 168.035V171.277H13.7818C13.336 171.277 12.9306 171.099 12.6388 170.799C12.3388 170.507 12.1604 170.102 12.1604 169.656C12.1604 168.764 12.8901 168.035 13.7818 168.035H173.065Z" fill="#03A093"/>
<path d="M193.738 161.954H177.524C175.736 161.954 174.281 160.5 174.281 158.712C174.281 156.923 175.736 155.469 177.524 155.469H193.738C195.526 155.469 196.981 156.923 196.981 158.712C196.981 160.5 195.526 161.954 193.738 161.954Z" fill="#E6E6E6"/>
<path d="M87.5363 144.93H14.9982C13.2101 144.93 11.7554 143.476 11.7554 141.687C11.7554 139.899 13.2101 138.444 14.9982 138.444H87.5363C89.3243 138.444 90.7791 139.899 90.7791 141.687C90.7791 143.476 89.3243 144.93 87.5363 144.93Z" fill="#E6E6E6"/>
<path d="M13.7824 204.921C13.1118 204.921 12.5663 205.467 12.5663 206.137C12.5663 206.464 12.6926 206.767 12.9218 206.99C13.1529 207.227 13.4558 207.353 13.7824 207.353H195.765C196.436 207.353 196.981 206.808 196.981 206.137C196.981 205.81 196.855 205.508 196.626 205.285C196.394 205.048 196.092 204.921 195.765 204.921H13.7824Z" fill="#E6E6E6"/>
<path d="M110.641 204.516V207.759H13.7818C13.336 207.759 12.9306 207.581 12.6388 207.281C12.3388 206.989 12.1604 206.583 12.1604 206.138C12.1604 205.246 12.8901 204.516 13.7818 204.516H110.641Z" fill="#03A093"/>
<path d="M193.738 198.436H177.524C175.736 198.436 174.281 196.981 174.281 195.193C174.281 193.405 175.736 191.95 177.524 191.95H193.738C195.526 191.95 196.981 193.405 196.981 195.193C196.981 196.981 195.526 198.436 193.738 198.436Z" fill="#E6E6E6"/>
<path d="M222.123 61.5609C236.146 61.5609 247.514 50.4328 247.514 36.7055C247.514 22.9782 236.146 11.8501 222.123 11.8501C208.1 11.8501 196.733 22.9782 196.733 36.7055C196.733 50.4328 208.1 61.5609 222.123 61.5609Z" fill="#03A093"/>
<path d="M230.741 24.168C227.36 30.3231 223.98 36.4782 220.6 42.6334C218.446 38.8269 216.303 35.0137 214.143 31.2102C213.397 29.8966 211.369 31.0781 212.116 32.3949C214.62 36.8041 217.098 41.2278 219.601 45.6369C220.029 46.3908 221.204 46.4083 221.628 45.6369C225.341 38.8756 229.054 32.1142 232.768 25.3528C233.495 24.0279 231.469 22.8421 230.741 24.168Z" fill="white"/>
<path d="M257.173 102.221L231.876 90.1199C231.876 90.1199 230.86 82.0204 226.116 79.1314C225.31 77.2073 224.382 75.0935 223.539 73.4186C221.455 69.2767 224.581 61.4604 221.976 61.4604C219.37 61.4604 215.519 69.6807 215.723 71.8821C215.879 73.5719 217.276 76.5221 217.565 79.1047C214.387 80.3029 211.824 82.3567 210.139 83.9919C208.681 85.4071 208.139 87.5184 208.709 89.4689C210.361 95.121 214.489 106.794 220.413 106.794C228.229 106.794 230.313 105.231 230.313 105.231C230.313 105.231 246.467 125.553 258.451 127.117C270.436 128.68 257.173 102.221 257.173 102.221V102.221Z" fill="#FFB6B6"/>
</svg>
