<svg width="327" height="196" viewBox="0 0 327 196" fill="none" xmlns="http://www.w3.org/2000/svg">
<path d="M303.827 80.9106H38.5643C37.438 80.9106 36.3578 81.3581 35.5614 82.1545C34.7649 82.9509 34.3175 84.0311 34.3175 85.1575C34.3175 86.2838 34.7649 87.364 35.5614 88.1604C36.3578 88.9568 37.438 89.4043 38.5643 89.4043H46.078V191.001C46.078 192.128 46.5254 193.208 47.3218 194.004C48.1183 194.801 49.1984 195.248 50.3248 195.248C51.4511 195.248 52.5313 194.801 53.3277 194.004C54.1242 193.208 54.5716 192.128 54.5716 191.001L54.6361 89.4043H267.537L287.167 191.001C287.167 192.128 287.614 193.208 288.41 194.004C289.207 194.801 290.287 195.248 291.413 195.248C292.54 195.248 293.62 194.801 294.416 194.004C295.213 193.208 295.66 192.128 295.66 191.001L296.896 89.4043H303.827C304.954 89.4043 306.034 88.9568 306.83 88.1604C307.627 87.364 308.074 86.2838 308.074 85.1575C308.074 84.0311 307.627 82.9509 306.83 82.1545C306.034 81.3581 304.954 80.9106 303.827 80.9106Z" fill="#CCCCCC"/>
<path d="M84.5453 61.9874V79.9715H39.4884C38.3075 80.0126 37.1301 79.8207 36.0234 79.4067C34.9168 78.9928 33.9024 78.3649 33.0384 77.559C32.1744 76.753 31.4775 75.7848 30.9877 74.7096C30.4978 73.6343 30.2246 72.4731 30.1835 71.2923C30.1424 70.1114 30.3343 68.934 30.7482 67.8273C31.1622 66.7206 31.79 65.7063 32.596 64.8423C33.4019 63.9783 34.3702 63.2814 35.4454 62.7916C36.5207 62.3017 37.6818 62.0285 38.8627 61.9874C39.0712 61.9801 39.2797 61.9801 39.4884 61.9874L84.5453 61.9874Z" fill="#F2F2F2"/>
<path d="M85.6514 79.8331C85.6513 80.0165 85.5784 80.1924 85.4487 80.3221C85.319 80.4518 85.1432 80.5247 84.9598 80.5248H38.6852C36.1731 80.523 33.7645 79.5238 31.9888 77.7469C30.2131 75.9699 29.2156 73.5606 29.2156 71.0485C29.2156 68.5364 30.2131 66.1271 31.9888 64.3501C33.7645 62.5732 36.1731 61.574 38.6852 61.5723H84.9598C85.0507 61.572 85.1409 61.5898 85.225 61.6244C85.3091 61.6591 85.3856 61.71 85.45 61.7742C85.5144 61.8385 85.5655 61.9148 85.6004 61.9989C85.6353 62.0829 85.6532 62.173 85.6532 62.264C85.6532 62.355 85.6353 62.4451 85.6004 62.5291C85.5655 62.6131 85.5144 62.6895 85.45 62.7537C85.3856 62.818 85.3091 62.8689 85.225 62.9035C85.1409 62.9382 85.0507 62.9559 84.9598 62.9557H38.6852C36.541 62.9589 34.4857 63.813 32.9706 65.3303C31.4555 66.8477 30.6046 68.9043 30.6046 71.0485C30.6046 73.1928 31.4555 75.2494 32.9706 76.7667C34.4857 78.2841 36.541 79.1381 38.6852 79.1414H84.9598C85.1432 79.1414 85.319 79.2143 85.4487 79.3441C85.5784 79.4738 85.6513 79.6497 85.6514 79.8331Z" fill="#069E95"/>
<path d="M84.544 66.1375H36.1252C36.0886 66.1377 36.0534 66.1234 36.0273 66.0977C36.0013 66.072 35.9864 66.037 35.9861 66.0004C35.9858 65.9638 35.9999 65.9286 36.0255 65.9024C36.0511 65.8763 36.086 65.8613 36.1226 65.8608H84.544C84.5804 65.8612 84.6152 65.8759 84.6409 65.9018C84.6665 65.9277 84.6809 65.9627 84.6809 65.9992C84.6809 66.0356 84.6665 66.0706 84.6409 66.0965C84.6152 66.1224 84.5804 66.1371 84.544 66.1375Z" fill="#CCCCCC"/>
<path d="M84.544 69.4578H36.1252C36.0886 69.458 36.0534 69.4437 36.0273 69.418C36.0013 69.3923 35.9864 69.3574 35.9861 69.3208C35.9858 69.2842 35.9999 69.2489 36.0255 69.2228C36.0511 69.1966 36.086 69.1816 36.1226 69.1812H84.544C84.5804 69.1815 84.6152 69.1962 84.6409 69.2222C84.6665 69.2481 84.6809 69.283 84.6809 69.3195C84.6809 69.3559 84.6665 69.3909 84.6409 69.4168C84.6152 69.4427 84.5804 69.4575 84.544 69.4578Z" fill="#CCCCCC"/>
<path d="M84.544 72.7777H36.1252C36.0886 72.7778 36.0534 72.7635 36.0273 72.7378C36.0013 72.7122 35.9864 72.6772 35.9861 72.6406C35.9858 72.604 35.9999 72.5687 36.0255 72.5426C36.0511 72.5164 36.086 72.5015 36.1226 72.501H84.544C84.5804 72.5013 84.6152 72.5161 84.6409 72.542C84.6665 72.5679 84.6809 72.6029 84.6809 72.6393C84.6809 72.6758 84.6665 72.7107 84.6409 72.7366C84.6152 72.7625 84.5804 72.7773 84.544 72.7777Z" fill="#CCCCCC"/>
<path d="M84.544 76.098H36.1252C36.0886 76.0981 36.0534 76.0838 36.0273 76.0582C36.0013 76.0325 35.9864 75.9975 35.9861 75.9609C35.9858 75.9243 35.9999 75.8891 36.0255 75.8629C36.0511 75.8367 36.086 75.8218 36.1226 75.8213H84.544C84.5804 75.8217 84.6152 75.8364 84.6409 75.8623C84.6665 75.8882 84.6809 75.9232 84.6809 75.9596C84.6809 75.9961 84.6665 76.0311 84.6409 76.057C84.6152 76.0829 84.5804 76.0976 84.544 76.098Z" fill="#CCCCCC"/>
<path d="M76.0519 43.0401V61.0242H30.9949C28.6101 61.1072 26.2899 60.2394 24.5449 58.6117C22.7999 56.9841 21.773 54.7298 21.69 52.345C21.607 49.9602 22.4749 47.64 24.1025 45.895C25.7302 44.15 27.9844 43.1231 30.3693 43.0401C30.5777 43.0329 30.7863 43.0329 30.9949 43.0401H76.0519Z" fill="#F2F2F2"/>
<path d="M77.159 60.8858C77.1589 61.0692 77.086 61.2451 76.9563 61.3748C76.8266 61.5045 76.6507 61.5774 76.4673 61.5775H30.1928C27.6795 61.5775 25.2692 60.5791 23.4921 58.802C21.7149 57.0248 20.7166 54.6145 20.7166 52.1012C20.7166 49.588 21.7149 47.1777 23.4921 45.4005C25.2692 43.6234 27.6795 42.625 30.1928 42.625H76.4673C76.5581 42.625 76.6481 42.6429 76.732 42.6777C76.8159 42.7124 76.8922 42.7634 76.9564 42.8276C77.0206 42.8918 77.0716 42.9681 77.1064 43.052C77.1411 43.1359 77.159 43.2259 77.159 43.3167C77.159 43.4075 77.1411 43.4975 77.1064 43.5814C77.0716 43.6653 77.0206 43.7416 76.9564 43.8058C76.8922 43.87 76.8159 43.921 76.732 43.9557C76.6481 43.9905 76.5581 44.0084 76.4673 44.0084H30.1928C28.0464 44.0084 25.988 44.861 24.4703 46.3787C22.9526 47.8964 22.0999 49.9549 22.0999 52.1013C22.0999 54.2476 22.9526 56.3061 24.4703 57.8238C25.988 59.3415 28.0464 60.1941 30.1928 60.1941H76.4673C76.6507 60.1942 76.8266 60.2671 76.9563 60.3968C77.086 60.5265 77.1589 60.7024 77.159 60.8858Z" fill="#3F3D56"/>
<path d="M76.0505 47.1902H27.6318C27.5952 47.1904 27.56 47.1761 27.5339 47.1504C27.5079 47.1247 27.493 47.0898 27.4927 47.0532C27.4923 47.0166 27.5065 46.9813 27.5321 46.9552C27.5577 46.929 27.5926 46.9141 27.6292 46.9136H76.0505C76.087 46.9139 76.1218 46.9287 76.1475 46.9546C76.1731 46.9805 76.1875 47.0154 76.1875 47.0519C76.1875 47.0884 76.1731 47.1233 76.1475 47.1492C76.1218 47.1751 76.087 47.1899 76.0505 47.1902Z" fill="#CCCCCC"/>
<path d="M76.0505 50.5106H27.6318C27.5952 50.5108 27.56 50.4965 27.5339 50.4708C27.5079 50.4451 27.493 50.4101 27.4927 50.3735C27.4923 50.3369 27.5065 50.3017 27.5321 50.2755C27.5577 50.2493 27.5926 50.2344 27.6292 50.2339H76.0505C76.087 50.2343 76.1218 50.249 76.1475 50.2749C76.1731 50.3008 76.1875 50.3358 76.1875 50.3722C76.1875 50.4087 76.1731 50.4437 76.1475 50.4696C76.1218 50.4955 76.087 50.5102 76.0505 50.5106Z" fill="#CCCCCC"/>
<path d="M76.0505 53.8304H27.6318C27.5952 53.8306 27.56 53.8163 27.5339 53.7906C27.5079 53.7649 27.493 53.7299 27.4927 53.6933C27.4923 53.6567 27.5065 53.6215 27.5321 53.5953C27.5577 53.5691 27.5926 53.5542 27.6292 53.5537H76.0505C76.087 53.5541 76.1218 53.5688 76.1475 53.5947C76.1731 53.6206 76.1875 53.6556 76.1875 53.6921C76.1875 53.7285 76.1731 53.7635 76.1475 53.7894C76.1218 53.8153 76.087 53.83 76.0505 53.8304Z" fill="#CCCCCC"/>
<path d="M76.0505 57.1507H27.6318C27.5952 57.1509 27.56 57.1366 27.5339 57.1109C27.5079 57.0852 27.493 57.0502 27.4927 57.0136C27.4923 56.977 27.5065 56.9418 27.5321 56.9156C27.5577 56.8895 27.5926 56.8745 27.6292 56.874H76.0505C76.087 56.8744 76.1218 56.8891 76.1475 56.915C76.1731 56.9409 76.1875 56.9759 76.1875 57.0124C76.1875 57.0488 76.1731 57.0838 76.1475 57.1097C76.1218 57.1356 76.087 57.1503 76.0505 57.1507Z" fill="#CCCCCC"/>
<path d="M128.466 144.549V128.868C128.466 128.175 128.191 127.51 127.701 127.02C127.211 126.53 126.546 126.255 125.853 126.255H66.3976C65.7045 126.255 65.0398 126.53 64.5497 127.02C64.0596 127.51 63.7842 128.175 63.7842 128.868V144.549H128.466Z" fill="#CCCCCC"/>
<path d="M128.467 150.429H63.7842V170.683H128.467V150.429Z" fill="#CCCCCC"/>
<path d="M63.7842 176.563V192.244C63.7842 192.937 64.0596 193.602 64.5497 194.092C65.0398 194.582 65.7045 194.857 66.3976 194.857H125.853C126.546 194.857 127.211 194.582 127.701 194.092C128.191 193.602 128.466 192.937 128.466 192.244V176.563H63.7842Z" fill="#CCCCCC"/>
<path d="M95.7972 138.015C96.8797 138.015 97.7573 137.138 97.7573 136.055C97.7573 134.973 96.8797 134.095 95.7972 134.095C94.7147 134.095 93.8372 134.973 93.8372 136.055C93.8372 137.138 94.7147 138.015 95.7972 138.015Z" fill="white"/>
<path d="M95.7972 164.15C96.8797 164.15 97.7573 163.272 97.7573 162.19C97.7573 161.107 96.8797 160.229 95.7972 160.229C94.7147 160.229 93.8372 161.107 93.8372 162.19C93.8372 163.272 94.7147 164.15 95.7972 164.15Z" fill="white"/>
<path d="M95.9031 189.73C96.9856 189.73 97.8632 188.853 97.8632 187.77C97.8632 186.688 96.9856 185.81 95.9031 185.81C94.8206 185.81 93.9431 186.688 93.9431 187.77C93.9431 188.853 94.8206 189.73 95.9031 189.73Z" fill="white"/>
<path d="M121.133 108.376V126.36H76.076C73.6922 126.441 71.3737 125.573 69.63 123.945C67.8864 122.318 66.8603 120.065 66.7772 117.681C66.6942 115.297 67.5611 112.978 69.1874 111.233C70.8136 109.488 73.0661 108.461 75.4498 108.376C75.6585 108.369 75.8672 108.369 76.076 108.376H121.133Z" fill="#F2F2F2"/>
<path d="M122.239 126.222C122.239 126.405 122.166 126.581 122.036 126.711C121.906 126.84 121.731 126.913 121.547 126.913H75.2726C72.7599 126.914 70.3499 125.917 68.5724 124.141C66.7949 122.365 65.7955 119.956 65.794 117.443C65.7925 114.93 66.789 112.52 68.5643 110.742C70.3397 108.964 72.7485 107.963 75.2612 107.961H121.547C121.638 107.961 121.728 107.978 121.812 108.013C121.897 108.048 121.973 108.099 122.037 108.163C122.102 108.227 122.153 108.303 122.188 108.388C122.223 108.472 122.241 108.562 122.241 108.653C122.241 108.744 122.223 108.834 122.188 108.918C122.153 109.002 122.102 109.078 122.037 109.142C121.973 109.207 121.897 109.258 121.812 109.292C121.728 109.327 121.638 109.345 121.547 109.344H75.2726C73.1281 109.347 71.0723 110.201 69.5569 111.718C68.0415 113.236 67.1903 115.293 67.1903 117.437C67.1903 119.582 68.0415 121.639 69.5569 123.156C71.0723 124.673 73.1281 125.527 75.2726 125.53H121.547C121.731 125.53 121.906 125.603 122.036 125.733C122.166 125.862 122.239 126.038 122.239 126.222Z" fill="#3F3D56"/>
<path d="M121.133 112.526H72.7148C72.6782 112.526 72.643 112.512 72.6169 112.486C72.5908 112.461 72.576 112.426 72.5757 112.389C72.5754 112.353 72.5895 112.317 72.6151 112.291C72.6407 112.265 72.6756 112.25 72.7122 112.25H121.134C121.17 112.25 121.205 112.265 121.23 112.291C121.256 112.316 121.27 112.351 121.27 112.388C121.27 112.424 121.256 112.459 121.23 112.485C121.205 112.511 121.17 112.526 121.134 112.526H121.133Z" fill="#CCCCCC"/>
<path d="M121.133 115.846H72.7148C72.6782 115.846 72.643 115.832 72.6169 115.806C72.5908 115.781 72.576 115.746 72.5757 115.709C72.5754 115.672 72.5895 115.637 72.6151 115.611C72.6407 115.585 72.6756 115.57 72.7122 115.569H121.134C121.17 115.57 121.205 115.584 121.23 115.61C121.256 115.636 121.27 115.671 121.27 115.708C121.27 115.744 121.256 115.779 121.23 115.805C121.205 115.831 121.17 115.846 121.134 115.846H121.133Z" fill="#CCCCCC"/>
<path d="M121.133 119.166H72.7148C72.6782 119.167 72.643 119.152 72.6169 119.127C72.5908 119.101 72.576 119.066 72.5757 119.029C72.5754 118.993 72.5895 118.957 72.6151 118.931C72.6407 118.905 72.6756 118.89 72.7122 118.89H121.134C121.17 118.89 121.205 118.905 121.23 118.931C121.256 118.957 121.27 118.992 121.27 119.028C121.27 119.064 121.256 119.099 121.23 119.125C121.205 119.151 121.17 119.166 121.134 119.166H121.133Z" fill="#CCCCCC"/>
<path d="M121.133 122.486H72.7148C72.6782 122.486 72.643 122.472 72.6169 122.446C72.5908 122.421 72.576 122.386 72.5757 122.349C72.5754 122.312 72.5895 122.277 72.6151 122.251C72.6407 122.225 72.6756 122.21 72.7122 122.209H121.134C121.17 122.21 121.205 122.225 121.23 122.25C121.256 122.276 121.27 122.311 121.27 122.348C121.27 122.384 121.256 122.419 121.23 122.445C121.205 122.471 121.17 122.486 121.134 122.486H121.133Z" fill="#CCCCCC"/>
<path d="M68.2157 37.0404H47.6873C47.4924 37.0402 47.3002 37.0849 47.1255 37.1711L41.9442 39.7649C41.7737 39.8373 41.6283 39.9584 41.5261 40.1129C41.4239 40.2674 41.3694 40.4486 41.3694 40.6338C41.3694 40.8191 41.4239 41.0002 41.5261 41.1548C41.6283 41.3093 41.7737 41.4303 41.9442 41.5028L47.1255 44.0966C47.3002 44.1827 47.4924 44.2274 47.6873 44.2273H68.2157C68.4986 44.2436 68.7765 44.1479 68.9893 43.9608C69.2022 43.7737 69.3327 43.5103 69.3527 43.2276V38.04C69.3327 37.7573 69.2021 37.4939 68.9893 37.3068C68.7765 37.1197 68.4986 37.024 68.2157 37.0404Z" fill="#3F3D56"/>
<path d="M69.3536 38.04V43.2276C69.3336 43.5103 69.2031 43.7737 68.9903 43.9608C68.7775 44.1479 68.4995 44.2437 68.2166 44.2273H64.1268V37.0404H68.2166C68.4995 37.024 68.7775 37.1197 68.9903 37.3069C69.2031 37.494 69.3336 37.7574 69.3536 38.04Z" fill="#069E95"/>
<path d="M184.373 80.5023L182.206 79.5897L180.719 68.7241H160.919L159.307 79.5453L157.368 80.5149C157.275 80.5613 157.201 80.6376 157.157 80.7316C157.113 80.8255 157.102 80.9316 157.126 81.0325C157.149 81.1335 157.207 81.2234 157.288 81.2878C157.369 81.3522 157.47 81.3872 157.574 81.3872H184.195C184.301 81.3872 184.404 81.3504 184.486 81.2831C184.569 81.2158 184.625 81.1221 184.646 81.0179C184.667 80.9137 184.652 80.8054 184.602 80.7114C184.552 80.6175 184.471 80.5436 184.373 80.5023Z" fill="#E6E6E6"/>
<path d="M219.56 70.17H122.295C121.784 70.1689 121.295 69.9654 120.935 69.6041C120.574 69.2429 120.372 68.7534 120.372 68.243V54.5273H221.483V68.243C221.483 68.7534 221.28 69.2429 220.92 69.6041C220.559 69.9654 220.07 70.1689 219.56 70.17Z" fill="#CCCCCC"/>
<path d="M221.585 61.0095H120.284V2.32296C120.285 1.70708 120.53 1.11662 120.965 0.681138C121.401 0.245651 121.991 0.000689133 122.607 0H219.262C219.878 0.000689121 220.469 0.245652 220.904 0.681138C221.34 1.11662 221.585 1.70707 221.585 2.32296L221.585 61.0095Z" fill="#3F3D56"/>
<path d="M215.535 56.7499H126.334C125.86 56.7494 125.404 56.5606 125.069 56.2248C124.733 55.8891 124.544 55.4339 124.543 54.9591V6.05023C124.544 5.57541 124.733 5.12019 125.069 4.78444C125.404 4.44868 125.86 4.25982 126.334 4.25928H215.535C216.01 4.25982 216.465 4.44868 216.801 4.78444C217.136 5.12019 217.325 5.57541 217.326 6.05023V54.9591C217.325 55.4339 217.136 55.8891 216.801 56.2248C216.465 56.5606 216.01 56.7494 215.535 56.7499Z" fill="white"/>
<path d="M192.04 74.0078C192.616 73.4759 193.301 73.0766 194.048 72.8383C194.795 72.6 195.585 72.5283 196.363 72.6283C197.14 72.7283 197.886 72.9976 198.549 73.4172C199.211 73.8368 199.773 74.3965 200.196 75.0569L212.261 72.9118L215.353 79.926L198.272 82.716C197.115 83.3523 195.766 83.5422 194.478 83.2499C193.191 82.9576 192.056 82.2033 191.288 81.1299C190.52 80.0565 190.172 78.7386 190.311 77.426C190.449 76.1133 191.064 74.8971 192.04 74.0078Z" fill="#FFB6B6"/>
<path d="M203.212 82.9638L215.79 82.807L217.382 82.7854L242.974 82.463C242.974 82.463 249.923 75.833 255.975 69.007L255.126 62.8722C254.299 56.8516 251.313 51.3365 246.722 47.3535C238.056 53.1447 233.029 64.6077 233.029 64.6077L217.162 68.403L215.574 68.7826L205.715 71.1386L203.212 82.9638Z" fill="#069E95"/>
<path d="M267.602 120.67H244.123C244.123 121.676 218.457 122.493 218.457 122.493C217.891 122.919 217.375 123.408 216.919 123.951C215.549 125.585 214.8 127.651 214.804 129.783V131.241C214.805 133.658 215.766 135.975 217.474 137.684C219.183 139.393 221.5 140.353 223.917 140.354H267.602C270.018 140.352 272.335 139.391 274.043 137.682C275.752 135.974 276.713 133.657 276.715 131.241V129.783C276.711 127.367 275.75 125.051 274.042 123.343C272.334 121.635 270.018 120.674 267.602 120.67Z" fill="#E4E4E4"/>
<path d="M250.528 139.992H241.051V194.694H250.528V139.992Z" fill="#E4E4E4"/>
<path d="M214.077 194.362C214.077 195.386 228.438 194.758 246.154 194.758C263.869 194.758 278.23 195.386 278.23 194.362C278.23 193.337 263.869 185.217 246.154 185.217C228.438 185.217 214.077 193.338 214.077 194.362Z" fill="#E4E4E4"/>
<path d="M207.711 188.111L200.657 188.111L197.302 160.905L207.712 160.906L207.711 188.111Z" fill="#FFB6B6"/>
<path d="M209.509 194.948L186.767 194.947V194.66C186.767 192.312 187.7 190.06 189.36 188.4C191.02 186.74 193.271 185.808 195.619 185.808H195.619L209.51 185.808L209.509 194.948Z" fill="#2F2E41"/>
<path d="M186.864 188.111L179.811 188.111L176.456 160.905L186.865 160.906L186.864 188.111Z" fill="#FFB6B6"/>
<path d="M188.663 194.948L165.92 194.947V194.66C165.92 192.312 166.853 190.06 168.513 188.4C170.173 186.74 172.425 185.808 174.772 185.808H174.773L188.663 185.808L188.663 194.948Z" fill="#2F2E41"/>
<path d="M250.045 31.4855C256.819 31.4855 262.309 25.9948 262.309 19.2217C262.309 12.4487 256.819 6.95801 250.045 6.95801C243.272 6.95801 237.782 12.4487 237.782 19.2217C237.782 25.9948 243.272 31.4855 250.045 31.4855Z" fill="#FFB6B6"/>
<path d="M269.895 103.249C269.895 103.249 274.01 125.007 258.354 127.778C242.698 130.549 220.097 132.496 220.097 132.496L209.948 179.848L196.313 178.631C196.313 178.631 198.127 121.63 202.586 117.17C207.046 112.711 235.231 99.3579 235.231 99.3579L269.895 103.249Z" fill="#2F2E41"/>
<path d="M239.316 94.1289L232.469 100.998C232.469 100.998 183.027 108.962 181.119 120.381C178.24 137.622 174.838 175.113 174.838 175.113L189.704 173.998L195.533 131.381L219.317 125.971L246.377 111.224L239.316 94.1289Z" fill="#2F2E41"/>
<path d="M261.848 11.9013C260.637 9.6172 259.099 5.06501 256.656 4.22075C255.299 3.7708 253.896 3.47203 252.474 3.32986L248.32 4.92726L250.581 3.16924C250.141 3.14302 249.701 3.12158 249.261 3.10493L246.459 4.18271L247.893 3.06764C245.28 3.04083 242.584 3.31247 240.559 4.90286C238.834 6.25867 237.124 11.3948 236.847 13.5718C236.552 15.6545 236.655 17.7744 237.152 19.8184L237.862 20.4932C238.11 19.924 238.297 19.3299 238.419 18.721C238.673 17.5832 239.162 16.511 239.853 15.5725C240.545 14.6341 241.425 13.85 242.436 13.2703L242.475 13.2486C243.665 12.5787 245.109 12.6096 246.474 12.6587L252.957 12.892C254.517 12.9481 256.196 13.0468 257.412 14.0251C258.185 14.7468 258.792 15.627 259.193 16.6055C259.797 17.8249 260.978 22.4244 260.978 22.4244C260.978 22.4244 261.646 21.5562 261.966 22.2024C262.48 20.5164 262.792 18.7756 262.896 17.0163C262.998 15.2491 262.637 13.4859 261.848 11.9013Z" fill="#2F2E41"/>
<path d="M304.741 24.6073C303.959 24.6588 303.197 24.8813 302.51 25.2589C301.823 25.6365 301.227 26.1602 300.764 26.7931C300.302 27.4259 299.983 28.1526 299.832 28.9218C299.68 29.691 299.699 30.484 299.887 31.2451L290.025 38.5197L292.984 45.591L306.767 35.1222C308.025 34.7215 309.092 33.8733 309.766 32.7384C310.44 31.6036 310.674 30.2609 310.424 28.9648C310.174 27.6687 309.458 26.5093 308.41 25.7062C307.363 24.903 306.057 24.5121 304.741 24.6073Z" fill="#FFB6B6"/>
<path d="M303.154 39.4587L278.431 66.9161C278.431 66.9161 266.608 63.1312 257.465 59.0279L253.357 46.4115C252.403 43.4847 251.996 40.4073 252.156 37.3331C264.832 33.9602 279.575 46.5104 279.575 46.5104L298.081 32.0146L303.154 39.4587Z" fill="#069E95"/>
<path d="M245.466 105.276C241.055 103.753 236.494 102.177 231.575 101.586L231.364 101.56L231.422 101.356C236.514 83.4751 235.243 72.0369 232.748 54.8553C232.217 51.1492 232.899 47.3709 234.692 44.0842C236.485 40.7976 239.293 38.1788 242.696 36.6189L242.726 36.6052L256.777 35.7124L256.809 35.7104L267.027 38.7158C268.497 39.1514 269.784 40.0569 270.69 41.2936C271.596 42.5303 272.072 44.03 272.044 45.5629C271.934 51.2134 272.168 57.522 272.417 64.2009C272.975 79.1846 273.551 94.6785 270.279 104.731L270.262 104.784L270.218 104.818C267.211 107.268 263.442 108.592 259.563 108.561C254.976 108.561 250.296 106.945 245.466 105.276Z" fill="#069E95"/>
<path d="M326.527 196H0.472544C0.347218 196 0.227026 195.947 0.138407 195.854C0.049788 195.76 0 195.633 0 195.5C0 195.367 0.049788 195.24 0.138407 195.146C0.227026 195.053 0.347218 195 0.472544 195H326.527C326.653 195 326.773 195.053 326.862 195.146C326.95 195.24 327 195.367 327 195.5C327 195.633 326.95 195.76 326.862 195.854C326.773 195.947 326.653 196 326.527 196Z" fill="#CCCCCC"/>
</svg>
