<svg width="265" height="98" viewBox="0 0 265 98" fill="none" xmlns="http://www.w3.org/2000/svg">
<path d="M145.859 16.0781H152.109V14.4961H145.859V16.0781ZM159.434 9.125C160.029 9.125 160.498 8.64648 160.498 8.06055C160.498 7.46484 160.029 6.99609 159.434 6.99609C158.848 6.99609 158.369 7.46484 158.369 8.06055C158.369 8.64648 158.848 9.125 159.434 9.125ZM158.584 21H160.283V10.8438H158.584V21ZM166.201 21.1953C168.467 21.1953 170.146 19.9453 170.146 18.168V18.1582C170.146 16.7129 169.404 15.9023 167.354 15.4043L165.742 15.0137C164.619 14.7402 164.16 14.2617 164.16 13.5684V13.5586C164.16 12.6602 164.922 12.0645 166.152 12.0645C167.412 12.0645 168.164 12.7188 168.301 13.7051L168.311 13.7734H169.932L169.922 13.6465C169.795 11.9473 168.379 10.6484 166.152 10.6484C163.955 10.6484 162.422 11.8887 162.422 13.6367V13.6465C162.422 15.1113 163.35 16 165.264 16.459L166.875 16.8496C168.027 17.1328 168.408 17.543 168.408 18.2754V18.2852C168.408 19.2031 167.588 19.7793 166.211 19.7793C164.824 19.7793 164.072 19.1836 163.867 18.168L163.848 18.0703H162.148L162.158 18.1582C162.363 19.9746 163.809 21.1953 166.201 21.1953ZM179.053 21.1855C179.365 21.1855 179.697 21.1465 179.902 21.1074V20.0527C179.756 20.0723 179.551 20.1016 179.316 20.1016C178.369 20.1016 177.891 19.7207 177.891 18.5977V11.9277H179.902V10.8438H177.891V8.09961H176.562V10.8438H175.068V11.9277H176.562V18.6172C176.562 20.3945 177.383 21.1855 179.053 21.1855ZM181.797 21H183.096V15.0137C183.096 13.1289 184.268 11.8203 186.025 11.8203C187.754 11.8203 188.809 12.9531 188.809 14.9551V21H190.107V14.75C190.107 12.2598 188.643 10.668 186.445 10.668C184.824 10.668 183.643 11.459 183.125 12.6992H183.096V6.9082H181.797V21ZM196.387 21.1855C198.584 21.1855 200.205 19.9258 200.557 18.1875L200.576 18.0898H199.297L199.277 18.1777C198.945 19.2812 197.91 20.0332 196.416 20.0332C194.414 20.0332 193.115 18.6562 193.076 16.2344H200.703V15.7266C200.703 12.6895 198.994 10.6582 196.279 10.6582C193.564 10.6582 191.768 12.7578 191.768 15.9414V15.9512C191.768 19.1641 193.535 21.1855 196.387 21.1855ZM196.27 11.8105C198.008 11.8105 199.258 12.9922 199.404 15.209H193.096C193.252 13.0508 194.541 11.8105 196.27 11.8105ZM210.654 21.1855C213.418 21.1855 215.283 19.1543 215.283 15.9219V15.9023C215.283 12.6699 213.408 10.6582 210.654 10.6582C207.891 10.6582 206.025 12.6797 206.025 15.9023V15.9219C206.025 19.1445 207.881 21.1758 210.654 21.1855ZM210.664 20.0332C208.662 20.0234 207.354 18.5 207.354 15.9219V15.9023C207.354 13.3438 208.672 11.8105 210.654 11.8105C212.637 11.8105 213.965 13.334 213.965 15.9023V15.9219C213.965 18.4902 212.646 20.0332 210.664 20.0332ZM217.002 21H218.291V14.9844C218.291 13.0898 219.473 11.8203 221.24 11.8203C222.969 11.8203 223.906 12.8262 223.906 14.7109V21H225.195V14.4961C225.195 12.1133 223.867 10.668 221.621 10.668C219.98 10.668 218.838 11.4785 218.33 12.5723H218.291V10.8438H217.002V21ZM227.461 21H228.75V6.9082H227.461V21ZM231.758 24.418C233.496 24.418 234.326 23.6172 235 21.8105L239.072 10.8438H237.705L234.619 19.7109H234.58L231.504 10.8438H230.117L233.936 21.0684L233.691 21.7227C233.242 22.9629 232.646 23.334 231.504 23.334C231.338 23.334 231.172 23.3145 231.045 23.2949V24.3594C231.23 24.3887 231.504 24.418 231.758 24.418ZM4.62891 45.1855C6.85547 45.1855 8.4668 43.9648 8.4668 42.2363V42.2266C8.4668 40.8008 7.69531 40.0098 5.67383 39.5215L4.14062 39.1602C2.80273 38.8379 2.25586 38.3203 2.25586 37.5098V37.5C2.25586 36.4648 3.17383 35.752 4.55078 35.752C5.9668 35.752 6.86523 36.5234 7.03125 37.7051L7.04102 37.7734H8.28125L8.27148 37.666C8.10547 35.918 6.71875 34.6582 4.55078 34.6582C2.43164 34.6582 0.9375 35.8594 0.9375 37.5488V37.5586C0.9375 38.9648 1.85547 39.8047 3.76953 40.2637L5.30273 40.6348C6.66016 40.957 7.14844 41.4355 7.14844 42.3145V42.3242C7.14844 43.3887 6.17188 44.0918 4.63867 44.0918C3.10547 44.0918 2.1582 43.3301 1.95312 42.1582L1.93359 42.0703H0.644531L0.654297 42.1582C0.849609 43.9551 2.32422 45.1855 4.62891 45.1855ZM14.3164 45.1855C16.5137 45.1855 18.1348 43.9258 18.4863 42.1875L18.5059 42.0898H17.2266L17.207 42.1777C16.875 43.2812 15.8398 44.0332 14.3457 44.0332C12.3438 44.0332 11.0449 42.6562 11.0059 40.2344H18.6328V39.7266C18.6328 36.6895 16.9238 34.6582 14.209 34.6582C11.4941 34.6582 9.69727 36.7578 9.69727 39.9414V39.9512C9.69727 43.1641 11.4648 45.1855 14.3164 45.1855ZM14.1992 35.8105C15.9375 35.8105 17.1875 36.9922 17.334 39.209H11.0254C11.1816 37.0508 12.4707 35.8105 14.1992 35.8105ZM20.3613 45H21.6504V38.7109C21.6504 36.9922 22.5684 35.8984 24.0137 35.8984C24.4531 35.8984 24.8145 35.9668 24.9805 36.0352V34.7754C24.8242 34.7266 24.5215 34.6582 24.1797 34.6582C22.9492 34.6582 22.0508 35.4297 21.6895 36.6699H21.6504V34.8438H20.3613V45ZM29.4922 45H30.8691L34.6387 34.8438H33.291L30.1953 43.6426H30.166L27.0801 34.8438H25.7129L29.4922 45ZM36.6602 33.0078C37.1289 33.0078 37.5098 32.627 37.5098 32.1484C37.5098 31.6699 37.1289 31.2988 36.6602 31.2988C36.1816 31.2988 35.8008 31.6699 35.8008 32.1484C35.8008 32.627 36.1816 33.0078 36.6602 33.0078ZM36.0059 45H37.3047V34.8438H36.0059V45ZM43.75 45.1855C45.9668 45.1855 47.5977 43.7891 47.9004 41.8945L47.9102 41.8164H46.6309L46.6113 41.8945C46.3086 43.1641 45.2637 44.0332 43.75 44.0332C41.7773 44.0332 40.459 42.4902 40.459 39.9316V39.9219C40.459 37.4023 41.7578 35.8105 43.7402 35.8105C45.3223 35.8105 46.3281 36.7578 46.6113 37.9492L46.6309 38.0273H47.9004L47.8906 37.9395C47.6367 36.1914 46.1035 34.6582 43.7402 34.6582C40.957 34.6582 39.1309 36.709 39.1309 39.9023V39.9121C39.1309 43.1445 40.9277 45.1855 43.75 45.1855ZM53.6328 45.1855C55.8301 45.1855 57.4512 43.9258 57.8027 42.1875L57.8223 42.0898H56.543L56.5234 42.1777C56.1914 43.2812 55.1562 44.0332 53.6621 44.0332C51.6602 44.0332 50.3613 42.6562 50.3223 40.2344H57.9492V39.7266C57.9492 36.6895 56.2402 34.6582 53.5254 34.6582C50.8105 34.6582 49.0137 36.7578 49.0137 39.9414V39.9512C49.0137 43.1641 50.7812 45.1855 53.6328 45.1855ZM53.5156 35.8105C55.2539 35.8105 56.5039 36.9922 56.6504 39.209H50.3418C50.498 37.0508 51.7871 35.8105 53.5156 35.8105ZM64.5312 33.0078C65 33.0078 65.3809 32.627 65.3809 32.1484C65.3809 31.6699 65 31.2988 64.5312 31.2988C64.0527 31.2988 63.6719 31.6699 63.6719 32.1484C63.6719 32.627 64.0527 33.0078 64.5312 33.0078ZM63.877 45H65.1758V34.8438H63.877V45ZM67.5098 45H68.7988V38.9844C68.7988 37.0898 69.9805 35.8203 71.748 35.8203C73.4766 35.8203 74.4141 36.8262 74.4141 38.7109V45H75.7031V38.4961C75.7031 36.1133 74.375 34.668 72.1289 34.668C70.4883 34.668 69.3457 35.4785 68.8379 36.5723H68.7988V34.8438H67.5098V45ZM85.0098 45.1855C85.3223 45.1855 85.6543 45.1465 85.8594 45.1074V44.0527C85.7129 44.0723 85.5078 44.1016 85.2734 44.1016C84.3262 44.1016 83.8477 43.7207 83.8477 42.5977V35.9277H85.8594V34.8438H83.8477V32.0996H82.5195V34.8438H81.0254V35.9277H82.5195V42.6172C82.5195 44.3945 83.3398 45.1855 85.0098 45.1855ZM87.7539 45H89.0527V39.0137C89.0527 37.1289 90.2246 35.8203 91.9824 35.8203C93.7109 35.8203 94.7656 36.9531 94.7656 38.9551V45H96.0645V38.75C96.0645 36.2598 94.5996 34.668 92.4023 34.668C90.7812 34.668 89.5996 35.459 89.082 36.6992H89.0527V30.9082H87.7539V45ZM102.344 45.1855C104.541 45.1855 106.162 43.9258 106.514 42.1875L106.533 42.0898H105.254L105.234 42.1777C104.902 43.2812 103.867 44.0332 102.373 44.0332C100.371 44.0332 99.0723 42.6562 99.0332 40.2344H106.66V39.7266C106.66 36.6895 104.951 34.6582 102.236 34.6582C99.5215 34.6582 97.7246 36.7578 97.7246 39.9414V39.9512C97.7246 43.1641 99.4922 45.1855 102.344 45.1855ZM102.227 35.8105C103.965 35.8105 105.215 36.9922 105.361 39.209H99.0527C99.209 37.0508 100.498 35.8105 102.227 35.8105ZM114.453 45H115.82L118.34 36.5723H118.369L120.898 45H122.266L125.146 34.8438H123.848L121.572 43.5547H121.543L119.014 34.8438H117.705L115.176 43.5547H115.146L112.871 34.8438H111.562L114.453 45ZM130.576 45.1855C133.34 45.1855 135.205 43.1543 135.205 39.9219V39.9023C135.205 36.6699 133.33 34.6582 130.576 34.6582C127.812 34.6582 125.947 36.6797 125.947 39.9023V39.9219C125.947 43.1445 127.803 45.1758 130.576 45.1855ZM130.586 44.0332C128.584 44.0234 127.275 42.5 127.275 39.9219V39.9023C127.275 37.3438 128.594 35.8105 130.576 35.8105C132.559 35.8105 133.887 37.334 133.887 39.9023V39.9219C133.887 42.4902 132.568 44.0332 130.586 44.0332ZM136.924 45H138.213V38.7109C138.213 36.9922 139.131 35.8984 140.576 35.8984C141.016 35.8984 141.377 35.9668 141.543 36.0352V34.7754C141.387 34.7266 141.084 34.6582 140.742 34.6582C139.512 34.6582 138.613 35.4297 138.252 36.6699H138.213V34.8438H136.924V45ZM143.027 45H144.316V30.9082H143.027V45ZM150.42 45.1855C152.021 45.1855 153.291 44.2871 153.877 42.8906H153.916V45H155.215V30.9082H153.916V36.9629H153.887C153.311 35.5566 152.002 34.6582 150.41 34.6582C147.871 34.6582 146.123 36.7383 146.123 39.9121V39.9219C146.123 43.0957 147.861 45.1855 150.42 45.1855ZM150.664 44.0332C148.711 44.0332 147.451 42.4316 147.451 39.9219V39.9121C147.451 37.4219 148.711 35.8105 150.664 35.8105C152.559 35.8105 153.926 37.4707 153.926 39.9121V39.9219C153.926 42.373 152.578 44.0332 150.664 44.0332ZM164.658 45.1855C164.971 45.1855 165.303 45.1465 165.508 45.1074V44.0527C165.361 44.0723 165.156 44.1016 164.922 44.1016C163.975 44.1016 163.496 43.7207 163.496 42.5977V35.9277H165.508V34.8438H163.496V32.0996H162.168V34.8438H160.674V35.9277H162.168V42.6172C162.168 44.3945 162.988 45.1855 164.658 45.1855ZM167.402 45H168.701V39.0137C168.701 37.1289 169.873 35.8203 171.631 35.8203C173.359 35.8203 174.414 36.9531 174.414 38.9551V45H175.713V38.75C175.713 36.2598 174.248 34.668 172.051 34.668C170.43 34.668 169.248 35.459 168.73 36.6992H168.701V30.9082H167.402V45ZM180.889 45.1855C182.393 45.1855 183.73 44.3555 184.287 43.1445H184.326V45H185.615V38.0469C185.615 35.9668 184.16 34.6582 181.836 34.6582C179.541 34.6582 178.096 35.9082 177.9 37.6562L177.891 37.7734H179.141L179.16 37.6758C179.375 36.5234 180.342 35.8105 181.816 35.8105C183.398 35.8105 184.326 36.6992 184.326 38.1641V39.043L181.162 39.2383C178.828 39.3945 177.52 40.4395 177.52 42.168V42.1875C177.52 43.9844 178.887 45.1855 180.889 45.1855ZM178.838 42.1875V42.168C178.838 41.0547 179.727 40.3613 181.318 40.2637L184.326 40.0586V41.1816C184.326 42.8027 182.93 44.0527 181.152 44.0527C179.775 44.0527 178.838 43.3008 178.838 42.1875ZM190.811 45.1855C191.123 45.1855 191.455 45.1465 191.66 45.1074V44.0527C191.514 44.0723 191.309 44.1016 191.074 44.1016C190.127 44.1016 189.648 43.7207 189.648 42.5977V35.9277H191.66V34.8438H189.648V32.0996H188.32V34.8438H186.826V35.9277H188.32V42.6172C188.32 44.3945 189.141 45.1855 190.811 45.1855ZM199.531 45H200.898L203.418 36.5723H203.447L205.977 45H207.344L210.225 34.8438H208.926L206.65 43.5547H206.621L204.092 34.8438H202.783L200.254 43.5547H200.225L197.949 34.8438H196.641L199.531 45ZM212.285 33.0078C212.754 33.0078 213.135 32.627 213.135 32.1484C213.135 31.6699 212.754 31.2988 212.285 31.2988C211.807 31.2988 211.426 31.6699 211.426 32.1484C211.426 32.627 211.807 33.0078 212.285 33.0078ZM211.631 45H212.93V34.8438H211.631V45ZM215.352 45H216.641V30.9082H215.352V45ZM219.043 45H220.332V30.9082H219.043V45ZM226.836 45H228.135V39.0137C228.135 37.1289 229.307 35.8203 231.064 35.8203C232.793 35.8203 233.848 36.9531 233.848 38.9551V45H235.146V38.75C235.146 36.2598 233.682 34.668 231.484 34.668C229.863 34.668 228.682 35.459 228.164 36.6992H228.135V30.9082H226.836V45ZM241.426 45.1855C243.623 45.1855 245.244 43.9258 245.596 42.1875L245.615 42.0898H244.336L244.316 42.1777C243.984 43.2812 242.949 44.0332 241.455 44.0332C239.453 44.0332 238.154 42.6562 238.115 40.2344H245.742V39.7266C245.742 36.6895 244.033 34.6582 241.318 34.6582C238.604 34.6582 236.807 36.7578 236.807 39.9414V39.9512C236.807 43.1641 238.574 45.1855 241.426 45.1855ZM241.309 35.8105C243.047 35.8105 244.297 36.9922 244.443 39.209H238.135C238.291 37.0508 239.58 35.8105 241.309 35.8105ZM247.559 45H248.848V30.9082H247.559V45ZM251.162 48.418H252.451V42.8809H252.49C253.047 44.2383 254.336 45.1855 255.957 45.1855C258.506 45.1855 260.244 43.1152 260.244 39.9316V39.9219C260.244 36.748 258.516 34.6582 255.938 34.6582C254.307 34.6582 253.057 35.6152 252.49 36.9922H252.451V34.8438H251.162V48.418ZM255.713 44.0332C253.809 44.0332 252.451 42.3828 252.451 39.9316V39.9219C252.451 37.4609 253.799 35.8105 255.713 35.8105C257.666 35.8105 258.926 37.4121 258.926 39.9219V39.9316C258.926 42.4219 257.666 44.0332 255.713 44.0332ZM12.1973 72.418C13.9355 72.418 14.7656 71.6172 15.4395 69.8105L19.5117 58.8438H18.1445L15.0586 67.7109H15.0195L11.9434 58.8438H10.5566L14.375 69.0684L14.1309 69.7227C13.6816 70.9629 13.0859 71.334 11.9434 71.334C11.7773 71.334 11.6113 71.3145 11.4844 71.2949V72.3594C11.6699 72.3887 11.9434 72.418 12.1973 72.418ZM24.6094 69.1855C27.373 69.1855 29.2383 67.1543 29.2383 63.9219V63.9023C29.2383 60.6699 27.3633 58.6582 24.6094 58.6582C21.8457 58.6582 19.9805 60.6797 19.9805 63.9023V63.9219C19.9805 67.1445 21.8359 69.1758 24.6094 69.1855ZM24.6191 68.0332C22.6172 68.0234 21.3086 66.5 21.3086 63.9219V63.9023C21.3086 61.3438 22.627 59.8105 24.6094 59.8105C26.5918 59.8105 27.9199 61.334 27.9199 63.9023V63.9219C27.9199 66.4902 26.6016 68.0332 24.6191 68.0332ZM34.4824 69.1758C36.123 69.1758 37.2559 68.3652 37.7734 67.2715H37.8027V69H39.1016V58.8438H37.8027V64.8594C37.8027 66.7539 36.6309 68.0234 34.8535 68.0234C33.1348 68.0234 32.1973 67.0176 32.1973 65.1328V58.8438H30.8984V65.3477C30.8984 67.7305 32.2363 69.1758 34.4824 69.1758ZM49.8633 72.623C52.7637 72.623 54.5801 71.0605 54.5801 68.7168V58.7266H52.4609V60.4746H52.4121C51.8066 59.3125 50.6738 58.5312 49.2285 58.5312C46.6211 58.5312 44.9023 60.5527 44.9023 63.7754V63.7852C44.9023 66.9883 46.6016 69.0098 49.1797 69.0098C50.6543 69.0098 51.8262 68.2969 52.4121 67.1836H52.4609V68.5898C52.4609 70.0254 51.5332 70.9238 49.8535 70.9238C48.5352 70.9238 47.6465 70.4746 47.3633 69.8203L47.3242 69.7422H45.2344L45.2441 69.8301C45.5566 71.4023 47.2266 72.623 49.8633 72.623ZM49.7754 67.291C48.1055 67.291 47.0605 65.9629 47.0605 63.8145V63.8047C47.0605 61.6855 48.1055 60.3379 49.7754 60.3379C51.377 60.3379 52.4609 61.6953 52.4609 63.8047V63.8145C52.4609 65.9336 51.3867 67.291 49.7754 67.291ZM61.0547 69.2051C63.5449 69.2051 65.127 67.7207 65.459 66.0898L65.4785 65.9824H63.4766L63.4473 66.0605C63.1836 66.832 62.3535 67.4766 61.1035 67.4766C59.4238 67.4766 58.3594 66.3438 58.3203 64.4004H65.5957V63.6875C65.5957 60.6016 63.8281 58.5312 60.9473 58.5312C58.0664 58.5312 56.2109 60.6797 56.2109 63.8926V63.9023C56.2109 67.1445 58.0371 69.2051 61.0547 69.2051ZM60.957 60.2598C62.334 60.2598 63.3301 61.1289 63.5059 62.9062H58.3496C58.5352 61.1875 59.5898 60.2598 60.957 60.2598ZM70.8398 69.2051C71.2695 69.2051 71.6699 69.1562 71.9141 69.1172V67.4863C71.7578 67.5059 71.5723 67.5254 71.3477 67.5254C70.459 67.5254 69.9902 67.2129 69.9902 66.168V60.4062H71.9141V58.7266H69.9902V56.0508H67.832V58.7266H66.3574V60.4062H67.832V66.2949C67.832 68.3457 68.8086 69.2051 70.8398 69.2051ZM77.7246 69H79.834V62.877C79.834 61.3438 80.6738 60.4551 82.0312 60.4551C82.4414 60.4551 82.8125 60.5039 82.9785 60.5723V58.6094C82.8125 58.5801 82.5488 58.5312 82.2461 58.5312C81.0742 58.5312 80.2148 59.2832 79.8828 60.4844H79.834V58.7266H77.7246V69ZM85.4297 57.1445C86.123 57.1445 86.6602 56.5977 86.6602 55.9336C86.6602 55.2598 86.123 54.7129 85.4297 54.7129C84.7461 54.7129 84.1992 55.2598 84.1992 55.9336C84.1992 56.5977 84.7461 57.1445 85.4297 57.1445ZM84.375 69H86.4844V58.7266H84.375V69ZM92.5 69.2051C93.9746 69.2051 95.1074 68.4629 95.7227 67.2617H95.7617V69H97.8809V54.9082H95.7617V60.4746H95.7227C95.1074 59.2637 93.9355 58.5312 92.4805 58.5312C89.9023 58.5312 88.2031 60.582 88.2031 63.8535V63.8633C88.2031 67.1348 89.8828 69.2051 92.5 69.2051ZM93.0566 67.3887C91.3867 67.3887 90.3613 66.0508 90.3613 63.8633V63.8535C90.3613 61.6855 91.3965 60.3379 93.0566 60.3379C94.6387 60.3379 95.7715 61.7246 95.7715 63.8535V63.8633C95.7715 66.002 94.6484 67.3887 93.0566 67.3887ZM108.525 69.2051C111.465 69.2051 113.398 67.1738 113.398 63.8633V63.8438C113.398 60.5527 111.445 58.5312 108.516 58.5312C105.596 58.5312 103.652 60.5625 103.652 63.8438V63.8633C103.652 67.1641 105.576 69.2051 108.525 69.2051ZM108.535 67.4375C106.885 67.4375 105.811 66.1387 105.811 63.8633V63.8438C105.811 61.5977 106.895 60.2988 108.516 60.2988C110.166 60.2988 111.24 61.5977 111.24 63.8438V63.8633C111.24 66.1289 110.186 67.4375 108.535 67.4375ZM115.645 69H117.764V60.4062H119.814V58.7266H117.725V57.6719C117.725 56.7637 118.174 56.3047 119.121 56.3047C119.385 56.3047 119.648 56.3242 119.854 56.3535V54.791C119.57 54.7422 119.102 54.7031 118.672 54.7031C116.582 54.7031 115.645 55.6406 115.645 57.6328V58.7266H114.229V60.4062H115.645V69ZM128.672 69.1855C128.984 69.1855 129.316 69.1465 129.521 69.1074V68.0527C129.375 68.0723 129.17 68.1016 128.936 68.1016C127.988 68.1016 127.51 67.7207 127.51 66.5977V59.9277H129.521V58.8438H127.51V56.0996H126.182V58.8438H124.688V59.9277H126.182V66.6172C126.182 68.3945 127.002 69.1855 128.672 69.1855ZM131.416 69H132.715V63.0137C132.715 61.1289 133.887 59.8203 135.645 59.8203C137.373 59.8203 138.428 60.9531 138.428 62.9551V69H139.727V62.75C139.727 60.2598 138.262 58.668 136.064 58.668C134.443 58.668 133.262 59.459 132.744 60.6992H132.715V54.9082H131.416V69ZM146.006 69.1855C148.203 69.1855 149.824 67.9258 150.176 66.1875L150.195 66.0898H148.916L148.896 66.1777C148.564 67.2812 147.529 68.0332 146.035 68.0332C144.033 68.0332 142.734 66.6562 142.695 64.2344H150.322V63.7266C150.322 60.6895 148.613 58.6582 145.898 58.6582C143.184 58.6582 141.387 60.7578 141.387 63.9414V63.9512C141.387 67.1641 143.154 69.1855 146.006 69.1855ZM145.889 59.8105C147.627 59.8105 148.877 60.9922 149.023 63.209H142.715C142.871 61.0508 144.16 59.8105 145.889 59.8105ZM159.16 69.1855C160.664 69.1855 162.002 68.3555 162.559 67.1445H162.598V69H163.887V62.0469C163.887 59.9668 162.432 58.6582 160.107 58.6582C157.812 58.6582 156.367 59.9082 156.172 61.6562L156.162 61.7734H157.412L157.432 61.6758C157.646 60.5234 158.613 59.8105 160.088 59.8105C161.67 59.8105 162.598 60.6992 162.598 62.1641V63.043L159.434 63.2383C157.1 63.3945 155.791 64.4395 155.791 66.168V66.1875C155.791 67.9844 157.158 69.1855 159.16 69.1855ZM157.109 66.1875V66.168C157.109 65.0547 157.998 64.3613 159.59 64.2637L162.598 64.0586V65.1816C162.598 66.8027 161.201 68.0527 159.424 68.0527C158.047 68.0527 157.109 67.3008 157.109 66.1875ZM169.844 69.1855C171.445 69.1855 172.715 68.2871 173.301 66.8906H173.34V69H174.639V54.9082H173.34V60.9629H173.311C172.734 59.5566 171.426 58.6582 169.834 58.6582C167.295 58.6582 165.547 60.7383 165.547 63.9121V63.9219C165.547 67.0957 167.285 69.1855 169.844 69.1855ZM170.088 68.0332C168.135 68.0332 166.875 66.4316 166.875 63.9219V63.9121C166.875 61.4219 168.135 59.8105 170.088 59.8105C171.982 59.8105 173.35 61.4707 173.35 63.9121V63.9219C173.35 66.373 172.002 68.0332 170.088 68.0332ZM180.742 69.1855C182.344 69.1855 183.613 68.2871 184.199 66.8906H184.238V69H185.537V54.9082H184.238V60.9629H184.209C183.633 59.5566 182.324 58.6582 180.732 58.6582C178.193 58.6582 176.445 60.7383 176.445 63.9121V63.9219C176.445 67.0957 178.184 69.1855 180.742 69.1855ZM180.986 68.0332C179.033 68.0332 177.773 66.4316 177.773 63.9219V63.9121C177.773 61.4219 179.033 59.8105 180.986 59.8105C182.881 59.8105 184.248 61.4707 184.248 63.9121V63.9219C184.248 66.373 182.9 68.0332 180.986 68.0332ZM188.604 57.0078C189.072 57.0078 189.453 56.627 189.453 56.1484C189.453 55.6699 189.072 55.2988 188.604 55.2988C188.125 55.2988 187.744 55.6699 187.744 56.1484C187.744 56.627 188.125 57.0078 188.604 57.0078ZM187.949 69H189.248V58.8438H187.949V69ZM195.693 69.1855C197.91 69.1855 199.541 67.7891 199.844 65.8945L199.854 65.8164H198.574L198.555 65.8945C198.252 67.1641 197.207 68.0332 195.693 68.0332C193.721 68.0332 192.402 66.4902 192.402 63.9316V63.9219C192.402 61.4023 193.701 59.8105 195.684 59.8105C197.266 59.8105 198.271 60.7578 198.555 61.9492L198.574 62.0273H199.844L199.834 61.9395C199.58 60.1914 198.047 58.6582 195.684 58.6582C192.9 58.6582 191.074 60.709 191.074 63.9023V63.9121C191.074 67.1445 192.871 69.1855 195.693 69.1855ZM204.492 69.1855C204.805 69.1855 205.137 69.1465 205.342 69.1074V68.0527C205.195 68.0723 204.99 68.1016 204.756 68.1016C203.809 68.1016 203.33 67.7207 203.33 66.5977V59.9277H205.342V58.8438H203.33V56.0996H202.002V58.8438H200.508V59.9277H202.002V66.6172C202.002 68.3945 202.822 69.1855 204.492 69.1855ZM207.9 57.0078C208.369 57.0078 208.75 56.627 208.75 56.1484C208.75 55.6699 208.369 55.2988 207.9 55.2988C207.422 55.2988 207.041 55.6699 207.041 56.1484C207.041 56.627 207.422 57.0078 207.9 57.0078ZM207.246 69H208.545V58.8438H207.246V69ZM215 69.1855C217.764 69.1855 219.629 67.1543 219.629 63.9219V63.9023C219.629 60.6699 217.754 58.6582 215 58.6582C212.236 58.6582 210.371 60.6797 210.371 63.9023V63.9219C210.371 67.1445 212.227 69.1758 215 69.1855ZM215.01 68.0332C213.008 68.0234 211.699 66.5 211.699 63.9219V63.9023C211.699 61.3438 213.018 59.8105 215 59.8105C216.982 59.8105 218.311 61.334 218.311 63.9023V63.9219C218.311 66.4902 216.992 68.0332 215.01 68.0332ZM221.348 69H222.637V62.9844C222.637 61.0898 223.818 59.8203 225.586 59.8203C227.314 59.8203 228.252 60.8262 228.252 62.7109V69H229.541V62.4961C229.541 60.1133 228.213 58.668 225.967 58.668C224.326 58.668 223.184 59.4785 222.676 60.5723H222.637V58.8438H221.348V69ZM238.848 69.1855C239.16 69.1855 239.492 69.1465 239.697 69.1074V68.0527C239.551 68.0723 239.346 68.1016 239.111 68.1016C238.164 68.1016 237.686 67.7207 237.686 66.5977V59.9277H239.697V58.8438H237.686V56.0996H236.357V58.8438H234.863V59.9277H236.357V66.6172C236.357 68.3945 237.178 69.1855 238.848 69.1855ZM245.273 69.1855C248.037 69.1855 249.902 67.1543 249.902 63.9219V63.9023C249.902 60.6699 248.027 58.6582 245.273 58.6582C242.51 58.6582 240.645 60.6797 240.645 63.9023V63.9219C240.645 67.1445 242.5 69.1758 245.273 69.1855ZM245.283 68.0332C243.281 68.0234 241.973 66.5 241.973 63.9219V63.9023C241.973 61.3438 243.291 59.8105 245.273 59.8105C247.256 59.8105 248.584 61.334 248.584 63.9023V63.9219C248.584 66.4902 247.266 68.0332 245.283 68.0332ZM66.5723 96.418H68.6816V91.2715H68.7305C69.3359 92.4629 70.5176 93.2051 71.9727 93.2051C74.5508 93.2051 76.2402 91.1445 76.2402 87.873V87.8633C76.2402 84.582 74.5605 82.5312 71.9434 82.5312C70.4785 82.5312 69.3457 83.2734 68.7305 84.4941H68.6816V82.7266H66.5723V96.418ZM71.3965 91.3887C69.8047 91.3887 68.6719 90.002 68.6719 87.873V87.8633C68.6719 85.7246 69.7949 84.3379 71.3965 84.3379C73.0469 84.3379 74.0918 85.6758 74.0918 87.8633V87.873C74.0918 90.041 73.0566 91.3887 71.3965 91.3887ZM77.8809 93H79.9902V86.877C79.9902 85.3438 80.8301 84.4551 82.1875 84.4551C82.5977 84.4551 82.9688 84.5039 83.1348 84.5723V82.6094C82.9688 82.5801 82.7051 82.5312 82.4023 82.5312C81.2305 82.5312 80.3711 83.2832 80.0391 84.4844H79.9902V82.7266H77.8809V93ZM88.4082 93.2051C91.3477 93.2051 93.2812 91.1738 93.2812 87.8633V87.8438C93.2812 84.5527 91.3281 82.5312 88.3984 82.5312C85.4785 82.5312 83.5352 84.5625 83.5352 87.8438V87.8633C83.5352 91.1641 85.459 93.2051 88.4082 93.2051ZM88.418 91.4375C86.7676 91.4375 85.6934 90.1387 85.6934 87.8633V87.8438C85.6934 85.5977 86.7773 84.2988 88.3984 84.2988C90.0488 84.2988 91.123 85.5977 91.123 87.8438V87.8633C91.123 90.1289 90.0684 91.4375 88.418 91.4375ZM99.3262 93.2051C101.797 93.2051 103.516 91.623 103.74 89.5625L103.75 89.4941H101.719L101.709 89.5723C101.455 90.6855 100.625 91.4375 99.3262 91.4375C97.6953 91.4375 96.6113 90.1191 96.6113 87.873V87.8633C96.6113 85.666 97.6758 84.2988 99.3164 84.2988C100.693 84.2988 101.475 85.1484 101.699 86.1543L101.719 86.2324H103.73L103.721 86.1641C103.545 84.2305 101.943 82.5312 99.2969 82.5312C96.3672 82.5312 94.4531 84.5918 94.4531 87.8438V87.8535C94.4531 91.1445 96.3281 93.2051 99.3262 93.2051ZM105.244 93H107.354V86.877C107.354 85.3438 108.193 84.4551 109.551 84.4551C109.961 84.4551 110.332 84.5039 110.498 84.5723V82.6094C110.332 82.5801 110.068 82.5312 109.766 82.5312C108.594 82.5312 107.734 83.2832 107.402 84.4844H107.354V82.7266H105.244V93ZM114.609 93.1855C115.967 93.1855 117.158 92.4824 117.754 91.3789H117.793V93H119.912V85.9199C119.912 83.8594 118.32 82.5312 115.811 82.5312C113.281 82.5312 111.748 83.8887 111.602 85.6562L111.592 85.7637H113.584L113.604 85.6758C113.779 84.8555 114.531 84.2793 115.752 84.2793C117.061 84.2793 117.793 84.9629 117.793 86.0957V86.8672L115 87.0332C112.568 87.1797 111.182 88.2734 111.182 90.0605V90.0801C111.182 91.9258 112.559 93.1855 114.609 93.1855ZM113.311 90.0312V90.0117C113.311 89.1426 114.014 88.5859 115.283 88.5078L117.793 88.3516V89.1523C117.793 90.4902 116.67 91.4961 115.186 91.4961C114.053 91.4961 113.311 90.9297 113.311 90.0312ZM125.811 93.2051C128.232 93.2051 129.99 91.916 129.99 90.041V90.0312C129.99 88.5566 129.189 87.7266 127.09 87.2383L125.42 86.8574C124.316 86.5938 123.896 86.1641 123.896 85.5293V85.5195C123.896 84.6992 124.609 84.1621 125.742 84.1621C126.934 84.1621 127.637 84.7871 127.764 85.6855L127.773 85.7539H129.756L129.746 85.6367C129.639 83.8887 128.174 82.5312 125.742 82.5312C123.379 82.5312 121.777 83.791 121.777 85.627V85.6367C121.777 87.1309 122.744 88.0684 124.697 88.5176L126.377 88.8984C127.48 89.1621 127.852 89.543 127.852 90.207V90.2168C127.852 91.0469 127.09 91.5742 125.82 91.5742C124.521 91.5742 123.818 91.0176 123.623 90.0703L123.604 89.9727H121.514L121.523 90.0605C121.738 91.9355 123.242 93.2051 125.811 93.2051ZM135.234 93.2051C135.664 93.2051 136.064 93.1562 136.309 93.1172V91.4863C136.152 91.5059 135.967 91.5254 135.742 91.5254C134.854 91.5254 134.385 91.2129 134.385 90.168V84.4062H136.309V82.7266H134.385V80.0508H132.227V82.7266H130.752V84.4062H132.227V90.2949C132.227 92.3457 133.203 93.2051 135.234 93.2051ZM139.199 81.1445C139.893 81.1445 140.43 80.5977 140.43 79.9336C140.43 79.2598 139.893 78.7129 139.199 78.7129C138.516 78.7129 137.969 79.2598 137.969 79.9336C137.969 80.5977 138.516 81.1445 139.199 81.1445ZM138.145 93H140.254V82.7266H138.145V93ZM142.432 93H144.541V87.0137C144.541 85.4121 145.498 84.3379 146.982 84.3379C148.447 84.3379 149.17 85.207 149.17 86.75V93H151.289V86.3496C151.289 83.9863 149.99 82.5312 147.734 82.5312C146.182 82.5312 145.127 83.2344 144.59 84.2793H144.541V82.7266H142.432V93ZM156.348 93.1855C157.705 93.1855 158.896 92.4824 159.492 91.3789H159.531V93H161.65V85.9199C161.65 83.8594 160.059 82.5312 157.549 82.5312C155.02 82.5312 153.486 83.8887 153.34 85.6562L153.33 85.7637H155.322L155.342 85.6758C155.518 84.8555 156.27 84.2793 157.49 84.2793C158.799 84.2793 159.531 84.9629 159.531 86.0957V86.8672L156.738 87.0332C154.307 87.1797 152.92 88.2734 152.92 90.0605V90.0801C152.92 91.9258 154.297 93.1855 156.348 93.1855ZM155.049 90.0312V90.0117C155.049 89.1426 155.752 88.5859 157.021 88.5078L159.531 88.3516V89.1523C159.531 90.4902 158.408 91.4961 156.924 91.4961C155.791 91.4961 155.049 90.9297 155.049 90.0312ZM167.305 93.2051C167.734 93.2051 168.135 93.1562 168.379 93.1172V91.4863C168.223 91.5059 168.037 91.5254 167.812 91.5254C166.924 91.5254 166.455 91.2129 166.455 90.168V84.4062H168.379V82.7266H166.455V80.0508H164.297V82.7266H162.822V84.4062H164.297V90.2949C164.297 92.3457 165.273 93.2051 167.305 93.2051ZM171.27 81.1445C171.963 81.1445 172.5 80.5977 172.5 79.9336C172.5 79.2598 171.963 78.7129 171.27 78.7129C170.586 78.7129 170.039 79.2598 170.039 79.9336C170.039 80.5977 170.586 81.1445 171.27 81.1445ZM170.215 93H172.324V82.7266H170.215V93ZM178.916 93.2051C181.855 93.2051 183.789 91.1738 183.789 87.8633V87.8438C183.789 84.5527 181.836 82.5312 178.906 82.5312C175.986 82.5312 174.043 84.5625 174.043 87.8438V87.8633C174.043 91.1641 175.967 93.2051 178.916 93.2051ZM178.926 91.4375C177.275 91.4375 176.201 90.1387 176.201 87.8633V87.8438C176.201 85.5977 177.285 84.2988 178.906 84.2988C180.557 84.2988 181.631 85.5977 181.631 87.8438V87.8633C181.631 90.1289 180.576 91.4375 178.926 91.4375ZM185.42 93H187.529V87.0137C187.529 85.4121 188.486 84.3379 189.971 84.3379C191.436 84.3379 192.158 85.207 192.158 86.75V93H194.277V86.3496C194.277 83.9863 192.979 82.5312 190.723 82.5312C189.17 82.5312 188.115 83.2344 187.578 84.2793H187.529V82.7266H185.42V93ZM197.373 93.127C197.881 93.127 198.281 92.7266 198.281 92.2188C198.281 91.7109 197.881 91.3105 197.373 91.3105C196.865 91.3105 196.465 91.7109 196.465 92.2188C196.465 92.7266 196.865 93.127 197.373 93.127Z" fill="#2F2E41"/>
<path d="M32.4103 27.8298H25.3425V2.95273C25.3392 2.71154 25.3632 2.47076 25.4139 2.23495C25.4619 2.00011 25.5351 1.77116 25.6325 1.55214C25.7468 1.29408 25.9004 1.05525 26.0878 0.844134C26.2526 0.659943 26.4441 0.501549 26.656 0.374254C26.8338 0.267874 27.0236 0.183063 27.2215 0.121613C27.4622 0.0449236 27.7129 0.00394985 27.9655 0C27.9887 0 28.0017 0.000596632 28.0019 0.000629778H36.5937C36.5983 0.000828655 37.0606 0.0214124 37.7755 0.164637C38.2 0.249964 38.6196 0.358291 39.0324 0.489139C39.547 0.651883 40.0498 0.849813 40.5372 1.08153C41.2602 1.42476 41.9451 1.84321 42.5805 2.32995C42.9265 2.59585 43.2555 2.88309 43.5657 3.18999C43.8922 3.51333 44.1958 3.85888 44.4745 4.22415C44.769 4.61084 45.0341 5.019 45.2677 5.44523C45.517 5.90149 45.7304 6.37648 45.906 6.86587C46.0961 7.39784 46.2447 7.94375 46.3504 8.49869C46.4664 9.11197 46.537 9.73299 46.5616 10.3567C46.5849 10.9055 46.5703 11.4553 46.5179 12.0021C46.4689 12.508 46.384 13.0098 46.2639 13.5036C46.1508 13.9666 46.0051 14.421 45.8279 14.8634C45.6593 15.2831 45.4623 15.6909 45.2381 16.0837C44.8154 16.8217 44.3024 17.5042 43.7109 18.1153C43.1656 18.6789 42.5614 19.1823 41.9087 19.6168C41.3005 20.02 40.657 20.3672 39.9862 20.6543C39.4317 20.8924 38.8619 21.0929 38.2805 21.2544C37.7612 21.3989 37.3302 21.4846 37.0601 21.5311C36.7653 21.5818 36.5953 21.5979 36.5936 21.5981H32.4103V27.8298ZM32.4393 6.55131V14.9663H36.2213C36.4301 14.936 36.6366 14.8911 36.8392 14.8321C37.053 14.7718 37.2631 14.6991 37.4684 14.6144C37.716 14.5125 37.9552 14.3912 38.1838 14.2517C38.7463 13.9062 39.1862 13.471 39.4912 12.9581C39.6746 12.6478 39.8099 12.3114 39.8923 11.9604C39.9389 11.7627 39.9709 11.5618 39.9879 11.3593C40.0067 11.1349 40.01 10.9094 39.9979 10.6845C39.9865 10.4588 39.9615 10.234 39.9229 10.0113C39.8877 9.80958 39.8396 9.61037 39.7788 9.41488C39.6717 9.06914 39.5189 8.73928 39.3243 8.43409C38.9957 7.92654 38.5547 7.50139 38.0354 7.19153C37.821 7.06192 37.5965 6.94974 37.3641 6.85609C37.1748 6.77968 36.9809 6.71499 36.7836 6.66239C36.5992 6.61129 36.4113 6.57419 36.2213 6.55141H32.4394L32.4393 6.55131Z" fill="url(#paint0_linear_3_2257)"/>
<path d="M25.345 27.8591H32.4191C32.4191 27.8591 32.5791 24.661 29.9108 21.9596C29.6457 21.595 29.0977 21.0827 28.237 20.2375C27.1251 19.1457 25.678 17.8694 24.6186 16.7911C22.7436 14.8826 22.3473 14.3267 22.3473 14.3267C22.3473 14.3267 24.0681 16.8544 24.8175 20.2375C25.5669 23.6206 25.345 27.8591 25.345 27.8591Z" fill="url(#paint1_linear_3_2257)"/>
<path d="M32.4193 27.859C32.4193 27.859 32.5635 25.5146 30.6931 22.8975C29.7802 21.6202 27.9913 19.9935 25.3624 17.5128C22.7336 15.0321 21.0231 12.6955 20.7302 11.8408C18.0361 5.60344 23.6639 2.30615 23.6639 2.30615C23.6639 2.30615 22.9834 3.8146 22.9923 5.44739C23.0006 6.97466 23.6533 8.61212 25.1279 9.23882C26.7814 9.94152 28.0363 8.97968 28.5786 7.89477C29.0256 7.00058 28.8901 5.9996 28.8901 5.9996C28.8901 5.9996 30.2663 6.92968 30.1721 8.9224C30.1611 9.15346 30.047 9.8255 29.8327 10.5692C29.5735 11.4466 29.2586 12.3067 28.8901 13.1441C28.3456 14.3623 27.7046 17.1713 29.2726 18.0125C32.734 19.8693 34.134 15.7621 34.134 15.7621C34.134 15.7621 33.9267 18.2604 36.3979 19.903C38.8691 21.5455 42.141 19.5091 42.141 19.5091C42.141 19.5091 40.2328 20.9511 38.1621 21.3371C36.0915 21.7232 32.4222 21.6048 32.4222 21.6048L32.4193 27.859Z" fill="url(#paint2_linear_3_2257)"/>
<path d="M23.6639 2.30615C23.6639 2.30615 23.6989 3.60465 24.1181 4.57514C24.5374 5.54563 25.3408 6.1881 25.3408 6.1881V9.35953C25.3408 9.35953 23.6083 8.87192 23.1068 6.57439C22.6053 4.27686 23.6639 2.30615 23.6639 2.30615Z" fill="url(#paint3_linear_3_2257)" fill-opacity="0.4"/>
<path d="M28.9114 6.04736C28.9114 6.04736 31.0098 7.16655 31.884 9.40259C32.0138 9.73458 32.2107 10.3084 32.3042 10.7742C32.3552 11.0214 32.3789 11.2734 32.3747 11.5258L32.4083 14.9915H36.2483C36.2483 14.9915 37.3855 16.5976 35.9087 17.2661C34.4319 17.9345 34.0674 15.8419 34.0674 15.8419C34.0674 15.8419 32.5076 20.3758 28.8715 17.7448C28.5334 17.5002 28.3682 16.7449 28.2898 16.3102C28.0693 15.0875 28.6839 13.5899 29.308 12.1009C29.5529 11.4512 29.7141 10.9816 29.8455 10.4966C29.908 10.266 29.9397 10.0019 30.0201 9.75928C30.7729 7.48939 28.9114 6.04736 28.9114 6.04736Z" fill="url(#paint4_linear_3_2257)"/>
<path d="M34.9069 8.10547C34.9069 8.10547 34.0619 8.88921 34.2012 10.5481C34.2211 10.7868 34.3313 11.6696 34.9067 12.7258C35.4707 13.7613 36.4998 14.9679 36.6077 15.8804C36.6643 16.358 36.5203 16.7463 36.241 16.9939C35.6198 17.5443 34.9059 17.2894 34.5348 16.9062C34.1251 16.4831 34.1015 15.8804 34.1015 15.8804C34.1015 15.8804 34.0478 19.0974 37.3671 20.3555C39.655 21.0242 42.889 19.7005 43.8367 17.7263C44.3258 16.7073 44.1066 15.6105 43.3431 14.8072C42.4705 13.889 40.9952 13.3268 39.623 12.656C38.4949 12.1043 37.4407 11.4231 36.8268 10.8954C34.8325 9.1808 34.9069 8.10547 34.9069 8.10547Z" fill="url(#paint5_linear_3_2257)"/>
<path d="M37.8996 7.09326C38.1058 7.27943 38.2334 7.57389 38.3118 7.84038C38.4583 8.35779 38.3602 9.1005 37.5382 9.44953C36.0467 10.083 34.9019 8.10077 34.9019 8.10077C34.9019 8.10077 34.9781 9.30617 36.5606 10.6741C38.1431 12.042 39.6729 12.6784 39.6729 12.6784C39.6729 12.6784 40.4519 11.1371 39.7889 9.28091C39.3041 7.72798 37.8996 7.09326 37.8996 7.09326Z" fill="url(#paint6_linear_3_2257)"/>
<path d="M49.9783 19.1474H52.5002V13.9653C52.5002 12.618 53.2257 11.8752 54.4694 11.8752C54.8322 11.8752 55.1776 11.9271 55.3849 12.0134V9.79376C55.1949 9.74194 54.9358 9.69875 54.6594 9.69875C53.5798 9.69875 52.8284 10.3638 52.552 11.5039H52.5002V9.88876H49.9783V19.1474Z" fill="#028076"/>
<path d="M60.3597 19.3374C63.1581 19.3374 64.9459 17.541 64.9459 14.5181V14.5008C64.9459 11.5039 63.1235 9.69875 60.3511 9.69875C57.5873 9.69875 55.7736 11.5211 55.7736 14.5008V14.5181C55.7736 17.5324 57.5441 19.3374 60.3597 19.3374ZM60.3684 17.3596C59.1247 17.3596 58.3387 16.3318 58.3387 14.5181V14.5008C58.3387 12.713 59.1333 11.6766 60.3511 11.6766C61.5775 11.6766 62.3807 12.713 62.3807 14.5008V14.5181C62.3807 16.3232 61.5948 17.3596 60.3684 17.3596Z" fill="#028076"/>
<path d="M70.4821 19.3374C72.9522 19.3374 74.55 17.8001 74.6709 15.7791V15.7273H72.3217L72.3131 15.805C72.1404 16.7378 71.5099 17.3596 70.4994 17.3596C69.2557 17.3596 68.4783 16.3318 68.4783 14.5181V14.5095C68.4783 12.7389 69.2557 11.6766 70.4907 11.6766C71.5358 11.6766 72.149 12.3503 72.3045 13.2312L72.3217 13.3089H74.6623V13.2485C74.5673 11.2447 72.9695 9.69875 70.4562 9.69875C67.6838 9.69875 65.9132 11.5384 65.9132 14.5008V14.5095C65.9132 17.4978 67.6578 19.3374 70.4821 19.3374Z" fill="#028076"/>
<path d="M75.8887 19.1474H78.4107V13.9653C78.4107 12.618 79.1362 11.8752 80.3799 11.8752C80.7426 11.8752 81.0881 11.9271 81.2954 12.0134V9.79376C81.1054 9.74194 80.8463 9.69875 80.5699 9.69875C79.4903 9.69875 78.7389 10.3638 78.4625 11.5039H78.4107V9.88876H75.8887V19.1474Z" fill="#028076"/>
<path d="M84.8624 19.2943C86.0802 19.2943 87.0648 18.7156 87.5916 17.7655H87.6435V19.1474H90.1654V12.7994C90.1654 10.9338 88.6194 9.69875 86.227 9.69875C83.7828 9.69875 82.3145 10.9252 82.1763 12.6353L82.1677 12.7389H84.4737L84.491 12.6612C84.6119 12.0652 85.182 11.6248 86.1234 11.6248C87.108 11.6248 87.6435 12.1343 87.6435 12.9548V13.5249L85.3547 13.6631C83.0573 13.8099 81.7531 14.7945 81.7531 16.4787V16.4959C81.7531 18.1283 83.0055 19.2943 84.8624 19.2943ZM84.2492 16.3664V16.3491C84.2492 15.6927 84.7588 15.2781 85.7347 15.2177L87.6435 15.0968V15.7618C87.6435 16.7291 86.8143 17.4546 85.6829 17.4546C84.8106 17.4546 84.2492 17.0487 84.2492 16.3664Z" fill="#028076"/>
<path d="M95.6066 19.3374C97.9904 19.3374 99.6573 18.1456 99.6573 16.3318V16.3232C99.6573 14.9586 98.8627 14.1985 96.928 13.7926L95.3561 13.4558C94.4234 13.2571 94.1038 12.9462 94.1038 12.4712V12.4625C94.1038 11.8666 94.6479 11.4779 95.5202 11.4779C96.453 11.4779 96.9971 11.9789 97.0835 12.6439L97.0921 12.713H99.4154V12.6266C99.355 11.0029 97.9817 9.69875 95.5202 9.69875C93.1624 9.69875 91.6423 10.8388 91.6423 12.6007V12.6094C91.6423 13.9913 92.5492 14.8895 94.3456 15.2695L95.9175 15.5977C96.8244 15.7964 97.1353 16.0814 97.1353 16.5737V16.5823C97.1353 17.1782 96.5567 17.5496 95.6066 17.5496C94.5961 17.5496 94.052 17.1264 93.8879 16.4009L93.8706 16.3232H91.4091L91.4177 16.4009C91.6164 18.1542 93.0415 19.3374 95.6066 19.3374Z" fill="#028076"/>
<path d="M104.58 19.3374C105.107 19.3374 105.513 19.2856 105.798 19.2424V17.3942C105.643 17.4114 105.478 17.4373 105.254 17.4373C104.494 17.4373 104.105 17.1437 104.105 16.28V11.7889H105.798V9.88876H104.105V7.62592H101.557V9.88876H100.27V11.7889H101.557V16.5564C101.557 18.5429 102.525 19.3374 104.58 19.3374Z" fill="#028076"/>
<path d="M108.501 8.69688C109.261 8.69688 109.849 8.10094 109.849 7.38409C109.849 6.66723 109.261 6.07129 108.501 6.07129C107.741 6.07129 107.154 6.66723 107.154 7.38409C107.154 8.10094 107.741 8.69688 108.501 8.69688ZM107.24 19.1474H109.762V9.88876H107.24V19.1474Z" fill="#028076"/>
<path d="M111.455 19.1474H113.977V13.8272C113.977 12.618 114.694 11.7889 115.825 11.7889C116.957 11.7889 117.527 12.4798 117.527 13.689V19.1474H120.049V13.1708C120.049 11.0029 118.891 9.69875 116.853 9.69875C115.454 9.69875 114.504 10.3465 114.029 11.4088H113.977V9.88876H111.455V19.1474Z" fill="#028076"/>
<path d="M125.861 19.3374C128.504 19.3374 129.783 17.7742 130.068 16.4096L130.093 16.3146H127.779L127.761 16.3664C127.58 16.8846 126.95 17.4546 125.913 17.4546C124.626 17.4546 123.823 16.5909 123.797 15.114H130.171V14.3367C130.171 11.5384 128.47 9.69875 125.758 9.69875C123.046 9.69875 121.31 11.5816 121.31 14.5267V14.5354C121.31 17.4978 123.029 19.3374 125.861 19.3374ZM125.801 11.5816C126.846 11.5816 127.597 12.2466 127.753 13.5249H123.823C123.987 12.2725 124.765 11.5816 125.801 11.5816Z" fill="#028076"/>
<path d="M135.69 19.3374C138.333 19.3374 139.611 17.7742 139.896 16.4096L139.922 16.3146H137.607L137.59 16.3664C137.409 16.8846 136.778 17.4546 135.742 17.4546C134.455 17.4546 133.652 16.5909 133.626 15.114H140V14.3367C140 11.5384 138.298 9.69875 135.586 9.69875C132.874 9.69875 131.138 11.5816 131.138 14.5267V14.5354C131.138 17.4978 132.857 19.3374 135.69 19.3374ZM135.63 11.5816C136.675 11.5816 137.426 12.2466 137.582 13.5249H133.652C133.816 12.2725 134.593 11.5816 135.63 11.5816Z" fill="#028076"/>
<defs>
<linearGradient id="paint0_linear_3_2257" x1="35.9573" y1="0" x2="35.9573" y2="27.8298" gradientUnits="userSpaceOnUse">
<stop stop-color="#03887D"/>
<stop offset="0.296875" stop-color="#00766C"/>
<stop offset="0.625" stop-color="#00766C"/>
</linearGradient>
<linearGradient id="paint1_linear_3_2257" x1="26.878" y1="14.3194" x2="24.8726" y2="27.843" gradientUnits="userSpaceOnUse">
<stop stop-color="#0A3720"/>
<stop offset="1" stop-color="#03A093" stop-opacity="0.72"/>
</linearGradient>
<linearGradient id="paint2_linear_3_2257" x1="26.7618" y1="2.95005" x2="31.0705" y2="27.859" gradientUnits="userSpaceOnUse">
<stop stop-color="#34B5AA" stop-opacity="0.85"/>
<stop offset="1" stop-color="#07321C" stop-opacity="0.9"/>
</linearGradient>
<linearGradient id="paint3_linear_3_2257" x1="24.1428" y1="2.53572" x2="24.7892" y2="9.34727" gradientUnits="userSpaceOnUse">
<stop stop-color="#01D268"/>
<stop offset="1" stop-color="#03A093"/>
</linearGradient>
<linearGradient id="paint4_linear_3_2257" x1="32.4561" y1="6.04736" x2="32.4561" y2="18.5658" gradientUnits="userSpaceOnUse">
<stop stop-color="#03A093" stop-opacity="0.23"/>
<stop offset="1" stop-color="#034021"/>
</linearGradient>
<linearGradient id="paint5_linear_3_2257" x1="39.0993" y1="8.10547" x2="39.0993" y2="20.5308" gradientUnits="userSpaceOnUse">
<stop stop-color="#03A093" stop-opacity="0.24"/>
<stop offset="1" stop-color="#1E7146"/>
</linearGradient>
<linearGradient id="paint6_linear_3_2257" x1="37.4213" y1="7.14812" x2="37.4213" y2="12.6058" gradientUnits="userSpaceOnUse">
<stop stop-color="#0A847A" stop-opacity="0.58"/>
<stop offset="1" stop-color="#031E1C" stop-opacity="0.62"/>
</linearGradient>
</defs>
</svg>
