<svg width="27" height="28" viewBox="0 0 27 28" fill="none" xmlns="http://www.w3.org/2000/svg">
<path d="M12.4103 27.8298H5.34246V2.95273C5.3392 2.71154 5.36317 2.47076 5.41392 2.23495C5.46185 2.00011 5.53514 1.77116 5.63248 1.55214C5.74684 1.29408 5.90042 1.05525 6.08778 0.844134C6.25258 0.659943 6.44412 0.501549 6.65597 0.374254C6.83377 0.267875 7.02361 0.183063 7.22148 0.121613C7.4622 0.0449236 7.71287 0.00394985 7.96548 0C7.98868 0 8.00171 0.000596632 8.00194 0.000629778H16.5937C16.5983 0.000828655 17.0606 0.0214124 17.7755 0.164637C18.2 0.249964 18.6196 0.358291 19.0324 0.489139C19.547 0.651883 20.0498 0.849813 20.5372 1.08153C21.2602 1.42476 21.9451 1.84321 22.5805 2.32995C22.9265 2.59585 23.2555 2.88309 23.5657 3.18999C23.8922 3.51333 24.1958 3.85888 24.4745 4.22415C24.769 4.61084 25.0341 5.019 25.2677 5.44523C25.517 5.90149 25.7304 6.37648 25.906 6.86587C26.0961 7.39784 26.2447 7.94375 26.3504 8.49869C26.4664 9.11197 26.537 9.73299 26.5616 10.3567C26.5849 10.9055 26.5703 11.4553 26.5179 12.0021C26.4689 12.508 26.384 13.0098 26.2639 13.5036C26.1508 13.9666 26.0051 14.421 25.8279 14.8634C25.6593 15.2831 25.4623 15.6909 25.2381 16.0837C24.8154 16.8217 24.3024 17.5042 23.7109 18.1153C23.1656 18.6789 22.5614 19.1823 21.9087 19.6168C21.3005 20.02 20.657 20.3672 19.9862 20.6543C19.4317 20.8924 18.8619 21.0929 18.2805 21.2544C17.7612 21.3989 17.3302 21.4846 17.0601 21.5311C16.7653 21.5818 16.5953 21.5979 16.5936 21.5981H12.4103V27.8298ZM12.4393 6.55131V14.9663H16.2213C16.4301 14.936 16.6366 14.8911 16.8392 14.8321C17.053 14.7718 17.2631 14.6991 17.4684 14.6144C17.716 14.5125 17.9552 14.3912 18.1838 14.2517C18.7463 13.9062 19.1862 13.471 19.4912 12.9581C19.6746 12.6478 19.8099 12.3114 19.8923 11.9604C19.9389 11.7627 19.9709 11.5618 19.9879 11.3593C20.0067 11.1349 20.01 10.9094 19.9979 10.6845C19.9865 10.4588 19.9615 10.234 19.9229 10.0113C19.8877 9.80958 19.8396 9.61037 19.7788 9.41488C19.6717 9.06914 19.5189 8.73928 19.3243 8.43409C18.9957 7.92654 18.5547 7.50139 18.0354 7.19153C17.821 7.06192 17.5965 6.94974 17.3641 6.85609C17.1748 6.77968 16.9809 6.71499 16.7836 6.66239C16.5992 6.61129 16.4113 6.57419 16.2213 6.55141H12.4394L12.4393 6.55131Z" fill="url(#paint0_linear_3_2260)"/>
<path d="M5.34497 27.8591H12.4191C12.4191 27.8591 12.5791 24.661 9.91084 21.9596C9.64567 21.595 9.0977 21.0827 8.23696 20.2375C7.12507 19.1457 5.67795 17.8694 4.61857 16.7911C2.74355 14.8826 2.34729 14.3267 2.34729 14.3267C2.34729 14.3267 4.06807 16.8544 4.81748 20.2375C5.56688 23.6206 5.34497 27.8591 5.34497 27.8591Z" fill="url(#paint1_linear_3_2260)"/>
<path d="M12.4193 27.859C12.4193 27.859 12.5635 25.5146 10.6931 22.8975C9.78023 21.6202 7.9913 19.9935 5.36244 17.5128C2.73358 15.0321 1.0231 12.6955 0.730225 11.8408C-1.96387 5.60344 3.66386 2.30615 3.66386 2.30615C3.66386 2.30615 2.9834 3.8146 2.99229 5.44739C3.00057 6.97466 3.65332 8.61212 5.12787 9.23882C6.7814 9.94152 8.03634 8.97968 8.57865 7.89477C9.02563 7.00058 8.89006 5.9996 8.89006 5.9996C8.89006 5.9996 10.2663 6.92968 10.1721 8.9224C10.1611 9.15346 10.047 9.8255 9.83274 10.5692C9.57351 11.4466 9.25864 12.3067 8.89006 13.1441C8.34556 14.3623 7.70455 17.1713 9.27257 18.0125C12.734 19.8693 14.134 15.7621 14.134 15.7621C14.134 15.7621 13.9267 18.2604 16.3979 19.903C18.8691 21.5455 22.141 19.5091 22.141 19.5091C22.141 19.5091 20.2328 20.9511 18.1621 21.3371C16.0915 21.7232 12.4222 21.6048 12.4222 21.6048L12.4193 27.859Z" fill="url(#paint2_linear_3_2260)"/>
<path d="M3.66388 2.30615C3.66388 2.30615 3.69891 3.60465 4.11815 4.57514C4.53738 5.54563 5.34085 6.1881 5.34085 6.1881V9.35953C5.34085 9.35953 3.60829 8.87192 3.10679 6.57439C2.60529 4.27686 3.66388 2.30615 3.66388 2.30615Z" fill="url(#paint3_linear_3_2260)" fill-opacity="0.4"/>
<path d="M8.91139 6.04736C8.91139 6.04736 11.0098 7.16655 11.884 9.40259C12.0138 9.73458 12.2107 10.3084 12.3042 10.7742C12.3552 11.0214 12.3789 11.2734 12.3747 11.5258L12.4083 14.9915H16.2483C16.2483 14.9915 17.3855 16.5976 15.9087 17.2661C14.4319 17.9345 14.0674 15.8419 14.0674 15.8419C14.0674 15.8419 12.5076 20.3758 8.87145 17.7448C8.53336 17.5002 8.3682 16.7449 8.28981 16.3102C8.06928 15.0875 8.6839 13.5899 9.30799 12.1009C9.55291 11.4512 9.71406 10.9816 9.84549 10.4966C9.90797 10.266 9.93969 10.0019 10.0201 9.75928C10.7729 7.48939 8.91139 6.04736 8.91139 6.04736Z" fill="url(#paint4_linear_3_2260)"/>
<path d="M14.9069 8.10547C14.9069 8.10547 14.0619 8.88921 14.2012 10.5481C14.2211 10.7868 14.3313 11.6696 14.9067 12.7258C15.4707 13.7613 16.4998 14.9679 16.6077 15.8804C16.6643 16.358 16.5203 16.7463 16.241 16.9939C15.6198 17.5443 14.9059 17.2894 14.5348 16.9062C14.1251 16.4831 14.1015 15.8804 14.1015 15.8804C14.1015 15.8804 14.0478 19.0974 17.3671 20.3555C19.655 21.0242 22.889 19.7005 23.8367 17.7263C24.3258 16.7073 24.1066 15.6105 23.3431 14.8072C22.4705 13.889 20.9952 13.3268 19.623 12.656C18.4949 12.1043 17.4407 11.4231 16.8268 10.8954C14.8325 9.1808 14.9069 8.10547 14.9069 8.10547Z" fill="url(#paint5_linear_3_2260)"/>
<path d="M17.8996 7.09326C18.1058 7.27943 18.2334 7.57389 18.3118 7.84038C18.4583 8.35779 18.3602 9.1005 17.5382 9.44953C16.0467 10.083 14.9019 8.10077 14.9019 8.10077C14.9019 8.10077 14.9781 9.30617 16.5606 10.6741C18.1431 12.042 19.6729 12.6784 19.6729 12.6784C19.6729 12.6784 20.4519 11.1371 19.7889 9.28091C19.3041 7.72798 17.8996 7.09326 17.8996 7.09326Z" fill="url(#paint6_linear_3_2260)"/>
<defs>
<linearGradient id="paint0_linear_3_2260" x1="15.9573" y1="0" x2="15.9573" y2="27.8298" gradientUnits="userSpaceOnUse">
<stop stop-color="#03887D"/>
<stop offset="0.296875" stop-color="#00766C"/>
<stop offset="0.625" stop-color="#00766C"/>
</linearGradient>
<linearGradient id="paint1_linear_3_2260" x1="6.87796" y1="14.3194" x2="4.87262" y2="27.843" gradientUnits="userSpaceOnUse">
<stop stop-color="#0A3720"/>
<stop offset="1" stop-color="#03A093" stop-opacity="0.72"/>
</linearGradient>
<linearGradient id="paint2_linear_3_2260" x1="6.76183" y1="2.95005" x2="11.0705" y2="27.859" gradientUnits="userSpaceOnUse">
<stop stop-color="#34B5AA" stop-opacity="0.85"/>
<stop offset="1" stop-color="#07321C" stop-opacity="0.9"/>
</linearGradient>
<linearGradient id="paint3_linear_3_2260" x1="4.14284" y1="2.53572" x2="4.78919" y2="9.34727" gradientUnits="userSpaceOnUse">
<stop stop-color="#01D268"/>
<stop offset="1" stop-color="#03A093"/>
</linearGradient>
<linearGradient id="paint4_linear_3_2260" x1="12.4561" y1="6.04736" x2="12.4561" y2="18.5658" gradientUnits="userSpaceOnUse">
<stop stop-color="#03A093" stop-opacity="0.23"/>
<stop offset="1" stop-color="#034021"/>
</linearGradient>
<linearGradient id="paint5_linear_3_2260" x1="19.0993" y1="8.10547" x2="19.0993" y2="20.5308" gradientUnits="userSpaceOnUse">
<stop stop-color="#03A093" stop-opacity="0.24"/>
<stop offset="1" stop-color="#1E7146"/>
</linearGradient>
<linearGradient id="paint6_linear_3_2260" x1="17.4213" y1="7.14812" x2="17.4213" y2="12.6058" gradientUnits="userSpaceOnUse">
<stop stop-color="#0A847A" stop-opacity="0.58"/>
<stop offset="1" stop-color="#031E1C" stop-opacity="0.62"/>
</linearGradient>
</defs>
</svg>
