<svg width="348" height="218" viewBox="0 0 348 218" fill="none" xmlns="http://www.w3.org/2000/svg">
<path d="M188.336 213.668L53.5162 215.701L0 206.216H83.546L188.336 213.668Z" fill="#E6E6E6"/>
<path d="M38.1517 207.344C38.1517 207.344 38.4672 200.734 44.9342 201.502L38.1517 207.344Z" fill="#3F3D56"/>
<path d="M36.3252 201.053C38.1128 201.053 39.5619 199.604 39.5619 197.816C39.5619 196.029 38.1128 194.58 36.3252 194.58C34.5376 194.58 33.0885 196.029 33.0885 197.816C33.0885 199.604 34.5376 201.053 36.3252 201.053Z" fill="#03A093"/>
<path d="M36.7124 203.267H35.7987V209.662H36.7124V203.267Z" fill="#3F3D56"/>
<path d="M144.743 208.472C144.743 208.472 145.059 201.862 151.526 202.631L144.743 208.472Z" fill="#3F3D56"/>
<path d="M142.917 202.182C144.704 202.182 146.153 200.733 146.153 198.945C146.153 197.158 144.704 195.708 142.917 195.708C141.129 195.708 139.68 197.158 139.68 198.945C139.68 200.733 141.129 202.182 142.917 202.182Z" fill="#03A093"/>
<path d="M143.302 204.396H142.388V210.791H143.302V204.396Z" fill="#3F3D56"/>
<path d="M160.325 209.602C160.325 209.602 160.641 202.992 167.108 203.76L160.325 209.602Z" fill="#3F3D56"/>
<path d="M158.498 203.311C160.286 203.311 161.735 201.862 161.735 200.075C161.735 198.287 160.286 196.838 158.498 196.838C156.71 196.838 155.261 198.287 155.261 200.075C155.261 201.862 156.71 203.311 158.498 203.311Z" fill="#03A093"/>
<path d="M158.885 205.525H157.971V211.92H158.885V205.525Z" fill="#3F3D56"/>
<path d="M63.6707 204.182C63.6707 204.182 63.9861 197.572 70.4532 198.34L63.6707 204.182Z" fill="#3F3D56"/>
<path d="M61.8436 197.891C63.6312 197.891 65.0804 196.442 65.0804 194.655C65.0804 192.867 63.6312 191.418 61.8436 191.418C60.0561 191.418 58.6069 192.867 58.6069 194.655C58.6069 196.442 60.0561 197.891 61.8436 197.891Z" fill="#03A093"/>
<path d="M62.2299 200.105H61.3163V206.501H62.2299V200.105Z" fill="#3F3D56"/>
<path d="M15.5686 205.311C15.5686 205.311 15.8841 198.701 22.3511 199.469L15.5686 205.311Z" fill="#3F3D56"/>
<path d="M13.7421 199.021C15.5297 199.021 16.9788 197.572 16.9788 195.784C16.9788 193.996 15.5297 192.547 13.7421 192.547C11.9545 192.547 10.5054 193.996 10.5054 195.784C10.5054 197.572 11.9545 199.021 13.7421 199.021Z" fill="#03A093"/>
<path d="M14.1293 201.234H13.2157V207.629H14.1293V201.234Z" fill="#3F3D56"/>
<path d="M93.8265 193.825C113.302 193.825 129.091 178.036 129.091 158.56C129.091 139.084 113.302 123.296 93.8265 123.296C74.3505 123.296 58.5621 139.084 58.5621 158.56C58.5621 178.036 74.3505 193.825 93.8265 193.825Z" fill="#3F3D56"/>
<path d="M71.6258 161.391C72.5016 160.342 73.5969 159.499 74.8345 158.92C76.072 158.341 77.4215 158.041 78.7877 158.041C80.1538 158.041 81.5033 158.341 82.7409 158.92C83.9784 159.499 85.0737 160.342 85.9495 161.391C87.4482 159.96 88.484 158.113 88.9235 156.089C89.363 154.064 89.186 151.954 88.4154 150.031C87.6448 148.108 86.3159 146.459 84.5999 145.298C82.8839 144.137 80.8595 143.517 78.7877 143.517C76.7158 143.517 74.6914 144.137 72.9754 145.298C71.2594 146.459 69.9305 148.108 69.1599 150.031C68.3893 151.954 68.2123 154.064 68.6518 156.089C69.0913 158.113 70.1271 159.96 71.6258 161.391Z" fill="white"/>
<path d="M99.6288 161.391C100.505 160.342 101.6 159.499 102.838 158.92C104.075 158.341 105.425 158.041 106.791 158.041C108.157 158.041 109.506 158.341 110.744 158.92C111.981 159.499 113.077 160.342 113.953 161.391C115.451 159.96 116.487 158.113 116.927 156.089C117.366 154.064 117.189 151.954 116.418 150.031C115.648 148.108 114.319 146.459 112.603 145.298C110.887 144.137 108.863 143.517 106.791 143.517C104.719 143.517 102.694 144.137 100.978 145.298C99.2625 146.459 97.9335 148.108 97.1629 150.031C96.3923 151.954 96.2154 154.064 96.6549 156.089C97.0944 158.113 98.1302 159.96 99.6288 161.391Z" fill="white"/>
<path d="M82.048 153.924C84.0185 153.924 85.6159 152.327 85.6159 150.356C85.6159 148.386 84.0185 146.789 82.048 146.789C80.0776 146.789 78.4802 148.386 78.4802 150.356C78.4802 152.327 80.0776 153.924 82.048 153.924Z" fill="#3F3D56"/>
<path d="M110.052 153.924C112.023 153.924 113.62 152.327 113.62 150.356C113.62 148.386 112.023 146.789 110.052 146.789C108.082 146.789 106.484 148.386 106.484 150.356C106.484 152.327 108.082 153.924 110.052 153.924Z" fill="#3F3D56"/>
<path d="M68.4151 171.525C70.7064 171.525 72.5639 169.668 72.5639 167.376C72.5639 165.085 70.7064 163.228 68.4151 163.228C66.1238 163.228 64.2664 165.085 64.2664 167.376C64.2664 169.668 66.1238 171.525 68.4151 171.525Z" fill="#FF6584"/>
<path d="M116.126 171.525C118.417 171.525 120.275 169.668 120.275 167.376C120.275 165.085 118.417 163.228 116.126 163.228C113.835 163.228 111.977 165.085 111.977 167.376C111.977 169.668 113.835 171.525 116.126 171.525Z" fill="#FF6584"/>
<path d="M92.2705 159.079L89.1589 172.562L94.3448 167.376L92.2705 159.079Z" fill="#FF6584"/>
<path d="M108.258 210.938L104.726 207.973L104.808 210.938H103.711L103.623 207.803L98.8535 210.938H96.8568L103.588 206.514L103.327 197.225L103.132 190.209L104.226 190.179L104.424 197.225L104.685 206.506L109.964 210.938H108.258Z" fill="#3F3D56"/>
<path d="M91.6623 210.938L88.1297 207.973L88.212 210.938H87.1177L87.0299 207.803L82.2602 210.938H80.2635L86.9915 206.514L86.731 197.225L86.5362 190.209L87.6332 190.179L87.8307 197.225L88.0885 206.506L93.3683 210.938H91.6623Z" fill="#3F3D56"/>
<path d="M94.3446 120.703C93.377 120.703 92.5234 121.455 91.9527 122.609C91.4497 120.873 90.3929 119.666 89.1587 119.666C89.0748 119.674 88.9916 119.688 88.9096 119.708C88.4352 117.854 87.3326 116.554 86.0471 116.554C84.3286 116.554 82.9355 118.876 82.9355 121.74C82.9355 124.604 84.3286 126.926 86.0471 126.926C86.131 126.918 86.2142 126.904 86.2962 126.884C86.7706 128.738 87.8732 130.038 89.1587 130.038C90.1263 130.038 90.9799 129.286 91.5506 128.132C92.0536 129.868 93.1104 131.075 94.3446 131.075C96.0631 131.075 97.4562 128.753 97.4562 125.889C97.4562 123.025 96.0631 120.703 94.3446 120.703Z" fill="#3F3D56"/>
<path d="M301.9 170.993C301.822 170.894 301.744 170.794 301.667 170.695C301.59 170.595 301.513 170.495 301.436 170.395C301.36 170.294 301.284 170.194 301.208 170.093C301.132 169.992 301.057 169.891 300.982 169.789C300.856 166.867 300.854 163.97 300.977 161.1C301.096 158.25 301.337 155.434 301.7 152.652C302.059 149.891 302.534 147.173 303.126 144.497C303.713 141.842 304.412 139.237 305.224 136.682C305.317 136.388 305.411 136.094 305.507 135.802C305.603 135.51 305.701 135.219 305.8 134.931C305.899 134.641 306 134.353 306.102 134.066C306.205 133.778 306.309 133.492 306.414 133.207C307.196 131.074 308.057 128.993 308.997 126.964C309.931 124.949 310.939 122.99 312.021 121.087C313.096 119.197 314.241 117.365 315.458 115.591C316.666 113.831 317.941 112.132 319.283 110.495L319.495 110.238L319.707 109.983L319.92 109.729L320.133 109.476L320.287 109.295L320.443 109.114C320.495 109.054 320.547 108.994 320.6 108.935C320.652 108.875 320.705 108.816 320.76 108.758L320.887 108.688L321.014 108.619L321.14 108.55L321.266 108.481L321.274 108.479L321.282 108.475L321.289 108.471L321.297 108.468L321.348 108.44L321.398 108.412L321.447 108.384L321.495 108.356L321.715 108.239L321.933 108.123L322.151 108.007L322.368 107.891L322.203 107.808L321.787 107.601L321.79 107.6C321.826 107.615 321.861 107.631 321.896 107.648C321.931 107.665 321.967 107.681 322.002 107.697C322.038 107.714 322.073 107.73 322.108 107.747C322.142 107.763 322.177 107.78 322.213 107.797L322.253 107.815L322.293 107.832L322.335 107.849C322.348 107.855 322.362 107.861 322.374 107.869C322.386 107.875 322.398 107.88 322.41 107.884L322.446 107.9L322.482 107.915L322.517 107.93C324.03 108.623 325.547 109.327 327.044 110.065C328.541 110.804 330.015 111.573 331.45 112.401C332.88 113.222 334.266 114.118 335.602 115.085C336.935 116.048 338.196 117.105 339.376 118.249C340.621 119.466 341.735 120.81 342.699 122.26C343.652 123.684 344.436 125.214 345.034 126.82C345.61 128.349 345.954 129.955 346.052 131.586C346.148 133.154 345.927 134.726 345.404 136.207C345.333 136.4 345.257 136.591 345.175 136.778C345.093 136.966 345.006 137.151 344.913 137.333C344.82 137.515 344.722 137.694 344.618 137.87C344.514 138.045 344.405 138.218 344.291 138.387C344.244 138.458 344.195 138.528 344.146 138.597C344.096 138.666 344.046 138.735 343.995 138.803C343.944 138.871 343.892 138.939 343.84 139.006C343.788 139.074 343.735 139.141 343.682 139.207C342.691 140.453 341.432 141.458 339.998 142.149C338.557 142.838 336.99 143.227 335.394 143.291C333.716 143.361 332.04 143.118 330.452 142.574C328.748 141.992 327.165 141.104 325.781 139.954C325.303 139.558 324.849 139.133 324.423 138.682C324.001 138.234 323.608 137.761 323.244 137.265C322.884 136.773 322.556 136.259 322.26 135.725C321.967 135.196 321.709 134.648 321.486 134.085C321.382 135.833 321.653 137.584 322.282 139.219C322.946 140.938 323.848 142.554 324.962 144.022C326.139 145.584 327.444 147.045 328.865 148.39C330.295 149.761 331.815 151.047 333.315 152.231C334.816 153.415 336.369 154.626 337.874 155.889C339.377 157.13 340.807 158.457 342.158 159.862C343.469 161.219 344.628 162.715 345.616 164.322C346.586 165.909 347.287 167.646 347.691 169.461C348.124 171.439 348.102 173.489 347.627 175.457C347.396 176.414 347.068 177.345 346.646 178.236C346.221 179.133 345.712 179.988 345.125 180.789L345.07 180.862L345.016 180.935L344.96 181.008L344.902 181.08C343.471 182.951 341.674 184.511 339.621 185.666C338.587 186.247 337.498 186.723 336.37 187.086C335.214 187.458 334.025 187.714 332.819 187.85C330.524 188.062 328.211 187.929 325.955 187.457C323.633 186.971 321.375 186.215 319.228 185.206C317.007 184.167 314.885 182.93 312.886 181.511C310.87 180.084 308.961 178.511 307.174 176.805C306.7 176.352 306.234 175.892 305.776 175.423C305.319 174.954 304.87 174.477 304.43 173.992C303.989 173.507 303.558 173.015 303.137 172.516C302.716 172.016 302.304 171.508 301.9 170.993Z" fill="#F2F2F2"/>
<path d="M338.79 137.135C337.372 136.399 336.008 135.563 334.71 134.632C332.116 132.773 329.799 130.555 327.827 128.046C326.85 126.801 325.964 125.486 325.178 124.112C324.522 122.951 323.94 121.75 323.435 120.516C322.941 119.313 322.527 118.078 322.193 116.821C321.867 115.592 321.625 114.344 321.467 113.083C321.311 111.848 321.243 110.604 321.263 109.359C321.265 109.289 321.266 109.219 321.268 109.15C321.269 109.081 321.271 109.011 321.273 108.941C321.274 108.871 321.277 108.801 321.281 108.733L321.291 108.526C321.231 108.573 321.172 108.62 321.113 108.668L320.935 108.813L320.759 108.958L320.583 109.104L320.47 109.198L320.356 109.292L320.243 109.387L320.132 109.482L320.286 109.301L320.444 109.114C320.496 109.054 320.548 108.994 320.6 108.935C320.653 108.875 320.706 108.816 320.76 108.758L320.888 108.688L321.015 108.619L321.138 108.55L321.264 108.482L321.272 108.479L321.28 108.475L321.288 108.471L321.296 108.468L321.346 108.441L321.397 108.413L321.446 108.385L321.494 108.357L321.713 108.239L321.932 108.123L322.15 108.008L322.368 107.892L322.198 107.807L321.782 107.6L321.785 107.599C321.821 107.614 321.856 107.63 321.891 107.647C321.926 107.664 321.962 107.68 321.997 107.696C322.033 107.713 322.068 107.729 322.103 107.746C322.137 107.762 322.172 107.779 322.208 107.796L322.248 107.814L322.288 107.831L322.33 107.849C322.343 107.854 322.356 107.86 322.369 107.868L322.365 107.934L322.36 107.996L322.357 108.057L322.354 108.119C322.2 110.216 322.31 112.323 322.679 114.392C323.058 116.522 323.681 118.601 324.535 120.589C325.418 122.647 326.521 124.602 327.826 126.422C329.174 128.304 330.718 130.037 332.433 131.592C334.159 133.135 336.042 134.494 338.051 135.646C339.043 136.214 340.065 136.73 341.112 137.19C342.15 137.646 343.212 138.045 344.293 138.386C344.245 138.456 344.197 138.526 344.147 138.595C344.097 138.665 344.047 138.733 343.997 138.801C343.945 138.869 343.894 138.937 343.842 139.005C343.789 139.072 343.737 139.139 343.683 139.206C343.266 139.068 342.851 138.921 342.439 138.765C342.026 138.609 341.616 138.445 341.207 138.272C340.799 138.099 340.393 137.918 339.991 137.728C339.588 137.538 339.187 137.341 338.79 137.135Z" fill="white"/>
<path d="M310.719 152.802C310.255 152.109 309.817 151.403 309.405 150.684C308.992 149.965 308.607 149.236 308.249 148.497C307.891 147.758 307.56 147.009 307.257 146.252C306.953 145.494 306.678 144.729 306.432 143.958C306.306 143.549 306.19 143.139 306.084 142.727C305.978 142.315 305.881 141.903 305.795 141.49C305.709 141.077 305.632 140.662 305.565 140.247C305.499 139.832 305.442 139.418 305.396 139.003C305.373 138.81 305.352 138.617 305.333 138.423C305.315 138.229 305.298 138.036 305.283 137.842C305.269 137.648 305.257 137.455 305.247 137.262C305.237 137.068 305.229 136.875 305.223 136.683C305.315 136.388 305.409 136.095 305.505 135.802C305.601 135.51 305.699 135.219 305.798 134.929C305.897 134.64 305.997 134.351 306.1 134.064C306.202 133.777 306.306 133.491 306.412 133.206C306.389 133.444 306.369 133.684 306.353 133.924C306.337 134.164 306.324 134.405 306.314 134.646C306.304 134.888 306.298 135.13 306.295 135.372C306.292 135.615 306.293 135.858 306.297 136.102C306.296 136.235 306.297 136.367 306.3 136.5C306.303 136.633 306.306 136.765 306.311 136.898C306.316 137.031 306.321 137.164 306.328 137.297C306.335 137.429 306.343 137.562 306.352 137.695C306.454 139.185 306.688 140.662 307.05 142.111C307.418 143.577 307.897 145.013 308.483 146.406C309.081 147.825 309.77 149.205 310.547 150.535C311.337 151.888 312.201 153.197 313.134 154.456C314.139 155.815 315.201 157.138 316.321 158.425C317.44 159.712 318.602 160.964 319.806 162.181C321.012 163.397 322.253 164.575 323.529 165.715C324.805 166.856 326.103 167.957 327.422 169.018C328.772 170.108 330.15 171.157 331.555 172.164C332.96 173.171 334.389 174.134 335.839 175.053C337.29 175.971 338.762 176.845 340.256 177.674C341.75 178.503 343.261 179.285 344.789 180.019C344.859 180.053 344.922 180.1 344.976 180.157C345.028 180.213 345.07 180.277 345.101 180.348C345.131 180.417 345.149 180.491 345.153 180.566C345.158 180.642 345.148 180.718 345.124 180.79C345.116 180.821 345.105 180.852 345.091 180.881C345.078 180.909 345.061 180.935 345.042 180.96C345.024 180.985 345.002 181.007 344.979 181.028C344.956 181.048 344.93 181.065 344.903 181.08C344.874 181.093 344.844 181.102 344.813 181.108C344.782 181.113 344.75 181.115 344.719 181.113C344.687 181.11 344.655 181.105 344.624 181.095C344.592 181.085 344.562 181.072 344.533 181.056C344.344 180.965 344.155 180.874 343.966 180.783C343.778 180.692 343.59 180.6 343.402 180.508C343.214 180.415 343.026 180.322 342.839 180.228C342.651 180.134 342.464 180.038 342.277 179.941C340.72 179.141 339.183 178.293 337.668 177.398C336.152 176.502 334.659 175.559 333.189 174.57C331.72 173.581 330.277 172.548 328.86 171.47C327.444 170.392 326.057 169.271 324.7 168.108C323.39 166.988 322.096 165.829 320.833 164.632C319.57 163.435 318.339 162.199 317.154 160.923C315.969 159.648 314.831 158.334 313.752 156.98C312.674 155.626 311.659 154.234 310.719 152.802Z" fill="white"/>
<path d="M340.055 41.5261L338.939 41.671L346.418 13.6012C346.969 11.7269 347.059 9.74712 346.68 7.83064C346.351 6.2647 345.537 4.84214 344.354 3.76483C343.115 2.68767 341.596 1.98286 339.973 1.73174C337.997 1.42568 335.979 1.51601 334.038 1.99748L283.21 13.5729C281.436 14.0033 279.738 14.7019 278.174 15.6444C276.474 16.6555 274.893 17.8545 273.46 19.2188C271.986 20.6099 270.663 22.1527 269.513 23.8215C268.39 25.4367 267.474 27.1869 266.787 29.0307L213.606 175.306C212.721 177.711 212.147 180.219 211.896 182.769C211.663 185.033 211.773 187.32 212.222 189.551C212.597 191.49 213.379 193.327 214.517 194.94C215.561 196.407 217.032 197.516 218.73 198.117L272.433 216.605C274.819 217.417 277.38 217.57 279.845 217.046C282.48 216.472 284.959 215.331 287.108 213.702C289.522 211.888 291.597 209.664 293.24 207.131C295.059 204.348 296.418 201.29 297.265 198.074L333.27 62.9461L334.399 62.8555L340.055 41.5261Z" fill="#2F2E41"/>
<path d="M336.169 39.9719L335.054 40.1168L342.533 12.047C343.084 10.1727 343.174 8.19292 342.794 6.27644C342.465 4.7105 341.651 3.28794 340.468 2.21063C339.229 1.13347 337.71 0.428662 336.088 0.177539C334.111 -0.128522 332.094 -0.0381895 330.153 0.443279L279.324 12.0187C277.55 12.4491 275.852 13.1477 274.289 14.0902C272.588 15.1013 271.007 16.3003 269.574 17.6646C268.101 19.0557 266.778 20.5985 265.628 22.2673C264.504 23.8825 263.588 25.6327 262.902 27.4765L209.72 173.752C208.836 176.157 208.261 178.665 208.01 181.215C207.778 183.479 207.888 185.765 208.336 187.997C208.711 189.935 209.493 191.772 210.632 193.386C211.676 194.853 213.147 195.962 214.844 196.563L268.548 215.051C270.933 215.863 273.494 216.016 275.959 215.492C278.595 214.918 281.073 213.777 283.223 212.148C285.636 210.334 287.712 208.11 289.354 205.577C291.173 202.793 292.532 199.735 293.379 196.52L329.384 61.3919L330.514 61.3013L336.169 39.9719Z" fill="#3F3D56"/>
<path d="M329.704 4.10568L322.232 5.74249C322.314 6.38892 322.249 7.04543 322.044 7.66369C321.811 8.38686 321.473 9.07197 321.042 9.69717C320.07 11.1165 318.773 12.2832 317.26 13.1002C317.079 13.1965 316.898 13.2855 316.718 13.3671C316.538 13.4487 316.358 13.5227 316.178 13.5893C315.999 13.6559 315.821 13.7147 315.644 13.7657C315.467 13.8167 315.292 13.8597 315.119 13.8947L285.907 19.8098C285.365 19.9358 284.8 19.9294 284.261 19.7912C283.827 19.6747 283.445 19.4169 283.174 19.0584C282.9 18.6736 282.746 18.217 282.73 17.7452C282.707 17.1435 282.803 16.5432 283.01 15.9779C283.062 15.8253 283.121 15.6717 283.187 15.5171C283.253 15.3625 283.326 15.2079 283.404 15.0532C283.482 14.8978 283.566 14.7432 283.658 14.5893C283.75 14.4355 283.847 14.2818 283.949 14.1282L278.418 15.34C277.086 15.6524 275.81 16.1687 274.636 16.8707C273.352 17.6267 272.159 18.5261 271.078 19.5515C269.965 20.599 268.966 21.7624 268.098 23.0217C267.253 24.2386 266.565 25.5581 266.053 26.9484L212.971 174.495C212.311 176.308 211.887 178.198 211.71 180.12C211.546 181.816 211.643 183.527 211.996 185.194C212.29 186.634 212.892 187.995 213.759 189.182C214.554 190.259 215.662 191.065 216.932 191.488L271.03 209.064C272.815 209.636 274.721 209.721 276.55 209.311C278.498 208.865 280.327 208.007 281.915 206.794C283.691 205.449 285.22 203.806 286.434 201.938C287.778 199.886 288.786 197.633 289.421 195.264L338.85 12.8632C339.265 11.4708 339.342 9.99964 339.074 8.57165C338.842 7.40142 338.25 6.3329 337.381 5.51521C336.471 4.69769 335.347 4.15588 334.14 3.95299C332.666 3.70546 331.157 3.75739 329.704 4.10568Z" fill="white"/>
<path d="M300.691 73.9857H193.074V37.5176H300.691V73.9857Z" fill="white"/>
<path d="M269.229 86.8569H163.757V137.984H269.229V86.8569Z" fill="white"/>
<path d="M180.891 111.408C185.105 111.408 188.521 107.992 188.521 103.779C188.521 99.5651 185.105 96.1494 180.891 96.1494C176.678 96.1494 173.262 99.5651 173.262 103.779C173.262 107.992 176.678 111.408 180.891 111.408Z" fill="#03A093"/>
<path d="M198.511 98.6924C198.173 98.6924 197.85 98.8264 197.612 99.0648C197.373 99.3033 197.239 99.6267 197.239 99.9639C197.239 100.301 197.373 100.625 197.612 100.863C197.85 101.101 198.173 101.235 198.511 101.235H258.454C258.791 101.235 259.113 101.1 259.351 100.862C259.589 100.624 259.722 100.301 259.722 99.9639C259.722 99.6272 259.589 99.3043 259.351 99.0659C259.113 98.8275 258.791 98.6932 258.454 98.6924H198.511Z" fill="#E6E6E6"/>
<path d="M198.511 106.322C198.344 106.321 198.178 106.354 198.024 106.417C197.869 106.481 197.729 106.574 197.61 106.692C197.492 106.81 197.398 106.95 197.333 107.104C197.269 107.258 197.236 107.424 197.235 107.591C197.235 107.758 197.268 107.923 197.331 108.078C197.395 108.232 197.488 108.373 197.606 108.491C197.724 108.609 197.865 108.703 198.019 108.767C198.173 108.832 198.339 108.865 198.506 108.865H224.305C224.472 108.865 224.637 108.832 224.792 108.768C224.946 108.704 225.086 108.61 225.204 108.492C225.322 108.374 225.416 108.234 225.48 108.08C225.544 107.926 225.577 107.76 225.577 107.593C225.577 107.426 225.544 107.261 225.48 107.107C225.416 106.952 225.322 106.812 225.204 106.694C225.086 106.576 224.946 106.482 224.792 106.419C224.637 106.355 224.472 106.322 224.305 106.322H198.511Z" fill="#E6E6E6"/>
<path d="M175.039 118.519C174.072 118.519 173.285 119.089 173.285 119.79C173.285 120.491 174.072 121.062 175.039 121.062H257.743C258.71 121.062 259.497 120.491 259.497 119.79C259.497 119.089 258.71 118.519 257.743 118.519H175.039Z" fill="#E6E6E6"/>
<path d="M175.039 126.147C174.072 126.147 173.285 126.718 173.285 127.419C173.285 128.12 174.072 128.69 175.039 128.69H238.705C239.673 128.69 240.46 128.12 240.46 127.419C240.46 126.718 239.673 126.147 238.705 126.147H175.039Z" fill="#E6E6E6"/>
<path d="M270.301 139.056H162.685V85.7842H270.301V139.056ZM164.83 136.911H268.156V87.9294H164.83V136.911Z" fill="#E6E6E6"/>
<path d="M211.281 63.1411C215.495 63.1411 218.911 59.7254 218.911 55.512C218.911 51.2985 215.495 47.8828 211.281 47.8828C207.068 47.8828 203.652 51.2985 203.652 55.512C203.652 59.7254 207.068 63.1411 211.281 63.1411Z" fill="#03A093"/>
<path d="M228.901 50.4258C228.564 50.4258 228.241 50.5597 228.002 50.7982C227.764 51.0367 227.63 51.3601 227.63 51.6973C227.63 52.0345 227.764 52.358 228.002 52.5964C228.241 52.8349 228.564 52.9688 228.901 52.9688H288.845C289.181 52.968 289.504 52.8337 289.742 52.5953C289.979 52.3569 290.113 52.034 290.113 51.6973C290.113 51.3606 289.979 51.0377 289.742 50.7993C289.504 50.561 289.181 50.4266 288.845 50.4258H228.901Z" fill="#E6E6E6"/>
<path d="M228.901 58.0552C228.734 58.0546 228.569 58.087 228.414 58.1505C228.259 58.214 228.119 58.3073 228 58.4251C227.882 58.543 227.788 58.683 227.723 58.8373C227.659 58.9915 227.626 59.1569 227.625 59.324C227.625 59.4911 227.658 59.6567 227.721 59.8112C227.785 59.9657 227.878 60.1062 227.996 60.2245C228.114 60.3428 228.255 60.4368 228.409 60.5009C228.563 60.565 228.729 60.5981 228.896 60.5982H276.063C276.401 60.5982 276.724 60.4643 276.962 60.2258C277.201 59.9874 277.335 59.6639 277.335 59.3267C277.335 58.9895 277.201 58.6661 276.962 58.4276C276.724 58.1892 276.401 58.0552 276.063 58.0552H228.901Z" fill="#E6E6E6"/>
<path d="M300.691 73.9857H193.074V37.5176H300.691V73.9857ZM195.219 71.8405H298.546V39.6628H195.219V71.8405Z" fill="#E6E6E6"/>
<path d="M341.523 100.026C341.834 100.014 342.145 100.067 342.435 100.181C342.71 100.292 342.96 100.458 343.168 100.669C343.377 100.882 343.54 101.135 343.647 101.413C343.76 101.708 343.812 102.023 343.799 102.339C343.786 102.662 343.711 102.981 343.577 103.276C343.446 103.565 343.264 103.828 343.039 104.053C342.816 104.276 342.554 104.457 342.266 104.586C341.974 104.717 341.658 104.789 341.338 104.798C341.026 104.807 340.716 104.752 340.427 104.634C340.153 104.522 339.905 104.355 339.698 104.143C339.491 103.93 339.33 103.676 339.224 103.398C339.113 103.105 339.063 102.791 339.076 102.477C339.089 102.155 339.164 101.838 339.298 101.545C339.428 101.258 339.608 100.997 339.831 100.775C340.052 100.552 340.312 100.371 340.598 100.241C340.889 100.11 341.203 100.036 341.523 100.026Z" fill="#F2F2F2"/>
</svg>
