<svg width="49" height="49" viewBox="0 0 49 49" fill="none" xmlns="http://www.w3.org/2000/svg">
<path d="M24.5 49C37.9029 49 49.0002 37.9029 49.0002 24.5C49.0002 11.1211 37.8789 0 24.476 0C11.097 0 0 11.1211 0 24.5C0 37.9029 11.1211 49 24.5 49ZM21.2093 36.822C20.3926 36.822 19.7441 36.4618 19.0716 35.6451L12.1299 27.0941C11.7696 26.6377 11.5534 26.0613 11.5534 25.5328C11.5534 24.4039 12.4422 23.5392 13.5231 23.5392C14.1956 23.5392 14.7961 23.8034 15.3485 24.5481L21.0892 31.9701L32.2583 14.0755C32.7147 13.3309 33.3392 12.9706 33.9877 12.9706C35.0446 12.9706 36.0534 13.6672 36.0534 14.8201C36.0534 15.3485 35.7412 15.925 35.4529 16.4054L23.2269 35.6451C22.6985 36.4378 22.026 36.822 21.2093 36.822Z" fill="url(#paint0_linear_3_2216)"/>
<defs>
<linearGradient id="paint0_linear_3_2216" x1="24.5001" y1="0" x2="24.5001" y2="49" gradientUnits="userSpaceOnUse">
<stop stop-color="#03A093"/>
<stop offset="1" stop-color="#01D268"/>
</linearGradient>
</defs>
</svg>
