<svg width="124" height="100" viewBox="0 0 124 100" fill="none" xmlns="http://www.w3.org/2000/svg">
<path d="M28.2979 50.1948C26.7369 50.0898 26.0098 50.3937 25.5403 50.7032C25.3896 50.8025 25.2409 50.9189 25.1003 51.0446C25.8099 49.605 26.5367 48.1718 27.2773 46.7487C27.2821 46.9397 27.316 47.0304 27.4 47.0757C27.592 47.1794 28.04 46.8475 28.9283 46.1795C29.6034 45.6718 29.6897 45.5431 29.7399 45.4549C29.9164 45.1448 29.9014 44.8893 29.7926 43.7753C29.5973 41.7759 29.547 41.5882 29.6417 41.1161C29.6743 40.9535 29.7632 40.5617 29.7001 40.5393C29.6352 40.5162 29.5343 40.9272 29.1751 41.1953C28.8251 41.4566 28.5787 41.3217 28.2606 41.4899C27.8494 41.7074 27.7362 42.2104 27.566 43.0201C27.4152 43.7371 27.4537 43.9907 27.3638 45.3416C27.3384 45.7243 27.3142 46.022 27.2977 46.2564C26.6346 47.5244 25.9839 48.8015 25.345 50.0837C25.3536 50.0485 25.3617 50.0153 25.3688 49.9865C25.5665 49.1759 25.5006 48.8018 25.4012 48.5391C25.2403 48.1133 24.9203 47.8585 24.287 47.366C23.6664 46.8835 23.1415 46.6057 22.5107 46.2757C21.6838 45.8432 21.2703 45.6269 21.1582 45.6901C20.8765 45.8488 20.9184 46.6807 21.1537 47.7215C20.6182 47.4452 20.3338 47.3158 20.2438 47.3665C20.2051 47.3883 20.1726 47.4233 20.1458 47.4693C19.7455 47.4496 19.2148 47.4724 18.6077 47.552C19.0867 47.3787 19.6251 47.1503 20.205 46.8386C20.7077 46.5685 20.9586 46.4311 20.9345 46.3176C20.8484 45.9112 17.4158 45.9194 14.4732 47.4639C13.0879 48.1911 12.6272 48.8304 12.3889 49.3398C12.3124 49.5034 12.2465 49.6804 12.1925 49.8612C12.0442 48.263 11.9139 46.6612 11.8006 45.0608C11.9047 45.2212 11.981 45.2807 12.0763 45.2754C12.2942 45.2633 12.5024 44.7461 12.91 43.7122C13.2198 42.9263 13.226 42.7715 13.2226 42.6701C13.2109 42.3135 13.0644 42.1035 12.3889 41.2111C11.1766 39.6092 11.0355 39.4755 10.8692 39.0236C10.812 38.868 10.6829 38.4876 10.6173 38.5015C10.5499 38.5157 10.6789 38.9188 10.5131 39.3352C10.3514 39.741 10.0709 39.7549 9.88778 40.0647C9.65108 40.4651 9.81776 40.9531 10.0962 41.7321C10.3428 42.4221 10.5083 42.6181 11.1384 43.8164C11.3168 44.1559 11.452 44.4223 11.5606 44.6307C11.6587 46.0581 11.7722 47.487 11.8984 48.9139C11.8874 48.8794 11.8769 48.847 11.8679 48.8187C11.6124 48.0245 11.3605 47.7401 11.1384 47.5681C10.7785 47.2896 10.3725 47.2397 9.57513 47.1513C8.7938 47.0647 8.20108 47.1025 7.49084 47.1513C6.55985 47.2152 6.09434 47.2472 6.03183 47.3597C5.86024 47.6685 6.44009 48.4607 7.30655 49.3082C6.59923 49.3583 6.23867 49.3952 6.18422 49.4932C6.04184 49.7495 6.41783 50.3391 7.04428 51.0163C6.60884 51.0537 6.37916 51.093 6.33661 51.1696C5.85861 52.0299 11.1997 56.6392 12.3811 55.755C12.4708 55.6879 12.5343 55.5893 12.5781 55.4691C12.5974 55.6317 12.6172 55.7943 12.6369 55.957C11.2413 55.7999 8.56041 56.2205 6.96976 57.8854C6.17902 58.7131 6.05984 59.4275 6.03183 59.6571C5.90755 60.675 6.40293 61.7584 6.81392 61.838C6.93526 62.5959 7.31548 63.2226 7.62752 63.2171C8.01876 63.2103 7.94953 62.2163 8.8781 61.1328C9.52603 60.3768 10.2965 60.0011 10.754 59.778C11.7365 59.2989 12.3074 59.313 13.0151 58.9228C13.0293 59.0279 13.0445 59.133 13.0588 59.2381C11.7624 59.4556 10.2819 60.0116 9.25569 61.0857C8.46494 61.9133 8.34576 62.6278 8.31775 62.8574C8.24119 63.4845 8.40049 64.1357 8.62975 64.5633C8.00608 65.2184 7.83366 65.9024 7.49084 67.2648C7.27182 68.1351 7.31966 68.444 7.49084 68.6195C7.6324 68.7648 7.85605 68.8165 8.74142 68.7238C9.70184 68.6231 10.1821 68.5728 10.6173 68.4111C11.3057 68.1554 11.7804 67.7161 12.7016 66.8479C13.0804 66.4909 13.4007 66.1876 13.6618 65.9231C13.7976 65.9694 13.9251 66.0047 14.0539 66.0301C14.0689 66.0331 14.0836 66.0352 14.0985 66.038C14.336 67.4458 14.5871 68.8495 14.8512 70.2473C13.9919 70.4391 13.2578 71.0047 12.8544 71.8187L9.66644 78.2501C9.46518 78.656 9.35878 79.1101 9.35878 79.5633V96.101C9.35878 97.7316 10.6853 99.0582 12.3159 99.0582H19.757C21.3876 99.0582 22.7141 97.7316 22.7141 96.101V80.873C22.7141 80.5018 22.6453 80.1383 22.5097 79.7926L19.4714 72.0516C19.0321 70.9323 17.9823 70.2036 16.7853 70.1773C17.4059 68.5399 18.0463 66.9044 18.709 65.2756C18.8111 65.236 18.9015 65.1948 18.98 65.1512C19.1023 65.2853 19.3528 65.4416 19.8841 65.6957C20.7552 66.1124 21.1908 66.3207 21.6463 66.4105C22.3669 66.5527 23.0012 66.4266 24.2404 66.1686C25.9266 65.8175 26.7733 65.632 26.9497 65.1414C27.1938 64.4624 26.4282 63.5877 26.2171 63.3466C25.7585 62.8226 25.2522 62.5837 24.9394 62.4401C24.5332 62.2535 23.3754 61.7217 21.9759 62.0885C21.095 62.3193 20.5905 62.8122 19.5815 63.798C19.4843 63.893 19.4004 63.9793 19.3259 64.0597C19.3092 64.0115 19.2902 63.9638 19.2695 63.9165C19.411 63.5753 19.5525 63.2342 19.6957 62.8937C20.7304 61.9121 21.2396 61.3717 21.143 60.9076C21.0976 60.6899 20.9604 60.5067 20.7838 60.3544C20.9801 59.9037 21.1768 59.4534 21.3758 59.0045C21.4674 59.0024 21.5618 58.998 21.6635 58.9885C22.1967 58.9382 22.8003 58.8813 22.8647 58.6252C22.8988 58.4898 22.7815 58.2917 22.551 58.0687C22.8841 57.9758 23.3914 57.2978 24.5302 56.9309C25.4779 56.6255 26.3311 56.7083 26.8376 56.7575C28.1448 56.8845 28.5713 57.3088 29.7466 57.1979C30.2798 57.1477 30.8834 57.0908 30.9478 56.8347C30.9767 56.7197 30.8959 56.5595 30.7305 56.3774C31.0267 56.4183 31.3436 56.4507 31.6813 56.4701C32.2511 56.5028 32.5368 56.517 32.5756 56.4076C32.7148 56.0163 29.785 54.2276 26.4692 54.0046C25.6642 53.9505 25.0821 54.0055 24.6416 54.1135C25.7014 53.718 27.2788 53.1164 29.0105 53.6034C29.6067 53.771 30.8131 54.2342 32.5957 54.3366C33.1654 54.3693 33.4511 54.3835 33.49 54.2741C33.6291 53.8829 30.7018 52.0957 27.3877 51.8714C28.1569 51.716 29.0197 51.6725 29.9249 51.927C30.521 52.0947 31.7275 52.5578 33.5101 52.6602C34.0798 52.693 34.3655 52.7071 34.4044 52.5978C34.5435 52.2064 31.6137 50.4177 28.298 50.1948L28.2979 50.1948ZM12.9804 57.0473C13.0253 57.012 13.0693 56.9766 13.1117 56.9413C13.1878 57.053 13.2681 57.139 13.3485 57.1933C13.357 57.2382 13.3662 57.2824 13.3765 57.326C13.2633 57.3139 13.142 57.3056 13.0136 57.3014C13.0027 57.2167 12.9911 57.1319 12.9804 57.0473L12.9804 57.0473ZM19.5291 51.1831C19.5421 51.2573 19.5561 51.3329 19.5715 51.4103C19.4299 51.3832 19.2676 51.3639 19.0902 51.3524C19.2317 51.3009 19.3778 51.245 19.5291 51.1831ZM19.8665 52.5851C19.7578 52.5741 19.6414 52.5669 19.5191 52.5631C19.6147 52.4903 19.7093 52.4164 19.7969 52.3428C19.8193 52.4231 19.8425 52.5038 19.8665 52.5851ZM17.3577 54.9999C18.4799 54.4729 19.061 54.5852 19.9809 53.8938C20.0665 53.8295 20.1543 53.7634 20.2395 53.6969C20.5448 54.5109 20.9101 55.2873 21.2865 55.8501C20.2325 55.318 18.7845 54.8855 17.3577 54.9999ZM20.059 48.2861C20.0928 48.7303 20.2018 49.2948 20.364 49.9016C20.3548 49.9015 20.3457 49.9014 20.3363 49.9014C19.9336 49.6988 19.7118 49.6087 19.6342 49.6524C19.5535 49.6979 19.4994 49.7988 19.4687 49.9441C18.2032 50.0646 16.4974 50.4513 14.9304 51.2738C13.545 52.001 13.0843 52.6403 12.8461 53.1497C12.7446 53.3668 12.6616 53.6075 12.6006 53.8494C12.5694 53.5689 12.5372 53.2889 12.507 53.0079C13.1881 52.7429 14.2177 50.1836 16.766 49.4608C17.3431 49.2971 18.5542 49.0684 20.059 48.2861H20.059ZM12.6457 57.3C12.6644 57.2864 12.6825 57.2745 12.7016 57.2601C12.7306 57.2383 12.76 57.2162 12.7894 57.194C12.7938 57.2287 12.7985 57.2634 12.803 57.2981C12.7513 57.2982 12.6991 57.2987 12.6457 57.3H12.6457ZM13.2101 58.8064C13.2923 58.754 13.376 58.6975 13.4636 58.6317C13.5954 58.5326 13.7324 58.4295 13.8569 58.3269C13.9532 58.424 14.052 58.4809 14.1449 58.4793C14.1812 58.4787 14.2126 58.4669 14.2422 58.4499C14.1623 58.6889 14.1153 58.923 14.1003 59.1311C13.8381 59.1403 13.5577 59.1639 13.2647 59.2057C13.2465 59.0726 13.228 58.9395 13.2101 58.8064ZM16.5634 70.1748H15.5038C15.3521 70.1748 15.2027 70.187 15.056 70.2091C14.7963 68.8346 14.5494 67.4545 14.3154 66.0704C14.9385 66.1394 15.5602 66.0147 16.648 65.7882C17.4188 65.6277 18.0122 65.5017 18.4483 65.3654C17.7995 66.9639 17.1716 68.5683 16.5634 70.1748ZM19.044 63.5077C19.1311 63.4265 19.2234 63.3397 19.3195 63.2491C19.2608 63.3897 19.2036 63.5308 19.1451 63.6715C19.1125 63.6149 19.0786 63.5604 19.044 63.5077ZM19.5798 59.7613C18.9147 59.5547 18.3583 59.6159 18.0165 59.6571C17.588 59.7087 16.3949 59.8551 15.4122 60.8051C15.0841 60.7965 14.7128 60.8146 14.317 60.8643C14.5277 60.7677 14.7458 60.6421 14.9875 60.4604C15.4156 60.1387 15.9003 59.7744 15.8212 59.5225C15.7847 59.4061 15.6243 59.3096 15.3762 59.2405C15.6556 59.0554 16.0027 58.8646 16.4471 58.7214C17.3948 58.416 18.248 58.4988 18.7545 58.548C19.8511 58.6545 20.3293 58.9691 21.1483 59.0027C20.9683 59.4091 20.7906 59.8169 20.6129 60.2248C20.2327 59.9653 19.7627 59.8181 19.5798 59.7613H19.5798ZM21.9911 57.6293C21.9983 57.6133 22.0053 57.5973 22.0125 57.5813C22.0692 57.5747 22.1252 57.5676 22.1798 57.5598C22.1837 57.642 22.1943 57.7164 22.2107 57.7826C22.1424 57.7319 22.0682 57.6806 21.9911 57.6293ZM23.7115 54.513C23.7065 54.5164 23.7015 54.5202 23.6964 54.5236C23.7085 54.4801 23.7199 54.4383 23.7308 54.3973C23.8242 54.3844 23.931 54.3581 24.05 54.3217C23.9224 54.3828 23.8107 54.4477 23.7115 54.513Z" fill="#F2F2F2"/>
<path d="M37.4371 97.6637L39.7614 97.6635L40.8671 88.6981L37.4366 88.6983L37.4371 97.6637Z" fill="#FFB6B6"/>
<path d="M45.4005 97.611C45.4728 97.7329 45.511 98.1263 45.511 98.268C45.511 98.7037 45.1578 99.0569 44.7221 99.0569H37.5239C37.2267 99.0569 36.9858 98.816 36.9858 98.5187V98.2191C36.9858 98.2191 36.6297 97.3183 37.3628 96.2082C37.3628 96.2082 38.274 97.0775 39.6355 95.7159L40.037 94.9886L42.9433 97.1141L44.5542 97.3124C44.9067 97.3558 45.2191 97.3057 45.4004 97.611H45.4005H45.4005Z" fill="#2F2E41"/>
<path d="M50.2379 97.6637L52.5622 97.6635L53.6679 88.6981L50.2374 88.6983L50.2379 97.6637Z" fill="#FFB6B6"/>
<path d="M58.2015 97.611C58.2739 97.7329 58.312 98.1263 58.312 98.268C58.312 98.7037 57.9589 99.0569 57.5232 99.0569H50.325C50.0277 99.0569 49.7868 98.816 49.7868 98.5187V98.2191C49.7868 98.2191 49.4307 97.3183 50.1638 96.2082C50.1638 96.2082 51.075 97.0775 52.4365 95.7159L52.838 94.9886L55.7443 97.1141L57.3553 97.3124C57.7077 97.3558 58.0202 97.3057 58.2015 97.611H58.2015H58.2015Z" fill="#2F2E41"/>
<path d="M49.3044 26.2956C49.3044 26.2956 51.9816 25.0764 53.6909 26.2956C55.4002 27.5147 56.9242 38.4871 55.0954 40.3159C53.2667 42.1446 50.2188 38.03 50.2188 38.03L49.3044 26.2956Z" fill="#FFB6B6"/>
<path d="M39.1866 26.4405C39.1866 26.4405 36.5095 25.2214 34.8002 26.4405C33.0908 27.6597 31.5669 38.6321 33.3956 40.4608C35.2243 42.2896 38.2722 38.1749 38.2722 38.1749L39.1866 26.4405Z" fill="#FFB6B6"/>
<path d="M39.2627 39.9272C39.2627 39.9272 38.3484 44.0419 37.2816 45.8706L45.0537 50.4425L51.1495 46.4802C51.1495 46.4802 48.254 41.756 48.7112 40.3844L39.2627 39.9272Z" fill="#FFB6B6"/>
<path d="M92.2157 97.2063L89.2307 97.206L87.8108 85.6926L92.2163 85.6929L92.2157 97.2063Z" fill="#FFB6B6"/>
<path d="M81.989 97.1388C81.8961 97.2953 81.847 97.8005 81.847 97.9825C81.847 98.5421 82.3006 98.9956 82.8601 98.9956H92.1041C92.4858 98.9956 92.7952 98.6862 92.7952 98.3045V97.9196C92.7952 97.9196 93.2525 96.763 92.3111 95.3373C92.3111 95.3373 91.1409 96.4536 89.3924 94.7051L88.8768 93.7711L85.1445 96.5007L83.0758 96.7553C82.6232 96.811 82.2219 96.7467 81.9891 97.1388H81.989Z" fill="#2F2E41"/>
<path d="M101.442 97.2063L98.4575 97.206L97.0376 85.6926L101.443 85.6929L101.442 97.2063Z" fill="#FFB6B6"/>
<path d="M91.2158 97.1388C91.1229 97.2953 91.0739 97.8005 91.0739 97.9825C91.0739 98.5421 91.5274 98.9956 92.0869 98.9956H101.331C101.713 98.9956 102.022 98.6862 102.022 98.3045V97.9196C102.022 97.9196 102.479 96.763 101.538 95.3373C101.538 95.3373 100.368 96.4536 98.6192 94.7051L98.1036 93.7711L94.3713 96.5007L92.3026 96.7553C91.85 96.811 91.4487 96.7467 91.2159 97.1388H91.2158Z" fill="#2F2E41"/>
<path d="M86.0063 30.7889C86.0063 30.7889 85.574 33.5716 86.0746 35.3672L78.7228 48.4041L81.5826 50.4885L91.1333 38.4721L92.4568 32.535L86.0063 30.7889Z" fill="#FFB6B6"/>
<path d="M81.1438 52.3847C82.1569 50.5881 82.0787 48.6244 80.969 47.9987C79.8594 47.3729 78.1385 48.322 77.1254 50.1186C76.1122 51.9152 76.1905 53.8789 77.3001 54.5047C78.4098 55.1305 80.1306 54.1813 81.1438 52.3847Z" fill="#FFB6B6"/>
<path d="M88.874 44.0529C88.874 44.0529 85.3591 46.5334 86.5673 50.236L85.5787 62.7259L87.7756 88.4289H92.5074L93.2677 69.9755L96.3432 58.3323L96.7419 88.4289L102.604 88.319C102.604 88.319 102.934 73.2707 102.494 72.392C102.055 71.5133 102.494 72.2182 102.494 72.2182L106.119 54.5951L105.57 42.5151L88.874 44.0529Z" fill="#2F2E41"/>
<path d="M97.5515 13.407L91.1807 15.8235L91.8398 17.581L86.5674 21.5353L90.0823 33.8375L88.1052 44.8217L93.8169 44.602L106.119 43.5036L104.801 30.1029L105.021 17.1416L100.188 15.3841L97.5515 13.407Z" fill="#069E95"/>
<path d="M88.215 21.2056L86.5674 21.5352C86.5674 21.5352 85.7985 22.0844 85.7985 24.0615C85.7985 26.0387 85.7985 27.3568 86.0182 28.4552C86.0182 28.4552 84.7001 31.9701 85.1395 32.8488C85.5788 33.7276 91.0709 33.7276 91.0709 33.7276L88.215 21.2056V21.2056Z" fill="#069E95"/>
<path d="M97.2938 8.30932C97.2938 11.075 95.0518 13.3171 92.2861 13.3171C89.5204 13.3171 87.2783 11.075 87.2783 8.30932C87.2783 5.54362 89.5204 3.30157 92.2861 3.30157C95.0518 3.30157 97.2938 5.54362 97.2938 8.30932Z" fill="#FFB6B6"/>
<path d="M95.4156 11.7963C95.4156 11.7963 96.3028 8.38799 95.3575 8.98898L93.8904 8.84957L94.8167 6.3717C94.8167 6.3717 93.1584 5.12856 92.4972 5.85523C91.8361 6.5819 91.9945 6.99171 91.3935 6.04641C90.7925 5.10111 89.5367 5.11898 88.3865 5.79918C87.2363 6.47938 86.3375 6.59135 86.5561 5.32918C86.7748 4.06701 86.6522 1.9223 87.335 2.16553C88.0179 2.40876 87.8307 2.54605 88.1989 1.66465C88.5671 0.783254 88.6136 0.29423 89.466 0.671291C90.3183 1.04835 92.4603 -0.721862 93.3454 0.349126C94.2305 1.42011 95.0036 1.59227 95.7768 1.76443C96.5499 1.93659 99.6562 1.44226 99.3964 6.25328C99.3964 6.25328 101.47 10.3978 97.7351 12.3127C97.7351 12.3127 96.7215 11.3125 96.0139 12.5282L95.4156 11.7963H95.4156Z" fill="#2F2E41"/>
<path d="M47.3397 22.5544L42.4631 22.7068L39.8724 25.9071L36.9769 26.5167C36.9769 26.5167 36.0625 35.0508 37.4341 38.0987C38.8056 41.1466 38.1961 42.061 38.1961 42.061L49.1685 41.9086C49.1685 41.9086 48.8637 39.8386 50.6924 38.0543L51.6095 34.6604C52.0998 32.8458 51.9328 30.9163 51.1379 29.213L49.1685 24.9928L47.4921 24.3832L47.3397 22.5544V22.5544Z" fill="#2F2E41"/>
<path d="M38.1961 43.8898L37.5103 45.0328C37.5103 45.0328 35.3768 47.9283 35.072 56.1576C34.7672 64.3869 37.2817 91.0158 37.2817 91.0158H40.7616L44.5236 54.9882L49.5495 91.056L54.0451 91.1322L53.6642 54.3289C53.6642 54.3289 52.7498 45.9472 50.3115 44.1184C50.3115 44.1184 42.4632 51.2048 38.1961 43.8898Z" fill="#2F2E41"/>
<path d="M31.8493 25.8356C31.8493 27.4177 31.754 28.5949 30.0263 28.7002C28.4037 28.7992 28.2034 27.4177 28.2034 25.8356C28.2034 24.2534 28.2412 22.9837 30.0263 22.9709C32.0588 22.9563 31.8493 24.2534 31.8493 25.8356Z" fill="#069E95"/>
<path d="M42.0058 25.8356C42.0058 27.4177 42.4216 28.5949 40.1828 28.7003C38.4606 28.7813 38.3599 27.4177 38.3599 25.8356C38.3599 24.2535 38.6129 23.1484 40.1828 22.9709C41.6596 22.8039 42.0058 24.2535 42.0058 25.8356Z" fill="#069E95"/>
<path d="M40.4433 24.5335H30.2867V26.8773H40.4433V24.5335Z" fill="#069E95"/>
<path d="M49.3747 25.3782C49.3747 26.9603 49.2794 28.1376 47.5517 28.2429C45.9291 28.3418 45.7288 26.9603 45.7288 25.3782C45.7288 23.7961 45.7665 22.5264 47.5517 22.5135C49.5842 22.499 49.3747 23.7961 49.3747 25.3782Z" fill="#069E95"/>
<path d="M59.5312 25.3783C59.5312 26.9604 59.947 28.1376 57.7082 28.243C55.986 28.324 55.8853 26.9604 55.8853 25.3783C55.8853 23.7962 56.1382 22.6912 57.7082 22.5136C59.185 22.3467 59.5312 23.7962 59.5312 25.3783Z" fill="#069E95"/>
<path d="M57.9687 24.0762H47.8121V26.4201H57.9687V24.0762Z" fill="#069E95"/>
<path d="M75.8913 50.3718C75.8913 51.9539 75.796 53.1311 74.0683 53.2365C72.4457 53.3354 72.2454 51.9539 72.2454 50.3718C72.2454 48.7897 72.2831 47.52 74.0683 47.5071C76.1008 47.4926 75.8913 48.7897 75.8913 50.3718Z" fill="#069E95"/>
<path d="M86.0478 50.372C86.0478 51.9541 86.4636 53.1313 84.2248 53.2366C82.5026 53.3177 82.4019 51.9541 82.4019 50.372C82.4019 48.7898 82.6548 47.6848 84.2248 47.5073C85.7016 47.3403 86.0478 48.7898 86.0478 50.372Z" fill="#069E95"/>
<path d="M84.4852 49.0699H74.3286V51.4137H84.4852V49.0699Z" fill="#069E95"/>
<path d="M52.9685 28.9784C54.062 28.9784 54.9485 27.5431 54.9485 25.7727C54.9485 24.0022 54.062 22.567 52.9685 22.567C51.875 22.567 50.9885 24.0022 50.9885 25.7727C50.9885 27.5431 51.875 28.9784 52.9685 28.9784Z" fill="#FFB6B6"/>
<path d="M43.6061 20.7257C46.5939 20.7257 49.0161 18.3036 49.0161 15.3157C49.0161 12.3278 46.5939 9.9057 43.6061 9.9057C40.6182 9.9057 38.196 12.3278 38.196 15.3157C38.196 18.3036 40.6182 20.7257 43.6061 20.7257Z" fill="#FFB6B6"/>
<path d="M42.52 17.0156L43.7717 15.0236L44.3354 12.3146C44.3354 12.3146 50.0376 13.7054 48.5077 10.9238C46.9779 8.14223 43.0837 7.44684 40.4412 9.53301L39.3023 10.6456C39.3023 10.6456 41.832 8.28131 40.3021 7.44684C38.7723 6.61237 39.0504 6.05605 38.216 6.75144C37.3815 7.44684 37.7987 8.00315 36.8252 7.58591C35.8516 7.16868 33.7654 6.61237 34.0436 7.30776C34.3218 8.00315 32.2235 9.81117 32.9945 10.6456C33.7654 11.4801 33.0701 13.149 34.4608 12.7318C35.8516 12.3146 35.1562 14.4007 36.4079 13.5663C36.4079 13.5663 35.3805 14.8755 36.215 15.8491C37.0495 16.8226 38.3352 17.2014 38.1961 18.5922C38.0571 19.983 41.3964 20.2685 41.3964 20.2685L41.1366 16.2088C41.1366 16.2088 41.9637 15.5307 42.52 17.0156Z" fill="#2F2E41"/>
<path d="M97.5993 26.351C97.5993 26.351 96.8016 29.0517 97.0597 30.8978L88.0433 42.8442L90.6014 45.2896L101.662 34.6464L103.761 28.9373L97.5993 26.351V26.351Z" fill="#FFB6B6"/>
<path d="M89.9149 47.1107C91.1574 45.4644 91.3404 43.5077 90.3235 42.7403C89.3067 41.9728 87.4751 42.6853 86.2326 44.3316C84.9901 45.9779 84.8071 47.9346 85.8239 48.7021C86.8408 49.4695 88.6724 48.757 89.9149 47.1107Z" fill="#FFB6B6"/>
<path d="M104.133 16.42C104.133 16.42 106.942 17.439 106.585 19.3712C106.227 21.3033 106.092 22.5771 106.092 22.5771C106.092 22.5771 106.396 23.6325 105.999 24.1585C105.602 24.6845 103.564 30.8526 103.564 30.8526L96.2324 28.3469C96.2324 28.3469 100.53 16.453 104.133 16.42Z" fill="#069E95"/>
<path d="M123.367 99.1186C123.367 99.1893 123.31 99.2466 123.239 99.2466H0.81161C0.740909 99.2466 0.683594 99.1893 0.683594 99.1186C0.683594 99.0479 0.740908 98.9906 0.81161 98.9906H123.239C123.31 98.9906 123.367 99.0479 123.367 99.1186Z" fill="#E6E6E6"/>
<path d="M37.5026 25.9176C37.5026 27.6881 36.6161 29.1233 35.5226 29.1233C34.4291 29.1233 33.5426 27.6881 33.5426 25.9176C33.5426 24.1472 34.4291 22.7119 35.5226 22.7119C36.6161 22.7119 37.5026 24.1472 37.5026 25.9176Z" fill="#FFB6B6"/>
</svg>
