<svg width="18" height="18" viewBox="0 0 18 18" fill="none" xmlns="http://www.w3.org/2000/svg">
<path d="M8.79996 17.5999C13.6141 17.5999 17.6 13.6141 17.6 8.79997C17.6 3.99449 13.6054 0 8.79134 0C3.98586 0 0 3.99449 0 8.79997C0 13.6141 3.9945 17.5999 8.79996 17.5999ZM13.8384 8.79134C13.8384 9.01565 13.7521 9.18821 13.5709 9.37801L10.2666 12.6737C10.1286 12.7945 9.95604 12.8807 9.74898 12.8807C9.34349 12.8807 9.02429 12.5702 9.02429 12.1647C9.02429 11.949 9.11919 11.7678 9.24859 11.6384L10.4651 10.4478L11.6384 9.45564L9.55918 9.5333H4.50351C4.06352 9.5333 3.77018 9.22271 3.77018 8.79134C3.77018 8.35998 4.07214 8.04937 4.50351 8.04937H9.55918L11.6384 8.13565L10.4651 7.15213L9.24859 5.94429C9.12781 5.82351 9.02429 5.63371 9.02429 5.42665C9.02429 5.02116 9.34349 4.71058 9.74898 4.71058C9.95604 4.71058 10.1286 4.77959 10.2666 4.909L13.5709 8.21331C13.7694 8.41173 13.8384 8.58428 13.8384 8.79134Z" fill="white"/>
</svg>
