<svg width="115" height="103" viewBox="0 0 115 103" fill="none" xmlns="http://www.w3.org/2000/svg">
<path d="M114.09 51.5C114.101 58.6743 112.607 65.7711 109.703 72.3312C109.609 72.5431 109.514 72.7537 109.418 72.9631C109.37 73.0684 109.321 73.1724 109.272 73.2777C109.224 73.3818 109.175 73.4871 109.125 73.5911C109.061 73.726 108.996 73.8595 108.931 73.9931C108.85 74.1613 108.768 74.3283 108.683 74.4952C108.673 74.5184 108.661 74.5415 108.648 74.5646C108.578 74.7059 108.507 74.8471 108.434 74.9884C108.418 75.0192 108.403 75.05 108.386 75.0796C108.303 75.244 108.217 75.4084 108.129 75.5715V75.5728C108.037 75.7461 107.944 75.9191 107.851 76.0916C107.62 76.518 107.382 76.9405 107.138 77.3592C107.065 77.4838 106.993 77.6084 106.918 77.7317C106.85 77.8472 106.782 77.9615 106.713 78.0758C106.665 78.1555 106.618 78.2338 106.569 78.3121C106.492 78.4393 106.414 78.5664 106.334 78.6936C106.333 78.6949 106.333 78.6949 106.333 78.6962C106.157 78.9787 105.977 79.26 105.796 79.5386H105.795C105.711 79.6684 105.626 79.7968 105.542 79.9252V79.9265C105.286 80.3118 105.025 80.6932 104.759 81.0708V81.0721C104.758 81.0722 104.758 81.0726 104.757 81.0734V81.0747L104.754 81.0772C104.544 81.379 104.329 81.6783 104.11 81.9749V81.9762C103.97 82.1663 103.828 82.3564 103.686 82.5439C103.569 82.698 103.451 82.8517 103.331 83.0049C103.307 83.0383 103.281 83.0704 103.254 83.1038V83.1051C103.222 83.1475 103.19 83.1886 103.155 83.231V83.2323C102.648 83.8808 102.125 84.5166 101.587 85.1394H101.586C101.558 85.1741 101.528 85.2075 101.499 85.2409C101.47 85.2743 101.44 85.3077 101.41 85.3424H101.409C101.364 85.395 101.318 85.4477 101.271 85.5003C101.226 85.553 101.179 85.6056 101.131 85.6583V85.6596C98.3264 88.8242 95.1432 91.6322 91.6533 94.0203C91.1884 94.3401 90.7174 94.6513 90.2405 94.954C90.1224 95.0297 90.0042 95.1042 89.8848 95.1787C89.8488 95.2031 89.8129 95.225 89.7769 95.2468C89.714 95.2866 89.6498 95.3264 89.5856 95.3662C89.5226 95.4048 89.4584 95.4446 89.3942 95.4831C89.1386 95.6398 88.8805 95.7939 88.6223 95.9454C88.5581 95.984 88.4926 96.0212 88.4271 96.0598C88.3629 96.097 88.2974 96.1342 88.2319 96.1715C88.231 96.1728 88.2299 96.174 88.2286 96.1748C88.2273 96.1757 88.2258 96.1763 88.2242 96.1766L88.2216 96.1779L88.2191 96.1805H88.2178C87.8941 96.3667 87.5692 96.5503 87.2404 96.7276C86.6522 97.0487 86.058 97.3582 85.4579 97.6561C85.3089 97.7306 85.1586 97.8038 85.0084 97.877C84.8838 97.9374 84.7579 97.9977 84.6333 98.0568C84.5987 98.0735 84.5653 98.0902 84.5306 98.1056C84.4266 98.1544 84.3225 98.2032 84.2185 98.2508C84.1055 98.3047 83.9912 98.3561 83.8782 98.4074C83.751 98.4652 83.6252 98.5217 83.498 98.5782C83.0203 98.7914 82.5374 98.9969 82.0532 99.1947C80.3235 99.903 78.5557 100.514 76.7581 101.026C76.6746 101.051 76.5898 101.075 76.5051 101.098C75.7358 101.314 74.9609 101.511 74.1805 101.69C72.8179 102.003 71.4428 102.261 70.0554 102.462C70.0528 102.462 70.0489 102.463 70.0464 102.463C69.8807 102.488 69.7137 102.511 69.5481 102.534C69.5339 102.536 69.5185 102.539 69.5031 102.54C69.5018 102.542 69.5006 102.542 69.498 102.54C69.498 102.54 69.498 102.542 69.4967 102.54C69.313 102.565 69.1294 102.589 68.9445 102.612C68.9316 102.615 68.9188 102.616 68.9059 102.617C68.7338 102.638 68.5605 102.658 68.3871 102.678C68.2008 102.698 68.0146 102.718 67.8271 102.737C67.6846 102.751 67.542 102.765 67.3995 102.778C67.3868 102.78 67.3739 102.782 67.3609 102.782C67.2312 102.793 67.1015 102.805 66.9718 102.815C66.9667 102.815 66.9602 102.816 66.9551 102.816C66.8421 102.827 66.7291 102.834 66.616 102.843C65.2868 102.949 63.9447 103.001 62.5898 103C61.1193 103 59.6637 102.939 58.2232 102.816C58.2181 102.816 58.2129 102.815 58.2078 102.815C57.9008 102.789 57.5943 102.761 57.2882 102.73C57.2073 102.723 57.1277 102.714 57.0468 102.706C57.0314 102.705 57.016 102.703 57.0006 102.701C56.9762 102.698 56.9518 102.696 56.9261 102.693C56.9132 102.692 56.8991 102.691 56.8863 102.688C56.7797 102.676 56.6731 102.665 56.5652 102.652C56.4457 102.638 56.325 102.624 56.2056 102.608C56.0861 102.594 55.9654 102.579 55.846 102.562C55.8203 102.56 55.7933 102.557 55.7676 102.552C55.6803 102.542 55.593 102.53 55.5069 102.517C55.4646 102.512 55.4234 102.506 55.3824 102.499C55.2989 102.488 55.2167 102.476 55.1332 102.463C55.1306 102.463 55.1268 102.462 55.1242 102.462C52.5016 102.083 49.9127 101.5 47.3812 100.717H47.3799C47.2425 100.674 47.1051 100.631 46.9677 100.587C46.9266 100.575 46.8855 100.562 46.8444 100.548C46.4874 100.434 46.1325 100.316 45.7797 100.194C45.293 100.027 44.8097 99.8523 44.3298 99.6699C44.1988 99.6198 44.069 99.5697 43.938 99.5196C43.6773 99.4169 43.4179 99.3141 43.1598 99.2088C42.7193 99.029 42.2817 98.8437 41.8472 98.6527H41.8459V98.6515C41.4401 98.4729 41.0373 98.2889 40.6374 98.0992C40.6256 98.0957 40.6144 98.0905 40.604 98.0838C40.6027 98.0838 40.6027 98.0825 40.6015 98.0825C40.5128 98.0414 40.4242 97.999 40.3356 97.9566L40.333 97.9554C38.1302 96.8994 36.006 95.6865 33.9771 94.326C33.326 93.8906 32.686 93.4407 32.0571 92.9762C31.5498 92.6024 31.0498 92.2193 30.557 91.8267C28.1026 89.876 25.8311 87.7056 23.7708 85.3424H23.7696V85.3411C23.6244 85.1754 23.4832 85.011 23.3393 84.844V84.8428C23.3188 84.8196 23.2995 84.7965 23.2802 84.7734C23.1891 84.6668 23.1004 84.5615 23.0118 84.4536V84.4523C22.8911 84.3098 22.7729 84.1668 22.6574 84.0234C22.6317 83.9926 22.6073 83.963 22.5829 83.9322H22.5816V83.9309C22.4866 83.8153 22.3928 83.6985 22.3003 83.5816C22.2528 83.5238 22.2066 83.4647 22.1603 83.4056H22.1591V83.4044C21.8791 83.0512 21.6047 82.6946 21.3358 82.3345V82.3333C21.2613 82.2344 21.1881 82.1355 21.1162 82.0353H21.1149C20.7707 81.5704 20.4355 81.0999 20.1093 80.6239V80.6226C19.986 80.4441 19.864 80.2643 19.7433 80.0832C19.6226 79.9021 19.5031 79.7206 19.385 79.5386H19.3837C19.2617 79.3511 19.141 79.1628 19.0215 78.9736C19.0151 78.9633 19.0087 78.9543 19.0036 78.9453C18.8854 78.7591 18.769 78.5716 18.6542 78.3828C18.5618 78.2325 18.4706 78.0835 18.382 77.9333C18.3203 77.8318 18.26 77.7317 18.2009 77.6289C18.179 77.5942 18.1598 77.5596 18.1405 77.5262C18.0044 77.2937 17.8708 77.0613 17.7373 76.8275C17.5819 76.5527 17.4277 76.2753 17.2775 75.9979C17.2158 75.8836 17.1542 75.768 17.0938 75.6524C17.072 75.6151 17.0527 75.5779 17.0335 75.5394C16.9615 75.4032 16.8896 75.2671 16.819 75.1297C16.7484 74.9935 16.6777 74.8561 16.6084 74.7187C16.539 74.5813 16.4697 74.4439 16.4016 74.3052C16.3502 74.2011 16.2989 74.0958 16.2488 73.9918C16.2436 73.9831 16.2388 73.9741 16.2346 73.9648C16.2115 73.916 16.1871 73.8685 16.1653 73.8197C16.1602 73.8122 16.1563 73.804 16.1537 73.7953C16.1011 73.6874 16.0497 73.5808 15.9996 73.4729C15.9328 73.3342 15.8686 73.1943 15.8044 73.0543C15.7582 72.9567 15.7145 72.8578 15.6696 72.7589C15.6053 72.6202 15.5424 72.4802 15.4808 72.3389C15.4153 72.1938 15.3523 72.0474 15.2894 71.901C15.2727 71.8637 15.2573 71.8278 15.2419 71.7905C15.2123 71.7237 15.1841 71.657 15.1558 71.5902C15.0801 71.4129 15.0056 71.2331 14.9324 71.0546C14.8489 70.853 14.7675 70.6509 14.6883 70.4484C14.6126 70.2597 14.5389 70.0704 14.4674 69.8808L14.4405 69.8114V69.8102C13.3246 66.8773 12.4802 63.8482 11.9181 60.761V60.7598C11.5976 58.9971 11.3696 57.219 11.2349 55.4325C11.2272 55.3349 11.2208 55.2373 11.2143 55.1397C11.1296 53.9312 11.0881 52.718 11.0898 51.5C11.0898 50.9593 11.0983 50.4212 11.1155 49.8857C11.4484 38.6891 15.4397 27.9098 22.4789 19.1963C22.7884 18.8123 23.1034 18.433 23.4241 18.0584C32.8687 7.0058 46.9112 0 62.5898 0C80.9205 0 97.0152 9.57695 106.14 24.0008C106.615 24.7483 107.07 25.5094 107.504 26.2843C111.835 33.9816 114.104 42.6677 114.09 51.5Z" fill="#F2F2F2"/>
<path d="M87.528 91.9238C87.343 92.435 87.1585 92.9461 86.9744 93.4572C86.9398 93.5549 86.9038 93.6512 86.8691 93.7488C86.3991 95.051 85.9286 96.3537 85.4577 97.6569C85.3087 97.7314 85.1585 97.8046 85.0082 97.8778C84.8836 97.9381 84.7578 97.9985 84.6332 98.0576C84.5985 98.0743 84.5651 98.091 84.5304 98.1064C84.4264 98.1552 84.3224 98.204 84.2183 98.2515C84.1053 98.3054 83.991 98.3568 83.878 98.4082C83.7509 98.466 83.625 98.5225 83.4979 98.579C83.4318 98.4068 83.394 98.2251 83.3861 98.0409C83.3806 97.7516 83.4148 97.463 83.4876 97.183C83.5993 96.7206 83.7766 96.2673 83.8934 95.8036C83.8998 95.7818 83.905 95.7587 83.9101 95.7369C84.1707 94.63 84.0503 93.4676 83.5685 92.4375C83.2782 91.8236 82.8621 91.265 82.681 90.61C82.5237 89.9949 82.5935 89.3438 82.8775 88.776C82.983 88.5558 83.1154 88.3496 83.2718 88.1621C83.3091 88.1146 83.3489 88.0697 83.39 88.0247C83.7677 87.6097 84.2696 87.3281 84.8207 87.222C85.8751 87.0345 86.977 87.5957 87.5665 88.4768C87.8081 88.8307 87.9553 89.2405 87.9942 89.6673C88.0584 90.4392 87.7912 91.1956 87.528 91.9238Z" fill="#E4E4E4"/>
<path d="M84.6167 97.1405C84.3753 96.6948 83.9707 96.3044 83.8937 95.8035C83.6432 94.1956 83.0396 93.0423 82.0392 92.3886C81.7489 92.1998 81.7027 91.7824 81.5242 91.4819C81.4445 91.347 81.3636 91.2122 81.2802 91.0799C81.1453 90.8603 81.0049 90.6449 80.8589 90.4339C80.5822 90.0259 80.277 89.638 79.9458 89.2729C79.8084 89.1201 79.6632 88.9724 79.513 88.8324L79.5117 88.8311C79.4179 88.7412 79.3229 88.6552 79.224 88.5717C79.1855 88.5383 79.1457 88.5049 79.1046 88.4715L79.102 88.4689C78.9285 88.3185 78.7467 88.1778 78.5575 88.0477C78.1221 87.7536 77.6302 87.5494 77.1255 87.7125C76.9271 87.7805 76.7361 87.8682 76.5553 87.9745C76.4628 88.0271 76.3716 88.0824 76.2804 88.1376C76.2188 88.1748 76.1571 88.2121 76.0955 88.2506C76.0454 88.2801 75.9953 88.3097 75.9452 88.3379C75.5574 88.5614 75.1678 88.7806 74.7765 88.9955C74.72 89.0276 74.6635 89.0584 74.6057 89.0892H74.6044C74.5646 89.1124 74.5235 89.1342 74.4824 89.156C74.4041 89.1997 74.3244 89.2434 74.2461 89.2857C74.0111 89.4129 73.7756 89.5387 73.5397 89.6633C73.419 89.7275 73.297 89.7892 73.175 89.8508C73.1185 89.8791 73.062 89.9073 73.0068 89.9369H73.0055C72.9849 89.9471 72.9657 89.9574 72.9451 89.9677C72.7781 90.0537 72.6138 90.1424 72.4545 90.2387C71.9926 90.5169 71.5912 90.8851 71.2743 91.3213C71.2126 91.4061 71.1535 91.4934 71.0996 91.5833C71.0289 91.6996 70.9645 91.8196 70.9069 91.9429C70.8671 92.0264 70.8299 92.1099 70.7965 92.1946V92.1959C70.4807 93.0077 70.4366 93.8999 70.6706 94.7388V94.7401C70.686 94.7979 70.7027 94.8544 70.722 94.9109C70.7528 95.006 70.7875 95.101 70.826 95.1935C70.8685 95.2966 70.9165 95.3973 70.9699 95.4953V95.4966C71.2556 95.9841 71.6123 96.4264 72.0281 96.8091L72.041 96.8219C72.0923 96.872 72.145 96.9234 72.1964 96.9735C72.2246 97.0005 72.2542 97.0274 72.285 97.0531C72.7293 97.4346 73.4473 97.7235 73.8531 98.1152C74.0701 98.3246 74.1973 98.5622 74.1472 98.8588C74.0136 99.6461 74.0432 100.156 74.1793 100.483C74.5492 101.377 75.7102 100.923 76.5052 101.099C76.5899 101.076 76.6747 101.051 76.7582 101.027C78.5558 100.515 80.3236 99.9036 82.0533 99.1953C82.5375 98.9975 83.0204 98.792 83.4981 98.5789C83.6253 98.5223 83.7511 98.4658 83.8783 98.408C83.9913 98.3567 84.1056 98.3053 84.2186 98.2514C84.3226 98.2038 84.4267 98.155 84.5307 98.1062C84.5654 98.0908 84.5988 98.0741 84.6334 98.0574C84.758 97.9984 84.8839 97.938 85.0084 97.8776C84.8813 97.6298 84.749 97.3845 84.6167 97.1405Z" fill="#E4E4E4"/>
<path d="M75.2202 84.671C75.4901 83.8557 75.1189 83.3178 74.1637 83.0324C74.1311 83.0028 74.0916 82.9819 74.0487 82.9716C74.0059 82.9613 73.9612 82.9618 73.9187 82.9732C73.8761 82.9846 73.8371 83.0065 73.8053 83.0369C73.7734 83.0673 73.7496 83.1052 73.7362 83.1471L72.9022 85.6182C72.0299 85.3951 71.3901 85.5479 71.2511 86.4107C71.5954 85.5319 71.2716 84.9806 70.3029 84.7455C70.2715 84.7141 70.2326 84.6912 70.1899 84.6789C70.1472 84.6666 70.1021 84.6653 70.0588 84.6751C70.0155 84.6849 69.9753 84.7055 69.9421 84.735C69.9089 84.7646 69.8837 84.802 69.8688 84.8439L69.3204 87.0695C68.6524 88.0757 68.3244 89.2693 68.3844 90.4755C68.4444 91.6817 68.8893 92.837 69.6538 93.7719C70.4183 94.7068 71.4622 95.3722 72.6324 95.6706C73.8027 95.9689 75.0377 95.8844 76.1565 95.4296C77.2753 94.9748 78.2189 94.1735 78.849 93.1433C79.4792 92.113 79.7627 90.908 79.658 89.7048C79.5533 88.5017 79.0658 87.3637 78.2672 86.4578C77.4686 85.5519 76.4007 84.9257 75.2202 84.671H75.2202Z" fill="#E4E4E4"/>
<path d="M74.6888 91.7133C74.5761 91.7737 74.4441 91.7868 74.3217 91.7499C74.1993 91.713 74.0965 91.629 74.0359 91.5164C74.0273 91.5003 74.0255 91.4815 74.0308 91.4641C74.0361 91.4466 74.0481 91.432 74.0642 91.4234C74.0802 91.4147 74.099 91.4128 74.1165 91.4181C74.134 91.4233 74.1486 91.4352 74.1573 91.4513C74.2006 91.5316 74.274 91.5915 74.3614 91.6178C74.4488 91.6441 74.543 91.6346 74.6234 91.5915C74.7039 91.5483 74.7639 91.475 74.7903 91.3877C74.8167 91.3003 74.8074 91.206 74.7643 91.1255C74.7558 91.1095 74.7539 91.0906 74.7592 91.0732C74.7645 91.0557 74.7765 91.0411 74.7926 91.0325C74.8086 91.0239 74.8275 91.022 74.8449 91.0272C74.8624 91.0324 74.8771 91.0444 74.8857 91.0604C74.9461 91.1731 74.9592 91.3052 74.9223 91.4276C74.8854 91.55 74.8014 91.6527 74.6888 91.7133Z" fill="white"/>
<path d="M74.1848 90.6996C74.453 90.5557 74.6256 90.3554 74.5702 90.2523C74.5149 90.1491 74.2526 90.1822 73.9844 90.3261C73.7162 90.47 73.5437 90.6703 73.599 90.7734C73.6544 90.8766 73.9166 90.8435 74.1848 90.6996Z" fill="white"/>
<path d="M71.334 90.8751C71.3702 90.6992 71.4447 90.5335 71.552 90.3895C71.6594 90.2456 71.797 90.127 71.9553 90.0421C72.1135 89.9571 72.2885 89.908 72.4678 89.8981C72.6471 89.8883 72.8263 89.9179 72.9929 89.9849C73.0768 89.7286 73.0827 89.4532 73.01 89.1936C72.9373 88.9339 72.7893 88.7016 72.5846 88.5261C72.3799 88.3506 72.1277 88.2397 71.86 88.2075C71.5923 88.1753 71.3211 88.2232 71.0806 88.3452C70.8401 88.4671 70.6412 88.6576 70.509 88.8926C70.3768 89.1276 70.3172 89.3966 70.3379 89.6654C70.3585 89.9342 70.4584 90.1909 70.6249 90.403C70.7914 90.6151 71.0171 90.773 71.2734 90.8568C71.2934 90.8634 71.3136 90.8695 71.334 90.8751Z" fill="white"/>
<path d="M71.7413 90.3809C72.0003 90.3809 72.2103 90.171 72.2103 89.912C72.2103 89.653 72.0003 89.443 71.7413 89.443C71.4823 89.443 71.2723 89.653 71.2723 89.912C71.2723 90.171 71.4823 90.3809 71.7413 90.3809Z" fill="#3F3D56"/>
<path d="M74.5803 89.1872C74.6166 89.0114 74.691 88.8456 74.7984 88.7017C74.9057 88.5577 75.0434 88.4391 75.2016 88.3542C75.3598 88.2693 75.5348 88.2201 75.7141 88.2103C75.8934 88.2004 76.0727 88.23 76.2393 88.297C76.3231 88.0407 76.329 87.7653 76.2564 87.5057C76.1837 87.246 76.0356 87.0138 75.8309 86.8382C75.6262 86.6627 75.3741 86.5519 75.1064 86.5197C74.8387 86.4874 74.5674 86.5353 74.3269 86.6573C74.0865 86.7792 73.8875 86.9698 73.7553 87.2048C73.6231 87.4398 73.5636 87.7087 73.5842 87.9775C73.6048 88.2464 73.7047 88.5031 73.8713 88.7151C74.0378 88.9272 74.2634 89.0852 74.5197 89.169C74.5398 89.1755 74.56 89.1816 74.5803 89.1872Z" fill="white"/>
<path d="M75.1596 88.666C75.4186 88.666 75.6286 88.456 75.6286 88.197C75.6286 87.938 75.4186 87.728 75.1596 87.728C74.9006 87.728 74.6907 87.938 74.6907 88.197C74.6907 88.456 74.9006 88.666 75.1596 88.666Z" fill="#3F3D56"/>
<path d="M77.5131 88.1645L75.9119 89.7961L76.0735 89.9547L77.6747 88.3231L77.5131 88.1645Z" fill="white"/>
<path d="M78.0214 88.9543L76.0868 90.1722L76.2074 90.3639L78.1421 89.1459L78.0214 88.9543Z" fill="white"/>
<path d="M72.4765 91.6402L70.2317 92.0724L70.2745 92.2947L72.5194 91.8625L72.4765 91.6402Z" fill="white"/>
<path d="M72.6924 91.9936L70.6079 92.9324L70.7009 93.1388L72.7854 92.2001L72.6924 91.9936Z" fill="white"/>
<path d="M6.58528 57.1626C2.19424 53.2107 -0.464573 46.9263 1.1694 41.2493C4.85686 46.5098 10.2862 50.2966 16.4968 51.9394C18.8943 52.5644 21.626 53.0098 23.0845 55.0125C23.9921 56.2586 24.2029 57.9054 23.9881 59.4319C23.7732 60.9585 23.1727 62.4001 22.5777 63.8223L22.6092 64.2059C16.8104 63.0775 10.9763 61.1145 6.58528 57.1626Z" fill="#E6E6E6"/>
<path d="M1.29229 41.2666C2.40831 45.9744 5.03557 50.3562 8.72206 53.5008C9.51907 54.1807 10.3867 54.801 11.36 55.202C12.3117 55.5856 13.3488 55.7074 14.3635 55.5547C15.3125 55.4313 16.2688 55.1951 17.2313 55.3046C18.2457 55.4199 19.0932 55.9883 19.6853 56.8068C20.4097 57.8083 20.7311 59.0103 21.0045 60.1967C21.3081 61.5139 21.6026 62.8869 22.4722 63.9635C22.5776 64.094 22.369 64.2498 22.2638 64.1196C20.7507 62.2466 20.9577 59.6538 19.8619 57.5841C19.3505 56.6183 18.545 55.8007 17.4356 55.5979C16.4655 55.4205 15.4791 55.6631 14.5193 55.7964C13.5115 55.9363 12.5365 55.9025 11.5697 55.561C10.5807 55.2117 9.68696 54.624 8.87606 53.9675C7.04835 52.465 5.46824 50.6846 4.19361 48.6913C2.72626 46.4245 1.6575 43.9234 1.03356 41.2961C0.995012 41.1335 1.25399 41.105 1.29229 41.2666L1.29229 41.2666Z" fill="white"/>
<path d="M7.46988 52.5418C6.84939 53.0899 6.05426 53.3996 5.22649 53.4156C4.39873 53.4316 3.59224 53.1528 2.95104 52.6291C2.82167 52.5227 2.98097 52.3166 3.11051 52.4232C3.70669 52.912 4.45797 53.1716 5.22875 53.1551C5.99953 53.1387 6.73904 52.8472 7.31381 52.3334C7.43885 52.2219 7.5942 52.431 7.46988 52.5418V52.5418Z" fill="white"/>
<path d="M13.8905 55.6809C14.0103 53.9927 13.4893 52.3214 12.4315 51.0003C12.3266 50.8695 12.5352 50.7136 12.64 50.8442C13.7381 52.2211 14.2767 53.9614 14.1483 55.7179C14.1359 55.8853 13.8783 55.8474 13.8905 55.6809Z" fill="white"/>
<path d="M3.06605 46.3675C3.35032 46.2054 3.5899 45.9753 3.76326 45.6978C3.93663 45.4202 4.03834 45.104 4.05928 44.7775C4.06951 44.61 4.32717 44.6481 4.31701 44.8145C4.29219 45.1751 4.17943 45.5243 3.98857 45.8313C3.79771 46.1383 3.53457 46.394 3.22212 46.5759C3.19411 46.5955 3.15968 46.6037 3.12583 46.5988C3.09198 46.594 3.06125 46.5764 3.03988 46.5497C3.01936 46.522 3.01059 46.4873 3.01549 46.4532C3.02039 46.4191 3.03856 46.3883 3.06605 46.3675Z" fill="white"/>
<path d="M19.5074 33.2628C19.504 33.3676 19.5006 33.4723 19.4989 33.5784C19.4603 34.9871 19.5362 36.3966 19.7258 37.793C19.7388 37.9012 19.7535 38.0107 19.7696 38.1183C20.2623 41.4777 21.3745 44.7163 23.0496 47.6697C23.7172 48.8443 24.4732 49.9664 25.3111 51.0263C26.4683 52.49 27.8395 53.9849 28.4283 55.6951C28.4917 55.8728 28.5441 56.0543 28.585 56.2385L23.0747 64.1379C23.0532 64.1496 23.0334 64.1626 23.0118 64.1744L22.8062 64.4998C22.7592 64.4482 22.7115 64.3936 22.6645 64.342C22.6371 64.3121 22.6109 64.2805 22.5835 64.2507C22.5656 64.2302 22.5478 64.2097 22.5305 64.1922C22.5245 64.1854 22.5186 64.1786 22.5144 64.173C22.4971 64.1556 22.4829 64.1376 22.4674 64.1214C22.2001 63.8171 21.9345 63.5103 21.6705 63.2012C21.6687 63.1999 21.6687 63.1999 21.6681 63.1969C19.663 60.8363 17.8373 58.2875 16.4566 55.5427C16.415 55.4601 16.3717 55.3763 16.3327 55.2901C15.7171 54.0494 15.204 52.7604 14.7985 51.4362C14.5788 50.7103 14.396 49.9738 14.2507 49.2294C13.8791 47.3054 13.8124 45.335 14.0532 43.3902C14.5336 39.5136 16.2486 35.8337 19.2744 33.4432C19.3519 33.3821 19.4282 33.3227 19.5074 33.2628Z" fill="#E6E6E6"/>
<path d="M19.5951 33.3501C17.6517 37.781 17.1113 42.8614 18.1615 47.5917C18.3885 48.6144 18.7079 49.6321 19.2435 50.5383C19.7724 51.4176 20.5272 52.1392 21.4293 52.6281C22.2613 53.1009 23.1671 53.4882 23.8696 54.155C24.6102 54.8579 24.9446 55.822 24.9246 56.832C24.9 58.0677 24.4329 59.221 23.937 60.3328C23.3863 61.5674 22.7947 62.8409 22.841 64.2241C22.8466 64.3917 22.5862 64.3906 22.5806 64.2233C22.5002 61.8168 24.2264 59.8712 24.5976 57.5589C24.7708 56.4799 24.6199 55.3422 23.8562 54.5122C23.1884 53.7865 22.2547 53.3863 21.4082 52.9149C20.5193 52.4199 19.7612 51.8058 19.1948 50.9511C18.6155 50.0767 18.2557 49.0694 18.0035 48.057C17.4487 45.757 17.2591 43.3841 17.4414 41.0251C17.6346 38.3318 18.2871 35.6913 19.3707 33.2179C19.4378 33.0649 19.6618 33.198 19.5951 33.3501L19.5951 33.3501Z" fill="white"/>
<path d="M17.7393 46.0717C16.9139 46.1357 16.0925 45.9043 15.422 45.4187C14.7514 44.9331 14.2753 44.2249 14.0787 43.4207C14.0395 43.2578 14.2907 43.1892 14.33 43.3523C14.5117 44.1016 14.9553 44.7612 15.5806 45.2121C16.206 45.663 16.9719 45.8755 17.7402 45.8113C17.9071 45.7976 17.9053 46.058 17.7393 46.0717Z" fill="white"/>
<path d="M20.9761 52.4437C22.0881 51.1679 22.6784 49.5198 22.6293 47.8281C22.6243 47.6605 22.8846 47.6615 22.8896 47.8289C22.9375 49.5895 22.3197 51.3033 21.1596 52.6284C21.049 52.7547 20.8661 52.5693 20.9761 52.4437L20.9761 52.4437Z" fill="white"/>
<path d="M17.9404 38.4904C18.265 38.5322 18.5948 38.4927 18.9003 38.3755C19.2058 38.2583 19.4774 38.067 19.6908 37.8189C19.7998 37.6913 19.9826 37.8769 19.8743 38.0036C19.6373 38.2766 19.3371 38.4875 18.9998 38.6178C18.6626 38.748 18.2985 38.7937 17.9396 38.7508C17.9054 38.7496 17.873 38.7354 17.8489 38.7111C17.8248 38.6869 17.8108 38.6544 17.8098 38.6202C17.8101 38.5857 17.824 38.5527 17.8484 38.5284C17.8729 38.5041 17.906 38.4905 17.9404 38.4904V38.4904Z" fill="white"/>
<path d="M69.8451 33.7897C70.6106 29.556 69.3384 24.7521 65.8657 22.2124C66.089 26.8857 64.6521 31.4873 61.8091 35.2032C60.7076 36.6322 59.3335 38.107 59.387 39.9106C59.4203 41.0328 60.0334 42.0749 60.8379 42.8579C61.6425 43.641 62.6312 44.2032 63.608 44.7566L63.761 44.9915C66.5962 41.7555 69.0796 38.0234 69.8451 33.7897Z" fill="#E6E6E6"/>
<path d="M65.803 22.2767C67.2747 25.5195 67.6872 29.1435 66.9819 32.6341C66.8435 33.3882 66.587 34.1158 66.2219 34.79C65.8451 35.4354 65.3023 35.968 64.65 36.3326C64.0486 36.6848 63.3927 36.9754 62.8874 37.4677C62.6325 37.7235 62.4346 38.0303 62.3065 38.368C62.1785 38.7057 62.1233 39.0666 62.1446 39.4271C62.1742 40.3267 62.5252 41.1621 62.897 41.9671C63.3097 42.8609 63.7525 43.7827 63.732 44.7904C63.7295 44.9125 63.9191 44.9092 63.9216 44.7873C63.9573 43.0341 62.6818 41.6337 62.3896 39.9533C62.2532 39.1692 62.3523 38.3393 62.9006 37.7277C63.38 37.1929 64.0561 36.8926 64.6681 36.5413C65.3097 36.1949 65.8567 35.6967 66.2613 35.0902C66.6595 34.4367 66.9436 33.7202 67.1014 32.9714C67.4836 31.2912 67.5992 29.5615 67.444 27.8454C67.2778 25.8859 66.7776 23.9692 65.9651 22.1784C65.9148 22.0675 65.7529 22.1666 65.8029 22.2767L65.803 22.2767Z" fill="white"/>
<path d="M67.2756 31.5242C67.8773 31.563 68.4732 31.3867 68.9569 31.0267C69.4406 30.6667 69.7806 30.1465 69.9161 29.559C69.9431 29.44 69.7595 29.3924 69.7325 29.5115C69.6073 30.0589 69.2905 30.5434 68.8394 30.8777C68.3883 31.212 67.8326 31.374 67.2725 31.3346C67.1508 31.3261 67.1546 31.5158 67.2756 31.5242Z" fill="white"/>
<path d="M64.979 36.1943C64.1571 35.2757 63.7116 34.0812 63.7314 32.8488C63.7334 32.7267 63.5438 32.7299 63.5418 32.8519C63.5236 34.1344 63.9897 35.3766 64.8471 36.3305C64.9289 36.4214 65.0603 36.2847 64.979 36.1943Z" fill="white"/>
<path d="M67.0567 26.0044C66.8208 26.0379 66.5802 26.0123 66.3566 25.9298C66.133 25.8474 65.9334 25.7107 65.7757 25.532C65.6951 25.4402 65.5638 25.577 65.6438 25.6683C65.819 25.8649 66.0396 26.0156 66.2864 26.1072C66.5333 26.1989 66.7988 26.2287 67.0598 26.194C67.0847 26.1928 67.1082 26.1822 67.1255 26.1643C67.1428 26.1464 67.1527 26.1226 67.153 26.0977C67.1525 26.0726 67.1421 26.0487 67.1241 26.0313C67.106 26.0138 67.0818 26.0042 67.0567 26.0044L67.0567 26.0044Z" fill="white"/>
<path d="M51.7461 25.7919C51.7948 25.8507 51.8435 25.9094 51.8918 25.9698C52.5423 26.7636 53.1272 27.6089 53.6408 28.4975C53.6816 28.5655 53.722 28.6351 53.7607 28.7042C54.9753 30.8581 55.7795 33.2187 56.1323 35.6662C56.2718 36.6402 56.337 37.6234 56.3273 38.6073C56.3139 39.9661 56.1912 41.4384 56.615 42.6856C56.6578 42.8162 56.7086 42.944 56.7671 43.0683L63.4627 45.1586C63.4803 45.1558 63.4976 45.1544 63.5152 45.1515L63.7787 45.2472C63.7828 45.1965 63.7859 45.1438 63.7899 45.0931C63.7924 45.0637 63.7934 45.0338 63.7958 45.0044C63.797 44.9847 63.7981 44.9649 63.8003 44.9471C63.8007 44.9406 63.8011 44.934 63.801 44.9289C63.8032 44.9112 63.8033 44.8944 63.805 44.8782C63.8232 44.5838 63.8393 44.2887 63.8534 43.993C63.8539 43.9915 63.8539 43.9915 63.8529 43.9895C63.9544 41.7361 63.8687 39.4544 63.4395 37.2583C63.4265 37.1923 63.4142 37.1247 63.3982 37.0577C63.1992 36.0688 62.9197 35.0979 62.5625 34.1546C62.3653 33.6387 62.1421 33.1331 61.8937 32.6398C61.2496 31.3663 60.4091 30.2022 59.4031 29.1899C57.3975 27.1722 54.7689 25.8185 51.9607 25.7918C51.8888 25.7912 51.8184 25.791 51.7461 25.7919Z" fill="#E6E6E6"/>
<path d="M51.735 25.8825C54.8624 27.5856 57.3737 30.2308 58.9122 33.4424C59.2557 34.1279 59.4889 34.8632 59.6034 35.6214C59.6911 36.3635 59.5784 37.1156 59.2771 37.7995C59.009 38.4427 58.6602 39.0697 58.5531 39.7669C58.5036 40.1247 58.5303 40.4888 58.6314 40.8355C58.7325 41.1822 58.9057 41.5036 59.1397 41.7787C59.705 42.4792 60.4882 42.9348 61.2697 43.3537C62.1374 43.8189 63.046 44.2883 63.6362 45.1052C63.7078 45.2042 63.8572 45.0874 63.7858 44.9886C62.7587 43.5673 60.8971 43.2171 59.6521 42.0513C59.0712 41.5074 58.6507 40.785 58.7202 39.9666C58.781 39.251 59.1401 38.6041 59.4172 37.9552C59.7209 37.2923 59.8577 36.5652 59.8156 35.8374C59.7401 35.0758 59.5355 34.3327 59.2107 33.6398C58.5043 32.0682 57.5551 30.6174 56.398 29.3407C55.0856 27.8762 53.5322 26.647 51.8052 25.7063C51.6983 25.6481 51.6288 25.8247 51.735 25.8825L51.735 25.8825Z" fill="white"/>
<path d="M58.4769 32.3783C58.9807 32.047 59.3503 31.5475 59.5198 30.9688C59.6893 30.3902 59.6475 29.7701 59.402 29.2194C59.352 29.1082 59.1767 29.1807 59.2268 29.2921C59.4564 29.8045 59.4952 30.3821 59.3363 30.9206C59.1774 31.4591 58.8312 31.9231 58.3603 32.2288C58.258 32.2953 58.3752 32.4445 58.4769 32.3783Z" fill="white"/>
<path d="M59.4559 37.4905C58.2466 37.2519 57.1717 36.5663 56.4455 35.5704C56.3736 35.4717 56.2242 35.5884 56.296 35.687C57.0536 36.722 58.1737 37.4331 59.4326 37.6786C59.5526 37.702 59.5752 37.5136 59.4559 37.4905Z" fill="white"/>
<path d="M54.9803 28.1044C54.8121 28.2732 54.6046 28.3976 54.3764 28.4664C54.1482 28.5352 53.9065 28.5462 53.6731 28.4985C53.5534 28.4737 53.5309 28.662 53.6498 28.6867C53.908 28.7382 54.1749 28.7257 54.4272 28.6502C54.6794 28.5748 54.9094 28.4388 55.0969 28.254C55.116 28.238 55.1284 28.2154 55.1315 28.1907C55.1345 28.166 55.128 28.141 55.1134 28.1209C55.0978 28.1012 55.0751 28.0884 55.0502 28.0853C55.0253 28.0822 55.0002 28.0891 54.9803 28.1044L54.9803 28.1044Z" fill="white"/>
<path d="M17.5429 48.5488C18.4698 48.5488 19.3588 48.9171 20.0143 49.5725C20.6698 50.228 21.038 51.117 21.038 52.044V52.044C21.0379 52.8548 20.7559 53.6403 20.2404 54.2661C19.7249 54.8919 19.0079 55.319 18.2122 55.4744V61.1909H15.9812V48.5488H17.5429Z" fill="#3F3D56"/>
<path d="M103.156 82.0349V83.2319C102.648 83.8804 102.126 84.5162 101.588 85.139C101.53 85.2071 101.471 85.2739 101.41 85.342C101.319 85.4486 101.225 85.5539 101.132 85.6592V82.0349H103.156Z" fill="#CACACA"/>
<path d="M97.2171 79.5383C96.7697 79.5389 96.3408 79.7168 96.0244 80.0332C95.708 80.3496 95.5301 80.7785 95.5295 81.2259V83.6545C95.5301 84.1019 95.708 84.5308 96.0244 84.8472C96.3408 85.1636 96.7697 85.3415 97.2171 85.342H101.41C101.471 85.274 101.53 85.2072 101.588 85.1391C102.126 84.5162 102.648 83.8805 103.156 83.2319C103.189 83.1896 103.222 83.1472 103.255 83.1048C103.545 82.7336 103.83 82.3561 104.11 81.9759C104.328 81.678 104.545 81.3774 104.757 81.0743C104.758 81.0731 104.76 81.0731 104.76 81.0718C105.114 80.5683 105.46 80.0572 105.796 79.5383H97.2171Z" fill="#3F3D56"/>
<path d="M108.014 58.751C107.756 58.662 107.486 58.6169 107.213 58.6174H106.523C106.272 58.6176 106.022 58.6553 105.782 58.7292C105.276 58.8883 104.833 59.2047 104.519 59.6324C104.205 60.0601 104.035 60.5769 104.034 61.1077V81.3674C104.034 81.4431 104.038 81.5176 104.044 81.5908C104.056 81.7208 104.078 81.8497 104.11 81.9761C104.328 81.6781 104.545 81.3776 104.757 81.0745C104.759 81.0732 104.76 81.0733 104.76 81.072C105.114 80.5685 105.46 80.0574 105.796 79.5385C105.977 79.2598 106.157 78.9786 106.333 78.696C107.604 76.6562 108.731 74.5293 109.703 72.3311V61.1077C109.702 60.5878 109.539 60.0811 109.237 59.6585C108.934 59.2359 108.506 58.9186 108.014 58.751Z" fill="#3F3D56"/>
<path d="M23.012 82.0349V84.4532C22.4341 83.7623 21.8754 83.0559 21.336 82.3342C21.2615 82.2353 21.1883 82.1351 21.1151 82.0349H23.012Z" fill="#CACACA"/>
<path d="M26.9267 79.5383H19.384C19.6216 79.9044 19.8635 80.2661 20.1097 80.6236C20.4359 81.1 20.7711 81.5705 21.1153 82.035C21.1885 82.1352 21.2617 82.2353 21.3362 82.3342C21.8768 83.056 22.4355 83.7624 23.0122 84.4533C23.12 84.5843 23.2292 84.714 23.3396 84.8437C23.4809 85.0107 23.6243 85.1768 23.7699 85.342H26.9267C27.3739 85.3415 27.8027 85.1634 28.1189 84.8471C28.435 84.5307 28.6127 84.1018 28.6129 83.6545V81.2259C28.6127 80.7786 28.435 80.3497 28.1189 80.0333C27.8027 79.7169 27.3739 79.5389 26.9267 79.5383Z" fill="#3F3D56"/>
<path d="M18.77 58.8987C18.4144 58.7143 18.0198 58.6179 17.6193 58.6174H16.9309C16.6052 58.617 16.2826 58.6812 15.9818 58.8062C15.5262 58.9945 15.1365 59.3136 14.8622 59.7232C14.5879 60.1329 14.4412 60.6147 14.4407 61.1077V69.8113C15.7374 73.2204 17.3946 76.4813 19.3839 79.5385C19.6215 79.9045 19.8634 80.2663 20.1095 80.6237V61.1077C20.1092 60.6523 19.9842 60.2057 19.748 59.8163C19.5119 59.4268 19.1737 59.1095 18.77 58.8987Z" fill="#3F3D56"/>
<path d="M46.8274 96.5126L49.0898 95.9935L48.1643 87.0199L44.8252 87.7861L46.8274 96.5126Z" fill="#9E616A"/>
<path d="M48.8856 88.7276C48.8393 88.5695 48.8079 88.4074 48.7919 88.2434C48.7731 88.0497 48.7352 87.8583 48.6788 87.6719C48.6145 87.5024 48.535 87.3391 48.4412 87.1839C48.3963 87.1017 48.3488 87.0195 48.3064 86.936C48.2637 86.8526 48.2268 86.7664 48.1959 86.6779C46.8718 82.7672 45.0237 77.4528 43.742 74.3423C42.9881 72.5122 38.3519 71.9034 33.9776 71.748C33.4446 71.7288 32.9155 71.7159 32.3979 71.7095C32.2194 71.7069 32.0421 71.7044 31.8662 71.7031C31.4167 71.7005 30.9788 71.7005 30.5575 71.7056C30.5023 71.7056 30.4471 71.7056 30.3918 71.7069C30.0849 71.7095 29.7874 71.7138 29.4993 71.7198C27.5189 71.7583 26.0638 71.8482 25.8043 71.8649L23.4939 70.4124L23.0431 70.1285L22.9956 70.4124L22.6322 72.5777L22.0118 76.2726L23.5671 76.7092L24.5766 76.9918L30.5575 78.6691L31.829 79.0261L31.8367 79.0287L33.9776 79.0248L39.8314 79.0145L40.1139 79.7633C40.0124 79.9208 39.9457 80.0982 39.9181 80.2836C39.8905 80.4689 39.9027 80.658 39.9538 80.8383C40.005 81.0186 40.0939 81.186 40.2147 81.3292C40.3356 81.4725 40.4855 81.5884 40.6546 81.6692L40.8742 81.7732L43.5494 88.8522C43.5576 89.4925 43.7576 90.1157 44.1235 90.6412C44.1684 90.7067 44.2172 90.7709 44.2686 90.8339L44.3277 90.9045L45.3564 92.917L45.969 92.7757L48.5761 92.1785L48.5889 92.1528C48.5902 92.149 48.6236 92.0783 48.6724 91.955V91.9512C48.8766 91.4413 49.3287 90.0479 48.8856 88.7276Z" fill="#2F2E41"/>
<path d="M55.2412 97.1102C55.1438 96.6788 54.962 96.271 54.7063 95.9101C54.4507 95.5492 54.1261 95.2425 53.7514 95.0076C53.3767 94.7727 52.9593 94.6142 52.5231 94.5413C52.0869 94.4684 51.6405 94.4825 51.2098 94.5827L49.4028 93.7672L48.8968 94.123L46.7983 95.5948L46.6249 95.6346L46.0624 95.763L46.8394 99.1497L55.2669 97.2168L55.2412 97.1102Z" fill="#2F2E41"/>
<path d="M44.063 91.8883L43.2989 98.0837L43.2732 98.2866L43.1602 99.21C42.7196 99.0302 42.2804 98.844 41.8463 98.6527C41.4405 98.4741 41.0377 98.2901 40.6378 98.1004V91.8896L44.063 91.8883Z" fill="#9E616A"/>
<path d="M27.4811 49.2958C30.0398 49.2958 32.1139 47.2216 32.1139 44.663C32.1139 42.1043 30.0398 40.0302 27.4811 40.0302C24.9225 40.0302 22.8483 42.1043 22.8483 44.663C22.8483 47.2216 24.9225 49.2958 27.4811 49.2958Z" fill="#9E616A"/>
<path d="M44.5549 94.2525C44.4265 94.0765 44.2929 93.8929 44.2852 93.7169C44.2557 93.0966 44.2249 92.4827 44.1928 91.8817C44.1696 91.4617 44.1465 91.0469 44.1234 90.641C44.1208 90.5897 44.117 90.5383 44.1144 90.4882C44.0746 89.8165 44.2737 89.1076 44.465 88.4205C44.528 88.1957 44.5909 87.9684 44.6474 87.7411C44.7887 87.2345 44.8481 86.7086 44.8233 86.1833C44.4946 82.0235 43.0253 78.1115 42.3665 77.4527C41.3648 76.4509 36.8351 74.1366 33.9775 72.729C33.4702 72.4786 33.0156 72.2577 32.6431 72.0779C32.3131 71.9174 32.0472 71.7902 31.8661 71.7029C31.7274 71.6374 31.6375 71.595 31.6067 71.5796L31.5913 71.5719L30.5575 71.6875L30.3918 71.7067L29.4799 71.8095L23.5478 72.4748L22.6321 72.5775L21.3363 72.7239L20.1663 72.8549L20.1226 72.8588L20.1149 72.9024C20.1149 72.9037 20.1123 72.9127 20.1098 72.9294C19.9086 74.1989 19.9086 75.4922 20.1098 76.7617C20.2613 77.6235 20.5477 78.4994 21.0563 79.2365C21.1256 79.3367 21.1976 79.433 21.2746 79.5255C21.2772 79.5304 21.2807 79.5347 21.2849 79.5384C21.3016 79.5589 21.3183 79.5794 21.3363 79.6V79.6013C21.918 80.2778 22.6988 80.753 23.5671 80.9588C23.6955 80.9935 23.8265 81.0217 23.9613 81.0448C25.3985 81.2991 27.0218 81.5329 28.613 81.7383C29.2719 81.8231 29.9256 81.9027 30.5575 81.9772C31.8225 82.1262 33.004 82.2521 33.9775 82.3522C35.3414 82.4909 36.2995 82.577 36.5127 82.595L38.8951 93.7092C38.7081 94.0254 38.6335 94.3955 38.6834 94.7595C38.7333 95.1234 38.9047 95.4598 39.1699 95.714L39.3651 95.9028L39.5912 96.961L40.336 97.9576L40.4298 98.0835H43.7163L43.7343 98.0617C43.7458 98.0463 44.9017 96.5616 44.8233 94.7932C44.8156 94.6108 44.6885 94.4374 44.5549 94.2525Z" fill="#2F2E41"/>
<path d="M44.4646 57.0031C44.2157 56.9351 43.955 56.9225 43.7007 56.9661C43.4464 57.0098 43.2048 57.1086 42.9928 57.2557C42.7809 57.4029 42.6038 57.5947 42.474 57.8177C42.3442 58.0406 42.2648 58.2894 42.2416 58.5463L38.3922 59.7494L38.5528 62.267L43.9649 60.4916C44.3992 60.5021 44.8222 60.3529 45.1539 60.0724C45.4855 59.7918 45.7027 59.3993 45.7643 58.9693C45.8258 58.5393 45.7276 58.1017 45.488 57.7393C45.2485 57.3769 44.8844 57.115 44.4646 57.0031Z" fill="#9E616A"/>
<path d="M41.9533 61.1693L39.0764 62.2582L39.0028 62.4009C38.9155 62.5703 38.7957 62.7209 38.6501 62.844C38.5046 62.9671 38.3363 63.0603 38.1547 63.1184C37.9732 63.1764 37.782 63.1981 37.592 63.1823C37.4021 63.1665 37.2171 63.1134 37.0477 63.026L30.5812 65.4735C30.5812 65.4735 27.6934 62.5836 25.6375 60.0046L26.3382 55.6946C26.5005 54.6946 26.8454 53.733 27.3558 52.8579C31.5722 53.7825 33.9926 59.6768 33.9926 59.6768L41.5918 58.2268L41.9533 61.1693Z" fill="#069E95"/>
<path d="M26.8226 49.0495C25.6628 49.3627 24.3841 48.9463 23.479 48.1563C22.5739 47.3663 22.0077 46.2469 21.6814 45.0907C21.4425 44.2439 21.3292 43.3039 21.7062 42.5089C22.0833 41.7139 23.0981 41.1776 23.8809 41.5791C23.398 41.0165 23.6393 40.0858 24.2033 39.6045C24.7674 39.1231 25.5419 38.9851 26.2796 38.9096C27.3502 38.8002 28.456 38.7879 29.4747 39.1347C30.4935 39.4816 31.4191 40.2399 31.7379 41.2677C32.0636 41.4193 32.4303 41.4587 32.7807 41.3795C33.1311 41.3004 33.4453 41.1074 33.6742 40.8305C33.7332 41.1485 33.6858 41.477 33.5393 41.7653C33.3928 42.0535 33.1554 42.2855 32.8638 42.4253L34.4247 41.9192C34.6932 42.4874 34.2228 43.1906 33.6213 43.3726C33.0198 43.5546 32.3705 43.3557 31.7997 43.0928C31.2289 42.8299 30.6757 42.4976 30.0557 42.395C29.4357 42.2925 28.7074 42.4917 28.4206 43.0509C28.2704 43.3438 28.2626 43.6868 28.1754 44.0042C28.0882 44.3216 27.8673 44.6506 27.5391 44.6766C27.3318 44.693 27.1289 44.5826 26.9221 44.6052C26.7953 44.6301 26.6784 44.6916 26.586 44.7819C26.4935 44.8723 26.4294 44.9877 26.4014 45.1139C26.35 45.3673 26.3493 45.6283 26.3996 45.8819L26.7961 48.9126L26.8226 49.0495Z" fill="#2F2E41"/>
<path d="M32.6435 72.0777L32.3982 71.7091L30.6079 69.0236L30.5719 68.971L31.1254 66.0993L31.2975 65.2029L31.6738 63.252L31.5647 58.7866L31.4863 55.6272L31.4748 55.1315L31.0779 53.9217C30.8898 53.3559 30.5876 52.8348 30.1899 52.3906C29.7923 51.9463 29.3077 51.5884 28.7662 51.339L26.0949 50.1163C25.7805 49.9732 25.4222 49.9608 25.0987 50.0819C24.7752 50.203 24.513 50.4477 24.3699 50.762C24.3579 50.7883 24.3469 50.8149 24.3367 50.8419C23.9707 50.892 22.382 51.1592 21.0348 52.2046C20.091 52.9227 19.4321 53.9519 19.1751 55.1096C19.1726 55.1186 19.1713 55.1276 19.1687 55.1366C18.9902 55.9342 18.8566 57.1928 18.7706 58.8983C18.7128 60.0259 18.6764 61.347 18.6614 62.8616C18.6374 65.3863 18.7794 67.9098 19.0865 70.4158C19.116 70.6547 19.1469 70.8923 19.179 71.1312C19.2059 71.3315 19.3986 71.5229 19.5848 71.7065C19.7556 71.8748 19.9316 72.0494 19.956 72.2074C19.9778 72.3461 19.8892 72.4912 19.7839 72.6428C19.771 72.662 19.7569 72.6813 19.7441 72.7006C19.6131 72.8868 19.4782 73.0807 19.5129 73.2849C19.5938 73.7447 19.6413 74.2122 19.6863 74.6642C19.7365 75.2867 19.8266 75.9053 19.956 76.5162C20.0009 76.7037 20.0523 76.8925 20.1101 77.0813C20.2449 77.5244 20.408 77.9661 20.5673 78.3977C20.7047 78.7727 20.8473 79.158 20.968 79.5381C20.9911 79.6088 21.0129 79.6781 21.0335 79.7475L21.0438 79.7834L21.081 79.7898H21.0836C21.1342 79.6996 21.1945 79.6152 21.2634 79.5381C21.2665 79.5332 21.2704 79.5289 21.2749 79.5253C21.2929 79.5034 21.3135 79.4803 21.3366 79.4559C21.6178 79.149 22.2292 78.598 23.5674 77.6695C23.8666 77.4627 24.2018 77.2379 24.5768 76.9914C25.9523 76.0911 27.8736 74.9185 30.5578 73.4043C31.2308 73.0242 31.953 72.6222 32.7244 72.1984L32.6435 72.0777Z" fill="#069E95"/>
<path d="M47.0491 100.33C46.7371 100.017 46.3662 99.7685 45.9578 99.5994C45.5493 99.4303 45.1114 99.3438 44.6693 99.345L43.2733 98.2867L43.0896 98.1467L41.8464 98.6527C42.2805 98.8441 42.7198 99.0303 43.1603 99.2101C44.5383 99.7726 45.9455 100.275 47.3817 100.718C47.2808 100.58 47.1696 100.451 47.0491 100.33Z" fill="#2F2E41"/>
<path d="M78.0556 96.4247L76.3071 95.5885L78.7089 88.2803L81.2894 89.5145L78.0556 96.4247Z" fill="#FFB6B6"/>
<path d="M89.7771 95.2475C89.2685 95.5647 88.7535 95.873 88.2321 96.1722V96.1761L88.2244 96.1774L88.2218 96.1786L88.024 96.2274L87.7402 95.4774L87.0852 93.7475L85.3 89.0341L88.0754 88.3496L88.2321 88.9853L89.4059 93.7462L89.7424 95.1075L89.7771 95.2475Z" fill="#FFB6B6"/>
<path d="M82.6988 64.6604C82.9481 65.0654 83.346 65.3569 83.8073 65.4726C84.2686 65.5884 84.7569 65.5192 85.1679 65.2799C85.2506 65.2298 85.329 65.173 85.4023 65.1101L90.93 68.2823L90.6899 65.0259L85.4775 62.5128C85.1939 62.2279 84.8237 62.0452 84.4251 61.9932C84.0264 61.9413 83.6218 62.0231 83.2747 62.2259C82.8774 62.4645 82.5911 62.8511 82.4788 63.3008C82.3665 63.7505 82.4375 64.2263 82.6761 64.6237C82.6835 64.636 82.691 64.6482 82.6988 64.6604Z" fill="#FFB6B6"/>
<path d="M88.5535 67.0878L89.5306 67.6833L93.9189 70.3592C94.207 70.5395 94.5277 70.6612 94.8628 70.7175C95.1979 70.7738 95.5408 70.7635 95.8719 70.6872C96.203 70.611 96.5159 70.4703 96.7926 70.2731C97.0694 70.076 97.3046 69.8262 97.4848 69.5382L97.4863 69.5359C97.8112 69.0005 97.9261 68.3638 97.809 67.7486L95.8585 58.0043C95.7865 57.6218 95.6327 57.2593 95.4076 56.9417C95.1826 56.6241 94.8917 56.3588 94.5547 56.164C94.2177 55.9692 93.8426 55.8494 93.455 55.8129C93.0675 55.7764 92.6766 55.824 92.3092 55.9525C91.6916 56.1695 91.1798 56.6137 90.8781 57.1947C90.5763 57.7757 90.5073 58.4498 90.6849 59.0798L92.7244 65.9952L89.5982 64.5377L88.5535 67.0878Z" fill="#069E95"/>
<path d="M106.547 76.6957C106.546 76.6918 106.544 76.6777 106.54 76.6559L106.536 76.6418C106.527 76.5955 106.517 76.5441 106.505 76.4876C106.243 75.1864 105.906 73.9013 105.497 72.6386C105.254 71.8654 104.933 71.1191 104.538 70.4117C104.525 70.3885 104.511 70.3654 104.496 70.3423L104.449 70.2653L104.049 70.4117L104.034 70.4168L97.9619 72.6425L96.2063 73.2859L96.1511 73.3065L95.8519 74.5265L91.6535 73.9833L88.2322 73.5402L87.2497 73.413C86.8238 73.3575 86.3911 73.3873 85.9768 73.5007C85.5625 73.614 85.1749 73.8086 84.8365 74.0732C84.4834 74.3469 84.1883 74.6882 83.9685 75.0772C83.7487 75.4661 83.6085 75.895 83.5561 76.3387C83.5432 76.4363 83.5355 76.5352 83.5317 76.6328L83.235 87.6995V87.7136L83.3724 87.9885L86.2428 93.7472H88.2322L89.406 93.7459H90.3602L88.376 88.7256L88.4209 88.6576C88.6076 88.3714 88.7253 88.0458 88.7648 87.7063C88.8042 87.3669 88.7643 87.023 88.6483 86.7016L88.8717 86.0543C89.3354 84.7174 89.1157 84.0752 88.8383 83.2636C88.5892 82.6036 88.4428 81.9092 88.4043 81.2048L88.358 80.2891C89.5229 80.4933 90.6081 80.7207 91.6535 80.9493C92.0028 81.025 92.3487 81.1017 92.6912 81.1792C93.666 81.3962 94.6074 81.6055 95.5295 81.7802C97.3969 82.1359 99.1859 82.353 101.024 82.2181C101.06 82.2156 101.096 82.213 101.132 82.2092C101.579 82.1732 102.028 82.1154 102.483 82.0345C102.738 81.9883 102.995 81.9356 103.254 81.874C103.326 81.856 103.4 81.838 103.472 81.82C103.671 81.7674 103.864 81.6901 104.044 81.5901C104.301 81.4466 104.541 81.2733 104.757 81.0738C104.758 81.0726 104.76 81.0726 104.76 81.0713C105.114 80.5678 105.46 80.0567 105.796 79.5378C105.977 79.2591 106.157 78.9779 106.333 78.6953C106.59 77.9903 106.687 77.2788 106.547 76.6957Z" fill="#2F2E41"/>
<path d="M106.59 74.6172C106.57 74.535 106.546 74.4515 106.52 74.3706C106.316 73.7578 106.079 73.1567 105.809 72.57C105.506 71.9022 105.142 71.1869 104.709 70.4124C104.5 70.0374 104.275 69.6474 104.034 69.2424C103.913 69.0395 103.788 68.8328 103.657 68.6221C103.652 68.6124 103.647 68.603 103.641 68.5939L103.604 68.5322L97.5957 69.3362L95.3584 69.6354L95.2249 70.7502L95.1927 71.0263C95.1915 71.0263 95.1915 71.0263 95.1927 71.0276L95.1028 71.7802V71.7815L94.9834 72.7755L94.9731 72.7742L91.6532 72.344L88.2319 71.9009L86.3941 71.6633C85.9682 71.6078 85.5355 71.6376 85.1212 71.7509C84.7069 71.8643 84.3193 72.0589 83.9809 72.3235C83.6278 72.5972 83.3327 72.9385 83.1129 73.3275C82.8931 73.7164 82.7529 74.1452 82.7005 74.5889C82.6889 74.6788 82.6812 74.7713 82.6773 74.8625L80.9435 78.9709C79.9061 81.428 79.2453 84.0276 78.9837 86.6818L77.7123 90.7466L77.8934 90.7633L80.5878 91.0137L81.2993 91.0805L82.8661 88.7932C83.0447 88.5325 83.2142 88.2641 83.3721 87.9892C83.6322 87.5403 83.8634 87.0753 84.0644 86.5971L87.4536 78.5317C87.7156 78.5767 87.975 78.6195 88.2319 78.6601C89.4199 78.8528 90.5603 79.0099 91.6532 79.1315C95.2069 79.5283 98.284 79.5591 101.023 79.2227C101.793 79.1289 102.536 79.0056 103.254 78.8528C103.518 78.7976 103.777 78.738 104.034 78.6743C104.094 78.6601 104.153 78.646 104.212 78.6306C104.743 78.4937 105.231 78.2259 105.632 77.8517C106.032 77.4774 106.332 77.0087 106.505 76.4884C106.711 75.8855 106.74 75.2363 106.59 74.6172Z" fill="#2F2E41"/>
<path d="M93.8142 50.3607C96.1094 50.3607 97.97 48.4586 97.97 46.1123C97.97 43.766 96.1094 41.8639 93.8142 41.8639C91.519 41.8639 89.6584 43.766 89.6584 46.1123C89.6584 48.4586 91.519 50.3607 93.8142 50.3607Z" fill="#FFB6B6"/>
<path d="M103.682 68.7648C103.676 68.7172 103.668 68.6697 103.658 68.6222C103.559 68.1008 103.302 67.5896 103.054 67.0939C102.818 66.6213 102.593 66.1744 102.5 65.73C102.409 65.292 102.463 64.8528 102.516 64.429C102.572 63.9692 102.631 63.494 102.499 63.033C101.828 60.6784 100.907 58.4024 99.7508 56.2442C99.4591 55.2952 98.8998 54.4505 98.1402 53.8113C97.3805 53.1721 96.4526 52.7656 95.4677 52.6405C95.5826 52.4258 95.6305 52.1815 95.6051 51.9393C95.589 51.7828 95.542 51.631 95.4668 51.4928C95.3916 51.3545 95.2898 51.2326 95.1671 51.134C95.0493 51.0391 94.9139 50.9685 94.7686 50.9261C94.6233 50.8838 94.4711 50.8707 94.3208 50.8874L92.3892 51.1045C92.0795 51.1434 91.7977 51.3029 91.6051 51.5485C91.4124 51.794 91.3245 52.1057 91.3605 52.4158C91.3713 52.5112 91.3929 52.6051 91.4247 52.6957C89.6318 54.9792 88.711 57.0597 88.6262 59.0273V59.0286C88.616 59.2558 88.6172 59.4834 88.6301 59.7105C88.6707 60.445 88.8303 61.1681 89.1027 61.8514C89.4243 62.6409 89.8549 63.3814 90.3819 64.0514C90.4897 64.1876 90.6015 64.3211 90.7171 64.4521C90.8249 64.5805 90.9457 64.7154 91.0792 64.8567L91.417 65.3858L91.7317 65.8802L93.4141 69.7627L94.2707 69.7344L94.3901 70.5885L94.4184 70.7875L94.9732 72.7743L95.0143 72.9233L95.7733 72.5624L100.302 70.4125L103.687 68.8046L103.682 68.7648Z" fill="#069E95"/>
<path opacity="0.2" d="M89.1539 61.8297C89.5401 62.7755 90.0829 63.6494 90.7595 64.4147C90.8754 64.5531 90.9978 64.689 91.1259 64.8252L91.7833 65.8567C94.2067 64.0403 96.1701 56.8882 96.1701 56.8882L93.4359 56.3563L89.1539 61.8297Z" fill="black"/>
<path d="M87.4985 50.7569C87.7379 51.1682 87.8074 51.6566 87.6922 52.1184C87.577 52.5801 87.2862 52.9786 86.8816 53.2292C86.7986 53.2788 86.7115 53.3215 86.6215 53.3568L86.815 59.7273L84.0563 57.9907L84.2954 52.2074C84.178 51.8225 84.1914 51.4096 84.3333 51.0332C84.4753 50.6567 84.7379 50.3378 85.0801 50.1262C85.4757 49.8869 85.9503 49.8145 86.3993 49.9251C86.8483 50.0356 87.235 50.3199 87.4743 50.7156C87.4826 50.7292 87.4906 50.743 87.4985 50.7569Z" fill="#FFB6B6"/>
<path d="M87.0578 57.323L84.024 57.7544L84.1545 64.0369C84.162 64.4851 84.2841 64.9239 84.509 65.3116C84.7339 65.6994 85.0543 66.0231 85.4396 66.2522C85.9103 66.5291 86.4583 66.6456 87.0009 66.584C87.5436 66.5223 88.0515 66.286 88.4482 65.9106L95.6106 59.0213C96.1146 58.5432 96.4162 57.8902 96.4534 57.1966C96.4906 56.503 96.2606 55.8215 95.8108 55.2922C95.3699 54.7704 94.7399 54.4451 94.0592 54.3879C93.3786 54.3306 92.703 54.5461 92.1812 54.9869C92.1608 55.0041 92.1407 55.0217 92.1208 55.0396C92.05 55.1028 91.9827 55.1699 91.9192 55.2404L87.1897 60.6812L87.0578 57.323Z" fill="#069E95"/>
<path d="M89.8546 95.0879L89.7428 95.1084L88.2325 95.3871L87.7406 95.4783L86.9662 95.6209L87.241 96.7292C87.5711 96.5507 87.8973 96.367 88.2222 96.1795L88.2248 96.1783L88.2325 96.177V96.1731C88.7539 95.8752 89.2689 95.5669 89.7775 95.2484C89.8135 95.2266 89.8494 95.2048 89.8854 95.1804L89.8546 95.0879Z" fill="#2F2E41"/>
<path d="M78.6143 95.2319L76.7226 94.3252L76.4259 94.1826L75.952 95.3462L72.6437 96.0744C72.4801 96.1102 72.3322 96.1975 72.2218 96.3233C72.1113 96.4492 72.044 96.6071 72.0296 96.7739C72.0153 96.9408 72.0547 97.1078 72.142 97.2507C72.2294 97.3936 72.3602 97.5048 72.5152 97.568L75.7478 98.887L76.7739 97.9636L76.5222 99.2029L77.7397 99.6999L79.0741 95.4528L78.6143 95.2319Z" fill="#2F2E41"/>
<path d="M104.935 44.2699C104.228 43.4462 103.892 42.3532 103.328 41.4178C102.763 40.4824 101.78 39.6451 100.742 39.8628C100.027 40.0129 99.4735 40.6444 99.1934 41.3485C98.9135 42.0525 98.861 42.8289 98.812 43.5896C98.8293 42.0264 97.7995 40.5111 96.3808 40.0123C94.9623 39.5135 93.2646 40.0699 92.3732 41.3257C91.9842 40.9651 91.4764 40.7598 90.9462 40.7487C90.4159 40.7376 89.9 40.9214 89.4962 41.2653C88.6989 41.9779 88.5224 43.3342 89.1088 44.2432C89.6952 45.1522 90.9651 45.4908 91.8969 44.9867L92.2264 45.2897C92.0409 45.9383 92.4005 46.7044 93.0051 46.9486C93.4953 47.1466 94.1873 47.1136 94.3707 47.628C94.4989 47.9875 94.2593 48.3712 94.0045 48.6474C93.7496 48.9236 93.4471 49.2088 93.4164 49.591C93.3702 50.1677 93.9662 50.5717 94.5079 50.6934C95.8142 50.9868 97.2637 50.3818 98.0166 49.229C98.0311 49.2068 98.0469 49.1845 98.0639 49.1622C98.4863 48.622 98.7942 48.0014 98.9686 47.3382C99.1431 46.675 99.1805 45.9832 99.0786 45.3051C99.0362 45.0386 99.0789 44.8404 99.2626 44.7773C100.057 44.5046 102.281 45.077 102.954 45.5944C103.628 46.1117 104.167 46.7964 104.815 47.3472C105.464 47.8979 106.29 48.3227 107.114 48.1728C107.773 48.0526 108.334 47.5739 108.712 46.9963C109.089 46.4188 109.306 45.7457 109.501 45.0767C108.042 45.9191 106.047 45.5665 104.935 44.2699Z" fill="#2F2E41"/>
<path d="M91.6534 69.5927V94.0199C91.1885 94.3397 90.7176 94.6509 90.2407 94.9536V71.2122C90.2407 70.5238 90.0095 69.9652 89.7257 69.9639H68.3435C68.0584 69.9652 67.8286 70.5238 67.8273 71.2122V102.736C67.5422 102.765 67.257 102.792 66.9719 102.815C66.8538 102.825 66.7343 102.834 66.6162 102.843C66.5481 102.717 66.4813 102.59 66.4146 102.462V69.5927C66.4146 69.4026 66.4223 69.2113 66.4351 69.0225C66.5507 67.4197 67.1248 66.2484 67.7964 66.2458H90.2715C90.3529 66.2464 90.4333 66.2634 90.5078 66.2959C91.0703 66.5348 91.5147 67.5828 91.6264 68.9377C91.6444 69.1535 91.6547 69.3731 91.6534 69.5927Z" fill="#E4E4E4"/>
<path d="M57.3456 69.5927V102.639C57.3264 102.67 57.3071 102.699 57.2879 102.73C56.805 102.681 56.3242 102.625 55.8456 102.562V71.2122C55.8456 70.5238 55.6003 69.9652 55.2985 69.9639H32.6038C32.302 69.9652 32.0567 70.5238 32.0567 71.2122V92.9758C31.5494 92.6021 31.0494 92.2189 30.5566 91.8263V69.5927C30.5566 69.4026 30.5643 69.2113 30.5785 69.0225C30.7005 67.4197 31.3105 66.2484 32.0246 66.2458H55.8777C55.9636 66.2461 56.0487 66.2631 56.1281 66.2959C56.7253 66.5348 57.1979 67.5828 57.3174 68.9377C57.3366 69.1535 57.3456 69.3731 57.3456 69.5927Z" fill="#E4E4E4"/>
<path d="M49.7399 58.6116L51.2272 65.1557L52.1776 66.1968H52.8633L50.0374 54.2983L49.8976 56.3197V56.3211L49.7399 58.6116Z" fill="#3F3D56"/>
<path d="M54.6932 66.5307C54.6888 66.5206 54.6832 66.5111 54.6765 66.5024C54.6628 66.4715 54.6431 66.4436 54.6187 66.4202L54.4453 66.2468L53.5334 65.3337C53.4665 65.2682 53.3767 65.2314 53.283 65.231H53.2791L52.6357 65.2348L52.0822 65.2387L51.309 65.2438L46.0435 65.2772L42.5823 65.299C42.4886 65.3002 42.399 65.3381 42.333 65.4047C42.2669 65.4712 42.2296 65.561 42.2291 65.6548C42.2297 65.7066 42.241 65.7578 42.2625 65.805L42.3293 65.9476L42.4693 66.2468L42.6517 66.6385L42.7416 66.8312C42.7702 66.8925 42.8158 66.9444 42.8729 66.9808C42.9299 67.0172 42.9962 67.0366 43.0639 67.0367H54.367C54.4264 67.0355 54.4847 67.0198 54.5366 66.9908C54.5886 66.9618 54.6326 66.9205 54.6648 66.8706C54.6971 66.8206 54.7165 66.7634 54.7214 66.7041C54.7264 66.6449 54.7167 66.5853 54.6932 66.5307H54.6932Z" fill="#3F3D56"/>
<path opacity="0.17" d="M42.6516 66.6388L42.7408 66.8321C42.7699 66.8932 42.8156 66.9449 42.8727 66.9812C42.9298 67.0175 42.9959 67.037 43.0636 67.0374H54.3671C54.4265 67.0363 54.4848 67.0206 54.5367 66.9916C54.5887 66.9627 54.6327 66.9214 54.6649 66.8714C54.6971 66.8214 54.7165 66.7643 54.7213 66.705C54.7262 66.6458 54.7164 66.5862 54.6928 66.5317C54.6888 66.5215 54.6833 66.512 54.6764 66.5034L42.6516 66.6388Z" fill="black"/>
<path opacity="0.17" d="M49.8978 56.3197V56.3211L52.3177 66.1968H52.8635L50.0377 54.2983L49.8978 56.3197Z" fill="black"/>
<path d="M53.6935 28.6834L53.3391 28.6359C53.2418 28.6233 53.1435 28.6496 53.0655 28.7091L52.8536 28.8722L50.4944 31.8235C50.4164 31.8838 50.3656 31.9724 50.3531 32.0701L50.2208 33.0744L46.9279 58.1296C46.9162 58.2225 46.9395 58.3164 46.9934 58.3929L48.5448 62.6696L48.591 62.7364L48.6912 62.8789C48.7428 62.9513 48.8183 63.0032 48.9044 63.0254L49.1292 63.0819C49.1802 63.0946 49.2334 63.0965 49.2852 63.0872C49.337 63.0779 49.3863 63.0577 49.4297 63.0279C49.4733 62.9986 49.5101 62.9603 49.5375 62.9155C49.565 62.8708 49.5826 62.8206 49.5889 62.7685L49.9909 59.7145V59.7132L50.2478 57.7533L50.4648 56.1005V56.0992L54.0146 29.0996C54.0274 29.0021 54.001 28.9035 53.9411 28.8255C53.8812 28.7475 53.7928 28.6965 53.6954 28.6837L53.6935 28.6834Z" fill="#3F3D56"/>
<path opacity="0.17" d="M52.8534 28.8723L48.5449 62.6702L48.5917 62.7363L48.6916 62.8784C48.7431 62.951 48.8186 63.0029 48.9048 63.025L49.1299 63.0815C49.1808 63.0942 49.2339 63.0959 49.2855 63.0866C49.3372 63.0774 49.3863 63.0573 49.4297 63.0278C49.4731 62.9982 49.5098 62.9598 49.5373 62.9151C49.5649 62.8705 49.5827 62.8205 49.5896 62.7684L54.0146 29.0999C54.0274 29.0022 54.0009 28.9033 53.9408 28.8251C53.8808 28.7469 53.7921 28.6957 53.6944 28.6828L53.339 28.6361C53.2908 28.6296 53.2418 28.6327 53.1948 28.6454C53.1478 28.658 53.1038 28.6799 53.0653 28.7097L52.8534 28.8723Z" fill="black"/>
<path d="M52.726 29.8389L50.4396 33.1024L47.722 53.7796L49.1954 56.7025L52.726 29.8389Z" fill="#069E95"/>
<path d="M74.9981 58.6116L73.5108 65.1557L72.5604 66.1968H71.8748L74.7007 54.2983L74.8404 56.3197V56.3211L74.9981 58.6116Z" fill="#3F3D56"/>
<path d="M82.1564 65.299L73.4309 65.2438L72.6565 65.2387L72.1043 65.2348L71.4608 65.231H71.4557C71.3624 65.2311 71.2729 65.268 71.2065 65.3337L70.12 66.4202C70.096 66.4439 70.0764 66.4718 70.0622 66.5024C70.0555 66.5111 70.0498 66.5206 70.0455 66.5307C70.022 66.5853 70.0123 66.6449 70.0172 66.7041C70.0222 66.7634 70.0416 66.8206 70.0738 66.8706C70.1061 66.9206 70.1501 66.9619 70.2021 66.9908C70.254 67.0198 70.3123 67.0355 70.3717 67.0367H81.6748C81.7426 67.0364 81.809 67.017 81.8663 66.9806C81.9235 66.9443 81.9694 66.8925 81.9984 66.8312L82.087 66.6385L82.2694 66.2468L82.4762 65.805C82.4983 65.758 82.5097 65.7067 82.5096 65.6548C82.5091 65.561 82.4718 65.4712 82.4057 65.4047C82.3397 65.3381 82.2501 65.3002 82.1564 65.299Z" fill="#3F3D56"/>
<path opacity="0.17" d="M82.0869 66.6388L81.9977 66.8321C81.9687 66.8932 81.923 66.9449 81.8659 66.9812C81.8088 67.0175 81.7426 67.037 81.6749 67.0374H70.3715C70.312 67.0363 70.2537 67.0206 70.2018 66.9916C70.1499 66.9627 70.1059 66.9214 70.0737 66.8714C70.0415 66.8214 70.0221 66.7643 70.0172 66.705C70.0123 66.6458 70.0221 66.5862 70.0457 66.5317C70.0497 66.5215 70.0552 66.512 70.0621 66.5034L82.0869 66.6388Z" fill="black"/>
<path opacity="0.17" d="M74.8404 56.3197V56.3211L72.4206 66.1968H71.8748L74.7007 54.2983L74.8404 56.3197Z" fill="black"/>
<path d="M77.8103 58.1296L74.3851 32.0701C74.3726 31.9724 74.3218 31.8837 74.2439 31.8235L71.8859 28.8722L71.674 28.7091C71.5955 28.6496 71.4968 28.6234 71.3992 28.6359L71.0447 28.6834C70.9469 28.696 70.8582 28.7469 70.798 28.8249C70.7378 28.903 70.711 29.0017 70.7236 29.0995L74.2734 56.1004V56.1017L74.4905 57.7533L74.7486 59.7144V59.717L75.1493 62.7684C75.1557 62.8207 75.1733 62.871 75.201 62.9158C75.2288 62.9606 75.2659 62.9988 75.3098 63.0279C75.353 63.0576 75.402 63.0778 75.4536 63.0871C75.5052 63.0964 75.5582 63.0946 75.6091 63.0818L75.8338 63.0253C75.9199 63.0031 75.9954 62.9513 76.047 62.8789L76.1472 62.7363L76.1934 62.6695L77.7448 58.3929C77.7993 58.3166 77.8227 58.2225 77.8103 58.1296Z" fill="#3F3D56"/>
<path opacity="0.17" d="M71.8854 28.8723L76.1939 62.6701L76.1471 62.7363L76.0472 62.8784C75.9957 62.951 75.9202 63.0029 75.834 63.025L75.6089 63.0815C75.558 63.0942 75.5049 63.0959 75.4533 63.0866C75.4016 63.0774 75.3525 63.0573 75.3091 63.0277C75.2657 62.9982 75.229 62.9598 75.2015 62.9151C75.174 62.8705 75.1561 62.8205 75.1492 62.7684L70.7242 29.0999C70.7114 29.0022 70.7379 28.9033 70.798 28.8251C70.858 28.7469 70.9467 28.6957 71.0444 28.6828L71.3998 28.6361C71.448 28.6296 71.497 28.6327 71.544 28.6454C71.591 28.658 71.635 28.6799 71.6735 28.7097L71.8854 28.8723Z" fill="black"/>
<path d="M72.0121 29.8389L74.2985 33.1024L77.0161 53.7796L75.5427 56.7025L72.0121 29.8389Z" fill="#069E95"/>
<path d="M29.5158 71.5269C29.5162 71.5915 29.5106 71.656 29.4991 71.7195C29.494 71.7503 29.4876 71.7799 29.4798 71.8094C29.4173 72.0482 29.2774 72.2596 29.0819 72.4104C28.8865 72.5612 28.6466 72.643 28.3998 72.6429H23.567V84.1694C23.5672 84.413 23.4873 84.6499 23.3397 84.8437C23.2292 84.714 23.12 84.5843 23.0122 84.4533C22.4342 83.7623 21.8756 83.0559 21.3362 82.3342V72.6429H19.1786C18.8909 72.6427 18.6144 72.5314 18.4068 72.3322C18.1993 72.1329 18.0767 71.8612 18.0648 71.5738C18.0529 71.2863 18.1525 71.0054 18.3428 70.7896C18.5331 70.5739 18.7994 70.44 19.0861 70.416C19.1169 70.4134 19.1477 70.4121 19.1786 70.4121H28.3998C28.6956 70.412 28.9793 70.5294 29.1886 70.7384C29.3979 70.9475 29.5156 71.2311 29.5158 71.5269Z" fill="#3F3D56"/>
<path d="M106.525 71.5269C106.526 71.7528 106.457 71.9734 106.329 72.1596C106.201 72.3458 106.02 72.4888 105.809 72.5697C105.709 72.608 105.604 72.6314 105.497 72.6391C105.469 72.6416 105.439 72.6429 105.411 72.6429H103.254V83.1047C103.222 83.1471 103.189 83.1895 103.156 83.2319C102.648 83.8805 102.126 84.5162 101.587 85.1391C101.416 85.0423 101.273 84.9014 101.174 84.7309C101.075 84.5604 101.023 84.3666 101.024 84.1694V72.6429H96.1895C96.0469 72.6434 95.9055 72.6159 95.7734 72.562C95.607 72.4955 95.4592 72.3898 95.3425 72.2538C95.2257 72.1178 95.1436 71.9557 95.103 71.7812V71.7799C95.0431 71.5263 95.075 71.2596 95.1929 71.0273C95.1916 71.026 95.1916 71.026 95.1929 71.026C95.2439 70.9237 95.3107 70.8301 95.3907 70.7486C95.4947 70.6421 95.6189 70.5574 95.7561 70.4997C95.8933 70.4419 96.0407 70.4121 96.1895 70.4121H105.411C105.706 70.4121 105.99 70.5294 106.199 70.7384C106.408 70.9474 106.525 71.2309 106.526 71.5265L106.525 71.5269Z" fill="#3F3D56"/>
<path d="M106.451 50.0355C105.992 50.0355 105.538 50.1259 105.114 50.3016C104.69 50.4772 104.305 50.7347 103.98 51.0592C103.655 51.3838 103.398 51.7691 103.222 52.1931C103.047 52.6172 102.956 53.0717 102.956 53.5307V53.5307C102.956 54.3415 103.238 55.127 103.754 55.7528C104.269 56.3786 104.986 56.8057 105.782 56.9611V62.6776H108.013V50.0355H106.451Z" fill="#3F3D56"/>
<path d="M45.4288 62.7983C45.2063 62.6677 44.9579 62.5874 44.701 62.5632C44.4441 62.539 44.1851 62.5714 43.9421 62.6581C43.6991 62.7449 43.4781 62.8838 43.2946 63.0652C43.1111 63.2466 42.9696 63.466 42.8801 63.708L38.8502 63.8652L38.3073 65.7423L44.0363 66.0356C44.4528 66.159 44.9001 66.1253 45.2935 65.941C45.6868 65.7567 45.9989 65.4345 46.1705 65.0354C46.3421 64.6364 46.3615 64.1882 46.2248 63.7759C46.0881 63.3636 45.8049 63.0157 45.4288 62.7983H45.4288Z" fill="#9E616A"/>
<path d="M42.1184 66.2378L37.9789 66.1862L37.4549 66.1791L29.0328 66.073C29.0328 66.073 26.7458 63.8911 24.7543 61.6447L25.0334 59.6257C25.3057 57.6443 26.2886 55.8294 27.7992 54.5186C30.6514 56.4244 32.3055 60.1969 32.3055 60.1969L35.0789 61.4379C37.0308 61.5252 38.9327 62.0822 40.6232 63.0616L41.5353 63.59L42.1184 66.2378Z" fill="#069E95"/>
<path d="M55.1243 102.463H70.0554C69.037 102.612 68.0091 102.73 66.9718 102.816H58.2078C57.1701 102.73 56.1423 102.612 55.1243 102.463Z" fill="#CCCCCC"/>
<path d="M58.1263 94.9462C58.4153 92.3382 59.9946 89.7512 62.4664 88.8707C61.5229 91.5637 61.5625 94.5037 62.578 97.1703C62.9733 98.1973 63.52 99.2984 63.175 100.343C62.9603 100.994 62.4207 101.496 61.8141 101.814C61.2076 102.132 60.5318 102.288 59.8645 102.442L59.7343 102.553C58.6398 100.168 57.8373 97.5542 58.1263 94.9462Z" fill="#CCCCCC"/>
<path d="M62.4916 88.9193C61.0672 90.5589 60.1956 92.6057 60.0007 94.7688C59.9504 95.2337 59.9738 95.7037 60.0699 96.1613C60.1779 96.6041 60.4026 97.0099 60.7205 97.3365C61.0107 97.647 61.3436 97.931 61.5534 98.3066C61.6579 98.5005 61.7202 98.7143 61.7363 98.9339C61.7524 99.1536 61.7219 99.3742 61.6468 99.5812C61.473 100.102 61.1224 100.529 60.7651 100.935C60.3684 101.386 59.9491 101.848 59.7859 102.44C59.7661 102.512 59.6558 102.477 59.6756 102.406C59.9597 101.374 60.9489 100.778 61.412 99.8462C61.6281 99.4116 61.7146 98.9092 61.5005 98.4563C61.3132 98.0603 60.9702 97.7671 60.6736 97.4553C60.3588 97.1412 60.1257 96.7548 59.9947 96.3299C59.8756 95.8786 59.8342 95.4104 59.8722 94.9452C59.941 93.8966 60.1743 92.8653 60.5635 91.8891C61.0016 90.7726 61.6274 89.7392 62.4139 88.8336C62.4626 88.7776 62.5399 88.8637 62.4916 88.9193H62.4916Z" fill="white"/>
<path d="M60.0225 94.0681C59.664 93.9861 59.3463 93.7794 59.1262 93.4848C58.9061 93.1902 58.7978 92.827 58.8208 92.46C58.8219 92.445 58.8287 92.4311 58.8399 92.421C58.851 92.411 58.8656 92.4057 58.8806 92.4063C58.8956 92.4068 58.9098 92.4132 58.9202 92.424C58.9306 92.4348 58.9364 92.4492 58.9364 92.4642C58.9144 92.8059 59.0152 93.1443 59.2208 93.4181C59.4263 93.692 59.723 93.8834 60.0573 93.9578C60.1299 93.974 60.0947 94.0842 60.0225 94.0681H60.0225Z" fill="white"/>
<path d="M60.5526 97.199C61.1929 96.805 61.6611 96.1842 61.8639 95.4603C61.8839 95.3886 61.9942 95.4235 61.9742 95.4951C61.7617 96.248 61.2732 96.893 60.606 97.3016C60.5424 97.3404 60.4894 97.2377 60.5526 97.199Z" fill="white"/>
<path d="M61.1109 90.8814C61.243 90.942 61.3881 90.9689 61.5331 90.9595C61.6782 90.9502 61.8186 90.9051 61.9419 90.828C62.005 90.7884 62.0579 90.8912 61.9953 90.9306C61.8587 91.0151 61.7035 91.0648 61.5433 91.0754C61.383 91.0861 61.2227 91.0573 61.0761 90.9917C61.0618 90.9866 61.0499 90.9763 61.0429 90.9629C61.0359 90.9494 61.0343 90.9337 61.0384 90.9191C61.043 90.9045 61.0533 90.8924 61.0669 90.8853C61.0804 90.8783 61.0963 90.8768 61.1109 90.8814L61.1109 90.8814Z" fill="white"/>
<path d="M70.0974 93.4195C70.0587 93.4454 70.02 93.4713 69.9813 93.4982C69.4629 93.8491 68.9739 94.2415 68.5191 94.6715C68.4834 94.7042 68.4477 94.7379 68.4131 94.7715C67.3284 95.8193 66.4477 97.0594 65.8157 98.4287C65.5647 98.9738 65.3555 99.5372 65.19 100.114C64.9615 100.911 64.7771 101.793 64.3125 102.448C64.2648 102.517 64.2128 102.583 64.157 102.645L59.8793 102.703C59.8695 102.698 59.8597 102.694 59.8499 102.689L59.6792 102.699C59.6857 102.669 59.693 102.638 59.6995 102.607C59.7031 102.59 59.7078 102.572 59.7114 102.554C59.7142 102.543 59.717 102.531 59.7188 102.52C59.7197 102.516 59.7206 102.512 59.7216 102.509C59.7234 102.499 59.7262 102.489 59.728 102.479C59.7686 102.304 59.8105 102.129 59.8537 101.953C59.8537 101.952 59.8537 101.952 59.8547 101.951C60.1711 100.612 60.6453 99.3156 61.2672 98.0883C61.2863 98.052 61.3052 98.0146 61.3263 97.9782C61.6146 97.4348 61.9469 96.9158 62.3197 96.4265C62.5248 96.1593 62.7432 95.9026 62.9742 95.6574C63.5723 95.025 64.2661 94.4907 65.0302 94.0739C66.5536 93.2434 68.3257 92.9093 69.9719 93.3822C70.014 93.3943 70.0552 93.4064 70.0974 93.4195Z" fill="#CCCCCC"/>
<path d="M70.0887 93.4744C67.9643 93.926 66.0361 95.0354 64.5781 96.6452C64.2581 96.9861 63.9938 97.3754 63.795 97.7987C63.6147 98.2173 63.5497 98.6765 63.6069 99.1287C63.6517 99.5514 63.7465 99.9785 63.6878 100.405C63.6546 100.622 63.5756 100.831 63.4562 101.016C63.3368 101.201 63.1797 101.359 62.995 101.479C62.5427 101.79 62.0056 101.92 61.4759 102.029C60.8878 102.15 60.275 102.266 59.7878 102.641C59.7288 102.687 59.6618 102.592 59.7207 102.547C60.5683 101.895 61.7175 102.014 62.648 101.549C63.0822 101.332 63.4537 100.983 63.5555 100.492C63.6444 100.064 63.547 99.6229 63.4979 99.1953C63.4357 98.7551 63.4822 98.3062 63.6334 97.888C63.81 97.456 64.0589 97.0572 64.3693 96.7087C65.0556 95.9128 65.8628 95.2299 66.7613 94.6848C67.7833 94.057 68.9051 93.6087 70.0783 93.3592C70.1509 93.3438 70.1609 93.4591 70.0887 93.4744H70.0887Z" fill="white"/>
<path d="M65.0172 96.0988C64.7803 95.8176 64.6511 95.4612 64.6527 95.0935C64.6543 94.7258 64.7866 94.3706 65.0259 94.0913C65.0745 94.035 65.1643 94.1079 65.1156 94.1643C64.8923 94.4239 64.7692 94.7548 64.7684 95.0972C64.7676 95.4397 64.8892 95.7711 65.1114 96.0317C65.1596 96.0884 65.0651 96.1552 65.0172 96.0988Z" fill="white"/>
<path d="M63.556 98.9173C64.3044 98.9882 65.052 98.7744 65.6498 98.3186C65.7089 98.2734 65.776 98.3676 65.7169 98.4128C65.0939 98.886 64.3155 99.1069 63.5369 99.0314C63.4627 99.0242 63.4822 98.9101 63.556 98.9173V98.9173Z" fill="white"/>
<path d="M67.8046 94.2077C67.8736 94.3357 67.9733 94.4445 68.0947 94.5244C68.2161 94.6043 68.3555 94.6528 68.5002 94.6655C68.5745 94.6718 68.5549 94.7858 68.4811 94.7795C68.3212 94.7647 68.1674 94.711 68.033 94.623C67.8987 94.535 67.7879 94.4155 67.7105 94.2749C67.702 94.2622 67.6988 94.2468 67.7013 94.2319C67.7038 94.2169 67.7119 94.2034 67.724 94.1942C67.7365 94.1854 67.752 94.1819 67.7671 94.1844C67.7822 94.1869 67.7957 94.1953 67.8046 94.2077Z" fill="white"/>
<path d="M72.3164 97.0534C73.0677 97.0534 73.6768 96.4443 73.6768 95.693C73.6768 94.9416 73.0677 94.3325 72.3164 94.3325C71.565 94.3325 70.9559 94.9416 70.9559 95.693C70.9559 96.4443 71.565 97.0534 72.3164 97.0534Z" fill="#CCCCCC"/>
<path d="M76.7582 101.027C76.6748 101.051 76.59 101.075 76.5052 101.098C75.7359 101.314 74.9611 101.512 74.1807 101.691C74.0909 101.509 74.0427 101.31 74.0396 101.108C74.0365 100.905 74.0787 100.705 74.1629 100.521C74.2472 100.337 74.3715 100.174 74.5267 100.044C74.682 99.914 74.8642 99.8204 75.0602 99.7699C75.2562 99.7194 75.461 99.7133 75.6597 99.7521C75.8584 99.7908 76.0459 99.8733 76.2086 99.9937C76.3713 100.114 76.505 100.269 76.6001 100.448C76.6952 100.627 76.7492 100.824 76.7582 101.027Z" fill="#CCCCCC"/>
<path d="M84.5304 98.1055C84.4263 98.1543 84.3223 98.2031 84.2183 98.2506C84.1053 98.3045 83.991 98.3559 83.8779 98.4073C83.7508 98.4651 83.6249 98.5216 83.4978 98.5781C83.02 98.7913 82.5371 98.9968 82.053 99.1945C82.0465 99.1843 82.0401 99.1727 82.0337 99.1611C81.8641 98.8433 81.8275 98.4711 81.9319 98.1263C82.0364 97.7815 82.2733 97.4922 82.5907 97.3218C82.9082 97.1514 83.2803 97.1139 83.6253 97.2175C83.9704 97.3211 84.2603 97.5573 84.4315 97.8743C84.4708 97.9485 84.5039 98.0258 84.5304 98.1055Z" fill="#CCCCCC"/>
<path d="M77.1143 93.7139C77.8657 93.7139 78.4748 93.1048 78.4748 92.3535C78.4748 91.6021 77.8657 90.993 77.1143 90.993C76.363 90.993 75.7539 91.6021 75.7539 92.3535C75.7539 93.1048 76.363 93.7139 77.1143 93.7139Z" fill="#CCCCCC"/>
<path d="M64.6353 17.8131C56.6329 19.918 47.7662 21.1984 38.7505 21.5491C37.4292 21.621 36.1048 21.612 34.7846 21.5221C31.8834 21.2781 29.3983 20.3662 26.6306 19.8679C25.3001 19.629 23.818 19.4544 22.4785 19.1962C22.788 18.8122 23.1031 18.4329 23.4238 18.0584C26.3121 18.3024 29.2454 19.1012 32.1685 19.4724C37.1374 20.1042 42.7048 19.3991 46.4716 17.6602C48.2992 16.8164 49.699 15.7633 51.5202 14.9157C51.7679 14.7885 52.0362 14.7064 52.3126 14.673C52.8892 14.6203 53.3952 14.8528 53.8075 15.0608C56.8628 16.6033 61.2987 17.8567 65.4162 17.1671C65.7231 17.4072 65.1401 17.6808 64.6353 17.8131Z" fill="white"/>
<path d="M82.8558 23.2413C82.8934 23.2345 82.9311 23.2291 82.9688 23.2226C82.8106 23.1245 82.6617 23.0123 82.5238 22.8873L82.8558 23.2413Z" fill="white"/>
<path d="M107.503 26.2851C105.784 26.4225 104.055 26.5248 102.317 26.592C100.996 26.6633 99.6718 26.6543 98.3516 26.565C95.4504 26.3197 92.9653 25.4092 90.1976 24.9109C87.6612 24.455 84.5789 24.2353 82.9684 23.2233C87.1308 22.5028 91.4434 23.9695 95.7355 24.5153C99.2073 24.9422 102.727 24.7685 106.14 24.0016C106.615 24.7491 107.069 25.5102 107.503 26.2851Z" fill="white"/>
<path d="M68.7926 45.5493C64.7639 31.7215 62.3928 17.4642 62.3928 3.06152V2.0177H61.0542V3.0615C61.0542 17.4642 58.6829 31.7215 54.6543 45.5494C54.4596 46.2188 54.3609 46.9125 54.3613 47.6096V47.6096C54.3613 47.8733 54.4133 48.1344 54.5142 48.378C54.6151 48.6216 54.763 48.843 54.9494 49.0294C55.1359 49.2159 55.3572 49.3638 55.6008 49.4647C55.8444 49.5656 56.1055 49.6175 56.3692 49.6175H59.0463C59.0463 49.9691 59.1156 50.3172 59.2501 50.642C59.3846 50.9668 59.5818 51.2619 59.8304 51.5105C60.079 51.7591 60.3742 51.9563 60.699 52.0909C61.0238 52.2254 61.3719 52.2946 61.7235 52.2946C62.075 52.2946 62.4232 52.2254 62.748 52.0909C63.0728 51.9563 63.3679 51.7591 63.6165 51.5105C63.8651 51.2619 64.0623 50.9668 64.1968 50.642C64.3314 50.3172 64.4006 49.9691 64.4006 49.6175H66.4838V55.3876C66.19 55.3961 65.9106 55.5169 65.7029 55.725C65.4952 55.9331 65.3751 56.2127 65.3672 56.5066C65.3593 56.8005 65.4641 57.0863 65.6602 57.3053C65.8563 57.5243 66.1289 57.6599 66.4218 57.6843C66.7148 57.7087 67.006 57.62 67.2356 57.4365C67.4653 57.253 67.616 56.9885 67.6568 56.6974C67.6976 56.4062 67.6254 56.1105 67.4551 55.8709C67.2847 55.6313 67.0291 55.4661 66.7407 55.409V49.6175H67.0778C67.6103 49.6175 68.121 49.406 68.4975 49.0294C68.8741 48.6529 69.0856 48.1422 69.0856 47.6096V47.6096C69.086 46.9124 68.9874 46.2188 68.7926 45.5493Z" fill="white"/>
</svg>
