<svg width="70" height="70" viewBox="0 0 70 70" fill="none" xmlns="http://www.w3.org/2000/svg">
<g filter="url(#filter0_d_1_374)">
<path d="M34.9999 55C48.6763 55 60 43.6765 60 30C60 16.348 48.6518 5 34.9754 5C21.3235 5 10 16.348 10 30C10 43.6765 21.348 55 34.9999 55ZM34.9509 42.2059C33.5538 42.2059 32.8185 41.2009 32.8185 39.7794V32.1569H24.7794C23.3333 32.1569 22.3284 31.3971 22.3284 30.049C22.3284 28.6519 23.2843 27.8676 24.7794 27.8676H32.8185V19.7549C32.8185 18.3333 33.5538 17.3285 34.9509 17.3285C36.3234 17.3285 37.1323 18.2843 37.1323 19.7549V27.8676H45.1959C46.691 27.8676 47.6224 28.6519 47.6224 30.049C47.6224 31.3971 46.642 32.1569 45.1959 32.1569H37.1323V39.7794C37.1323 41.25 36.3234 42.2059 34.9509 42.2059Z" fill="url(#paint0_linear_1_374)"/>
</g>
<defs>
<filter id="filter0_d_1_374" x="0" y="0" width="70" height="70" filterUnits="userSpaceOnUse" color-interpolation-filters="sRGB">
<feFlood flood-opacity="0" result="BackgroundImageFix"/>
<feColorMatrix in="SourceAlpha" type="matrix" values="0 0 0 0 0 0 0 0 0 0 0 0 0 0 0 0 0 0 127 0" result="hardAlpha"/>
<feOffset dy="5"/>
<feGaussianBlur stdDeviation="5"/>
<feColorMatrix type="matrix" values="0 0 0 0 0 0 0 0 0 0 0 0 0 0 0 0 0 0 0.1 0"/>
<feBlend mode="normal" in2="BackgroundImageFix" result="effect1_dropShadow_1_374"/>
<feBlend mode="normal" in="SourceGraphic" in2="effect1_dropShadow_1_374" result="shape"/>
</filter>
<linearGradient id="paint0_linear_1_374" x1="35" y1="5" x2="35" y2="55" gradientUnits="userSpaceOnUse">
<stop stop-color="#03A093"/>
<stop offset="1" stop-color="#01D268"/>
</linearGradient>
</defs>
</svg>
