<svg width="70" height="53" viewBox="0 0 70 53" fill="none" xmlns="http://www.w3.org/2000/svg">
<path d="M1.61727 26.3063C1.78751 26.2539 1.9727 26.2506 2.14775 26.2285C4.25703 25.9633 6.35507 25.6393 8.46909 25.401C19.0561 24.2075 29.7241 24.0017 40.3635 23.6484C45.3376 23.4833 50.3405 23.2514 55.319 23.3845C56.1094 23.4056 56.91 23.4082 57.6942 23.4966" stroke="black" stroke-linecap="round"/>
<path d="M1.19972 27.731C1.56885 27.694 1.93505 27.5823 2.29497 27.5015C5.69475 26.7376 9.11063 26.086 12.5688 25.6428C26.8955 23.8065 41.3578 23.9256 55.7504 24.7037C59.5949 24.9116 63.4479 25.0213 67.2894 25.2744C67.6633 25.299 68.0709 25.2668 68.4406 25.3316C68.466 25.336 68.5716 25.3833 68.4884 25.3447" stroke="black" stroke-linecap="round"/>
</svg>
