<svg width="92" height="80" viewBox="0 0 92 80" fill="none" xmlns="http://www.w3.org/2000/svg">
<path d="M2.2088 47.6169L2.12362 46.5577C2.1309 46.5408 2.21682 46.4926 2.38138 46.4131C2.55322 46.3167 2.77951 46.1986 3.06023 46.0589C3.33614 45.907 3.64834 45.7408 3.99684 45.56C4.34534 45.3793 4.69988 45.1962 5.06048 45.0106C5.43317 44.8202 5.79377 44.6347 6.14226 44.454C6.50286 44.2684 6.83321 44.0949 7.13331 43.9334C7.13331 43.9334 7.18775 43.9118 7.29664 43.8684C7.40552 43.8251 7.5265 43.777 7.65958 43.724C7.79266 43.6711 7.91968 43.6205 8.04066 43.5724C8.16164 43.5242 8.24028 43.4929 8.27658 43.4785C8.56693 43.3629 8.78821 43.3379 8.94042 43.4035C9.09264 43.469 9.24096 43.6833 9.3854 44.0462L6.2343 45.7417C6.51342 46.5135 6.84327 47.3071 7.22387 48.1226C7.60447 48.9381 8.00197 49.7609 8.4164 50.591C8.826 51.409 9.22715 52.2233 9.61985 53.034C10.0246 53.8399 10.3787 54.6239 10.682 55.3861C10.7253 55.495 10.7203 55.588 10.667 55.6653C10.621 55.7257 10.552 55.7812 10.46 55.8318C10.3801 55.8776 10.287 55.9077 10.1806 55.922C10.079 55.9484 9.98705 55.9639 9.90483 55.9686C9.80595 55.8258 9.66133 55.568 9.47097 55.1954C9.28061 54.8227 9.06377 54.3834 8.82045 53.8777C8.57713 53.3719 8.31696 52.8238 8.03994 52.2333C7.76292 51.6429 7.4859 51.0524 7.20888 50.4619C6.93185 49.8715 6.66687 49.3113 6.41392 48.7813C6.15616 48.2392 5.93333 47.7674 5.74544 47.3656C5.55273 46.9518 5.39855 46.6348 5.28287 46.4146C5.1793 46.1895 5.1335 46.1097 5.14547 46.175L2.2088 47.6169ZM12.768 53.0214C12.4936 52.3318 12.4813 51.7551 12.7311 51.2913C12.9931 50.8227 13.4326 50.4656 14.0496 50.2201C14.2915 50.1238 14.5178 50.0408 14.7282 49.971C14.9508 49.8965 15.1685 49.8449 15.3813 49.8162C15.5942 49.7876 15.8106 49.7855 16.0306 49.8101C16.2626 49.8299 16.5176 49.8896 16.7955 49.9892C16.7811 49.9529 16.7522 49.8803 16.7089 49.7714C16.6728 49.6456 16.6283 49.5162 16.5753 49.3831C16.5224 49.25 16.4742 49.129 16.4309 49.0202C16.3828 48.8992 16.3491 48.8145 16.3298 48.7661C16.231 48.5532 16.1143 48.2773 15.9795 47.9386C15.8398 47.5877 15.6676 47.2429 15.4626 46.904C15.2698 46.5603 15.0237 46.2588 14.7243 45.9996C14.4371 45.7355 14.0783 45.591 13.6479 45.5661C13.3939 45.6672 13.1748 45.8034 12.9907 45.9748C12.8067 46.1461 12.625 46.3235 12.4458 46.507C12.2665 46.6904 12.0849 46.8678 11.9008 47.0392C11.7119 47.1984 11.4905 47.3286 11.2364 47.4297C11.116 47.1273 11.1081 46.8431 11.2125 46.5774C11.3242 46.2947 11.4915 46.0459 11.7143 45.8311C11.9372 45.6163 12.1865 45.433 12.4624 45.2811C12.7383 45.1293 12.9852 45.01 13.2029 44.9234C13.4352 44.873 13.6516 44.8359 13.8524 44.8121C14.0652 44.7834 14.2791 44.8104 14.4942 44.893C14.7213 44.9708 14.9616 45.1344 15.215 45.3839C15.4758 45.6165 15.7605 45.9797 16.0691 46.4735C16.3898 46.9624 16.7501 47.6038 17.1501 48.3976C17.5574 49.1745 18.0211 50.1461 18.5413 51.3124C18.6281 51.4601 18.6291 51.6209 18.5441 51.7948C18.4665 51.9518 18.3356 52.116 18.1516 52.2874C17.9627 52.4466 17.7411 52.6119 17.487 52.7831C17.2401 52.9374 16.9823 53.082 16.7137 53.2169C16.4451 53.3519 16.1861 53.4759 15.9369 53.5891C15.6876 53.7023 15.4783 53.7927 15.3089 53.8601C15.0912 53.9467 14.8529 53.9995 14.5942 54.0184C14.3475 54.0325 14.1009 54.0115 13.8544 53.9554C13.6152 53.8825 13.3965 53.7733 13.1985 53.6279C13.0078 53.4655 12.8643 53.2634 12.768 53.0214ZM14.6216 50.8123C14.0841 51.2224 13.7425 51.5966 13.5968 51.9348C13.4463 52.261 13.4265 52.5281 13.5374 52.7362C13.6603 52.9396 13.885 53.0814 14.2112 53.1618C14.5327 53.23 14.8869 53.2222 15.2739 53.1382C15.6561 53.0422 16.0373 52.8555 16.4174 52.5781C16.7927 52.2886 17.1065 51.8975 17.3588 51.4046C17.074 51.1116 16.8229 50.9032 16.6055 50.7795C16.3833 50.6437 16.1683 50.5611 15.9604 50.5317C15.7525 50.5024 15.5409 50.5165 15.3256 50.5741C15.1103 50.6318 14.8756 50.7112 14.6216 50.8123ZM18.4145 47.1377C18.3805 47.1932 18.3188 47.2318 18.2293 47.2534C18.1398 47.275 18.054 47.2882 17.9717 47.2929C17.8847 47.2854 17.8013 47.2696 17.7216 47.2453C17.6491 47.204 17.5984 47.1471 17.5695 47.0745C17.4058 46.6632 17.3836 46.2376 17.5029 45.7978C17.6173 45.3458 17.8139 44.9242 18.0927 44.533C18.3666 44.1297 18.6888 43.7773 19.0593 43.4757C19.4249 43.162 19.7832 42.9353 20.134 42.7957C20.6905 42.5742 21.2311 42.4712 21.7558 42.4867C22.2877 42.4852 22.7759 42.5852 23.2205 42.7866C23.6771 42.9833 24.0768 43.2657 24.4195 43.6338C24.7743 43.9971 25.0504 44.4268 25.2478 44.9228C25.5102 45.5471 25.5937 46.1795 25.4983 46.8201C25.415 47.4559 25.206 48.0575 24.8713 48.6252C24.5439 49.1759 24.1224 49.666 23.6066 50.0955C23.0981 50.508 22.5499 50.8033 21.9621 50.9811C22.1596 51.407 22.3509 51.9055 22.5361 52.4764C22.7261 53.0595 22.9232 53.6957 23.1276 54.3852C23.3319 55.0747 23.5325 55.8076 23.7294 56.5841C23.9432 57.3679 24.1582 58.1722 24.3743 58.9971C24.3792 59.0092 24.3453 59.0297 24.2727 59.0586C24.2001 59.0875 24.1166 59.1067 24.0223 59.1162C23.9449 59.133 23.8591 59.1461 23.7647 59.1556C23.6873 59.1724 23.645 59.1893 23.6377 59.2062C23.3228 58.1684 22.9849 57.1256 22.6241 56.0781C22.2632 55.0305 21.8697 53.9889 21.4436 52.9532C21.0222 51.9297 20.561 50.9291 20.0598 49.9514C19.5586 48.9737 19.0101 48.0358 18.4145 47.1377ZM20.3207 43.8986C20.0956 44.0022 19.8621 44.1372 19.62 44.3036C19.3731 44.4579 19.1685 44.6304 19.0061 44.8211C18.8438 45.0119 18.7382 45.2221 18.6895 45.4517C18.6407 45.6813 18.6874 45.9219 18.8296 46.1737C18.902 46.285 19.002 46.4484 19.1298 46.6638C19.2697 46.8744 19.4216 47.1153 19.5855 47.3864C19.7616 47.6526 19.9364 47.9334 20.1099 48.2287C20.2956 48.5192 20.4704 48.8 20.6344 49.0711C20.8104 49.3374 20.9647 49.5843 21.0973 49.8118C21.2372 50.0224 21.3433 50.1834 21.4156 50.2947C21.5512 50.2127 21.7472 50.1067 22.0037 49.9766C22.2603 49.8465 22.5253 49.6849 22.7989 49.492C23.0724 49.299 23.3424 49.0795 23.6088 48.8333C23.8825 48.5702 24.1127 48.2684 24.2995 47.9278C24.4863 47.5872 24.6151 47.2066 24.686 46.786C24.7641 46.3485 24.7384 45.8613 24.6087 45.3243C24.421 44.8524 24.175 44.4809 23.8708 44.2095C23.5666 43.9382 23.226 43.7514 22.849 43.6492C22.4672 43.5349 22.0574 43.5088 21.6197 43.5708C21.1892 43.616 20.7562 43.7253 20.3207 43.8986ZM34.2541 44.4708C33.9797 43.7812 33.9674 43.2045 34.2172 42.7407C34.4792 42.2721 34.9187 41.915 35.5357 41.6695C35.7776 41.5732 36.0039 41.4901 36.2143 41.4204C36.4369 41.3458 36.6546 41.2942 36.8674 41.2656C37.0803 41.2369 37.2967 41.2349 37.5167 41.2595C37.7487 41.2792 38.0037 41.3389 38.2816 41.4385C38.2672 41.4022 38.2383 41.3297 38.195 41.2208C38.1589 41.095 38.1144 40.9655 38.0614 40.8325C38.0085 40.6994 37.9603 40.5784 37.917 40.4695C37.8689 40.3485 37.8352 40.2639 37.8159 40.2155C37.7171 40.0025 37.6004 39.7267 37.4655 39.3879C37.3259 39.0371 37.1537 38.6922 36.9487 38.3534C36.7559 38.0097 36.5098 37.7082 36.2104 37.449C35.9232 37.1849 35.5644 37.0404 35.134 37.0155C34.88 37.1166 34.6609 37.2528 34.4768 37.4242C34.2928 37.5955 34.1111 37.7729 33.9319 37.9564C33.7526 38.1398 33.571 38.3172 33.3869 38.4885C33.198 38.6478 32.9766 38.778 32.7225 38.8791C32.6021 38.5766 32.5942 38.2925 32.6986 38.0267C32.8103 37.744 32.9776 37.4953 33.2004 37.2805C33.4233 37.0657 33.6726 36.8823 33.9485 36.7305C34.2244 36.5787 34.4713 36.4594 34.689 36.3727C34.9213 36.3224 35.1377 36.2853 35.3384 36.2615C35.5513 36.2328 35.7652 36.2598 35.9803 36.3424C36.2074 36.4201 36.4477 36.5838 36.7011 36.8333C36.9619 37.0658 37.2465 37.429 37.5552 37.9228C37.8759 38.4118 38.2362 39.0532 38.6362 39.847C39.0435 40.6238 39.5072 41.5954 40.0274 42.7618C40.1142 42.9094 40.1151 43.0702 40.0302 43.2442C39.9526 43.4012 39.8217 43.5654 39.6376 43.7367C39.4488 43.896 39.2272 44.0612 38.9731 44.2324C38.7262 44.3868 38.4684 44.5314 38.1998 44.6663C37.9311 44.8012 37.6722 44.9253 37.423 45.0385C37.1737 45.1517 36.9644 45.242 36.795 45.3094C36.5773 45.3961 36.339 45.4489 36.0803 45.4677C35.8336 45.4818 35.587 45.4608 35.3405 45.4048C35.1013 45.3318 34.8826 45.2226 34.6846 45.0772C34.4939 44.9149 34.3504 44.7127 34.2541 44.4708ZM36.1077 42.2616C35.5702 42.6717 35.2286 43.0459 35.0829 43.3842C34.9324 43.7103 34.9126 43.9775 35.0235 44.1856C35.1464 44.3889 35.3711 44.5308 35.6973 44.6111C36.0188 44.6794 36.373 44.6716 36.76 44.5876C37.1422 44.4916 37.5234 44.3049 37.9035 44.0275C38.2788 43.738 38.5926 43.3468 38.8449 42.854C38.5601 42.5609 38.309 42.3526 38.0916 42.2289C37.8694 42.0931 37.6544 42.0105 37.4465 41.9811C37.2386 41.9517 37.027 41.9659 36.8117 42.0235C36.5964 42.0812 36.3617 42.1605 36.1077 42.2616ZM41.3901 43.3336C41.2889 43.1497 41.154 42.881 40.9853 42.5277C40.824 42.1575 40.6397 41.7473 40.4326 41.2972C40.2327 40.8302 40.0256 40.3451 39.8113 39.8418C39.597 39.3385 39.3923 38.8594 39.1973 38.4045C39.0022 37.9496 38.8204 37.5454 38.6518 37.1921C38.4904 36.8219 38.3531 36.5472 38.2398 36.3681C38.2349 36.356 38.2169 36.3282 38.1855 36.2846C38.1662 36.2362 38.1385 36.1842 38.1024 36.1285C38.0783 36.068 38.059 36.0196 38.0446 35.9833C38.0253 35.9349 38.0109 35.8986 38.0013 35.8744C38.1249 35.657 38.2569 35.5485 38.3972 35.5487C38.5495 35.5441 38.7017 35.6097 38.8538 35.7454C39.0011 35.8689 39.141 36.0445 39.2736 36.272C39.4062 36.4995 39.5267 36.7318 39.635 36.969C39.7555 37.2013 39.8567 37.4203 39.9385 37.626C40.0156 37.8196 40.0709 37.9587 40.1046 38.0434C40.047 37.8281 39.987 37.5717 39.9247 37.2742C39.8623 36.9766 39.8218 36.6635 39.803 36.3346C39.7842 36.0057 39.786 35.6757 39.8084 35.3445C39.838 34.9963 39.9123 34.6725 40.0313 34.3729C40.1503 34.0732 40.3128 33.8124 40.5187 33.5903C40.7367 33.3634 41.0199 33.1947 41.3683 33.084C41.9102 32.8964 42.4035 32.8682 42.8482 32.9996C43.3049 33.1261 43.7192 33.3747 44.0909 33.7453C44.4747 34.1111 44.8245 34.5675 45.1403 35.1145C45.4681 35.6567 45.7742 36.2496 46.0584 36.8932C46.3546 37.5321 46.6315 38.1927 46.8891 38.875C47.1418 39.5452 47.3909 40.1888 47.6364 40.8058C47.5372 40.8733 47.4451 40.959 47.3603 41.0628C47.2707 41.1545 47.1872 41.2088 47.1098 41.2256C47.0372 41.2545 46.9635 41.2277 46.8887 41.1454C46.8212 41.0461 46.7514 40.8357 46.6794 40.514C46.6049 40.2914 46.4906 39.9515 46.3367 39.4942C46.19 39.02 45.9999 38.5071 45.7663 37.9554C45.5449 37.3989 45.2859 36.8363 44.9895 36.2675C44.6931 35.6988 44.364 35.2062 44.002 34.7897C43.6473 34.3562 43.2586 34.0485 42.8358 33.8664C42.4081 33.6722 41.9524 33.6714 41.4684 33.864C41.0543 34.2671 40.791 34.8203 40.6785 35.5237C40.5781 36.2223 40.5768 36.9936 40.6744 37.8376C40.7842 38.6769 40.9688 39.5633 41.2283 40.4971C41.4951 41.414 41.7909 42.2982 42.1158 43.1499C42.0868 43.1474 42.036 43.1607 41.9634 43.1895C41.9029 43.2136 41.8304 43.2425 41.7457 43.2762C41.6683 43.293 41.5909 43.3098 41.5135 43.3266C41.4482 43.3385 41.407 43.3409 41.3901 43.3336ZM47.1661 38.0921C47.0361 37.7654 46.9485 37.3869 46.9033 36.9564C46.8533 36.5138 46.8661 36.0883 46.9418 35.6798C47.0127 35.2592 47.15 34.8823 47.3536 34.5489C47.5573 34.2156 47.8528 33.9719 48.2399 33.8179C48.5302 33.7023 48.7963 33.6315 49.0382 33.6053C49.2873 33.5622 49.5351 33.5687 49.7816 33.6247C50.0355 33.6639 50.2832 33.7405 50.5248 33.8545C50.7736 33.9517 51.0406 34.0767 51.3256 34.2295L47.512 24.9634C47.7905 24.7124 47.9708 24.5846 48.053 24.5799C48.1473 24.5704 48.2306 24.6564 48.3028 24.8379C48.3125 24.8621 48.3209 24.9008 48.328 24.954C48.3473 25.0024 48.3593 25.0326 48.3641 25.0447C48.4435 25.2794 48.5614 25.6108 48.7178 26.0391C48.8863 26.4625 49.0813 26.9525 49.3028 27.509C49.5363 28.0607 49.7892 28.6608 50.0613 29.3093C50.3285 29.9456 50.6006 30.5941 50.8775 31.2547C51.1496 31.9032 51.4217 32.5516 51.6938 33.2001C51.9731 33.8317 52.2235 34.4257 52.445 34.9822C52.6786 35.5339 52.876 36.03 53.0372 36.4703C53.2057 36.8937 53.3272 37.2167 53.4018 37.4393C53.3795 37.7705 53.2762 38.0569 53.092 38.2983C52.9199 38.535 52.7092 38.745 52.4598 38.9283C52.2177 39.0947 51.9539 39.2417 51.6684 39.3694C51.3829 39.497 51.1131 39.6114 50.859 39.7125C50.0484 40.0351 49.3134 40.0543 48.6538 39.7703C47.9894 39.4741 47.4935 38.9147 47.1661 38.0921ZM47.697 37.3132C47.8173 37.6157 47.9619 37.9085 48.1306 38.1917C48.2946 38.4628 48.4828 38.6892 48.6952 38.8709C48.9077 39.0526 49.1517 39.1727 49.4272 39.2312C49.698 39.2777 50.0027 39.2335 50.3414 39.0987C50.5471 39.0168 50.7951 38.9181 51.0855 38.8026C51.3758 38.687 51.642 38.546 51.8841 38.3796C52.1214 38.2011 52.3019 38.0032 52.4256 37.7858C52.5493 37.5684 52.5582 37.3266 52.4522 37.0604C52.3271 36.7459 52.1366 36.4083 51.881 36.0475C51.6326 35.6699 51.3394 35.3381 51.0014 35.0522C50.6707 34.7494 50.3096 34.5288 49.9181 34.3902C49.5339 34.2348 49.1483 34.2341 48.7612 34.3882C48.5071 34.4893 48.2916 34.6521 48.1147 34.8767C47.9378 35.1013 47.7995 35.3525 47.6999 35.6304C47.6124 35.9034 47.5647 36.1887 47.557 36.486C47.5492 36.7834 47.5959 37.0592 47.697 37.3132ZM57.323 22.6776L60.1636 28.4421C60.2194 28.3358 60.285 28.1836 60.3603 27.9854C60.4356 27.7873 60.5399 27.5916 60.6732 27.3984C60.8017 27.1931 60.958 27.0048 61.1421 26.8335C61.3213 26.65 61.5404 26.5138 61.7992 26.4248C62.3145 26.2758 62.7871 26.3189 63.2171 26.5542C63.6592 26.7847 64.0539 27.1251 64.4013 27.5754C64.7608 28.021 65.0851 28.5366 65.3742 29.1222C65.6585 29.6957 65.8969 30.2595 66.0894 30.8136C66.2939 31.3628 66.4563 31.8588 66.5764 32.3014C66.7086 32.7393 66.7939 33.0417 66.8323 33.2086L66.1429 33.3779C66.0996 33.269 66.0321 33.0996 65.9407 32.8697C65.8565 32.623 65.7578 32.3399 65.6448 32.0205C65.5269 31.6891 65.3981 31.3479 65.2585 30.9971C65.1189 30.6462 64.9889 30.3196 64.8685 30.0171C64.7554 29.6978 64.6447 29.4195 64.5363 29.1824C64.44 28.9404 64.3666 28.7735 64.3159 28.6815C64.1932 28.3379 63.9967 28.0378 63.7264 27.781C63.456 27.5242 63.1685 27.3653 62.864 27.3043C62.5546 27.2313 62.2426 27.2924 61.9279 27.4877C61.6085 27.6709 61.3394 28.0512 61.1208 28.6287C60.9842 29.2716 60.936 29.8724 60.9762 30.431C61.0115 30.9775 61.1012 31.5024 61.2454 32.0055C61.3848 32.4966 61.5616 32.9938 61.7759 33.4971C61.9854 33.9883 62.1949 34.5146 62.4042 35.0759L61.6532 35.2487C61.6365 35.1012 61.5644 34.8496 61.4369 34.4939C61.3166 34.1213 61.1639 33.6846 60.9786 33.1838C60.7885 32.6709 60.5706 32.1059 60.3251 31.4889C60.0916 30.8671 59.8389 30.232 59.5668 29.5835C59.302 28.9181 59.0311 28.2551 58.7542 27.5945C58.4773 26.9339 58.2064 26.306 57.9415 25.7108C57.6887 25.1107 57.4491 24.5614 57.2227 24.0629C57.0084 23.5596 56.8302 23.147 56.6881 22.8252L57.323 22.6776ZM66.563 29.574C66.4523 29.2958 66.3489 28.9655 66.2529 28.5833C66.152 28.189 66.0814 27.7827 66.041 27.3643C66.0007 26.946 65.9869 26.524 65.9997 26.0985C66.0247 25.6681 66.0967 25.2681 66.2158 24.8984C66.3301 24.5165 66.5048 24.1808 66.7399 23.891C66.9701 23.5892 67.2727 23.3637 67.6478 23.2144C68.0349 23.0603 68.4448 23.0514 68.8773 23.1875C69.322 23.3189 69.7435 23.5506 70.1419 23.8825C70.5524 24.2096 70.9216 24.6093 71.2496 25.0813C71.5776 25.5534 71.8282 26.0422 72.0014 26.5479C72.2903 27.2738 72.4087 27.9764 72.3568 28.6557C72.3048 29.3351 72.1308 29.9368 71.8349 30.461C71.5511 30.9803 71.1853 31.3992 70.7374 31.7176C70.3016 32.0311 69.8299 32.1839 69.3221 32.1757C68.8217 32.1507 68.3227 31.9358 67.8254 31.5311C67.3401 31.1216 66.9193 30.4693 66.563 29.574ZM67.2634 29.3794C67.5933 30.1029 67.9467 30.621 68.3233 30.9336C68.6999 31.2461 69.066 31.4088 69.4214 31.4215C69.7841 31.4173 70.1228 31.2825 70.4376 31.0171C70.7524 30.7517 71.0069 30.4051 71.2011 29.9775C71.3905 29.5378 71.5026 29.0447 71.5374 28.4983C71.5795 27.935 71.4971 27.3582 71.2902 26.7679C71.141 26.3227 70.9362 25.9137 70.6757 25.5409C70.4274 25.1633 70.1559 24.8509 69.8613 24.6038C69.5741 24.3397 69.2734 24.1651 68.9592 24.0799C68.6523 23.9778 68.3476 23.9869 68.0452 24.1073C67.7548 24.2229 67.5236 24.399 67.3515 24.6356C67.1794 24.8723 67.0471 25.1561 66.9547 25.4872C66.8695 25.8014 66.823 26.1423 66.8151 26.5098C66.8072 26.8773 66.8174 27.2376 66.8458 27.5906C66.8863 27.9389 66.9425 28.2739 67.0145 28.5956C67.0937 28.9004 67.1767 29.1616 67.2634 29.3794ZM69.3688 15.9709C69.5478 15.9277 69.7122 15.9184 69.8621 15.9428C70.0192 15.9503 70.1678 16.0243 70.3078 16.1648C70.3993 16.3947 70.5329 16.7129 70.7087 17.1194C70.8918 17.509 71.0953 17.9676 71.3192 18.4951C71.5552 19.0177 71.8081 19.5828 72.0779 20.1901C72.3476 20.7975 72.6198 21.4109 72.8943 22.0304C73.1689 22.6499 73.435 23.2657 73.6926 23.8779C73.9623 24.4852 74.2092 25.0527 74.4331 25.5802C74.6691 26.1029 74.8751 26.5675 75.0509 26.974C75.2266 27.3805 75.3639 27.6902 75.4627 27.9032C75.4723 27.9274 75.4831 27.9721 75.4951 28.0374C75.5192 28.0979 75.542 28.1729 75.5636 28.2624C75.5973 28.3471 75.625 28.4342 75.6466 28.5237C75.6754 28.5963 75.6971 28.6507 75.7116 28.687C75.7283 28.7644 75.7584 28.8576 75.8017 28.9664C75.8403 29.0632 75.8667 29.1648 75.881 29.2712C75.8953 29.3777 75.8891 29.4852 75.8623 29.594C75.8428 29.6858 75.7749 29.7619 75.6588 29.8221L75.1986 29.5638C75.1817 29.5565 75.0745 29.3399 74.877 28.914C74.6867 28.4712 74.4339 27.9062 74.1183 27.219C73.8101 26.5148 73.4681 25.726 73.0924 24.8524C72.712 23.9668 72.323 23.0775 71.9257 22.1846C71.5404 21.2869 71.1695 20.4255 70.8131 19.6004C70.4567 18.7752 70.1521 18.0626 69.8993 17.4625C69.88 17.4141 69.8415 17.3173 69.7837 17.1722C69.7381 17.0222 69.6863 16.8746 69.6286 16.7294C69.5781 16.5673 69.5264 16.4197 69.4734 16.2867C69.4277 16.1367 69.3928 16.0314 69.3688 15.9709ZM75.8202 26.6888C75.6903 26.3622 75.6027 25.9836 75.5575 25.5531C75.5075 25.1106 75.5203 24.685 75.596 24.2765C75.6669 23.856 75.8041 23.479 76.0078 23.1457C76.2115 22.8124 76.5069 22.5687 76.8941 22.4146C77.1844 22.2991 77.4505 22.2282 77.6924 22.202C77.9415 22.159 78.1893 22.1654 78.4358 22.2215C78.6896 22.2606 78.9373 22.3372 79.1789 22.4513C79.4278 22.5484 79.6948 22.6734 79.9798 22.8263L76.1661 13.5602C76.4446 13.3092 76.625 13.1813 76.7072 13.1767C76.8015 13.1672 76.8848 13.2531 76.957 13.4346C76.9666 13.4588 76.975 13.4975 76.9822 13.5507C77.0015 13.5991 77.0135 13.6293 77.0183 13.6414C77.0977 13.8761 77.2156 14.2076 77.372 14.6358C77.5405 15.0593 77.7355 15.5492 77.957 16.1057C78.1905 16.6574 78.4433 17.2575 78.7154 17.906C78.9827 18.5424 79.2548 19.1909 79.5317 19.8514C79.8038 20.4999 80.0758 21.1484 80.3479 21.7969C80.6273 22.4284 80.8777 23.0225 81.0992 23.579C81.3328 24.1307 81.5301 24.6267 81.6914 25.067C81.8599 25.4905 81.9814 25.8135 82.056 26.0361C82.0336 26.3673 81.9304 26.6536 81.7462 26.8951C81.5741 27.1317 81.3634 27.3417 81.114 27.525C80.8719 27.6915 80.6081 27.8385 80.3226 27.9661C80.037 28.0938 79.7672 28.2082 79.5132 28.3093C78.7026 28.6318 77.9675 28.6511 77.3079 28.367C76.6435 28.0709 76.1476 27.5115 75.8202 26.6888ZM76.3511 25.91C76.4715 26.2124 76.6161 26.5052 76.7848 26.7884C76.9488 27.0595 77.137 27.2859 77.3494 27.4676C77.5619 27.6494 77.8059 27.7695 78.0814 27.828C78.3521 27.8744 78.6569 27.8302 78.9956 27.6954C79.2013 27.6136 79.4493 27.5149 79.7396 27.3993C80.03 27.2838 80.2962 27.1428 80.5383 26.9764C80.7756 26.7979 80.9561 26.5999 81.0797 26.3825C81.2034 26.1651 81.2123 25.9233 81.1064 25.6572C80.9812 25.3426 80.7908 25.005 80.5351 24.6443C80.2868 24.2667 79.9936 23.9349 79.6556 23.649C79.3248 23.3462 78.9638 23.1255 78.5723 22.987C78.1881 22.8316 77.8025 22.8309 77.4153 22.985C77.1613 23.0861 76.9458 23.2489 76.7689 23.4734C76.592 23.698 76.4537 23.9492 76.3541 24.2271C76.2666 24.5002 76.2189 24.7854 76.2111 25.0828C76.2034 25.3802 76.25 25.6559 76.3511 25.91ZM25.1312 63.8041C25.0078 63.8111 24.8518 63.8592 24.663 63.9483C24.4816 64.0205 24.2868 64.1121 24.0786 64.2229C23.8778 64.3169 23.6854 64.4145 23.5014 64.5157C23.3175 64.6169 23.159 64.694 23.0259 64.747C22.9654 64.771 22.8894 64.7032 22.7978 64.5435C22.7135 64.3668 22.593 64.1345 22.4363 63.8465L24.9228 62.6467C24.7906 62.2089 24.6944 61.8968 24.6343 61.7105C24.5742 61.5242 24.514 61.373 24.4538 61.2568C24.4008 61.1237 24.337 60.981 24.2623 60.8285C24.1949 60.6591 24.0914 60.399 23.9518 60.0482C24.2471 59.8746 24.4782 59.7686 24.6451 59.7302C24.8192 59.6749 24.951 59.6715 25.0404 59.7201C25.1298 59.7686 25.1973 59.8678 25.243 60.0178C25.2959 60.1509 25.3452 60.3275 25.3908 60.5476C25.4484 60.7629 25.5229 61.0205 25.6143 61.3205C25.7177 61.6157 25.8598 61.9375 26.0405 62.286L28.1893 61.3468L28.5432 62.236C28.4464 62.2745 28.2976 62.3408 28.0967 62.4347C27.8959 62.5286 27.6769 62.6298 27.4397 62.7382C27.2147 62.8418 27.0017 62.9405 26.8009 63.0345C26.6121 63.1236 26.4766 63.2056 26.3942 63.2804C26.4708 63.7544 26.5533 64.2611 26.6418 64.8005C26.7303 65.3398 26.8527 65.8587 27.009 66.3571C27.1653 66.8554 27.3579 67.3043 27.5869 67.7036C27.8111 68.0909 28.0996 68.3755 28.4523 68.5575C28.8001 68.7273 29.2196 68.7776 29.7105 68.7084C30.1967 68.627 30.775 68.3548 31.4456 67.8918C31.4936 68.0829 31.4812 68.263 31.4084 68.4321C31.3428 68.5843 31.2459 68.728 31.1175 68.8632C30.9964 68.9815 30.8583 69.0924 30.7034 69.1961C30.5437 69.2877 30.3973 69.36 30.2642 69.413C29.6472 69.6585 29.1139 69.7446 28.6643 69.6713C28.2099 69.5859 27.8197 69.3978 27.4938 69.1071C27.1679 68.8164 26.8893 68.4508 26.6579 68.0103C26.4218 67.5577 26.2134 67.0871 26.033 66.5983C25.8646 66.1048 25.7107 65.6125 25.5713 65.1214C25.4319 64.6303 25.2852 64.1912 25.1312 63.8041ZM31.1856 65.1784C31.0749 64.9002 30.9715 64.5699 30.8754 64.1877C30.7746 63.7934 30.704 63.3871 30.6636 62.9687C30.6232 62.5504 30.6095 62.1284 30.6223 61.7029C30.6472 61.2725 30.7193 60.8725 30.8384 60.5028C30.9527 60.1209 31.1274 59.7852 31.3624 59.4954C31.5927 59.1936 31.8953 58.9681 32.2703 58.8188C32.6575 58.6647 33.0673 58.6558 33.4999 58.7919C33.9446 58.9233 34.3661 59.1549 34.7645 59.4869C35.1749 59.814 35.5442 60.2136 35.8722 60.6857C36.2002 61.1578 36.4508 61.6466 36.624 62.1523C36.9128 62.8782 37.0313 63.5808 36.9793 64.2601C36.9274 64.9395 36.7534 65.5412 36.4575 66.0654C36.1737 66.5847 35.8079 67.0036 35.36 67.322C34.9242 67.6355 34.4524 67.7883 33.9447 67.7801C33.4442 67.755 32.9453 67.5402 32.4479 67.1355C31.9627 66.726 31.5419 66.0737 31.1856 65.1784ZM31.8859 64.9838C32.2159 65.7073 32.5692 66.2254 32.9459 66.538C33.3225 66.8505 33.6885 67.0132 34.044 67.0259C34.4066 67.0217 34.7454 66.8869 35.0602 66.6215C35.375 66.3561 35.6295 66.0095 35.8237 65.5819C36.013 65.1422 36.1251 64.6491 36.1599 64.1027C36.202 63.5394 36.1196 62.9626 35.9127 62.3723C35.7636 61.9271 35.5588 61.5181 35.2983 61.1453C35.0499 60.7677 34.7785 60.4553 34.4839 60.2082C34.1966 59.9441 33.8959 59.7695 33.5817 59.6843C33.2749 59.5822 32.9702 59.5913 32.6677 59.7117C32.3774 59.8273 32.1462 60.0034 31.9741 60.24C31.802 60.4767 31.6697 60.7605 31.5772 61.0916C31.4921 61.4058 31.4455 61.7466 31.4376 62.1142C31.4297 62.4817 31.44 62.842 31.4684 63.195C31.5089 63.5433 31.5651 63.8782 31.6371 64.2C31.7163 64.5048 31.7993 64.766 31.8859 64.9838ZM48.0957 62.1906C47.8964 61.373 47.7139 60.7029 47.5479 60.1804C47.382 59.6578 47.2208 59.2175 47.0643 58.8593C46.915 58.4843 46.779 58.16 46.6561 57.8866C46.5285 57.6011 46.4081 57.2986 46.295 56.9793C46.1378 57.0418 45.9828 57.1455 45.8303 57.2903C45.6777 57.4352 45.5239 57.5945 45.3688 57.7683C45.2089 57.93 45.0467 58.0857 44.882 58.2353C44.7294 58.3801 44.5745 58.4838 44.4172 58.5464C44.3567 58.5705 44.3047 58.5631 44.2613 58.5244C44.2299 58.4808 44.1938 58.4251 44.1528 58.3573C44.1118 58.2896 44.0708 58.2218 44.0298 58.154C43.9961 58.0693 43.9443 57.9919 43.8743 57.9216L45.9053 55.8941C44.9532 54.1709 44.2667 52.6924 43.8457 51.4585C43.4321 50.2077 43.2175 49.1579 43.2021 48.3092C43.1939 47.4436 43.3523 46.7499 43.6772 46.2282C44.0094 45.6896 44.443 45.2648 44.9779 44.9539C45.4255 44.7757 45.8851 44.698 46.3565 44.7206C46.8352 44.7262 47.286 44.8201 47.7088 45.0022C48.1437 45.1795 48.5314 45.4316 48.8717 45.7586C49.2242 46.0808 49.4895 46.4657 49.6676 46.9134C49.474 46.9904 49.2685 47.0021 49.051 46.9486C48.8407 46.8781 48.6245 46.7749 48.4023 46.6391C48.1801 46.5033 47.9531 46.3554 47.7212 46.1955C47.4846 46.0234 47.237 45.8767 46.9785 45.7553C46.7321 45.6291 46.482 45.5465 46.2282 45.5074C45.9696 45.4561 45.7011 45.4859 45.4229 45.5966C45.2002 45.7413 44.9991 45.9404 44.8197 46.194C44.6477 46.4306 44.5141 46.729 44.4192 47.0891C44.3364 47.4444 44.303 47.8711 44.319 48.3692C44.3303 48.8552 44.4187 49.4297 44.5844 50.0925C44.7501 50.7553 44.9978 51.5185 45.3275 52.3823C45.6645 53.2292 46.1065 54.1814 46.6535 55.239L48.8966 54.3253C48.9954 54.4682 49.069 54.6001 49.1171 54.7211C49.1725 54.8251 49.1239 54.9496 48.9714 55.0944C48.8575 55.1957 48.7074 55.3115 48.521 55.4418C48.3298 55.5599 48.1325 55.6804 47.9292 55.8034C47.7332 55.9094 47.5492 56.0107 47.3774 56.1071C47.2007 56.1914 47.0785 56.2541 47.0107 56.295C47.2249 56.8685 47.4476 57.4105 47.6789 57.921C47.9053 58.4195 48.1184 58.9023 48.3183 59.3693C48.5133 59.8242 48.6806 60.2621 48.8201 60.6831C48.9669 61.0872 49.0604 61.4984 49.1008 61.9167C49.0887 61.9215 49.0524 61.936 48.9919 61.9601C48.9435 61.9793 48.8891 62.001 48.8286 62.0251C48.7681 62.0491 48.7076 62.0732 48.6471 62.0973C48.5987 62.1165 48.5745 62.1262 48.5745 62.1262C48.5262 62.1454 48.4741 62.1731 48.4184 62.2093C48.3749 62.2407 48.3289 62.266 48.2805 62.2852C48.249 62.3118 48.2164 62.3178 48.1825 62.3032C48.1535 62.3007 48.1246 62.2632 48.0957 62.1906ZM50.9553 53.0015C51.1005 52.9437 51.2191 52.8896 51.311 52.8389C51.4151 52.7835 51.5299 52.8079 51.6555 52.9121C51.9084 53.4421 52.1722 53.9817 52.4469 54.5311C52.7168 55.0683 52.989 55.6116 53.2637 56.161C53.5384 56.7103 53.7973 57.2729 54.0405 57.8488C54.291 58.4078 54.5185 58.9619 54.7231 59.5111C54.7519 59.5837 54.7507 59.6333 54.7192 59.6598C54.6925 59.6985 54.6405 59.7262 54.5631 59.743C54.5026 59.767 54.4215 59.7923 54.3199 59.8187C54.2353 59.8524 54.1433 59.903 54.044 59.9705L50.9553 53.0015ZM48.6101 50.1721C48.5764 50.0874 48.5463 49.9942 48.5199 49.8926C48.4887 49.7789 48.4743 49.6725 48.4769 49.5734C48.4916 49.4695 48.5172 49.3752 48.5536 49.2906C48.6021 49.2013 48.6748 49.1373 48.7716 49.0988C48.9167 49.041 49.0643 48.9893 49.2143 48.9436C49.3643 48.8979 49.5155 48.8728 49.6678 48.8683C49.8153 48.8516 49.9507 48.8748 50.0739 48.9379C50.1923 48.9889 50.2852 49.099 50.3526 49.2684C50.4681 49.5588 50.4627 49.8622 50.3365 50.1787C50.2054 50.4832 49.9825 50.698 49.668 50.8231C49.426 50.9194 49.2145 50.8985 49.0334 50.7604C48.8475 50.6101 48.7064 50.414 48.6101 50.1721ZM49.6987 49.8439C49.6624 49.8584 49.6563 49.8958 49.6804 49.9563C49.7045 50.0168 49.7346 50.0399 49.7709 50.0254C49.8193 50.0062 49.8315 49.9663 49.8074 49.9058C49.7833 49.8453 49.7471 49.8247 49.6987 49.8439ZM55.7537 59.143C55.6525 58.9591 55.5176 58.6904 55.3489 58.3371C55.1876 57.9669 55.0034 57.5567 54.7962 57.1066C54.5963 56.6396 54.3892 56.1545 54.1749 55.6512C53.9606 55.1479 53.756 54.6688 53.5609 54.2139C53.3658 53.7589 53.184 53.3548 53.0154 53.0015C52.854 52.6313 52.7167 52.3566 52.6034 52.1775C52.5985 52.1654 52.5805 52.1376 52.5491 52.094C52.5298 52.0456 52.5021 51.9936 52.466 51.9379C52.4419 51.8774 52.4226 51.829 52.4082 51.7927C52.3889 51.7443 52.3745 51.708 52.3649 51.6838C52.4886 51.4664 52.6205 51.3579 52.7608 51.3581C52.9131 51.3535 53.0653 51.4191 53.2174 51.5548C53.3647 51.6783 53.5046 51.8539 53.6372 52.0814C53.7698 52.3089 53.8903 52.5412 53.9986 52.7784C54.1191 53.0107 54.2203 53.2297 54.3022 53.4354C54.3792 53.6289 54.4346 53.7681 54.4683 53.8528C54.4106 53.6375 54.3506 53.3811 54.2883 53.0835C54.2259 52.786 54.1854 52.4728 54.1666 52.144C54.1478 51.8151 54.1496 51.4851 54.172 51.1539C54.2016 50.8057 54.2759 50.4819 54.3949 50.1822C54.5139 49.8826 54.6764 49.6218 54.8823 49.3997C55.1003 49.1728 55.3835 49.004 55.7319 48.8934C56.2738 48.7058 56.7671 48.6776 57.2118 48.809C57.6685 48.9355 58.0828 49.1841 58.4545 49.5547C58.8383 49.9205 59.1881 50.3769 59.5039 50.9239C59.8318 51.466 60.1378 52.059 60.422 52.7026C60.7182 53.3415 60.9951 54.0021 61.2527 54.6844C61.5054 55.3546 61.7545 55.9982 62 56.6152C61.9008 56.6827 61.8087 56.7684 61.7239 56.8722C61.6343 56.9639 61.5508 57.0182 61.4734 57.035C61.4008 57.0639 61.3271 57.0371 61.2523 56.9548C61.1848 56.8555 61.115 56.6451 61.043 56.3233C60.9685 56.1008 60.8542 55.7608 60.7003 55.3036C60.5536 54.8294 60.3635 54.3165 60.1299 53.7648C59.9085 53.2083 59.6495 52.6457 59.3531 52.0769C59.0567 51.5082 58.7276 51.0156 58.3656 50.5991C58.0109 50.1656 57.6222 49.8579 57.1994 49.6758C56.7717 49.4816 56.316 49.4808 55.8321 49.6734C55.4179 50.0764 55.1546 50.6297 55.0421 51.3331C54.9417 52.0317 54.9404 52.803 55.038 53.647C55.1478 54.4862 55.3324 55.3727 55.5919 56.3065C55.8587 57.2234 56.1545 58.1076 56.4794 58.9593C56.4504 58.9568 56.3996 58.97 56.327 58.9989C56.2665 59.023 56.194 59.0519 56.1093 59.0856C56.0319 59.1024 55.9545 59.1192 55.8771 59.136C55.8118 59.1479 55.7707 59.1503 55.7537 59.143ZM60.9362 49.0295C61.0814 48.9717 61.1999 48.9176 61.2919 48.8669C61.396 48.8115 61.5108 48.8359 61.6363 48.9401C61.8893 49.4701 62.1531 50.0097 62.4278 50.5591C62.6976 51.0963 62.9699 51.6396 63.2446 52.189C63.5192 52.7383 63.7782 53.3009 64.0214 53.8768C64.2719 54.4358 64.4994 54.9899 64.7039 55.5391C64.7328 55.6117 64.7315 55.6613 64.7 55.6878C64.6734 55.7265 64.6213 55.7542 64.5439 55.771C64.4835 55.795 64.4024 55.8203 64.3008 55.8467C64.2161 55.8804 64.1242 55.931 64.0249 55.9985L60.9362 49.0295ZM58.591 46.2001C58.5573 46.1154 58.5272 46.0222 58.5008 45.9206C58.4695 45.8069 58.4552 45.7005 58.4578 45.6014C58.4725 45.4975 58.4981 45.4032 58.5345 45.3186C58.583 45.2293 58.6556 45.1653 58.7524 45.1268C58.8976 45.069 59.0452 45.0173 59.1952 44.9716C59.3452 44.9259 59.4963 44.9008 59.6487 44.8963C59.7962 44.8796 59.9315 44.9028 60.0548 44.9659C60.1731 45.0169 60.266 45.127 60.3334 45.2964C60.449 45.5868 60.4436 45.8902 60.3173 46.2067C60.1862 46.5112 59.9634 46.726 59.6489 46.8511C59.4069 46.9474 59.1954 46.9265 59.0143 46.7884C58.8283 46.6381 58.6872 46.442 58.591 46.2001ZM59.6796 45.8719C59.6433 45.8864 59.6372 45.9238 59.6613 45.9843C59.6853 46.0448 59.7155 46.0679 59.7518 46.0534C59.8002 46.0342 59.8124 45.9943 59.7883 45.9338C59.7642 45.8733 59.728 45.8527 59.6796 45.8719ZM65.8753 53.5174C66.0931 53.4307 66.3096 53.3936 66.5247 53.4061C66.752 53.4138 66.9781 53.4359 67.2029 53.4726C67.4228 53.4971 67.6404 53.5157 67.8556 53.5281C68.078 53.5237 68.2982 53.4781 68.5159 53.3915C68.77 53.2904 69.0132 53.1445 69.2457 52.9539C69.4854 52.7464 69.6889 52.5182 69.8562 52.2695C70.0187 52.0086 70.1267 51.7344 70.1804 51.4468C70.2293 51.147 70.1984 50.858 70.0877 50.5798C70.0661 50.4903 70.0251 50.3874 69.9649 50.2713C69.9168 50.1503 69.8323 50.0438 69.7116 49.9517C69.586 49.8475 69.4169 49.7746 69.2042 49.7332C68.9867 49.6796 68.7026 49.6876 68.3519 49.7571C68.0132 49.8217 67.602 49.9504 67.118 50.143C66.6293 50.3234 66.0473 50.6041 65.372 50.985C65.1906 51.0572 64.9959 51.0786 64.788 51.0492C64.5753 51.0077 64.3735 50.9409 64.1827 50.8487C63.987 50.7444 63.8131 50.6244 63.661 50.4887C63.5041 50.3409 63.3944 50.1884 63.3318 50.0311C63.144 49.5593 63.0891 49.1397 63.1672 48.7723C63.2525 48.388 63.4187 48.0486 63.6658 47.754C63.9082 47.4474 64.2085 47.1807 64.5667 46.9541C64.925 46.7274 65.3037 46.5347 65.7029 46.3758C65.8844 46.3036 66.0949 46.2338 66.3344 46.1665C66.5812 46.0823 66.8182 46.0441 67.0454 46.0517C67.28 46.0425 67.4975 46.096 67.698 46.2125C67.9106 46.3241 68.077 46.5311 68.1974 46.8335C68.2551 47.0488 68.2693 47.1903 68.2402 47.258C68.2183 47.3087 68.153 47.3207 68.0443 47.2939C67.9428 47.2502 67.8135 47.1895 67.6565 47.1118C67.4995 47.0342 67.3207 46.9722 67.1201 46.9259C66.9267 46.8627 66.7092 46.8442 66.4673 46.8704C66.2376 46.8917 66.0017 46.9856 65.7596 47.152C65.4813 47.2628 65.2151 47.4037 64.9609 47.575C64.7019 47.7341 64.484 47.9259 64.3071 48.1505C64.1423 48.3702 64.033 48.6239 63.9793 48.9116C63.9377 49.1944 63.9867 49.5112 64.1264 49.8621C64.1986 50.0435 64.3278 50.1393 64.5139 50.1493C64.7074 50.1424 64.9372 50.0859 65.2033 49.98C65.4816 49.8693 65.7877 49.7405 66.1216 49.5936C66.4628 49.4297 66.8149 49.2756 67.1778 49.1312C67.5408 48.9867 67.9037 48.8774 68.2665 48.803C68.6245 48.7166 68.9642 48.7076 69.2857 48.7758C69.6144 48.8272 69.9116 48.9752 70.1771 49.2199C70.4427 49.4645 70.6536 49.8361 70.8099 50.3344C70.9495 50.6853 70.979 51.0589 70.8986 51.4553C70.8302 51.8469 70.6868 52.2262 70.4686 52.5934C70.2576 52.9436 69.9911 53.2599 69.669 53.5422C69.3469 53.8245 69.0032 54.0174 68.638 54.1207C68.488 54.1664 68.2739 54.2095 67.9958 54.2501C67.7249 54.2738 67.4444 54.2733 67.1543 54.2486C66.8763 54.2191 66.6189 54.1534 66.3822 54.0514C66.1406 53.9374 65.9716 53.7594 65.8753 53.5174ZM68.4383 39.7797L71.2789 45.5442C71.3347 45.4379 71.4002 45.2857 71.4755 45.0875C71.5508 44.8894 71.6552 44.6937 71.7885 44.5005C71.917 44.2952 72.0733 44.1069 72.2573 43.9356C72.4366 43.7521 72.6557 43.6159 72.9145 43.5269C73.4298 43.3779 73.9024 43.421 74.3324 43.6563C74.7745 43.8868 75.1692 44.2272 75.5166 44.6775C75.8761 45.1231 76.2004 45.6387 76.4895 46.2243C76.7738 46.7978 77.0122 47.3616 77.2046 47.9157C77.4092 48.4649 77.5715 48.9609 77.6917 49.4035C77.8239 49.8414 77.9092 50.1438 77.9476 50.3107L77.2582 50.48C77.2148 50.3711 77.1474 50.2017 77.056 49.9718C76.9718 49.7251 76.8731 49.442 76.76 49.1226C76.6422 48.7912 76.5134 48.45 76.3738 48.0992C76.2342 47.7483 76.1042 47.4217 75.9838 47.1192C75.8707 46.7999 75.76 46.5216 75.6516 46.2845C75.5553 46.0425 75.4818 45.8756 75.4312 45.7836C75.3085 45.44 75.112 45.1399 74.8416 44.8831C74.5713 44.6263 74.2838 44.4674 73.9793 44.4064C73.6699 44.3334 73.3579 44.3945 73.0432 44.5898C72.7237 44.773 72.4547 45.1533 72.2361 45.7308C72.0995 46.3737 72.0513 46.9745 72.0914 47.5331C72.1267 48.0796 72.2165 48.6045 72.3607 49.1076C72.5001 49.5987 72.6769 50.0959 72.8912 50.5992C73.1007 51.0904 73.3101 51.6167 73.5195 52.178L72.7684 52.3508C72.7518 52.2033 72.6797 51.9517 72.5522 51.596C72.4319 51.2234 72.2791 50.7867 72.0938 50.2859C71.9037 49.773 71.6859 49.208 71.4404 48.591C71.2069 47.9692 70.9542 47.3341 70.6821 46.6856C70.4173 46.0202 70.1464 45.3572 69.8695 44.6966C69.5926 44.036 69.3217 43.4081 69.0568 42.8128C68.804 42.2128 68.5644 41.6635 68.3379 41.165C68.1236 40.6617 67.9454 40.2491 67.8033 39.9273L68.4383 39.7797Z" fill="#2F2E41"/>
<path d="M24 1C24 2.69607 24.614 4.16937 25.3085 5.70184C26.1059 7.46153 27.0664 9.14391 27.9973 10.835C29.0036 12.6633 29.9507 14.5189 30.8838 16.3852C31.8173 18.2521 32.7244 20.137 33.7991 21.9282C34.1213 22.4653 34.5418 23.0491 34.7409 23.6465" stroke="#2F2E41" stroke-width="0.7" stroke-linecap="round"/>
<path d="M24.2607 2.14844C24.2607 3.12368 24.2355 4.10236 24.265 5.07711C24.2853 5.74535 24.4205 6.39445 24.4808 7.05834C24.5245 7.53841 24.5492 8.01939 24.6006 8.49893C24.6381 8.84905 24.688 9.20439 24.688 9.55645C24.688 9.66053 24.6686 9.75513 24.6686 9.85968" stroke="#2F2E41" stroke-width="0.7" stroke-linecap="round"/>
<path d="M24.2219 1.46875C24.2949 1.4931 24.3652 1.59241 24.415 1.64356C24.6949 1.93073 24.9715 2.22051 25.2567 2.50253C25.9127 3.15118 26.5789 3.78949 27.2325 4.44059C27.9616 5.16676 28.7034 5.87552 29.3875 6.64519C29.5601 6.83933 29.7528 7.02536 29.9087 7.2333C29.987 7.33763 30.0666 7.4466 30.1472 7.54731C30.2303 7.65124 30.2841 7.78351 30.3792 7.8786" stroke="#2F2E41" stroke-width="0.7" stroke-linecap="round"/>
</svg>
