<svg width="140" height="99" viewBox="0 0 140 99" fill="none" xmlns="http://www.w3.org/2000/svg">
<path d="M31.5045 9.81778H22.6347C21.7819 9.81855 20.9643 10.1576 20.3613 10.7606C19.7584 11.3636 19.4193 12.1812 19.4185 13.0339V22.6503C19.3051 22.6435 19.1917 22.6334 19.0799 22.6198C16.9786 22.3987 14.9808 21.595 13.3118 20.2993C11.6428 19.0035 10.369 17.2673 9.63391 15.2864C8.89886 13.3054 8.73183 11.1585 9.15166 9.08767C9.57148 7.01686 10.5615 5.10451 12.01 3.56623C13.4585 2.02795 15.3079 0.924917 17.3498 0.381495C19.3917 -0.161926 21.5447 -0.124125 23.5663 0.490638C25.5878 1.1054 27.3974 2.27268 28.791 3.86086C30.1846 5.44904 31.1069 7.39496 31.4537 9.47923C31.4724 9.59095 31.4893 9.70437 31.5045 9.81778Z" fill="#F2F2F2"/>
<path d="M136.216 9.47925H22.6348C21.6923 9.48028 20.7888 9.85512 20.1224 10.5215C19.456 11.188 19.0811 12.0915 19.0801 13.034V72.9563C19.0811 73.8987 19.456 74.8023 20.1224 75.4687C20.7888 76.1351 21.6923 76.5099 22.6348 76.511H136.216C137.159 76.5099 138.062 76.1351 138.729 75.4687C139.395 74.8023 139.77 73.8987 139.771 72.9563V13.034C139.77 12.0915 139.395 11.188 138.729 10.5215C138.062 9.85512 137.159 9.48028 136.216 9.47925ZM139.432 72.9563C139.432 73.809 139.093 74.6266 138.49 75.2296C137.887 75.8326 137.069 76.1717 136.216 76.1724H22.6348C21.782 76.1717 20.9645 75.8326 20.3615 75.2296C19.7585 74.6266 19.4194 73.809 19.4186 72.9563V13.034C19.4194 12.1812 19.7585 11.3636 20.3615 10.7606C20.9645 10.1577 21.782 9.81856 22.6348 9.81779H136.216C137.069 9.81856 137.887 10.1577 138.49 10.7606C139.093 11.3636 139.432 12.1812 139.432 13.034V72.9563Z" fill="#3F3D56"/>
<path d="M130.63 19.1904H28.2205C28.1756 19.1904 28.1326 19.1725 28.1009 19.1408C28.0691 19.109 28.0513 19.066 28.0513 19.0211C28.0513 18.9762 28.0691 18.9331 28.1009 18.9014C28.1326 18.8696 28.1756 18.8518 28.2205 18.8518H130.63C130.675 18.8518 130.718 18.8696 130.75 18.9014C130.782 18.9331 130.799 18.9762 130.799 19.0211C130.799 19.066 130.782 19.109 130.75 19.1408C130.718 19.1725 130.675 19.1904 130.63 19.1904Z" fill="#3F3D56"/>
<path d="M57.1662 69.2319C57.1213 69.2319 57.0783 69.2141 57.0465 69.1823C57.0148 69.1506 56.9969 69.1075 56.9969 69.0627V13.3722C56.9969 13.3273 57.0148 13.2842 57.0465 13.2525C57.0783 13.2207 57.1213 13.2029 57.1662 13.2029C57.2111 13.2029 57.2542 13.2207 57.2859 13.2525C57.3177 13.2842 57.3355 13.3273 57.3355 13.3722V69.0627C57.3355 69.1075 57.3177 69.1506 57.2859 69.1823C57.2542 69.2141 57.2111 69.2319 57.1662 69.2319Z" fill="#3F3D56"/>
<path d="M82.7263 69.2319C82.6814 69.2319 82.6383 69.2141 82.6066 69.1823C82.5748 69.1506 82.557 69.1075 82.557 69.0627V13.3722C82.557 13.3273 82.5748 13.2842 82.6066 13.2525C82.6383 13.2207 82.6814 13.2029 82.7263 13.2029C82.7712 13.2029 82.8142 13.2207 82.846 13.2525C82.8777 13.2842 82.8956 13.3273 82.8956 13.3722V69.0627C82.8955 69.1075 82.8777 69.1506 82.846 69.1823C82.8142 69.2141 82.7712 69.2319 82.7263 69.2319Z" fill="#3F3D56"/>
<path d="M108.286 69.2319C108.241 69.2319 108.198 69.2141 108.167 69.1823C108.135 69.1506 108.117 69.1075 108.117 69.0627V13.3722C108.117 13.3273 108.135 13.2842 108.167 13.2525C108.198 13.2207 108.241 13.2029 108.286 13.2029C108.331 13.2029 108.374 13.2207 108.406 13.2525C108.438 13.2842 108.456 13.3273 108.456 13.3722V69.0627C108.456 69.1075 108.438 69.1506 108.406 69.1823C108.374 69.2141 108.331 69.2319 108.286 69.2319Z" fill="#3F3D56"/>
<path d="M40.7327 36.6622H34.5475C34.3455 36.662 34.1519 36.5817 34.0091 36.4389C33.8663 36.2961 33.786 36.1025 33.7858 35.9005V28.6016C33.786 28.3996 33.8663 28.206 34.0091 28.0632C34.1519 27.9204 34.3455 27.8401 34.5475 27.8398H40.7327C40.9346 27.8401 41.1283 27.9204 41.2711 28.0632C41.4139 28.206 41.4942 28.3996 41.4944 28.6016V35.9005C41.4942 36.1025 41.4139 36.2961 41.2711 36.4389C41.1283 36.5817 40.9346 36.662 40.7327 36.6622Z" fill="#069E95"/>
<path d="M49.5346 57.4827H43.3494C43.1474 57.4824 42.9538 57.4021 42.811 57.2593C42.6682 57.1165 42.5879 56.9229 42.5876 56.7209V49.422C42.5879 49.22 42.6682 49.0264 42.811 48.8836C42.9538 48.7408 43.1474 48.6605 43.3494 48.6603H49.5346C49.7365 48.6605 49.9301 48.7408 50.0729 48.8836C50.2157 49.0264 50.2961 49.22 50.2963 49.422V56.7209C50.2961 56.9229 50.2157 57.1165 50.0729 57.2593C49.9301 57.4021 49.7365 57.4824 49.5346 57.4827Z" fill="#069E95"/>
<path d="M69.5087 41.0632H63.3235C63.1215 41.063 62.9279 40.9827 62.7851 40.8399C62.6423 40.6971 62.562 40.5035 62.5618 40.3015V33.0026C62.562 32.8006 62.6423 32.607 62.7851 32.4642C62.9279 32.3214 63.1215 32.2411 63.3235 32.2408H69.5087C69.7106 32.2411 69.9043 32.3214 70.0471 32.4642C70.1899 32.607 70.2702 32.8006 70.2704 33.0026V40.3015C70.2702 40.5035 70.1899 40.6971 70.0471 40.8399C69.9043 40.9827 69.7106 41.063 69.5087 41.0632Z" fill="#069E95"/>
<path d="M95.4074 33.1073H89.2222C89.0202 33.1071 88.8266 33.0267 88.6838 32.8839C88.541 32.7411 88.4607 32.5475 88.4604 32.3456V25.0466C88.4607 24.8447 88.541 24.6511 88.6838 24.5083C88.8266 24.3655 89.0202 24.2851 89.2222 24.2849H95.4074C95.6093 24.2851 95.8029 24.3655 95.9457 24.5083C96.0885 24.6511 96.1689 24.8447 96.1691 25.0466V32.3456C96.1689 32.5475 96.0885 32.7411 95.9457 32.8839C95.8029 33.0268 95.6093 33.1071 95.4074 33.1073Z" fill="#069E95"/>
<path d="M119.275 33.1073H113.09C112.888 33.1071 112.694 33.0267 112.551 32.8839C112.409 32.7411 112.328 32.5475 112.328 32.3456V25.0466C112.328 24.8447 112.409 24.6511 112.551 24.5083C112.694 24.3655 112.888 24.2851 113.09 24.2849H119.275C119.477 24.2851 119.67 24.3655 119.813 24.5083C119.956 24.6511 120.036 24.8447 120.037 25.0466V32.3456C120.036 32.5475 119.956 32.7411 119.813 32.8839C119.67 33.0268 119.477 33.1071 119.275 33.1073Z" fill="#069E95"/>
<path d="M130.278 35.1388H124.092C123.89 35.1386 123.697 35.0582 123.554 34.9154C123.411 34.7726 123.331 34.579 123.331 34.3771V27.0781C123.331 26.8762 123.411 26.6826 123.554 26.5398C123.697 26.397 123.89 26.3166 124.092 26.3164H130.278C130.48 26.3166 130.673 26.397 130.816 26.5398C130.959 26.6826 131.039 26.8762 131.039 27.0781V34.3771C131.039 34.579 130.959 34.7726 130.816 34.9154C130.673 35.0582 130.48 35.1386 130.278 35.1388Z" fill="#E6E6E6"/>
<path d="M125.369 48.1731H119.183C118.982 48.1729 118.788 48.0925 118.645 47.9497C118.502 47.8069 118.422 47.6133 118.422 47.4114V40.1124C118.422 39.9105 118.502 39.7169 118.645 39.5741C118.788 39.4313 118.982 39.3509 119.183 39.3507H125.369C125.571 39.3509 125.764 39.4313 125.907 39.5741C126.05 39.7169 126.13 39.9105 126.13 40.1124V47.4114C126.13 47.6133 126.05 47.8069 125.907 47.9497C125.764 48.0925 125.571 48.1729 125.369 48.1731Z" fill="#E6E6E6"/>
<path d="M104.379 45.4647H98.1936C97.9917 45.4645 97.798 45.3842 97.6552 45.2414C97.5124 45.0986 97.4321 44.905 97.4319 44.703V37.4041C97.4321 37.2021 97.5124 37.0085 97.6552 36.8657C97.798 36.7229 97.9917 36.6426 98.1936 36.6423H104.379C104.581 36.6426 104.774 36.7229 104.917 36.8657C105.06 37.0085 105.14 37.2021 105.141 37.4041V44.703C105.14 44.905 105.06 45.0986 104.917 45.2414C104.774 45.3842 104.581 45.4645 104.379 45.4647Z" fill="#FF6584"/>
<path d="M92.3606 48.1731H86.1754C85.9735 48.1729 85.7798 48.0925 85.637 47.9497C85.4942 47.8069 85.4139 47.6133 85.4137 47.4114V40.1124C85.4139 39.9105 85.4942 39.7169 85.637 39.5741C85.7798 39.4313 85.9735 39.3509 86.1754 39.3507H92.3606C92.5626 39.3509 92.7562 39.4313 92.899 39.5741C93.0418 39.7169 93.1221 39.9105 93.1223 40.1124V47.4114C93.1221 47.6133 93.0418 47.8069 92.899 47.9497C92.7562 48.0925 92.5626 48.1729 92.3606 48.1731Z" fill="#E6E6E6"/>
<path d="M66.4619 59.6833H60.2767C60.0748 59.6831 59.8812 59.6028 59.7384 59.46C59.5956 59.3172 59.5152 59.1236 59.515 58.9216V51.6227C59.5152 51.4207 59.5956 51.2271 59.7384 51.0843C59.8812 50.9415 60.0748 50.8612 60.2767 50.861H66.4619C66.6639 50.8612 66.8575 50.9415 67.0003 51.0843C67.1431 51.2271 67.2234 51.4207 67.2237 51.6227V58.9216C67.2234 59.1236 67.1431 59.3172 67.0003 59.46C66.8575 59.6028 66.6639 59.6831 66.4619 59.6833Z" fill="#E6E6E6"/>
<path d="M35.1465 50.0349H28.9613C28.7594 50.0347 28.5657 49.9544 28.4229 49.8116C28.2801 49.6688 28.1998 49.4751 28.1996 49.2732V41.9742C28.1998 41.7723 28.2801 41.5787 28.4229 41.4359C28.5657 41.2931 28.7594 41.2127 28.9613 41.2125H35.1465C35.3485 41.2127 35.5421 41.2931 35.6849 41.4359C35.8277 41.5787 35.908 41.7723 35.9082 41.9742V49.2732C35.908 49.4751 35.8277 49.6688 35.6849 49.8116C35.5421 49.9544 35.3485 50.0347 35.1465 50.0349Z" fill="#FF6584"/>
<path d="M52.5817 36.6622H46.3965C46.1945 36.662 46.0009 36.5817 45.8581 36.4389C45.7153 36.2961 45.635 36.1025 45.6348 35.9005V28.6016C45.635 28.3996 45.7153 28.206 45.8581 28.0632C46.0009 27.9204 46.1945 27.8401 46.3965 27.8398H52.5817C52.7836 27.8401 52.9773 27.9204 53.1201 28.0632C53.2629 28.206 53.3432 28.3996 53.3434 28.6016V35.9005C53.3432 36.1025 53.2629 36.2961 53.1201 36.4389C52.9773 36.5817 52.7836 36.662 52.5817 36.6622Z" fill="#E6E6E6"/>
<path d="M47.5177 16.4194H37.8692C37.6897 16.4194 37.5174 16.348 37.3905 16.221C37.2635 16.0941 37.1921 15.9218 37.1921 15.7423C37.1921 15.5627 37.2635 15.3905 37.3905 15.2635C37.5174 15.1365 37.6897 15.0652 37.8692 15.0652H47.5177C47.6973 15.0652 47.8695 15.1365 47.9965 15.2635C48.1235 15.3905 48.1948 15.5627 48.1948 15.7423C48.1948 15.9218 48.1235 16.0941 47.9965 16.221C47.8695 16.348 47.6973 16.4194 47.5177 16.4194Z" fill="#CCCCCC"/>
<path d="M74.7703 16.4194H65.1218C64.9422 16.4194 64.77 16.348 64.643 16.221C64.516 16.0941 64.4447 15.9218 64.4447 15.7423C64.4447 15.5627 64.516 15.3905 64.643 15.2635C64.77 15.1365 64.9422 15.0652 65.1218 15.0652H74.7703C74.9499 15.0652 75.1221 15.1365 75.2491 15.2635C75.376 15.3905 75.4474 15.5627 75.4474 15.7423C75.4474 15.9218 75.376 16.0941 75.2491 16.221C75.1221 16.348 74.9499 16.4194 74.7703 16.4194Z" fill="#CCCCCC"/>
<path d="M100.33 16.4194H90.6818C90.5023 16.4194 90.3301 16.348 90.2031 16.221C90.0761 16.0941 90.0048 15.9218 90.0048 15.7423C90.0048 15.5627 90.0761 15.3905 90.2031 15.2635C90.3301 15.1365 90.5023 15.0652 90.6818 15.0652H100.33C100.51 15.0652 100.682 15.1365 100.809 15.2635C100.936 15.3905 101.007 15.5627 101.007 15.7423C101.007 15.9218 100.936 16.0941 100.809 16.221C100.682 16.348 100.51 16.4194 100.33 16.4194Z" fill="#CCCCCC"/>
<path d="M124.198 16.4194H114.549C114.37 16.4194 114.197 16.348 114.071 16.221C113.944 16.0941 113.872 15.9218 113.872 15.7423C113.872 15.5627 113.944 15.3905 114.071 15.2635C114.197 15.1365 114.37 15.0652 114.549 15.0652H124.198C124.377 15.0652 124.55 15.1365 124.677 15.2635C124.804 15.3905 124.875 15.5627 124.875 15.7423C124.875 15.9218 124.804 16.0941 124.677 16.221C124.55 16.348 124.377 16.4194 124.198 16.4194Z" fill="#CCCCCC"/>
<path d="M25.9072 65.9978C25.6595 65.9736 25.4202 65.8953 25.2061 65.7686C24.9919 65.6418 24.8082 65.4696 24.6678 65.2642C24.5274 65.0587 24.4337 64.825 24.3934 64.5794C24.3531 64.3339 24.3671 64.0825 24.4345 63.8429L20.0956 59.8039L22.3897 59.2219L26.6563 62.6825C27.0512 62.8223 27.3811 63.1022 27.5835 63.4691C27.7859 63.8359 27.8467 64.2642 27.7543 64.6729C27.662 65.0816 27.4229 65.4421 27.0825 65.6863C26.7421 65.9305 26.3239 66.0414 25.9072 65.9978Z" fill="#FFB8B8"/>
<path d="M31.8984 95.851H33.9737L34.9609 87.8464H31.8981L31.8984 95.851Z" fill="#FFB8B8"/>
<path d="M37.9761 97.7773L31.4539 97.7776L31.4538 95.2577L35.456 95.2575C36.1244 95.2575 36.7653 95.523 37.2379 95.9955C37.7105 96.4681 37.976 97.109 37.9761 97.7773L37.9761 97.7773Z" fill="#2F2E41"/>
<path d="M17.6698 94.3526L19.6753 94.8865L22.6885 87.4053L19.7288 86.6176L17.6698 94.3526Z" fill="#FFB8B8"/>
<path d="M23.0472 97.7778L16.7445 96.1002L17.3927 93.6651L21.2603 94.6945C21.9061 94.8664 22.4572 95.2879 22.7923 95.8661C23.1275 96.4443 23.2191 97.132 23.0472 97.7778Z" fill="#2F2E41"/>
<path d="M34.532 94.3355H31.3654C31.1654 94.3362 30.9724 94.262 30.8243 94.1275C30.6762 93.993 30.5839 93.808 30.5654 93.6088L28.6431 73.6463C28.629 73.4998 28.5645 73.3629 28.4605 73.2588C28.3566 73.1547 28.2197 73.0899 28.0733 73.0757C27.9269 73.0614 27.78 73.0984 27.6579 73.1804C27.5358 73.2624 27.446 73.3843 27.4038 73.5253L21.8224 92.1789C21.7633 92.3772 21.63 92.545 21.4503 92.6474C21.2705 92.7498 21.0582 92.7788 20.8575 92.7284L17.9117 91.9918C17.8088 91.9661 17.7121 91.9203 17.6271 91.8571C17.542 91.7939 17.4703 91.7144 17.4161 91.6234C17.3618 91.5324 17.3261 91.4315 17.311 91.3266C17.296 91.2217 17.3018 91.1148 17.3281 91.0122C17.3762 90.8242 22.1373 72.2182 22.1788 72.0269C23.2576 64.0766 24.5481 61.9462 25.2415 60.8018C25.2989 60.707 25.3516 60.6199 25.3991 60.5376C25.4585 60.4346 25.8244 59.4129 26.0565 58.7493C26.0866 58.6414 26.1388 58.5409 26.2097 58.4541C26.2807 58.3674 26.3688 58.2963 26.4687 58.2453C29.3819 56.7554 32.7905 57.7868 33.7658 58.1384C33.9275 58.1953 34.0664 58.3031 34.1616 58.4457C37.0874 62.8588 35.6516 88.49 35.334 93.5833C35.3208 93.7871 35.2306 93.9782 35.0816 94.1179C34.9327 94.2575 34.7362 94.3353 34.532 94.3355Z" fill="#2F2E41"/>
<path d="M26.36 43.7713C28.6561 43.7713 30.5175 41.9099 30.5175 39.6138C30.5175 37.3177 28.6561 35.4563 26.36 35.4563C24.0639 35.4563 22.2025 37.3177 22.2025 39.6138C22.2025 41.9099 24.0639 43.7713 26.36 43.7713Z" fill="#FFB8B8"/>
<path d="M25.9196 59.5561L25.8897 59.5272C25.8336 59.473 20.2943 54.0462 21.0112 49.0282C21.3178 46.8819 23.0543 45.5105 26.0331 45.062C27.1274 44.8995 28.2436 45.1374 29.1766 45.7321C30.1095 46.3267 30.7965 47.2381 31.1112 48.2987L34.0565 58.3678L25.9196 59.5561Z" fill="#CCCCCC"/>
<path d="M23.0842 63.4165L19.137 59.4943C18.8671 59.2246 18.6712 58.89 18.568 58.5226C18.4649 58.1553 18.458 57.7675 18.548 57.3968L20.4589 49.624C20.5161 49.391 20.6205 49.1724 20.7657 48.9814C20.9108 48.7905 21.0937 48.6314 21.3028 48.514C21.5119 48.3966 21.7429 48.3233 21.9815 48.2988C22.2201 48.2742 22.4612 48.2989 22.6898 48.3713C23.1257 48.5118 23.4897 48.8164 23.7049 49.2206C23.92 49.6249 23.9693 50.097 23.8424 50.5369L21.8307 57.3749L25.0838 60.8682L23.0842 63.4165Z" fill="#CCCCCC"/>
<path d="M44.2557 50.0302C44.1513 50.2561 43.9987 50.4564 43.8085 50.617C43.6184 50.7775 43.3954 50.8944 43.1552 50.9594C42.915 51.0244 42.6634 51.036 42.4183 50.9933C42.1731 50.9505 41.9403 50.8546 41.7363 50.7122L36.4669 53.4433L36.6998 51.1233L41.3712 48.2323C41.6332 47.9054 42.006 47.6859 42.419 47.6154C42.832 47.545 43.2565 47.6285 43.612 47.8501C43.9676 48.0717 44.2295 48.4161 44.3481 48.8179C44.4667 49.2197 44.4338 49.6511 44.2557 50.0302H44.2557Z" fill="#FFB8B8"/>
<path d="M41.1609 51.7578L36.0241 53.9775C35.6822 54.1241 35.3083 54.1803 34.9384 54.1406C34.5686 54.1009 34.2151 53.9667 33.9121 53.751L27.3801 49.0707C27.1851 48.9311 27.0209 48.7528 26.8976 48.5471C26.7743 48.3414 26.6945 48.1126 26.6632 47.8748C26.6319 47.637 26.6497 47.3954 26.7155 47.1647C26.7814 46.9341 26.8939 46.7195 27.046 46.5341C27.3384 46.1816 27.7564 45.9567 28.2117 45.9072C28.667 45.8577 29.1236 45.9873 29.485 46.2686L35.0859 50.6768L39.5378 48.9545L41.1609 51.7578Z" fill="#CCCCCC"/>
<path d="M27.0493 40.9461C27.5622 40.3035 28.5204 40.2689 29.225 39.845C30.1478 39.2898 30.5293 38.0489 30.2319 37.0138C29.9346 35.9787 29.0575 35.1719 28.052 34.7861C27.0465 34.4003 25.9277 34.3955 24.867 34.582C23.2876 34.8597 21.7327 35.5968 20.7695 36.8789C19.8063 38.1609 19.5611 40.0385 20.4341 41.3836C20.8353 42.0019 21.4547 42.5122 21.6148 43.2316C21.8251 44.176 21.1626 45.0869 20.4529 45.7446C19.6443 46.4938 18.7167 47.1213 18.0083 47.9659C17.2999 48.8105 16.8275 49.9644 17.1508 51.0183C17.4216 51.9013 18.2097 52.5518 19.0739 52.8776C19.9382 53.2034 20.8794 53.2504 21.8028 53.2685C22.6995 53.286 23.6519 53.2642 24.4072 52.7807C25.2159 52.2632 25.6476 51.2813 25.6795 50.3217C25.7114 49.3622 25.3908 48.4221 24.961 47.5635C24.7049 47.0518 24.4071 46.5559 24.2369 46.0096C24.0666 45.4632 24.0372 44.8432 24.3097 44.3401C24.5963 43.8112 25.1759 43.4922 25.7662 43.3762C25.7968 43.3702 25.8293 43.3648 25.8632 43.36C26.0312 43.3382 26.1929 43.2826 26.3388 43.1965C26.4846 43.1104 26.6115 42.9956 26.7117 42.8591C26.8119 42.7226 26.8834 42.5672 26.9218 42.4023C26.9602 42.2373 26.9648 42.0663 26.9353 41.8996C26.868 41.5248 26.8738 41.166 27.0493 40.9461Z" fill="#2F2E41"/>
<path d="M82.4813 96.0281H80.406L79.4188 88.0236L82.4816 88.0237L82.4813 96.0281Z" fill="#A0616A"/>
<path d="M78.9236 95.4348H82.9259V97.9548H76.4037C76.4037 97.6238 76.4689 97.2961 76.5955 96.9904C76.7221 96.6847 76.9078 96.4069 77.1418 96.1729C77.3758 95.9389 77.6535 95.7533 77.9593 95.6266C78.265 95.5 78.5927 95.4348 78.9236 95.4348Z" fill="#2F2E41"/>
<path d="M97.5391 93.6777L95.6515 94.5398L91.4275 87.6692L94.2135 86.3966L97.5391 93.6777Z" fill="#A0616A"/>
<path d="M94.0564 94.6158L97.6969 92.953L98.7438 95.2451L92.8112 97.9549C92.6737 97.6539 92.5969 97.3287 92.5851 96.998C92.5732 96.6673 92.6266 96.3375 92.7423 96.0274C92.8579 95.7174 93.0335 95.4331 93.259 95.1909C93.4844 94.9487 93.7554 94.7533 94.0564 94.6158Z" fill="#2F2E41"/>
<path d="M91.4956 69.0388C91.6945 68.8892 91.8581 68.6978 91.9749 68.4781C92.0918 68.2584 92.159 68.0157 92.172 67.7672C92.1849 67.5187 92.1432 67.2704 92.0497 67.0397C91.9563 66.8091 91.8135 66.6017 91.6312 66.4323L94.0707 60.8971L90.9716 61.4223L89.1301 66.5981C88.8658 66.9231 88.7298 67.3338 88.748 67.7524C88.7661 68.1709 88.9372 68.5683 89.2288 68.8691C89.5204 69.17 89.9122 69.3534 90.33 69.3847C90.7478 69.416 91.1625 69.2929 91.4956 69.0388Z" fill="#A0616A"/>
<path d="M82.3489 93.9177H80.3664C80.1742 93.917 79.9892 93.8439 79.8484 93.713C79.7076 93.582 79.6213 93.4029 79.6067 93.2111L78.5256 64.3403C78.5175 64.2297 78.5337 64.1186 78.5731 64.0149C78.6124 63.9112 78.674 63.8174 78.7534 63.7399C78.8328 63.6624 78.9281 63.6033 79.0328 63.5665C79.1374 63.5297 79.2489 63.5163 79.3593 63.527L90.8249 64.7447C91.0107 64.7629 91.1834 64.8486 91.3102 64.9857C91.4369 65.1228 91.5089 65.3017 91.5125 65.4884L91.7528 78.2236C91.7541 78.2928 91.7675 78.3611 91.7924 78.4256L96.4956 90.6221C96.532 90.7164 96.5492 90.8169 96.5463 90.9178C96.5435 91.0188 96.5206 91.1181 96.4789 91.2101C96.4373 91.3022 96.3778 91.385 96.3038 91.4537C96.2299 91.5225 96.143 91.5759 96.0482 91.6108L94.0392 92.3511C93.8648 92.4153 93.6728 92.4135 93.4995 92.3461C93.3262 92.2786 93.1836 92.1501 93.0985 91.9847L87.3208 80.7503C87.2894 80.6892 87.2663 80.6242 87.2524 80.5569L86.2654 75.8014C86.2368 75.6635 86.16 75.5403 86.0488 75.454C85.9376 75.3676 85.7992 75.3236 85.6586 75.33C85.5179 75.3363 85.3841 75.3926 85.2811 75.4887C85.1782 75.5848 85.1128 75.7144 85.0968 75.8543L83.1057 93.2425C83.0845 93.4284 82.9956 93.5999 82.8561 93.7244C82.7165 93.8489 82.536 93.9177 82.3489 93.9177Z" fill="#2F2E41"/>
<path d="M83.3362 41.7662C85.6323 41.7662 87.4937 39.9048 87.4937 37.6087C87.4937 35.3125 85.6323 33.4512 83.3362 33.4512C81.0401 33.4512 79.1787 35.3125 79.1787 37.6087C79.1787 39.9048 81.0401 41.7662 83.3362 41.7662Z" fill="#A0616A"/>
<path d="M86.1874 66.9799C83.368 66.9489 80.6158 66.1152 78.2531 64.5766L78.2126 64.5486L78.2168 64.4996L79.8071 45.9786C79.8619 45.3502 80.1424 44.763 80.5967 44.3254C81.051 43.8878 81.6483 43.6296 82.2783 43.5983C84.3394 43.5036 87.1078 43.6231 88.5898 44.7268C90.8294 46.3949 91.9088 48.9068 91.5513 51.6183C90.8099 57.2413 91.6498 64.8264 91.748 65.6728L91.7551 65.7338L91.6993 65.7594C89.9727 66.5627 88.0916 66.9792 86.1874 66.9799Z" fill="#069E95"/>
<path d="M91.7288 65.7043C91.6116 65.7041 91.4958 65.6796 91.3885 65.6323C91.2813 65.5851 91.185 65.5161 91.1058 65.4297L90.1964 64.4376C90.0981 64.3297 90.0292 64.1984 89.9963 64.0563C89.9635 63.9142 89.9677 63.7659 90.0086 63.6259L92.0823 56.6072L88.9271 49.9813C88.7798 49.6712 88.7437 49.3198 88.8249 48.9861C88.8965 48.6933 89.0552 48.429 89.2801 48.2281C89.5049 48.0273 89.7854 47.8993 90.0844 47.8611C90.3835 47.8229 90.6871 47.8763 90.9552 48.0141C91.2233 48.152 91.4434 48.3679 91.5863 48.6334L95.868 55.5806C96.0419 55.8625 96.144 56.1827 96.1652 56.5132C96.1865 56.8437 96.1262 57.1744 95.9898 57.4762L92.5012 65.206C92.4437 65.3338 92.3553 65.4452 92.244 65.5303C92.1327 65.6154 92.002 65.6715 91.8636 65.6935C91.8191 65.7006 91.774 65.7042 91.7288 65.7043Z" fill="#069E95"/>
<path d="M62.4241 52.2971C62.6238 52.4456 62.8536 52.5485 63.0974 52.5986C63.3411 52.6487 63.5929 52.6447 63.8349 52.587C64.077 52.5293 64.3034 52.4192 64.4983 52.2644C64.6932 52.1097 64.8518 51.9141 64.963 51.6915L70.9616 52.4695L69.583 49.6446L64.098 49.3389C63.7115 49.177 63.2792 49.1624 62.8828 49.298C62.4864 49.4336 62.1534 49.7099 61.9471 50.0745C61.7408 50.4392 61.6754 50.8668 61.7633 51.2764C61.8512 51.6861 62.0864 52.0492 62.4241 52.2971V52.2971Z" fill="#A0616A"/>
<path d="M75.6461 53.8399C75.5416 53.8399 75.4373 53.8327 75.3338 53.8184L65.8967 52.5095C65.7425 52.4883 65.596 52.4291 65.4704 52.3371C65.3448 52.2452 65.244 52.1234 65.1772 51.9828C65.1556 51.9375 65.1376 51.8906 65.1234 51.8425H65.1234C65.0869 51.7175 65.0766 51.5863 65.0934 51.4572C65.1102 51.3281 65.1535 51.2038 65.2207 51.0923L66.0016 49.7976C66.0857 49.6592 66.2038 49.5447 66.3448 49.4651C66.4857 49.3855 66.6448 49.3434 66.8067 49.3429H66.8079L75.0339 49.3523L81.1774 43.8481C81.4633 43.5926 81.8283 43.4432 82.2112 43.425C82.5474 43.4094 82.8805 43.4961 83.1664 43.6737C83.4524 43.8512 83.6778 44.1113 83.8129 44.4195C83.9481 44.7278 83.9866 45.0697 83.9235 45.4004C83.8603 45.731 83.6984 46.0346 83.4592 46.2714L77.329 53.0894C77.1168 53.3256 76.8573 53.5145 76.5674 53.6438C76.2775 53.7731 75.9636 53.8399 75.6461 53.8399Z" fill="#069E95"/>
<path d="M83.8088 41.307C84.1888 40.4277 84.5103 39.2567 83.7816 38.635C83.3589 38.2744 82.75 38.2737 82.1962 38.2288C80.636 38.1024 79.0299 37.3845 78.2673 36.0175C77.5047 34.6505 77.9306 32.6178 79.3693 32.001C80.3391 31.5853 81.4509 31.8685 82.466 32.1564L85.5139 33.0207C86.4195 33.2775 87.3704 33.5607 88.0224 34.2397C89.0621 35.3225 88.9844 37.1531 88.1586 38.4068C87.3327 39.6605 86.089 40.968 84.6652 41.444L83.8088 41.307Z" fill="#2F2E41"/>
<path d="M125.858 98.0102H0.885728C0.859211 98.0102 0.83294 98.0051 0.808419 97.995C0.783899 97.9849 0.761612 97.9701 0.742835 97.9513C0.724057 97.9326 0.709158 97.9104 0.698993 97.8859C0.688828 97.8614 0.683594 97.8351 0.683594 97.8086C0.683594 97.7821 0.688828 97.7558 0.698993 97.7313C0.709158 97.7069 0.724057 97.6846 0.742835 97.6659C0.761612 97.6472 0.783899 97.6323 0.808419 97.6222C0.83294 97.6121 0.859211 97.607 0.885728 97.6071H125.858C125.885 97.607 125.911 97.6121 125.936 97.6222C125.96 97.6323 125.982 97.6472 126.001 97.6659C126.02 97.6846 126.035 97.7069 126.045 97.7313C126.055 97.7558 126.06 97.7821 126.06 97.8086C126.06 97.8351 126.055 97.8614 126.045 97.8859C126.035 97.9104 126.02 97.9326 126.001 97.9513C125.982 97.9701 125.96 97.9849 125.936 97.995C125.911 98.0051 125.885 98.0102 125.858 98.0102Z" fill="#3F3D56"/>
</svg>
