<svg width="158" height="137" viewBox="0 0 158 137" fill="none" xmlns="http://www.w3.org/2000/svg">
<path d="M157.182 135.135L44.6636 136.831L0 128.915H69.726L157.182 135.135Z" fill="#E6E6E6"/>
<path d="M129.57 35.9983C139.511 35.9983 147.57 27.9398 147.57 17.9991C147.57 8.05848 139.511 0 129.57 0C119.63 0 111.571 8.05848 111.571 17.9991C111.571 27.9398 119.63 35.9983 129.57 35.9983Z" fill="#FF6584"/>
<path d="M31.8408 129.856C31.8408 129.856 32.1041 124.339 37.5014 124.981L31.8408 129.856Z" fill="#3F3D56"/>
<path d="M30.3162 124.606C31.8081 124.606 33.0175 123.397 33.0175 121.905C33.0175 120.413 31.8081 119.204 30.3162 119.204C28.8243 119.204 27.6149 120.413 27.6149 121.905C27.6149 123.397 28.8243 124.606 30.3162 124.606Z" fill="#03A093"/>
<path d="M30.6391 126.454H29.8766V131.791H30.6391V126.454Z" fill="#3F3D56"/>
<path d="M120.8 130.798C120.8 130.798 121.063 125.282 126.461 125.923L120.8 130.798Z" fill="#3F3D56"/>
<path d="M119.275 125.549C120.767 125.549 121.976 124.339 121.976 122.847C121.976 121.355 120.767 120.146 119.275 120.146C117.783 120.146 116.574 121.355 116.574 122.847C116.574 124.339 117.783 125.549 119.275 125.549Z" fill="#03A093"/>
<path d="M119.598 127.396H118.835V132.734H119.598V127.396Z" fill="#3F3D56"/>
<path d="M133.804 131.741C133.804 131.741 134.068 126.224 139.465 126.865L133.804 131.741Z" fill="#3F3D56"/>
<path d="M132.28 126.491C133.772 126.491 134.981 125.282 134.981 123.79C134.981 122.298 133.772 121.088 132.28 121.088C130.788 121.088 129.579 122.298 129.579 123.79C129.579 125.282 130.788 126.491 132.28 126.491Z" fill="#03A093"/>
<path d="M132.603 128.338H131.84V133.676H132.603V128.338Z" fill="#3F3D56"/>
<path d="M53.1385 127.217C53.1385 127.217 53.4018 121.701 58.7991 122.342L53.1385 127.217Z" fill="#3F3D56"/>
<path d="M51.6135 121.968C53.1054 121.968 54.3148 120.758 54.3148 119.266C54.3148 117.774 53.1054 116.565 51.6135 116.565C50.1216 116.565 48.9122 117.774 48.9122 119.266C48.9122 120.758 50.1216 121.968 51.6135 121.968Z" fill="#03A093"/>
<path d="M51.9363 123.815H51.1738V129.153H51.9363V123.815Z" fill="#3F3D56"/>
<path d="M12.9935 128.16C12.9935 128.16 13.2568 122.643 18.6541 123.284L12.9935 128.16Z" fill="#3F3D56"/>
<path d="M11.469 122.91C12.9609 122.91 14.1703 121.701 14.1703 120.209C14.1703 118.717 12.9609 117.507 11.469 117.507C9.97711 117.507 8.7677 118.717 8.7677 120.209C8.7677 121.701 9.97711 122.91 11.469 122.91Z" fill="#03A093"/>
<path d="M11.7918 124.757H11.0293V130.095H11.7918V124.757Z" fill="#3F3D56"/>
<path d="M78.306 118.573C94.5603 118.573 107.737 105.397 107.737 89.1424C107.737 72.8881 94.5603 59.7114 78.306 59.7114C62.0517 59.7114 48.875 72.8881 48.875 89.1424C48.875 105.397 62.0517 118.573 78.306 118.573Z" fill="#3F3D56"/>
<path d="M59.7774 91.5048C60.5083 90.6297 61.4225 89.9258 62.4553 89.4428C63.4881 88.9598 64.6144 88.7095 65.7546 88.7095C66.8948 88.7095 68.021 88.9598 69.0538 89.4428C70.0867 89.9258 71.0008 90.6297 71.7318 91.5048C72.9825 90.3108 73.847 88.7696 74.2138 87.0798C74.5806 85.39 74.4329 83.6291 73.7897 82.024C73.1466 80.4189 72.0375 79.0432 70.6054 78.0742C69.1732 77.1053 67.4837 76.5874 65.7546 76.5874C64.0254 76.5874 62.3359 77.1053 60.9038 78.0742C59.4717 79.0432 58.3625 80.4189 57.7194 82.024C57.0763 83.6291 56.9286 85.39 57.2954 87.0798C57.6622 88.7696 58.5267 90.3108 59.7774 91.5048Z" fill="white"/>
<path d="M83.1488 91.5048C83.8798 90.6297 84.794 89.9258 85.8268 89.4428C86.8596 88.9598 87.9859 88.7094 89.126 88.7094C90.2662 88.7094 91.3925 88.9598 92.4253 89.4428C93.4581 89.9258 94.3723 90.6297 95.1032 91.5048C96.3539 90.3108 97.2184 88.7696 97.5852 87.0798C97.952 85.39 97.8043 83.6291 97.1612 82.024C96.518 80.4189 95.4089 79.0432 93.9768 78.0742C92.5447 77.1053 90.8552 76.5874 89.126 76.5874C87.3969 76.5874 85.7074 77.1053 84.2752 78.0742C82.8431 79.0432 81.734 80.4189 81.0909 82.024C80.4477 83.6291 80.3001 85.39 80.6669 87.0798C81.0336 88.7696 81.8981 90.3108 83.1488 91.5048Z" fill="white"/>
<path d="M62.8016 85.2736C64.4461 85.2736 65.7792 83.9405 65.7792 82.296C65.7792 80.6515 64.4461 79.3184 62.8016 79.3184C61.1571 79.3184 59.824 80.6515 59.824 82.296C59.824 83.9405 61.1571 85.2736 62.8016 85.2736Z" fill="#3F3D56"/>
<path d="M86.1726 85.2736C87.8171 85.2736 89.1502 83.9405 89.1502 82.296C89.1502 80.6515 87.8171 79.3184 86.1726 79.3184C84.5281 79.3184 83.1949 80.6515 83.1949 82.296C83.1949 83.9405 84.5281 85.2736 86.1726 85.2736Z" fill="#3F3D56"/>
<path d="M57.0981 99.9625C59.0104 99.9625 60.5606 98.4123 60.5606 96.5001C60.5606 94.5878 59.0104 93.0376 57.0981 93.0376C55.1858 93.0376 53.6356 94.5878 53.6356 96.5001C53.6356 98.4123 55.1858 99.9625 57.0981 99.9625Z" fill="#FF6584"/>
<path d="M96.9169 99.9625C98.8292 99.9625 100.379 98.4123 100.379 96.5001C100.379 94.5878 98.8292 93.0376 96.9169 93.0376C95.0047 93.0376 93.4545 94.5878 93.4545 96.5001C93.4545 98.4123 95.0047 99.9625 96.9169 99.9625Z" fill="#FF6584"/>
<path d="M77.0076 89.5752L74.4108 100.828L78.7388 96.5002L77.0076 89.5752Z" fill="#FF6584"/>
<path d="M90.3506 132.856L87.4023 130.381L87.471 132.856H86.5553L86.4822 130.239L82.5015 132.856H80.8351L86.4524 129.164L86.2348 121.411L86.0723 115.555L86.9857 115.53L87.1505 121.411L87.3679 129.157L91.7742 132.856H90.3506Z" fill="#3F3D56"/>
<path d="M76.5 132.856L73.5517 130.381L73.6204 132.856H72.7072L72.6339 130.239L68.6532 132.856H66.9868L72.6018 129.164L72.3844 121.411L72.2219 115.555L73.1374 115.53L73.3023 121.411L73.5174 129.157L77.9238 132.856H76.5Z" fill="#3F3D56"/>
<path d="M78.7388 57.5474C77.9313 57.5474 77.2189 58.1747 76.7426 59.1382C76.3228 57.6894 75.4408 56.6818 74.4108 56.6818C74.3407 56.6888 74.2713 56.7004 74.2029 56.7167C73.8069 55.1698 72.8867 54.085 71.8139 54.085C70.3797 54.085 69.217 56.0227 69.217 58.4131C69.217 60.8034 70.3797 62.7411 71.8139 62.7411C71.8839 62.7342 71.9534 62.7225 72.0218 62.7062C72.4177 64.2531 73.3379 65.338 74.4108 65.338C75.2183 65.338 75.9307 64.7107 76.407 63.7472C76.8268 65.196 77.7088 66.2036 78.7388 66.2036C80.173 66.2036 81.3357 64.2658 81.3357 61.8755C81.3357 59.4852 80.173 57.5474 78.7388 57.5474Z" fill="#3F3D56"/>
<path d="M50.6813 100.295C49.5445 100.295 48.4189 100.072 47.3687 99.6365C46.3185 99.2015 45.3642 98.5639 44.5604 97.7601C43.7566 96.9563 43.119 96.002 42.684 94.9518C42.249 93.9016 42.0251 92.776 42.0251 91.6392V87.3111C42.0251 85.0154 42.9371 82.8136 44.5604 81.1903C46.1838 79.567 48.3855 78.655 50.6813 78.655V100.295Z" fill="#03A093"/>
<path d="M105.931 78.6553C107.067 78.6553 108.193 78.8792 109.243 79.3142C110.293 79.7492 111.248 80.3868 112.052 81.1906C112.855 81.9944 113.493 82.9486 113.928 83.9989C114.363 85.0491 114.587 86.1747 114.587 87.3114V91.6395C114.587 92.7763 114.363 93.9019 113.928 94.9521C113.493 96.0023 112.855 96.9566 112.052 97.7604C111.248 98.5642 110.293 99.2018 109.243 99.6368C108.193 100.072 107.067 100.296 105.931 100.296V78.6553H105.931Z" fill="#03A093"/>
<path d="M110.466 87.9912H109.093C109.093 70.5733 94.9226 56.4027 77.5046 56.4027C60.0867 56.4027 45.9161 70.5733 45.9161 87.9912H44.5427C44.5427 69.8159 59.3294 55.0293 77.5046 55.0293C95.68 55.0293 110.466 69.8159 110.466 87.9912Z" fill="#03A093"/>
<path d="M30.3728 61.5206L30.3731 61.5201L29.7278 61.2514L27.0054 60.1005L26.0295 59.688L25.9547 59.8771L24.6438 63.1869L28.333 64.7483L28.3523 64.7659L28.1037 65.3521C28.0697 65.4057 28.0407 65.4623 28.017 65.5212C27.8429 65.9609 28.1718 66.3983 28.4827 66.5215C28.7936 66.6446 29.1869 66.388 29.361 65.9483C29.5328 65.5145 29.365 64.9636 29.0619 64.8304L29.0622 64.8299L28.417 64.5612L26.2097 63.7031L27.4709 60.5188L27.284 60.4448L26.0223 63.6303L25.7494 63.5242L27.016 60.3263L27.0493 60.3404L29.6439 61.4385L29.6632 61.456L29.4146 62.0422C29.3806 62.0958 29.3516 62.1525 29.3279 62.2114C29.1537 62.6511 29.4826 63.0885 29.7936 63.2116C30.1045 63.3348 30.4978 63.0782 30.6719 62.6385C30.8437 62.2047 30.6758 61.6537 30.3728 61.5206Z" fill="#3F3D56"/>
<path d="M43.1416 69.6462C41.8024 68.8805 42.0704 67.2003 42.0704 67.2003C42.0367 66.1087 41.1348 66.2632 41.1348 66.2632L40.8066 66.3381C40.6542 66.2673 40.4863 66.2363 40.3186 66.2478L39.8193 66.3319C40.9562 66.599 40.8628 67.5501 40.8628 67.5501L41.0221 68.6621L38.043 67.4603L38.3851 66.6539C38.4323 66.5794 38.4727 66.5007 38.5055 66.4189C38.7474 65.8082 38.2906 65.2007 37.8587 65.0297C37.4269 64.8586 36.8807 65.2151 36.6388 65.8258C36.4002 66.4282 36.6334 67.1934 37.0542 67.3783L37.0539 67.3791L37.95 67.7523L37.9567 67.7311L43.1416 69.6462ZM41.6288 67.6923L41.7244 68.7567C41.387 68.2834 41.2286 67.7058 41.2772 67.1266C41.2693 66.9206 41.1998 66.7217 41.0776 66.5556C41.2654 66.6759 41.4162 66.8457 41.5134 67.0463C41.6107 67.2468 41.6506 67.4704 41.6288 67.6923V67.6923Z" fill="#3F3D56"/>
<path d="M20.4176 53.9043L20.418 53.9036L19.5218 53.5304L15.7764 52.0744L16.7217 51.2334C16.9066 50.9868 17.1797 50.8214 17.4839 50.7715C17.788 50.7217 18.0996 50.7914 18.3536 50.9661L18.0602 50.5301C18.0602 50.5301 17.5087 49.8 16.7367 50.5724C16.7367 50.5724 15.7816 51.9805 14.2812 51.6216L19.4052 53.7903L19.4321 53.8147L19.0868 54.6288C19.0395 54.7033 18.9992 54.7819 18.9663 54.8638C18.7244 55.4745 19.1813 56.082 19.6131 56.253C20.045 56.4241 20.5912 56.0676 20.8331 55.4569C21.0716 54.8545 20.8385 54.0892 20.4176 53.9043Z" fill="#3F3D56"/>
<path d="M34.1296 49.1391L33.7843 49.9532C33.737 50.0277 33.6967 50.1064 33.6638 50.1882C33.4219 50.7989 33.8788 51.4064 34.3106 51.5774C34.7425 51.7485 35.2887 51.3921 35.5306 50.7813C35.7691 50.179 35.536 49.4137 35.1151 49.2288L35.1155 49.228L34.2193 48.8548L31.1537 47.6631L32.9053 43.2404L32.6457 43.1375L30.8934 47.5619L30.5143 47.4146L32.2734 42.9729L32.3198 42.9925L35.9233 44.5177L35.9502 44.5421L35.6049 45.3562C35.5577 45.4307 35.5174 45.5094 35.4845 45.5912C35.2426 46.2019 35.6994 46.8094 36.1313 46.9804C36.5631 47.1515 37.1093 46.7951 37.3512 46.1843C37.5898 45.5819 37.3566 44.8167 36.9358 44.6318L36.9361 44.631L36.04 44.2578L32.3777 42.7097L32.3776 42.7096L32.2588 42.6594L30.9034 42.0864L28.9788 46.946L34.1027 49.1148L34.1296 49.1391Z" fill="#3F3D56"/>
<path d="M17.8918 24.251L17.8924 24.2497L16.3497 23.6073L9.90214 21.1009L11.5294 19.6531C11.5294 19.6531 12.6119 18.1512 14.3386 19.1929L13.8336 18.4424C13.8336 18.4424 12.8842 17.1855 11.5554 18.5153C11.5554 18.5153 9.9111 20.9393 7.32837 20.3214L16.1489 24.0547L16.1952 24.0967L15.6008 25.4982C15.5195 25.6263 15.45 25.7618 15.3934 25.9026C14.9771 26.954 15.7635 27.9997 16.5069 28.2941C17.2503 28.5886 18.1905 27.975 18.6069 26.9237C19.0176 25.8867 18.6162 24.5693 17.8918 24.251Z" fill="#3F3D56"/>
<path d="M22.6262 45.3048C19.4242 43.4741 20.0649 39.4567 20.0649 39.4567C19.9844 36.8469 17.8281 37.2163 17.8281 37.2163L17.0433 37.3954C16.6788 37.2262 16.2774 37.1519 15.8764 37.1796L14.6826 37.3805C17.4009 38.0192 17.1776 40.2931 17.1776 40.2931L17.5584 42.9519L10.4358 40.0786L11.2536 38.1503C11.3666 37.9723 11.463 37.7842 11.5416 37.5885C12.12 36.1283 11.0277 34.6759 9.99517 34.267C8.96262 33.858 7.65676 34.7102 7.07845 36.1704C6.50802 37.6107 7.06549 39.4404 8.07168 39.8825L8.07083 39.8842L10.2135 40.7765L10.2294 40.726L22.6262 45.3048ZM19.0092 40.6331L19.2384 43.1869C17.8935 41.4017 18.1684 39.2807 18.1684 39.2807C18.1495 38.7882 17.9833 38.3126 17.6914 37.9154C19.2362 38.8399 19.0092 40.6331 19.0092 40.6331H19.0092Z" fill="#3F3D56"/>
</svg>
