<svg width="72" height="68" viewBox="0 0 72 68" fill="none" xmlns="http://www.w3.org/2000/svg">
<path fill-rule="evenodd" clip-rule="evenodd" d="M64.9031 68V61.6999H65.1691C67.2664 61.0078 68.8511 59.7515 69.9231 57.931C70.9951 56.1104 71.5311 53.8162 71.5311 51.0483V39.006C71.5311 35.4319 70.5788 32.623 68.6741 30.5794C66.7688 28.5358 64.0593 27.514 60.5457 27.514H53.0424C54.3607 26.1506 55.3889 24.5799 56.1272 22.8019C56.8655 21.0238 57.2347 19.0869 57.2347 16.991C57.2347 13.6907 56.4363 10.76 54.8395 8.1989C53.2427 5.63783 51.0996 3.6311 48.4103 2.1787C45.721 0.726237 42.7351 0 39.4526 0C35.725 0 32.3908 1.02803 29.4499 3.0841C26.509 5.14017 24.4476 8.06023 23.2657 11.8443C22.096 8.06023 20.0326 5.14017 17.0757 3.0841C14.1188 1.02803 10.7741 0 7.0418 0C4.52129 0 2.17402 0.429464 0 1.28839V15.1216C0.391626 13.997 1.01863 13.0297 1.881 12.2198C3.46073 10.7361 5.55867 9.9942 8.1748 9.9942C10.9462 9.9942 13.3081 11.0257 15.2605 13.0887C17.213 15.1517 18.1892 17.8501 18.1892 21.184V27.514H11.055C7.37193 27.514 4.52723 26.6235 2.5209 24.8425C1.32301 23.7792 0.482708 22.568 0 21.2089V37.1053H17.9249V52.9119H0V59C0 60.2426 0.251824 61.4264 0.707222 62.5031H17.9068V68H28.6317V62.5031H54.2156V68H64.9031ZM28.6317 37.1053V52.9119H57.6383C58.7555 52.9119 59.561 52.6733 60.0547 52.1962C60.5485 51.7191 60.7954 50.9219 60.7954 49.8047V40.3389C60.7954 39.2217 60.5485 38.4035 60.0547 37.8842C59.561 37.3649 58.7555 37.1053 57.6383 37.1053H28.6317ZM28.3124 21.184V27.514H35.4835C39.1371 27.514 41.9745 26.6235 43.9956 24.8425C46.0167 23.0615 47.0272 20.8657 47.0272 18.255C47.0272 15.7153 46.23 13.7035 44.6355 12.2198C43.041 10.7361 40.9481 9.9942 38.3566 9.9942C35.5973 9.9942 33.2335 11.0257 31.265 13.0887C29.2966 15.1517 28.3124 17.8501 28.3124 21.184Z" fill="url(#paint0_linear_1_1733)"/>
<defs>
<linearGradient id="paint0_linear_1_1733" x1="23.2655" y1="0" x2="23.2655" y2="104.692" gradientUnits="userSpaceOnUse">
<stop stop-color="#01988B"/>
<stop offset="1" stop-color="#02CB65"/>
</linearGradient>
</defs>
</svg>
