<svg width="111" height="111" viewBox="0 0 111 111" fill="none" xmlns="http://www.w3.org/2000/svg">
<path d="M11.3527 36.6043L12.0414 35.7951C12.0585 35.7883 12.1534 35.8149 12.3259 35.8751C12.5156 35.9284 12.7591 36.0049 13.0564 36.1046C13.3589 36.1923 13.6972 36.2955 14.0715 36.4142C14.4457 36.5328 14.8259 36.654 15.2121 36.7778C15.6102 36.9067 15.9964 37.0305 16.3706 37.1491C16.7568 37.2729 17.1131 37.3838 17.4394 37.4818C17.4394 37.4818 17.4933 37.505 17.6009 37.5513C17.7085 37.5977 17.8281 37.6492 17.9597 37.7058C18.0912 37.7625 18.2168 37.8166 18.3364 37.8681C18.456 37.9196 18.5337 37.9531 18.5696 37.9685C18.8566 38.0921 19.0307 38.2309 19.092 38.3849C19.1533 38.5389 19.1067 38.7952 18.9522 39.154L15.5251 38.1247C15.1768 38.8678 14.8488 39.6623 14.5413 40.5081C14.2337 41.3538 13.933 42.2167 13.6391 43.0967C13.3504 43.9647 13.0582 44.8242 12.7626 45.6751C12.479 46.5312 12.175 47.3359 11.8505 48.0894C11.8042 48.197 11.7348 48.2593 11.6425 48.2762C11.5672 48.2863 11.4792 48.2768 11.3784 48.2475C11.2895 48.2234 11.2024 48.1788 11.117 48.1137C11.0265 48.0606 10.9505 48.0066 10.889 47.9517C10.9201 47.7808 11.0001 47.4963 11.129 47.0982C11.258 46.7 11.4152 46.2361 11.6008 45.7064C11.7864 45.1767 11.99 44.6052 12.2116 43.9918C12.4333 43.3784 12.6549 42.765 12.8765 42.1516C13.0982 41.5382 13.3069 40.9547 13.5028 40.4011C13.7038 39.8355 13.8799 39.3443 14.0311 38.9274C14.1875 38.4985 14.3026 38.1653 14.3765 37.9278C14.4624 37.6954 14.4865 37.6066 14.4488 37.6612L11.3527 36.6043ZM14.9976 47.8923C15.2912 47.2106 15.6903 46.7942 16.1949 46.6429C16.7115 46.4968 17.2747 46.555 17.8846 46.8177C18.1238 46.9207 18.3425 47.0219 18.5406 47.1215C18.7508 47.2261 18.9412 47.3436 19.1119 47.4738C19.2827 47.604 19.4371 47.7556 19.5753 47.9286C19.7255 48.1066 19.8636 48.3291 19.9896 48.5961C20.0051 48.5602 20.036 48.4884 20.0823 48.3808C20.1458 48.2664 20.2058 48.1434 20.2625 48.0118C20.3191 47.8803 20.3706 47.7607 20.417 47.6531C20.4685 47.5335 20.5045 47.4498 20.5251 47.4019C20.6059 47.1815 20.7184 46.9039 20.8626 46.569C21.0119 46.2222 21.134 45.8565 21.2287 45.472C21.3353 45.0927 21.3745 44.7055 21.3461 44.3105C21.3297 43.9206 21.1782 43.5647 20.8915 43.2428C20.6404 43.1347 20.3891 43.0761 20.1378 43.0671C19.8865 43.0581 19.6326 43.0551 19.3762 43.0581C19.1197 43.061 18.8658 43.058 18.6145 43.049C18.3683 43.0281 18.1197 42.9635 17.8685 42.8554C17.9973 42.5564 18.1926 42.3499 18.4544 42.2358C18.7332 42.1149 19.0274 42.0573 19.3369 42.0629C19.6463 42.0686 19.9523 42.1153 20.2547 42.203C20.5572 42.2908 20.8161 42.381 21.0313 42.4737C21.2312 42.6023 21.4104 42.7291 21.5692 42.8542C21.74 42.9844 21.8722 43.1548 21.9658 43.3652C22.0715 43.5808 22.1257 43.8665 22.1285 44.2221C22.1484 44.5709 22.0929 45.029 21.9619 45.5964C21.8429 46.169 21.6442 46.8773 21.3658 47.7214C21.1044 48.5587 20.7453 49.5737 20.2884 50.7662C20.2454 50.932 20.1323 51.0464 19.9493 51.1093C19.7833 51.1654 19.5747 51.189 19.3234 51.18C19.0772 51.1591 18.8038 51.1192 18.5029 51.0606C18.2192 50.9951 17.9347 50.9151 17.6494 50.8206C17.364 50.726 17.0932 50.6307 16.8369 50.5345C16.5806 50.4383 16.3687 50.3541 16.2013 50.282C15.9861 50.1893 15.7803 50.0582 15.5839 49.8886C15.3996 49.7241 15.2401 49.5349 15.1054 49.321C14.9878 49.1002 14.9104 48.8684 14.8732 48.6255C14.8531 48.3759 14.8946 48.1315 14.9976 47.8923ZM17.8704 47.6409C17.2003 47.5508 16.6942 47.5738 16.352 47.71C16.015 47.8342 15.8121 48.0091 15.7433 48.2347C15.6865 48.4654 15.745 48.7245 15.9189 49.0121C16.0979 49.2876 16.3539 49.5326 16.687 49.7469C17.0251 49.9492 17.4267 50.0867 17.8916 50.1593C18.3617 50.22 18.8601 50.1653 19.387 49.9953C19.3929 49.5867 19.3627 49.2618 19.2964 49.0206C19.2353 48.7674 19.1417 48.557 19.0154 48.3892C18.8892 48.2214 18.7296 48.0818 18.5366 47.9703C18.3436 47.8589 18.1215 47.749 17.8704 47.6409ZM23.1507 47.7245C23.0874 47.7398 23.0165 47.7235 22.9379 47.6754C22.8594 47.6274 22.7894 47.576 22.7279 47.5212C22.6716 47.4544 22.6239 47.3842 22.5847 47.3107C22.5626 47.2303 22.567 47.1542 22.5979 47.0824C22.773 46.6758 23.0582 46.3592 23.4536 46.1325C23.8541 45.8938 24.2912 45.7347 24.7649 45.6552C25.2438 45.5637 25.7208 45.5423 26.1961 45.591C26.6764 45.6278 27.09 45.7208 27.4368 45.8702C27.9869 46.1071 28.442 46.4165 28.8021 46.7984C29.1793 47.1735 29.4538 47.5894 29.6257 48.0462C29.8096 48.5082 29.8925 48.9905 29.8745 49.4931C29.8685 50.0009 29.7599 50.4999 29.5487 50.9903C29.2929 51.6173 28.9047 52.1235 28.3843 52.509C27.8758 52.8996 27.3026 53.1773 26.6646 53.342C26.0437 53.4999 25.399 53.5484 24.7306 53.4874C24.0793 53.4196 23.483 53.2407 22.9415 52.9508C22.78 53.3916 22.5629 53.8794 22.2901 54.414C22.0121 54.9606 21.7016 55.55 21.3586 56.182C21.0155 56.8139 20.6391 57.4741 20.2292 58.1624C19.8262 58.8678 19.4095 59.5886 18.9791 60.3247C18.9739 60.3367 18.9354 60.3272 18.8637 60.2963C18.7919 60.2654 18.7194 60.2199 18.6459 60.16C18.5793 60.1171 18.5093 60.0657 18.4359 60.0057C18.3693 59.9629 18.3275 59.9448 18.3104 59.9517C18.8215 58.9951 19.3199 58.0189 19.8055 57.023C20.2911 56.0271 20.7494 55.0123 21.1804 53.9787C21.6062 52.957 21.9876 51.9233 22.3245 50.8775C22.6614 49.8318 22.9368 48.7808 23.1507 47.7245ZM26.7889 46.782C26.5566 46.6962 26.296 46.6265 26.0071 46.5729C25.7234 46.5075 25.4567 46.4848 25.2071 46.5049C24.9574 46.5249 24.7342 46.5989 24.5373 46.7268C24.3405 46.8547 24.2034 47.0579 24.1259 47.3364C24.0983 47.4663 24.0536 47.6526 23.9916 47.8953C23.9416 48.1431 23.8787 48.4208 23.8029 48.7284C23.7391 49.0412 23.6642 49.3634 23.5781 49.6949C23.504 50.0316 23.429 50.3537 23.3533 50.6613C23.2895 50.9741 23.224 51.2578 23.1569 51.5124C23.1069 51.7603 23.068 51.9491 23.0405 52.079C23.1943 52.1169 23.4079 52.1805 23.6813 52.2699C23.9547 52.3593 24.2563 52.4325 24.5862 52.4895C24.9161 52.5465 25.2622 52.5822 25.6247 52.5965C26.0042 52.604 26.3804 52.5534 26.7533 52.4446C27.1262 52.3358 27.4865 52.1578 27.834 51.9105C28.1986 51.6564 28.5249 51.2936 28.813 50.8223C29.0138 50.3559 29.1027 49.9192 29.0794 49.5122C29.0562 49.1053 28.9475 48.7324 28.7531 48.3935C28.564 48.0427 28.2927 47.7344 27.9392 47.4688C27.6029 47.1964 27.2195 46.9675 26.7889 46.782ZM40.5831 53.0203C40.4909 52.9381 40.3466 52.8617 40.1501 52.7913C39.9707 52.714 39.7683 52.641 39.5427 52.5722C39.3342 52.4966 39.1292 52.4296 38.9275 52.3711C38.7259 52.3126 38.5593 52.2551 38.4278 52.1984C38.368 52.1726 38.3622 52.0709 38.4103 51.8932C38.4756 51.7086 38.5547 51.4592 38.6476 51.1447L41.2542 52.0546C41.4703 51.6515 41.623 51.3628 41.7122 51.1886C41.8014 51.0144 41.8658 50.8649 41.9053 50.7401C41.962 50.6086 42.0178 50.4625 42.0728 50.3019C42.1449 50.1345 42.2556 49.8773 42.405 49.5305C42.7365 49.6166 42.9749 49.7051 43.12 49.7959C43.2823 49.88 43.3779 49.9708 43.4068 50.0683C43.4357 50.1658 43.4132 50.2837 43.3395 50.4221C43.2828 50.5536 43.1928 50.7133 43.0694 50.9012C42.9579 51.0942 42.8284 51.3291 42.6809 51.6058C42.5453 51.8876 42.4182 52.2157 42.2996 52.5899L44.4831 53.4452L44.1046 54.3242C44.0089 54.283 43.8568 54.2246 43.6484 54.149C43.4399 54.0734 43.2135 53.9901 42.9692 53.899C42.7368 53.8131 42.5164 53.7324 42.308 53.6568C42.1115 53.5863 41.9577 53.5484 41.8465 53.5431C41.5655 53.9324 41.2655 54.3491 40.9467 54.7931C40.6279 55.237 40.3476 55.6905 40.1057 56.1534C39.8638 56.6163 39.6827 57.0699 39.5622 57.5142C39.4469 57.9466 39.4496 58.3518 39.5703 58.7298C39.6962 59.0959 39.9572 59.4281 40.3533 59.7263C40.7546 60.0125 41.3561 60.229 42.1577 60.3757C42.0565 60.5448 41.9204 60.6634 41.7493 60.7315C41.5953 60.7928 41.4251 60.8258 41.2387 60.8306C41.0695 60.8286 40.8934 60.8095 40.7105 60.7733C40.5328 60.7251 40.3782 60.6726 40.2466 60.616C39.6367 60.3533 39.1987 60.0371 38.9327 59.6674C38.6717 59.2856 38.5288 58.8768 38.504 58.4407C38.4791 58.0047 38.5406 57.5492 38.6885 57.0741C38.8415 56.5871 39.027 56.107 39.2449 55.6338C39.4749 55.1658 39.7142 54.7088 39.9629 54.263C40.2116 53.8172 40.4183 53.403 40.5831 53.0203ZM43.8925 58.2732C44.0109 57.9982 44.1713 57.6916 44.3736 57.3534C44.5811 57.0033 44.8185 56.666 45.0858 56.3417C45.3531 56.0173 45.6417 55.7092 45.9517 55.4174C46.2736 55.1307 46.6074 54.8988 46.9531 54.7216C47.3039 54.5324 47.6649 54.4185 48.036 54.3798C48.4122 54.3292 48.7857 54.3837 49.1564 54.5433C49.5391 54.7082 49.8352 54.9916 50.0448 55.3938C50.2664 55.8011 50.4006 56.2629 50.4476 56.7794C50.5065 57.3009 50.485 57.8446 50.3832 58.4103C50.2813 58.9761 50.1128 59.4989 49.8778 59.979C49.5687 60.6965 49.1557 61.2771 48.6386 61.7207C48.1214 62.1643 47.5729 62.4668 46.9931 62.6282C46.4251 62.7948 45.8703 62.8323 45.3285 62.7407C44.7986 62.6543 44.357 62.4287 44.0038 62.0639C43.6676 61.6923 43.4667 61.1876 43.4012 60.5497C43.3476 59.917 43.5113 59.1582 43.8925 58.2732ZM44.5253 58.6308C44.247 59.3758 44.1305 59.9919 44.1758 60.4793C44.2211 60.9666 44.3649 61.3405 44.6072 61.6008C44.8667 61.8543 45.2015 61.9985 45.6118 62.0334C46.0221 62.0683 46.4471 62.0032 46.8867 61.8382C47.3316 61.6611 47.7595 61.3917 48.1705 61.03C48.5985 60.6615 48.9481 60.1953 49.2193 59.6316C49.4286 59.2114 49.573 58.7773 49.6524 58.3295C49.7438 57.8869 49.7727 57.474 49.7392 57.091C49.7228 56.7012 49.6336 56.365 49.4717 56.0827C49.3269 55.7935 49.105 55.5845 48.806 55.4557C48.519 55.3321 48.231 55.2931 47.942 55.3388C47.6529 55.3844 47.3587 55.4916 47.0592 55.6604C46.7768 55.8223 46.5029 56.0304 46.2374 56.2847C45.972 56.539 45.7244 56.801 45.4949 57.0707C45.2772 57.3456 45.0801 57.6222 44.9036 57.9006C44.7441 58.1722 44.618 58.4156 44.5253 58.6308ZM58.5434 62.9666C58.4801 62.9818 58.4091 62.9655 58.3306 62.9175C58.252 62.8694 58.182 62.818 58.1206 62.7632C58.0643 62.6964 58.0165 62.6263 57.9773 62.5527C57.9552 62.4723 57.9596 62.3962 57.9905 62.3244C58.1656 61.9178 58.4509 61.6012 58.8462 61.3745C59.2467 61.1358 59.6838 60.9767 60.1576 60.8972C60.6364 60.8057 61.1135 60.7843 61.5887 60.8331C62.0691 60.8698 62.4827 60.9629 62.8295 61.1122C63.3796 61.3491 63.8347 61.6585 64.1948 62.0404C64.5719 62.4155 64.8465 62.8315 65.0184 63.2883C65.2022 63.7502 65.2851 64.2325 65.2671 64.7351C65.2611 65.2429 65.1525 65.7419 64.9414 66.2323C64.6855 66.8593 64.2974 67.3655 63.7769 67.751C63.2685 68.1416 62.6952 68.4193 62.0572 68.584C61.4363 68.742 60.7917 68.7904 60.1233 68.7294C59.472 68.6616 58.8756 68.4827 58.3341 68.1928C58.1726 68.6336 57.9555 69.1214 57.6827 69.656C57.4048 70.2027 57.0943 70.792 56.7512 71.424C56.4082 72.056 56.0317 72.7161 55.6219 73.4044C55.2189 74.1098 54.8021 74.8306 54.3717 75.5667C54.3665 75.5787 54.3281 75.5692 54.2563 75.5383C54.1846 75.5074 54.112 75.462 54.0386 75.402C53.972 75.3591 53.902 75.3077 53.8286 75.2477C53.762 75.2049 53.7201 75.1869 53.703 75.1937C54.2142 74.2371 54.7126 73.2609 55.1982 72.265C55.6838 71.2691 56.1421 70.2543 56.573 69.2207C56.9988 68.199 57.3802 67.1653 57.7171 66.1195C58.0541 65.0738 58.3295 64.0228 58.5434 62.9666ZM62.1816 62.0241C61.9492 61.9382 61.6886 61.8685 61.3998 61.815C61.1161 61.7495 60.8494 61.7268 60.5997 61.7469C60.3501 61.7669 60.1268 61.8409 59.93 61.9688C59.7331 62.0967 59.596 62.2999 59.5186 62.5785C59.491 62.7083 59.4462 62.8946 59.3842 63.1373C59.3342 63.3851 59.2713 63.6628 59.1956 63.9705C59.1317 64.2832 59.0568 64.6054 58.9707 64.9369C58.8966 65.2736 58.8217 65.5957 58.7459 65.9034C58.6821 66.2161 58.6166 66.4998 58.5495 66.7545C58.4995 67.0023 58.4607 67.1911 58.4331 67.321C58.5869 67.3589 58.8005 67.4225 59.0739 67.5119C59.3473 67.6013 59.649 67.6745 59.9788 67.7315C60.3087 67.7885 60.6549 67.8242 61.0173 67.8385C61.3968 67.846 61.7731 67.7954 62.146 67.6866C62.5189 67.5778 62.8791 67.3998 63.2266 67.1525C63.5912 66.8984 63.9176 66.5357 64.2056 66.0643C64.4065 65.5979 64.4953 65.1612 64.4721 64.7542C64.4489 64.3473 64.3401 63.9744 64.1458 63.6355C63.9566 63.2847 63.6853 62.9765 63.3319 62.7108C62.9955 62.4384 62.6121 62.2095 62.1816 62.0241ZM64.741 69.3145C65.0346 68.6329 65.4337 68.2164 65.9383 68.0651C66.4549 67.919 67.0182 67.9773 67.6281 68.2399C67.8673 68.3429 68.0859 68.4442 68.2841 68.5437C68.4942 68.6484 68.6846 68.7658 68.8554 68.8961C69.0261 69.0263 69.1806 69.1779 69.3188 69.3508C69.4689 69.5289 69.607 69.7514 69.733 70.0183C69.7485 69.9824 69.7794 69.9107 69.8258 69.8031C69.8892 69.6886 69.9493 69.5656 70.0059 69.4341C70.0626 69.3025 70.1141 69.1829 70.1604 69.0753C70.2119 68.9557 70.248 68.872 70.2686 68.8242C70.3493 68.6038 70.4618 68.3261 70.606 67.9913C70.7554 67.6445 70.8774 67.2788 70.9721 66.8943C71.0788 66.5149 71.1179 66.1277 71.0896 65.7327C71.0731 65.3429 70.9216 64.987 70.6349 64.6651C70.3838 64.5569 70.1326 64.4983 69.8813 64.4893C69.6299 64.4804 69.3761 64.4773 69.1196 64.4803C68.8631 64.4833 68.6092 64.4803 68.3579 64.4713C68.1118 64.4503 67.8631 64.3858 67.612 64.2776C67.7407 63.9786 67.936 63.7721 68.1978 63.658C68.4767 63.5371 68.7709 63.4795 69.0803 63.4852C69.3898 63.4909 69.6957 63.5376 69.9982 63.6253C70.3007 63.713 70.5595 63.8032 70.7748 63.8959C70.9746 64.0245 71.1539 64.1513 71.3127 64.2764C71.4834 64.4067 71.6156 64.577 71.7093 64.7875C71.8149 65.0031 71.8691 65.2887 71.8719 65.6443C71.8918 65.9932 71.8363 66.4513 71.7054 67.0187C71.5864 67.5912 71.3877 68.2995 71.1092 69.1437C70.8479 69.981 70.4887 70.9959 70.0319 72.1885C69.9888 72.3543 69.8758 72.4686 69.6927 72.5315C69.5268 72.5877 69.3182 72.6112 69.0668 72.6023C68.8207 72.5813 68.5472 72.5415 68.2464 72.4828C67.9627 72.4174 67.6782 72.3374 67.3928 72.2428C67.1074 72.1483 66.8366 72.0529 66.5803 71.9567C66.324 71.8605 66.1122 71.7764 65.9448 71.7043C65.7295 71.6116 65.5237 71.4804 65.3274 71.3108C65.143 71.1464 64.9835 70.9572 64.8488 70.7432C64.7312 70.5224 64.6538 70.2906 64.6167 70.0478C64.5966 69.7981 64.638 69.5537 64.741 69.3145ZM67.6138 69.0631C66.9438 68.9731 66.4376 68.9961 66.0955 69.1323C65.7584 69.2565 65.5555 69.4314 65.4867 69.6569C65.4299 69.8877 65.4884 70.1468 65.6623 70.4343C65.8414 70.7099 66.0974 70.9548 66.4304 71.1691C66.7686 71.3715 67.1701 71.509 67.635 71.5816C68.1051 71.6423 68.6036 71.5876 69.1305 71.4175C69.1363 71.0089 69.1061 70.684 69.0399 70.4428C68.9788 70.1897 68.8851 69.9792 68.7589 69.8114C68.6326 69.6437 68.473 69.504 68.28 69.3926C68.087 69.2811 67.865 69.1713 67.6138 69.0631ZM73.2808 66.5701C73.3066 66.5103 73.3682 66.4659 73.4657 66.437C73.5752 66.4133 73.6914 66.4067 73.8145 66.4171C73.9495 66.4328 74.0735 66.4578 74.1862 66.4922C74.299 66.5266 74.369 66.578 74.3963 66.6464C73.8294 68.1602 73.4571 69.4034 73.2792 70.3759C73.1185 71.3416 73.0822 72.0844 73.1702 72.6043C73.2701 73.1294 73.473 73.4649 73.7788 73.6107C74.0897 73.7446 74.4513 73.7444 74.8636 73.6101C75.281 73.4638 75.7157 73.2115 76.1677 72.8532C76.6317 72.5002 77.0573 72.088 77.4445 71.6168C77.8437 71.1507 78.1771 70.6564 78.4447 70.1337C78.7124 69.611 78.8705 69.112 78.9193 68.6368L80.0496 68.9747C79.9843 69.1593 79.8855 69.4711 79.7531 69.9103C79.6378 70.3426 79.4967 70.8348 79.3299 71.3867C79.1802 71.9319 79.0261 72.5035 78.8678 73.1016C78.7095 73.6998 78.5546 74.2569 78.4032 74.7729C78.257 75.277 78.1332 75.7128 78.0316 76.0802C77.9353 76.4357 77.8691 76.6552 77.833 76.739L77.0616 76.4068L77.555 72.9403C77.2073 73.2868 76.8315 73.5999 76.4275 73.8795C76.0235 74.1592 75.6162 74.3808 75.2056 74.5442C74.8069 74.7127 74.4161 74.8138 74.0331 74.8473C73.6552 74.8689 73.3159 74.8007 73.0153 74.6429C72.7318 74.4783 72.5006 74.2086 72.3217 73.8338C72.1428 73.4591 72.0437 72.9486 72.0243 72.3023C72.0221 71.6492 72.1166 70.8534 72.3081 69.9151C72.4995 68.9768 72.8237 67.8618 73.2808 66.5701ZM80.0757 76.0248C80.291 76.1175 80.4703 76.2444 80.6136 76.4053C80.7689 76.5714 80.9131 76.7469 81.0461 76.9318C81.1843 77.1047 81.325 77.2717 81.4684 77.4327C81.6288 77.5868 81.8167 77.7102 82.0319 77.8029C82.2831 77.9111 82.5582 77.98 82.8574 78.0096C83.1736 78.0323 83.4788 78.0149 83.773 77.9573C84.0723 77.8877 84.3427 77.7703 84.584 77.6048C84.8305 77.4275 85.013 77.2012 85.1315 76.9262C85.1795 76.8476 85.2233 76.746 85.2628 76.6212C85.3143 76.5016 85.3299 76.3666 85.3097 76.2161C85.2946 76.0537 85.2265 75.8826 85.1054 75.7028C84.9895 75.5111 84.783 75.3159 84.4858 75.117C84.2006 74.9233 83.8189 74.7235 83.3405 74.5175C82.8673 74.2995 82.2573 74.0864 81.5105 73.8782C81.3311 73.801 81.1783 73.6785 81.0521 73.5107C80.931 73.3309 80.8356 73.141 80.7659 72.9408C80.7013 72.7287 80.6632 72.5209 80.6516 72.3174C80.6451 72.102 80.6754 71.9166 80.7423 71.7611C80.9432 71.2947 81.2011 70.9592 81.516 70.7546C81.8481 70.5431 82.2056 70.4207 82.5887 70.3872C82.9768 70.3417 83.3777 70.3655 83.7913 70.4585C84.2049 70.5516 84.609 70.6831 85.0037 70.853C85.1831 70.9303 85.3812 71.0298 85.5981 71.1516C85.8322 71.2665 86.0268 71.4071 86.1821 71.5732C86.3545 71.7325 86.4704 71.9242 86.5299 72.1483C86.6013 72.3775 86.5726 72.6416 86.4439 72.9406C86.3324 73.1336 86.2424 73.2437 86.174 73.2709C86.1227 73.2913 86.068 73.2536 86.0101 73.1578C85.9692 73.0551 85.9207 72.9208 85.8646 72.7549C85.8085 72.589 85.7258 72.4187 85.6167 72.2441C85.5247 72.0627 85.384 71.8958 85.1945 71.7433C85.0169 71.5959 84.7837 71.4955 84.4948 71.442C84.2198 71.3235 83.9319 71.235 83.6311 71.1763C83.3354 71.1057 83.0456 71.0872 82.7618 71.1209C82.4898 71.1598 82.2332 71.2619 81.9918 71.4273C81.7624 71.5979 81.5731 71.8566 81.4237 72.2034C81.3465 72.3828 81.3701 72.5418 81.4947 72.6805C81.6363 72.8124 81.8387 72.935 82.1018 73.0483C82.3769 73.1668 82.6844 73.2921 83.0244 73.4244C83.3815 73.5498 83.7395 73.6898 84.0982 73.8443C84.457 73.9988 84.7909 74.1781 85.1 74.3821C85.4143 74.5741 85.6609 74.8079 85.84 75.0835C86.0361 75.3523 86.1416 75.667 86.1563 76.0278C86.1711 76.3886 86.0575 76.8004 85.8156 77.2633C85.6663 77.6102 85.423 77.8953 85.0858 78.1186C84.7605 78.3472 84.3909 78.5141 83.977 78.6193C83.5802 78.7178 83.1681 78.753 82.7407 78.7249C82.3133 78.6968 81.9339 78.5901 81.6026 78.4049C81.4642 78.3311 81.2823 78.2103 81.057 78.0423C80.8487 77.8675 80.6507 77.6689 80.463 77.4463C80.2873 77.2288 80.1518 77.0003 80.0565 76.7608C79.9663 76.5093 79.9727 76.264 80.0757 76.0248ZM87.508 75.9507C87.6625 75.5919 87.9102 75.2308 88.2511 74.8672C88.5971 74.4916 88.9815 74.1752 89.4042 73.9177C89.8441 73.6535 90.2855 73.4679 90.7285 73.361C91.1887 73.2473 91.6041 73.2702 91.9748 73.4299C92.1781 73.5174 92.3574 73.6443 92.5127 73.8104C92.68 73.9816 92.8224 74.1777 92.9399 74.3984C93.0746 74.6124 93.1751 74.8399 93.2414 75.0811C93.3247 75.3155 93.3671 75.5464 93.3684 75.7738C93.3697 76.0012 93.3317 76.2046 93.2545 76.384C93.1892 76.5685 93.0744 76.7034 92.9101 76.7886L88.8238 75.8581C88.7708 75.8495 88.7032 75.8912 88.621 75.9834C88.5439 76.0636 88.4599 76.1763 88.369 76.3215C88.2782 76.4667 88.1796 76.6298 88.0733 76.8108C87.984 76.9851 87.8948 77.1593 87.8056 77.3335C87.7216 77.4958 87.6486 77.6487 87.5868 77.7922C87.5302 77.9237 87.4864 78.0254 87.4555 78.0972C87.3113 78.432 87.2706 78.7405 87.3333 79.0228C87.4132 79.2982 87.5555 79.5438 87.7603 79.7595C87.9651 79.9753 88.2152 80.1681 88.5107 80.3379C88.8182 80.5128 89.1274 80.6672 89.4383 80.8011C89.7492 80.9351 90.0474 81.0493 90.3327 81.1438C90.6181 81.2383 90.8505 81.3242 91.0298 81.4015C91.0092 81.4493 90.9681 81.4954 90.9065 81.5398C90.8449 81.5841 90.7773 81.6259 90.7037 81.6651C90.6352 81.6923 90.5668 81.7195 90.4984 81.7468C90.4351 81.7621 90.3949 81.7731 90.3778 81.7799C90.2718 81.7626 90.1069 81.7341 89.883 81.6944C89.6762 81.6479 89.4514 81.5936 89.2088 81.5316C88.978 81.4748 88.7619 81.4172 88.5602 81.3587C88.3586 81.3002 88.2219 81.2555 88.1501 81.2246C87.7485 81.1367 87.4282 80.9917 87.1892 80.7895C86.9502 80.5873 86.7788 80.3434 86.675 80.0577C86.5712 79.772 86.5213 79.4599 86.5253 79.1214C86.5345 78.7709 86.5813 78.4153 86.6657 78.0547C86.7501 77.6941 86.8636 77.3319 87.0061 76.9679C87.1606 76.6092 87.3279 76.2701 87.508 75.9507ZM91.4301 74.0034C91.3225 73.957 91.1532 73.955 90.9223 73.9974C90.7086 74.0329 90.4853 74.1069 90.2526 74.2193C90.037 74.3249 89.8316 74.4562 89.6364 74.6132C89.4583 74.7633 89.3563 74.9179 89.3304 75.0768C89.6259 75.2466 89.9513 75.3797 90.3068 75.476C90.6622 75.5724 90.9981 75.632 91.3144 75.6548C91.6358 75.6656 91.9145 75.6439 92.1505 75.5896C92.3917 75.5233 92.5372 75.4158 92.5871 75.2672C92.6489 75.1237 92.5893 74.9492 92.4085 74.7437C92.2447 74.5314 91.9186 74.2846 91.4301 74.0034Z" fill="#2F2E41"/>
<path d="M66.384 21.9857C64.9868 22.9472 64.1211 24.2882 63.2524 25.729C62.2548 27.3835 61.4134 29.1285 60.5479 30.854C59.6122 32.7194 58.6204 34.5515 57.612 36.3782C56.6032 38.2055 55.5646 40.0212 54.6983 41.922C54.4385 42.4919 54.1959 43.1693 53.8166 43.6719" stroke="#2F2E41" stroke-width="0.7" stroke-linecap="round"/>
<path d="M65.5857 22.8515C64.7823 23.4044 63.9618 23.9384 63.1755 24.5153C62.6365 24.9108 62.1784 25.3901 61.6657 25.8162C61.295 26.1243 60.9128 26.4174 60.5469 26.7315C60.2797 26.9609 60.0153 27.2034 59.7252 27.403C59.6395 27.462 59.5506 27.4996 59.4644 27.5589" stroke="#2F2E41" stroke-width="0.7" stroke-linecap="round"/>
<path d="M66.1236 22.4342C66.145 22.5082 66.103 22.6224 66.0891 22.6924C66.0112 23.0858 65.9293 23.4779 65.8587 23.8727C65.6962 24.7809 65.5479 25.6915 65.3821 26.5991C65.1972 27.6113 65.0338 28.6242 64.7876 29.6241C64.7255 29.8763 64.6815 30.1405 64.5986 30.3868C64.557 30.5104 64.5124 30.6378 64.4751 30.7613C64.4366 30.8887 64.3581 31.008 64.3337 31.1402" stroke="#2F2E41" stroke-width="0.7" stroke-linecap="round"/>
</svg>
