<svg width="19" height="20" viewBox="0 0 19 20" fill="none" xmlns="http://www.w3.org/2000/svg">
<path d="M9.04677 20C10.2905 20 11.4577 19.7649 12.5484 19.2946C13.639 18.8242 14.6007 18.1716 15.4335 17.3367C16.2662 16.5018 16.9188 15.539 17.3913 14.4483C17.8639 13.3576 18.1001 12.1926 18.1001 10.9533C18.1001 9.71396 17.8639 8.54896 17.3913 7.45828C16.9188 6.36761 16.2651 5.40481 15.4302 4.56988C14.5953 3.73497 13.6325 3.08235 12.5418 2.61202C11.4511 2.14169 10.2839 1.90653 9.04019 1.90653C7.80086 1.90653 6.63565 2.14169 5.54454 2.61202C4.45344 3.08235 3.49283 3.73497 2.66272 4.56988C1.83261 5.40481 1.1813 6.36761 0.708785 7.45828C0.236262 8.54896 0 9.71396 0 10.9533C0 12.1926 0.236262 13.3576 0.708785 14.4483C1.1813 15.539 1.83371 16.5018 2.66601 17.3367C3.4983 18.1716 4.46 18.8242 5.55111 19.2946C6.64222 19.7649 7.80744 20 9.04677 20ZM9.04677 18.0155C8.07053 18.0155 7.15589 17.8333 6.30283 17.4687C5.44976 17.1042 4.70124 16.5988 4.05726 15.9527C3.41328 15.3065 2.90881 14.5558 2.54385 13.7005C2.17891 12.8453 1.99644 11.9295 1.99644 10.9533C1.99644 9.97707 2.17782 9.06133 2.54058 8.20607C2.90333 7.35081 3.4067 6.60009 4.05068 5.95392C4.69466 5.30774 5.44319 4.80239 6.29626 4.43786C7.14931 4.07333 8.06396 3.89107 9.04019 3.89107C10.0208 3.89107 10.9376 4.07333 11.7907 4.43786C12.6438 4.80239 13.3934 5.30774 14.0395 5.95392C14.6857 6.60009 15.1922 7.35081 15.5589 8.20607C15.9256 9.06133 16.109 9.97707 16.109 10.9533C16.109 11.9295 15.9267 12.8453 15.5622 13.7005C15.1977 14.5558 14.6934 15.3065 14.0494 15.9527C13.4054 16.5988 12.6558 17.1042 11.8006 17.4687C10.9453 17.8333 10.0274 18.0155 9.04677 18.0155ZM7.98917 2.57903H10.101V1.07217C10.101 0.772939 9.99845 0.51944 9.79338 0.311671C9.58832 0.103891 9.33832 0 9.04341 0C8.75859 0 8.51167 0.103891 8.30267 0.311671C8.09367 0.51944 7.98917 0.772939 7.98917 1.07217V2.57903ZM14.714 4.36341L16.1425 5.89875L17.0707 4.96903C17.3109 4.73112 17.431 4.46863 17.431 4.18156C17.431 3.90149 17.3327 3.66294 17.1363 3.46592C16.9399 3.26888 16.6991 3.17037 16.4138 3.17037C16.1007 3.17037 15.831 3.27802 15.6049 3.49332L14.714 4.36341ZM9.04677 12.5242C9.48093 12.5242 9.84956 12.3716 10.1527 12.0663C10.4558 11.761 10.6073 11.3926 10.6073 10.9611C10.6073 10.6694 10.5344 10.4035 10.3885 10.1636C10.2427 9.9236 10.0453 9.73501 9.79632 9.59782V5.79687C9.79632 5.58568 9.72331 5.40728 9.5773 5.26167C9.43127 5.11607 9.25224 5.04327 9.04019 5.04327C8.8298 5.04327 8.6527 5.11607 8.50888 5.26167C8.36506 5.40728 8.29315 5.58568 8.29315 5.79687V9.59529C8.05074 9.73249 7.85565 9.92128 7.70787 10.1617C7.56008 10.4021 7.48619 10.6686 7.48619 10.9611C7.48619 11.3918 7.63753 11.7599 7.94022 12.0656C8.24291 12.3714 8.61176 12.5242 9.04677 12.5242Z" fill="#2F2E41"/>
</svg>
